<svg width="16" height="16" viewBox="0 0 16 16" fill="none" xmlns="http://www.w3.org/2000/svg">
<path d="M0.600586 5.00024V11.8002C0.600586 12.2734 0.771786 12.7022 1.04659 13.045L5.75259 9.29384L0.600586 5.00024Z" fill="#D0D5DA"/>
<path d="M14.954 13.045C15.2288 12.7026 15.4 12.2734 15.4 11.8002V5.00024L10.248 9.29344L14.954 13.045Z" fill="#D0D5DA"/>
<path d="M11.036 8.16184L8.77881 10.3578C8.98201 10.2794 9.17961 10.1742 9.36241 10.0322L10.2488 9.29344L15.4008 5.00024L11.14 7.93584C11.1084 8.01104 11.076 8.08624 11.036 8.16184Z" fill="#AFB7C0"/>
<path d="M6.59219 9.99304C5.98459 9.49264 5.33139 8.85064 4.96539 8.16144C4.92539 8.08624 4.89299 8.01064 4.86139 7.93544L0.600586 5.00024L5.75259 9.29344L6.59219 9.99304Z" fill="#AFB7C0"/>
<path d="M9.3619 10.0323C9.1791 10.1739 8.9815 10.2791 8.7783 10.3579L8.3395 10.7847C8.1331 10.9211 7.8671 10.9211 7.6607 10.7847C7.3959 10.6099 7.0039 10.3331 6.5915 9.99306L5.7519 9.29346L1.0459 13.0447C1.4123 13.5015 1.9687 13.7999 2.5999 13.7999H13.3999C14.0311 13.7999 14.5875 13.5015 14.9539 13.0447L10.2479 9.29346L9.3619 10.0323Z" fill="#E5E9EE"/>
<path d="M13.4006 2.2002H2.60059C1.49619 2.2002 0.600586 3.0958 0.600586 4.2002V5.0002L4.86139 7.9358C4.25299 6.489 5.16899 5.1134 6.36419 5.1134C7.08099 5.1134 7.51259 5.4878 7.75099 5.8098C7.87659 5.9794 8.12499 5.9794 8.25059 5.8098C8.48899 5.4878 8.92059 5.1134 9.63739 5.1134C10.8326 5.1134 11.7482 6.489 11.1402 7.9358L15.401 5.0002V4.2002C15.401 3.0958 14.505 2.2002 13.4006 2.2002Z" fill="#E5E9EE"/>
<path d="M4.96478 8.16177C5.33078 8.85057 5.98398 9.49257 6.59158 9.99337C7.00398 10.3334 7.39598 10.6098 7.66078 10.785C7.86718 10.9214 8.13318 10.9214 8.33958 10.785L8.77838 10.3582L11.0356 8.16217C11.0756 8.08697 11.108 8.01137 11.1396 7.93617C11.748 6.48937 10.832 5.11377 9.63678 5.11377C8.91998 5.11377 8.48838 5.48817 8.24998 5.81017C8.12438 5.97977 7.87598 5.97977 7.75038 5.81017C7.51198 5.48817 7.08038 5.11377 6.36358 5.11377C5.16838 5.11377 4.25278 6.48937 4.86078 7.93617C4.89238 8.01137 4.92478 8.08657 4.96478 8.16217V8.16177Z" fill="#EC4452"/>
</svg>
