<?xml version="1.0" encoding="UTF-8"?><svg id="Layer_1" xmlns="http://www.w3.org/2000/svg" viewBox="0 0 566.929 566.929"><defs><style>.cls-1{fill:#ef3f3f;stroke:#a71e22;stroke-miterlimit:10;stroke-width:5px;}.cls-2{fill:#fff;}.cls-3{fill:#f4898b;}</style></defs><path class="cls-2" d="M381.809,359.57c17.546-19.257,28.06-43.766,28.06-70.458,0-61.944-56.593-112.16-126.404-112.16s-126.405,50.216-126.405,112.16,56.593,112.161,126.405,112.161c25.615,0,49.445-6.767,69.358-18.387l34.423,8.46c3.03.745,5.442-3.162,4.112-6.66l-9.549-25.116Z"/><path class="cls-1" d="M291.19,364.053l58.183-58.467c10.732-9.182,17.274-23.12,16.326-38.557-1.437-23.396-20.341-42.327-43.734-43.799-15.401-.969-29.305,5.526-38.501,16.195-9.196-10.669-23.1-17.164-38.502-16.195-23.393,1.472-42.297,20.404-43.733,43.8-.948,15.437,5.594,29.375,16.326,38.556l58.185,58.467c4.26,4.281,11.189,4.281,15.45,0Z"/><path class="cls-2" d="M276.387,284.64h5.438v-13.519c0-3.262,2.644-5.906,5.906-5.906h.001c3.262,0,5.906,2.644,5.906,5.906v38.72c0,3.262-2.644,5.906-5.906,5.906h-.001c-3.262,0-5.906-2.644-5.906-5.906v-16.012h-18.375v16.012c0,3.262-2.644,5.906-5.906,5.906h0c-3.262,0-5.906-2.644-5.906-5.906v-38.72c0-3.262,2.644-5.906,5.906-5.906h0c3.262,0,5.906,2.644,5.906,5.906v13.519h12.937"/><path class="cls-2" d="M309.056,315.747h0c-3.443,0-6.235-2.791-6.235-6.235v-38.063c0-3.443,2.791-6.235,6.235-6.235h0c3.443,0,6.235,2.791,6.235,6.235v38.063c0,3.443-2.791,6.235-6.235,6.235Z"/><rect class="cls-3" x="319.709" y="240.63" width="25.55" height="9.91" rx="3.904" ry="3.904" transform="translate(372.394 -165.833) rotate(59.09)"/><rect class="cls-3" x="311.489" y="253.666" width="25.55" height="9.91" rx="3.904" ry="3.904" transform="translate(379.581 -152.441) rotate(59.09)"/></svg>