<?xml version="1.0" encoding="UTF-8"?><svg id="Layer_1" xmlns="http://www.w3.org/2000/svg" viewBox="0 0 289.607 264.604"><defs><style>.cls-1{fill:#fff;}.cls-2{fill:#eb4335;stroke:#a61e22;stroke-miterlimit:10;stroke-width:5px;}</style></defs><path class="cls-1" d="M243.148,202.76c17.546-19.257,28.06-43.766,28.06-70.458,0-61.944-56.593-112.16-126.404-112.16S18.399,70.358,18.399,132.302s56.593,112.161,126.405,112.161c25.615,0,49.445-6.767,69.358-18.387l34.423,8.46c3.03.745,5.442-3.162,4.112-6.66l-9.549-25.116Z"/><path class="cls-2" d="M172.772,186.588l32.783-32.943c10.011-8.565,16.113-21.566,15.229-35.966-1.34-21.823-18.974-39.483-40.795-40.856-14.366-.904-27.335,5.155-35.913,15.106-8.578-9.952-21.547-16.011-35.914-15.106-21.821,1.373-39.454,19.033-40.794,40.856-.884,14.4,5.218,27.4,15.229,35.965l32.785,32.943c15.826,15.902,41.566,15.902,57.391,0Z"/><path class="cls-1" d="M137.726,127.83h5.438v-13.519c0-3.262,2.644-5.906,5.906-5.906h.001c3.262,0,5.906,2.644,5.906,5.906v38.72c0,3.262-2.644,5.906-5.906,5.906h-.001c-3.262,0-5.906-2.644-5.906-5.906v-16.012h-18.375v16.012c0,3.262-2.644,5.906-5.906,5.906h0c-3.262,0-5.906-2.644-5.906-5.906v-38.72c0-3.262,2.644-5.906,5.906-5.906h0c3.262,0,5.906,2.644,5.906,5.906v13.519h12.937"/><path class="cls-1" d="M170.395,158.937h0c-3.443,0-6.235-2.791-6.235-6.235v-38.063c0-3.443,2.791-6.235,6.235-6.235h0c3.443,0,6.235,2.791,6.235,6.235v38.063c0,3.443-2.791,6.235-6.235,6.235Z"/></svg>