<svg width="14" height="15" viewBox="0 0 14 15" fill="none" xmlns="http://www.w3.org/2000/svg">
<path d="M1.71143 3.89014L2.07673 13.1897C2.10285 13.8505 2.64612 14.373 3.30734 14.373H11.4833C12.1445 14.373 12.6878 13.8505 12.7139 13.1897L13.0792 3.89014H1.71143Z" fill="#6B7683"/>
<path d="M1.78613 5.78931L2.07675 13.1897C2.10287 13.8505 2.64613 14.373 3.30736 14.373H11.4833C12.1445 14.373 12.6878 13.8505 12.7139 13.1897L13.0045 5.78931H1.78613Z" fill="#8A94A0"/>
<path d="M5.98184 11.5666C5.70837 11.5666 5.48633 11.345 5.48633 11.0711V7.64541C5.48633 7.37154 5.70837 7.1499 5.98184 7.1499C6.25531 7.1499 6.47735 7.37154 6.47735 7.64541V11.0711C6.47735 11.345 6.25531 11.5666 5.98184 11.5666Z" fill="#4B596A"/>
<path d="M8.80948 11.5666C8.53601 11.5666 8.31396 11.345 8.31396 11.0711V7.64541C8.31396 7.37154 8.53601 7.1499 8.80948 7.1499C9.08294 7.1499 9.30499 7.37154 9.30499 7.64541V11.0711C9.30499 11.345 9.08294 11.5666 8.80948 11.5666Z" fill="#4B596A"/>
<path d="M10.1826 3.00571C9.90911 3.00571 9.68707 2.78408 9.68707 2.5102V1.86367C9.68707 1.38245 9.29564 0.990612 8.81442 0.990612H5.97891C5.49768 0.990612 5.10625 1.38245 5.10625 1.86367V2.5102C5.10625 2.78408 4.88421 3.00571 4.61074 3.00571C4.33728 3.00571 4.11523 2.78408 4.11523 2.5102V1.86367C4.11523 0.83551 4.95156 0 5.97932 0H8.81483C9.84258 0 10.6789 0.835918 10.6789 1.86367V2.5102C10.6789 2.78408 10.4569 3.00571 10.1834 3.00571H10.1826Z" fill="#4B596A"/>
<path d="M13.2112 2.50781H1.44307C1.1029 2.50781 0.827148 2.78357 0.827148 3.12373V3.94455C0.827148 4.28471 1.1029 4.56047 1.44307 4.56047H13.2112C13.5514 4.56047 13.8271 4.28471 13.8271 3.94455V3.12373C13.8271 2.78357 13.5514 2.50781 13.2112 2.50781Z" fill="#8A94A0"/>
</svg>
