<svg width="205" height="137" viewBox="0 0 205 137" fill="none" xmlns="http://www.w3.org/2000/svg">
<path d="M30.369 103.468L69.426 60.5592V2.68726H0.679688V35.1659L42.8657 30.5744L0.679688 111.471V134.313H69.426V101.153L30.369 103.468Z" fill="#EA4435"/>
<path d="M125.073 2.68726H77.1401L86.0932 60.7235L76.0312 134.313H121.134L117.34 69.7228L125.073 2.68726Z" fill="#547DBF"/>
<path d="M204.315 65.1555V2.68726H182.952L186.824 65.1555H204.315Z" fill="#33A851"/>
<path d="M204.315 93.3133L169.945 68.5L135.569 88.891V134.313H162.785L170.031 96.479L176.082 134.313H204.315V93.3133Z" fill="#F8AB1A"/>
<path d="M135.569 31.3574V56.9101L156.117 61.028C156.084 39.5254 152.429 32.8363 135.569 31.3525V31.3574Z" fill="#547DBF"/>
<path d="M156.108 2.68726H135.569V30.6566C151.976 29.2163 155.881 22.8414 156.108 2.68726Z" fill="#EA4435"/>
<path d="M176.67 30.6566V2.68726H156.132C156.358 22.8414 160.263 29.2115 176.67 30.6566Z" fill="#F8AB1A"/>
<path d="M176.67 31.3574C159.81 32.8364 156.151 39.5254 156.122 61.0329L176.67 65.1507V31.3574Z" fill="#33A851"/>
<path d="M176.67 31.3574V30.6517C160.264 29.2114 156.358 22.8365 156.132 2.68237H156.108C155.881 22.8365 151.976 29.2066 135.569 30.6517V31.3574C152.429 32.8363 156.088 39.5253 156.117 61.0328C156.151 39.5302 159.806 32.8411 176.666 31.3574H176.67Z" fill="white"/>
</svg>
