<svg width="61" height="61" viewBox="0 0 61 61" fill="none" xmlns="http://www.w3.org/2000/svg">
<path d="M37.9279 45.8984L39.1411 51.2393C39.3834 52.2103 40.112 52.9389 40.8407 53.1812L45.4529 55.123C46.4239 55.3653 46.1816 56.8226 45.2106 56.8226H36.0437C35.249 56.8226 34.7389 56.0279 35.0151 55.2823C35.5641 53.8047 35.7844 51.7324 35.4591 50.753L34.7305 46.8694L37.9279 45.8984Z" fill="#65778B"/>
<path d="M60.9877 15.8373C60.3625 11.4877 56.6211 8.14453 52.0986 8.14453V17.1251H59.8982C60.5793 17.1251 61.0843 16.51 60.9877 15.8373Z" fill="#FA878F"/>
<path d="M56.1507 11.2662L56.1389 11.2629C56.083 7.37579 54.053 3.61581 50.4421 1.53163C44.9809 -1.62173 37.9981 0.250631 34.8464 5.71015L14.1979 41.4749C12.7999 43.8962 14.5418 46.9259 17.3394 46.9344L39.5858 46.9988C48.8205 47.0259 56.0965 39.5957 56.1863 30.361L56.1507 11.2662Z" fill="#EF4452"/>
<path d="M16.4817 41.6709L0.296373 57.819C-0.252629 58.3663 -0.00185052 59.3101 0.743707 59.5219C10.6461 62.3262 16.6902 52.9424 20.8941 42.8502" fill="#EF4452"/>
<path d="M49.4979 3.83398C45.8226 3.83398 42.8438 6.81282 42.8438 10.4881C42.8438 14.1633 45.8226 17.1422 49.4979 17.1422H56.152V10.4881C56.152 6.81282 53.1731 3.83398 49.4979 3.83398Z" fill="white"/>
<path d="M50.4824 12.829C51.7757 12.829 52.8241 11.7805 52.8241 10.4872C52.8241 9.19393 51.7757 8.14551 50.4824 8.14551C49.1891 8.14551 48.1406 9.19393 48.1406 10.4872C48.1406 11.7805 49.1891 12.829 50.4824 12.829Z" fill="black"/>
<path d="M39.6367 24.2863C39.5944 21.5007 37.983 18.8183 35.099 17.6543C31.7135 16.2885 27.8349 17.8322 26.0083 20.994L11.0361 46.9276L16.9853 46.9377C29.5056 46.9581 39.6655 36.8134 39.6655 24.2931L39.6367 24.2863Z" fill="#0A9F60"/>
<path d="M39.4402 22.7852C37.9609 33.8736 28.4788 42.4306 16.9836 42.412L13.6473 42.4069L11.0361 46.9294L16.9836 46.9395C29.5039 46.9599 39.6638 36.8152 39.6638 24.2949L39.635 24.2881C39.6266 23.7798 39.552 23.2782 39.4402 22.7852Z" fill="#FFCE00"/>
</svg>
