<svg width="14" height="13" viewBox="0 0 14 13" fill="none" xmlns="http://www.w3.org/2000/svg">
<path d="M6.62175 0C2.96465 0 0 2.654 0 5.92779C0 7.23473 0.476388 8.43989 1.27819 9.41916C1.57181 9.77786 1.70614 10.2406 1.6176 10.6954L1.25624 12.5484C1.1957 12.8594 1.52111 13.1027 1.80225 12.9563L4.00181 11.8113C4.31246 11.6497 4.67004 11.5971 5.01172 11.6747C5.52708 11.7916 6.0659 11.8556 6.62175 11.8556C10.2788 11.8556 13.2435 9.20158 13.2435 5.92779C13.2435 2.654 10.2788 0 6.62175 0Z" fill="#E2E5E8"/>
<path d="M3.87993 5.37598C4.28934 5.37598 4.62081 5.70782 4.62081 6.11686C4.62081 6.31324 4.54286 6.50167 4.40361 6.64092C4.26475 6.77979 4.07631 6.85811 3.87955 6.85811C3.47014 6.85811 3.13867 6.52627 3.13867 6.11723C3.13867 5.7082 3.47052 5.37635 3.87955 5.37635L3.87993 5.37598Z" fill="#333D4B"/>
<path d="M9.36344 6.85773C9.77261 6.85773 10.1043 6.52603 10.1043 6.11686C10.1043 5.70768 9.77261 5.37598 9.36344 5.37598C8.95426 5.37598 8.62256 5.70768 8.62256 6.11686C8.62256 6.52603 8.95426 6.85773 9.36344 6.85773Z" fill="#333D4B"/>
<path d="M6.62174 6.85773C7.03091 6.85773 7.36262 6.52603 7.36262 6.11686C7.36262 5.70768 7.03091 5.37598 6.62174 5.37598C6.21256 5.37598 5.88086 5.70768 5.88086 6.11686C5.88086 6.52603 6.21256 6.85773 6.62174 6.85773Z" fill="#333D4B"/>
</svg>
