<?xml version="1.0" standalone="no"?>
<!DOCTYPE svg PUBLIC "-//W3C//DTD SVG 20010904//EN"
 "http://www.w3.org/TR/2001/REC-SVG-20010904/DTD/svg10.dtd">
<svg version="1.0" xmlns="http://www.w3.org/2000/svg"
 width="676.000000pt" height="952.000000pt" viewBox="0 0 676.000000 952.000000"
 preserveAspectRatio="xMidYMid meet">

<g transform="translate(0.000000,952.000000) scale(0.100000,-0.100000)"
fill="#000000" stroke="none">
<path d="M0 4760 l0 -4760 3380 0 3380 0 0 4760 0 4760 -3380 0 -3380 0 0
-4760z m1769 4477 c8 -10 7 -36 -4 -97 -8 -46 -13 -85 -11 -87 2 -3 23 1 45 7
81 22 75 -13 -8 -49 l-48 -20 -12 -76 c-6 -42 -11 -84 -11 -95 0 -29 -21 -70
-37 -70 -17 0 -16 30 1 145 8 50 12 94 9 98 -7 11 -43 -2 -78 -27 -104 -77
-167 -94 -187 -52 -10 23 -3 59 27 137 4 11 -4 14 -32 14 -31 0 -38 4 -38 20
0 16 9 21 45 26 25 4 63 12 85 18 62 17 95 14 95 -8 0 -15 -10 -21 -41 -26
-31 -5 -45 -14 -60 -39 -21 -35 -41 -97 -33 -105 2 -3 46 16 97 42 51 26 99
47 109 47 17 0 30 44 43 145 9 68 20 81 44 52z m416 -6 c3 -10 3 -24 1 -32 -2
-8 -7 -26 -10 -41 -6 -27 -5 -28 39 -28 52 0 64 -25 18 -36 -58 -12 -70 -22
-83 -68 -7 -25 -19 -51 -26 -57 -12 -9 -14 -3 -14 37 0 48 27 220 36 236 9 15
33 8 39 -11z m469 -26 c5 -14 -3 -70 -44 -280 -27 -143 -28 -145 -51 -145 -10
0 -19 3 -19 8 0 34 68 410 77 425 7 12 31 8 37 -8z m-2215 -21 c42 -53 22
-115 -66 -205 l-55 -56 46 -7 c32 -5 52 -15 67 -34 l21 -27 -104 -6 c-108 -6
-120 -2 -132 37 -5 17 10 40 71 108 101 113 127 146 122 150 -10 10 -85 -26
-115 -55 -28 -27 -36 -30 -49 -19 -8 7 -15 17 -15 23 0 23 55 80 94 98 58 26
90 24 115 -7z m207 -16 c25 -25 29 -37 28 -86 0 -72 -25 -147 -65 -195 -36
-44 -70 -48 -114 -13 -27 22 -30 29 -29 83 0 33 8 75 19 98 10 22 26 60 35 85
27 74 73 84 126 28z m263 16 c11 -14 23 -34 26 -44 9 -29 -31 -99 -92 -161
l-55 -56 46 -7 c32 -5 52 -15 66 -33 11 -14 19 -27 18 -29 -2 -1 -50 -4 -108
-6 l-105 -3 -13 28 c-16 33 -10 43 112 175 42 45 76 86 76 91 0 6 -13 6 -32 0
-18 -5 -34 -9 -35 -9 -2 0 -21 -16 -43 -36 -33 -30 -43 -34 -55 -24 -8 7 -15
17 -15 23 0 23 55 80 94 98 58 26 90 24 115 -7z m201 6 c6 -11 15 -19 21 -17
6 1 16 -6 22 -15 9 -13 4 -49 -23 -160 -18 -79 -37 -146 -40 -151 -3 -4 -15
-1 -26 7 -14 11 -19 26 -18 59 l1 45 -37 -5 c-30 -4 -41 -1 -59 18 -39 42 -29
67 69 177 58 66 73 73 90 42z m826 -40 c7 -7 19 -7 35 -1 29 11 74 4 88 -13 7
-8 7 -24 1 -44 -7 -25 -6 -32 6 -32 8 0 14 -7 14 -15 0 -17 -16 -20 -25 -5 -3
5 -33 -13 -66 -40 -33 -28 -66 -50 -73 -50 -10 0 -15 25 -18 98 -3 53 -3 100
-1 105 6 10 27 9 39 -3z m628 1 c7 -11 -22 -179 -35 -203 -16 -30 -29 -11 -29
43 l0 49 -25 -16 c-18 -12 -23 -22 -19 -39 8 -33 -14 -41 -42 -14 l-24 23 -30
-35 c-16 -19 -32 -42 -35 -51 -6 -18 -55 -26 -55 -10 0 7 21 39 98 146 18 25
30 46 27 46 -3 0 -28 -11 -55 -25 -61 -31 -72 -31 -68 -3 2 16 21 32 67 56 78
40 115 40 119 -1 2 -16 -2 -35 -9 -43 -22 -27 -3 -24 33 6 20 16 39 41 42 55
6 24 29 34 40 16z m-464 -207 c0 -3 -5 -14 -10 -24 -9 -17 -4 -22 32 -41 99
-50 55 -77 -60 -36 -33 11 -35 11 -72 -33 -30 -35 -41 -42 -51 -33 -10 10 -6
21 15 53 47 71 97 120 122 120 13 0 24 -3 24 -6z m-1725 -531 c32 -35 31 -45
-4 -211 -43 -198 -49 -232 -44 -232 2 0 25 12 51 27 25 15 57 27 71 28 22 0
28 8 43 59 10 32 37 102 60 155 66 151 80 165 113 114 19 -28 17 -80 -6 -236
l-11 -72 -168 -105 c-92 -58 -173 -113 -179 -123 -6 -9 -14 -48 -17 -85 -9
-123 -20 -139 -74 -111 -46 24 -54 43 -52 124 3 153 26 278 82 445 10 30 21
71 25 90 10 47 62 160 74 160 6 0 22 -12 36 -27z m948 -315 c23 -146 7 -224
-66 -333 -61 -91 -115 -128 -169 -118 -36 7 -93 66 -115 119 l-17 41 -44 -66
c-85 -127 -114 -143 -171 -96 -46 39 -71 88 -82 160 -13 79 -12 81 79 131 37
21 78 44 91 53 23 15 23 15 16 -20 -4 -18 -18 -69 -32 -111 -14 -43 -23 -83
-21 -89 5 -15 131 133 182 214 20 31 43 57 51 57 32 0 45 -52 38 -160 -6 -101
-6 -102 14 -91 27 14 74 74 103 128 30 58 50 138 50 200 0 47 3 54 28 67 15 8
32 15 38 16 6 0 18 -45 27 -102z m1989 47 c65 -44 65 -90 -7 -403 -4 -15 -20
-29 -51 -42 -69 -30 -74 -28 -74 34 0 47 22 198 36 251 7 26 -113 -151 -152
-224 -38 -73 -68 -111 -86 -111 -24 0 -96 39 -110 59 -11 15 -15 16 -26 5 -7
-8 -12 -16 -11 -20 0 -3 -2 -8 -5 -11 -3 -4 -6 16 -6 42 0 39 8 62 39 114 21
36 49 97 62 135 27 77 47 94 93 76 28 -10 29 -12 23 -63 -4 -28 -9 -63 -12
-77 -4 -17 1 -12 17 16 35 62 57 89 127 157 35 34 69 67 75 74 16 18 27 16 68
-12z m-92 11 c0 -3 -4 -8 -10 -11 -5 -3 -10 -1 -10 4 0 6 5 11 10 11 6 0 10
-2 10 -4z m-2445 -36 c-3 -5 -16 -15 -28 -21 -22 -12 -22 -12 -3 10 19 21 43
30 31 11z m1286 -20 c31 -27 32 -31 22 -65 l-11 -35 51 45 c29 25 55 45 60 45
17 0 59 -35 72 -60 11 -21 13 -49 8 -115 l-6 -87 29 15 c46 24 70 50 78 82 18
74 116 165 178 165 30 0 81 -22 110 -48 16 -13 20 -12 38 9 l21 24 -6 -55 c-3
-30 -10 -111 -16 -180 -6 -69 -15 -126 -20 -128 -5 -2 -6 -21 -3 -43 5 -27 3
-39 -5 -39 -16 0 -44 68 -43 104 l1 29 -28 -27 c-61 -58 -136 -47 -202 32
l-33 40 -34 -29 c-18 -16 -41 -29 -51 -29 -10 0 -37 20 -60 45 -39 42 -41 48
-41 106 0 73 -7 71 -69 -22 -43 -64 -83 -163 -102 -251 -7 -36 -17 -58 -26
-58 -7 0 -31 16 -53 36 -35 32 -40 42 -40 80 0 52 -11 62 -36 29 -22 -30 -34
-32 -34 -6 0 11 -5 21 -11 23 -7 2 9 36 39 81 30 46 58 102 68 139 21 78 39
115 72 151 33 34 43 34 83 -3z m-287 5 c29 -29 26 -54 -22 -206 -52 -162 -66
-254 -37 -243 8 3 15 10 15 15 0 5 5 9 10 9 19 0 10 -28 -11 -33 -12 -3 -18
-10 -14 -17 5 -8 10 -8 20 0 8 7 16 7 19 2 6 -10 -23 -39 -33 -33 -3 2 -23 12
-44 22 -41 21 -59 54 -59 107 l0 34 -21 -20 c-53 -48 -99 -54 -159 -20 -58 33
-81 77 -81 153 0 71 20 113 76 162 69 60 130 66 201 18 l36 -24 30 44 c33 48
49 54 74 30z m2047 -128 c-3 -61 -13 -83 -43 -89 -13 -3 -30 -8 -39 -12 -14
-6 -15 -1 -8 41 4 26 10 62 14 78 5 23 4 26 -4 15 -6 -8 -11 -23 -11 -32 0
-12 -8 -18 -22 -17 -20 0 -21 1 -5 8 10 4 18 9 17 11 -2 12 23 70 31 70 5 0 8
3 8 8 -5 29 5 30 33 2 28 -28 31 -38 29 -83z m-132 76 c35 -31 39 -43 13 -43
-10 0 -23 -5 -30 -12 -7 -7 -12 -8 -12 -3 0 5 -13 -4 -30 -20 -16 -16 -30 -25
-30 -20 0 10 -44 -54 -65 -95 -11 -21 -12 -30 -4 -30 13 0 112 69 117 82 2 4
8 8 13 8 11 0 -1 -32 -15 -42 -7 -5 -5 -8 6 -8 9 0 28 14 42 31 29 34 35 27
10 -11 -26 -38 -45 -50 -71 -44 -14 4 -23 2 -23 -6 0 -6 -4 -9 -9 -5 -6 3 -13
-1 -18 -8 -10 -16 -102 -52 -110 -43 -4 3 -13 0 -22 -8 -15 -13 -75 -36 -93
-36 -10 0 20 61 37 75 12 10 19 22 66 120 37 79 116 144 175 145 12 0 36 -12
53 -27z m6 -113 c-3 -5 -12 -10 -18 -10 -7 0 -6 4 3 10 19 12 23 12 15 0z
m-3081 -122 c-8 -62 -36 -180 -46 -200 -12 -24 -27 -22 -38 5 -5 12 -9 19 -9
14 -1 -4 -14 -1 -30 7 -29 15 -41 50 -41 122 0 28 3 30 28 27 19 -3 42 6 77
31 28 19 53 35 58 35 4 1 5 -18 1 -41z m1186 -113 c0 -8 -7 -15 -15 -15 -11 0
-13 -8 -10 -32 l5 -33 -12 32 c-8 25 -8 36 2 48 16 19 30 19 30 0z m15 -35
c-3 -5 -10 -10 -16 -10 -5 0 -9 5 -9 10 0 6 7 10 16 10 8 0 12 -4 9 -10z
m1905 -70 c0 -38 -94 -186 -147 -229 -55 -46 -131 -81 -175 -81 l-37 0 22 38
c35 60 176 195 252 240 74 44 85 48 85 32z m2298 -12 c7 -7 12 -22 12 -35 0
-20 5 -22 57 -25 31 -2 58 -8 60 -14 2 -7 -2 -11 -9 -11 -7 1 -38 -2 -69 -6
l-57 -8 -20 -67 c-24 -78 -36 -132 -29 -132 3 0 20 24 38 52 49 81 76 94 119
60 19 -15 21 -22 12 -39 -6 -11 -25 -26 -42 -33 -19 -8 -30 -20 -30 -32 0 -20
0 -20 33 0 17 11 41 38 53 59 27 50 66 73 95 55 18 -11 24 -11 40 4 36 33 43
4 18 -75 -19 -59 -21 -75 -11 -91 18 -30 -13 -26 -33 3 -11 18 -22 23 -43 20
-15 -3 -36 2 -46 10 -18 13 -24 12 -58 -10 l-38 -25 -39 19 -40 20 -12 -29
c-15 -37 -44 -36 -64 2 -19 37 -19 93 0 155 13 46 13 49 -5 62 -28 20 -25 30
11 38 20 5 34 16 40 33 19 49 36 61 57 40z m-2688 -18 c0 -5 -10 -10 -22 -10
-19 0 -20 2 -8 10 19 13 30 13 30 0z m50 -15 c0 -3 -20 -30 -44 -60 -25 -30
-57 -75 -71 -100 -15 -25 -29 -45 -31 -45 -2 0 -8 9 -14 20 -16 31 20 90 87
144 54 43 73 53 73 41z m779 -9 c19 -22 -15 -135 -43 -146 -68 -25 -67 -25
-51 19 12 35 12 39 -1 34 -8 -3 -20 0 -28 6 -10 8 -17 7 -28 -7 -21 -23 -48
-77 -48 -95 0 -14 -48 -42 -57 -33 -8 7 25 123 47 166 27 53 60 69 95 46 14
-10 30 -27 35 -39 5 -12 9 -17 9 -12 2 16 40 75 50 75 5 0 14 -6 20 -14z m621
-146 c-11 -56 -19 -107 -17 -113 2 -6 16 14 30 46 33 69 67 95 105 81 39 -14
37 -53 -5 -79 -34 -21 -47 -41 -34 -49 13 -8 81 46 81 64 0 22 52 70 76 70 11
0 25 -5 32 -12 9 -9 15 -8 26 8 12 15 17 17 27 6 11 -10 11 -21 -1 -60 -19
-68 -24 -122 -11 -122 6 0 10 6 8 13 -1 6 4 11 11 9 8 -1 11 2 7 7 -8 14 53
119 77 132 11 6 30 8 42 5 20 -5 25 0 35 35 8 25 20 43 34 48 12 5 23 7 25 6
2 -2 -6 -37 -17 -77 -23 -80 -27 -148 -10 -148 5 0 8 4 5 9 -3 5 5 34 19 66
19 41 30 55 43 53 13 -3 17 -14 16 -51 0 -26 1 -47 3 -47 2 0 15 25 29 56 24
56 46 67 52 27 3 -18 8 -15 45 24 29 30 47 42 59 38 24 -9 27 -36 13 -112 -7
-37 -12 -69 -11 -70 2 -2 20 28 40 66 40 72 70 96 99 79 20 -11 22 -28 4 -28
-16 0 -57 -37 -57 -51 0 -5 11 -2 24 6 33 22 41 3 11 -25 -15 -14 -32 -21 -44
-17 -16 4 -26 -5 -46 -39 -29 -50 -37 -52 -66 -23 -18 18 -20 28 -14 78 6 53
6 55 -10 34 -9 -13 -22 -20 -30 -17 -8 4 -15 1 -15 -6 0 -6 5 -8 10 -5 14 9
12 -1 -5 -35 -17 -33 -26 -36 -56 -19 -17 8 -23 7 -34 -7 -11 -16 -16 -17 -41
-6 -23 11 -29 11 -36 -2 -14 -25 -39 -19 -51 13 l-11 29 -19 -24 c-22 -29 -48
-31 -71 -5 -18 19 -18 19 -40 -6 -25 -29 -61 -26 -71 6 -4 13 -13 16 -36 13
-19 -3 -36 2 -49 13 -18 17 -21 16 -51 -9 -31 -26 -49 -27 -89 -5 -10 5 -21 0
-36 -19 -19 -24 -24 -25 -48 -15 -14 7 -28 23 -32 37 -4 17 -11 22 -25 19 -25
-7 -49 14 -49 43 0 13 -4 24 -9 24 -9 0 -61 -110 -61 -129 0 -16 -10 -14 -32
6 -10 9 -18 25 -18 36 0 18 -2 19 -17 5 -10 -8 -26 -18 -36 -21 -19 -7 -68 8
-78 25 -5 7 -19 4 -42 -11 -33 -20 -38 -21 -71 -7 -35 15 -36 14 -42 -10 -7
-28 -35 -32 -55 -8 -10 13 -10 17 2 25 8 5 19 7 26 4 6 -2 13 0 15 5 2 5 20
16 41 25 36 15 37 15 37 -5 0 -18 3 -19 23 -9 12 6 36 24 52 39 17 16 54 38
83 49 48 18 54 18 59 4 4 -11 -2 -22 -16 -32 -55 -40 -64 -48 -60 -60 3 -8 15
-5 38 11 35 23 40 31 63 83 9 21 21 31 41 33 15 2 27 -2 27 -7 0 -8 7 -7 20 1
16 11 22 9 34 -7 9 -11 16 -32 16 -47 0 -16 4 -28 10 -28 14 0 25 27 39 93 11
51 17 60 44 72 18 7 33 12 35 10 2 -1 -7 -49 -18 -105z m628 52 c-2 -9 -11
-18 -21 -20 -19 -4 -32 20 -23 43 8 22 48 0 44 -23z m1191 -40 c6 -12 6 -33 1
-58 -15 -61 -12 -67 15 -37 30 35 32 20 2 -31 -27 -49 -40 -53 -67 -26 -16 16
-21 31 -18 56 2 19 3 34 1 34 -1 0 -12 -18 -23 -39 -11 -22 -24 -43 -30 -46
-16 -10 -40 14 -40 39 -1 21 -1 21 -12 1 -36 -67 -37 -68 -65 -50 -18 12 -28
14 -36 6 -6 -6 -17 -11 -24 -11 -9 0 -4 14 15 43 15 23 36 61 47 85 10 23 24
42 30 42 20 0 36 -26 28 -46 -6 -16 -5 -17 9 -6 14 11 19 10 36 -8 19 -21 20
-21 26 -3 9 29 55 73 76 73 11 0 24 -8 29 -18z m-832 -59 c-5 -48 -2 -51 25
-26 10 9 21 13 26 9 4 -4 -12 -24 -34 -44 -23 -20 -52 -58 -64 -85 -37 -79
-106 -116 -161 -87 -10 6 -19 19 -19 30 0 21 69 80 94 80 9 0 16 5 16 12 0 6
3 8 7 5 3 -4 -12 -24 -35 -45 -43 -40 -57 -71 -24 -53 27 15 83 77 86 95 1 10
7 21 12 24 14 10 32 59 39 110 6 37 9 41 22 30 11 -9 14 -24 10 -55z m-797
-1110 c35 -24 48 -43 55 -80 4 -23 11 -33 24 -33 10 0 26 -11 35 -25 9 -14 22
-25 29 -25 7 0 17 -10 22 -22 13 -31 48 -34 89 -9 51 32 112 20 166 -31 23
-22 39 -46 37 -52 -6 -15 30 -39 43 -31 6 4 10 0 10 -8 0 -13 12 -18 85 -30
43 -8 124 -73 138 -111 6 -14 13 -17 33 -12 16 4 30 1 39 -8 21 -21 37 -67 27
-80 -4 -6 -9 -24 -11 -39 -2 -25 0 -28 18 -22 16 5 23 1 30 -17 4 -13 6 -29 4
-36 -10 -25 8 -62 36 -77 16 -8 32 -23 35 -32 4 -10 25 -29 48 -43 65 -39 108
-79 101 -96 -3 -8 -1 -14 3 -14 5 0 10 -12 10 -27 1 -16 5 -41 10 -58 13 -51
10 -201 -5 -219 -8 -9 -9 -16 -3 -16 20 0 23 -56 7 -98 -14 -35 -15 -53 -5
-137 10 -83 9 -99 -4 -120 -8 -12 -20 -54 -27 -91 -6 -38 -16 -79 -22 -91 -7
-17 -6 -28 7 -47 20 -32 20 -33 -5 -39 -11 -3 -23 -15 -26 -26 -3 -11 -14 -23
-24 -26 -26 -9 -24 -28 7 -58 47 -48 43 -153 -9 -205 -34 -35 -69 -62 -79 -62
-5 0 -6 -9 -3 -20 4 -13 -1 -30 -14 -46 -12 -15 -21 -33 -21 -41 0 -11 -5 -11
-30 2 -59 31 -102 -4 -190 -153 -30 -50 -47 -69 -54 -62 -16 16 -67 12 -88 -7
-14 -12 -18 -31 -18 -83 0 -56 -4 -73 -29 -112 -16 -25 -34 -49 -40 -52 -7 -5
-10 142 -10 476 -1 656 -23 1215 -50 1268 -4 8 -19 22 -34 30 -20 11 -30 12
-51 2 -41 -18 -49 -54 -37 -152 23 -180 49 -1472 34 -1690 l-6 -85 -81 -61
c-104 -79 -111 -82 -103 -58 28 87 46 165 47 194 l0 34 -42 -41 c-55 -52 -111
-74 -134 -51 -14 14 -14 19 8 54 33 53 95 211 86 220 -2 2 -15 -7 -29 -19 -34
-30 -70 -50 -77 -42 -3 3 8 32 26 65 42 76 61 139 67 225 4 56 3 65 -6 45 -38
-87 -65 -133 -88 -149 -57 -39 -190 -67 -206 -42 -3 5 2 16 10 24 13 14 6 15
-66 14 -79 0 -81 0 -116 35 -37 37 -37 58 0 58 28 0 14 12 -50 44 -53 27 -227
86 -253 86 -8 0 -37 5 -65 12 l-50 11 -2 156 c-4 214 -6 241 -20 241 -7 0 -17
10 -24 21 -6 12 -29 42 -52 66 -49 54 -42 65 42 66 53 0 59 2 51 17 -13 24
-72 67 -122 89 -53 23 -157 41 -231 41 -61 0 -66 4 -40 32 15 17 14 18 -24 18
-60 0 -151 -18 -223 -46 -84 -31 -94 -31 -86 1 4 16 2 25 -5 25 -17 0 -148
-70 -209 -112 -40 -27 -70 -39 -110 -44 l-54 -7 34 29 c61 52 113 91 175 129
l60 37 -50 -7 c-71 -10 -151 -42 -219 -87 -58 -39 -59 -40 -52 -14 4 16 2 26
-4 26 -28 0 -259 -131 -304 -172 -10 -9 -33 -20 -50 -24 -72 -16 -389 -115
-490 -154 -60 -22 -173 -72 -250 -110 -374 -181 -655 -454 -582 -565 32 -49
126 -21 126 36 0 34 179 206 290 279 122 80 269 153 445 223 134 52 285 100
292 93 5 -4 -165 -133 -252 -191 -80 -53 -253 -221 -330 -320 -35 -44 -78
-109 -96 -145 -29 -56 -34 -76 -37 -150 -2 -73 1 -91 21 -129 12 -25 28 -46
34 -48 6 -2 31 22 54 54 80 110 153 184 243 251 50 37 105 74 121 83 64 35
161 61 270 74 42 5 262 -17 303 -31 23 -7 69 -27 102 -44 116 -58 141 -30 70
79 -49 75 -171 198 -206 207 -13 3 -79 7 -146 8 -119 1 -121 1 -141 28 -18 24
-19 31 -7 73 7 25 28 72 47 103 28 45 32 61 24 74 -20 31 -12 46 33 61 48 17
129 12 146 -8 14 -17 -1 -51 -37 -90 -36 -38 -63 -80 -63 -98 0 -18 32 -30
135 -52 134 -29 224 -99 265 -205 47 -123 125 -241 171 -260 17 -7 81 -10 176
-8 147 3 150 3 183 32 30 25 39 27 80 22 49 -7 127 -41 169 -75 l25 -19 -54
-83 c-103 -159 -164 -234 -290 -359 -105 -104 -133 -138 -163 -199 -21 -40
-37 -79 -37 -86 0 -7 -17 -50 -39 -96 -49 -107 -55 -139 -35 -190 23 -57 60
-74 159 -73 103 1 185 15 431 74 287 69 565 155 794 245 160 63 430 201 565
290 71 46 131 83 133 80 8 -8 -10 -155 -19 -155 -5 0 -32 -23 -61 -50 -40 -38
-50 -53 -39 -59 20 -13 5 -47 -32 -70 -18 -11 -38 -30 -45 -41 -12 -19 -21
-21 -70 -18 -53 3 -56 2 -62 -22 -3 -17 -19 -31 -48 -45 -23 -11 -42 -24 -42
-29 0 -5 -11 -19 -25 -32 -14 -13 -25 -34 -25 -49 0 -14 -4 -25 -8 -25 -5 0
-7 -13 -4 -29 3 -25 -1 -32 -27 -46 -18 -9 -29 -20 -26 -26 4 -5 10 -7 15 -4
4 3 10 -2 14 -10 7 -21 -25 -75 -46 -75 -23 0 -27 -10 -17 -37 5 -14 17 -23
29 -23 24 0 25 -7 4 -48 -13 -27 -28 -42 -80 -79 -30 -23 -56 -32 -105 -38
-50 -6 -56 -5 -78 19 -34 36 -74 35 -103 -4 -12 -17 -27 -30 -34 -30 -6 0 -22
-11 -35 -25 -13 -13 -32 -25 -42 -25 -19 0 -56 -37 -57 -56 -1 -30 -92 -84
-143 -84 -25 0 -38 -7 -56 -30 -29 -40 -120 -80 -181 -80 -39 0 -54 5 -80 30
-18 17 -42 30 -54 30 -23 0 -66 -33 -66 -50 0 -5 -6 -7 -14 -4 -7 3 -27 -6
-43 -20 -20 -17 -37 -23 -51 -19 -13 3 -22 1 -22 -6 0 -10 -9 -22 -57 -74 -21
-21 -75 -37 -132 -37 -35 0 -49 6 -76 32 -49 49 -92 68 -167 72 -77 4 -83 7
-103 47 -11 21 -23 29 -41 29 -15 0 -43 15 -67 35 -22 19 -46 35 -53 35 -6 0
-17 15 -24 33 -6 17 -16 41 -20 53 -6 15 -26 26 -72 39 -34 9 -73 17 -85 17
-13 0 -23 4 -23 9 0 9 -67 5 -77 -5 -4 -3 -15 2 -25 11 -16 14 -23 15 -38 5
-42 -26 -99 -11 -153 40 -19 18 -42 39 -51 46 -11 8 -16 29 -16 60 0 35 -5 52
-20 65 -11 9 -20 27 -20 40 0 14 -14 37 -35 56 -28 26 -35 39 -35 70 0 41 -11
51 -55 51 -24 0 -65 42 -65 67 0 7 -11 18 -25 23 -14 5 -25 14 -25 19 0 5 -10
13 -22 16 -47 13 -89 37 -101 56 -6 10 -17 19 -23 19 -6 0 -19 9 -29 20 -20
22 -45 27 -45 8 0 -23 -51 38 -65 78 -12 33 -15 36 -20 18 -5 -16 -12 -20 -32
-16 -17 3 -29 -1 -35 -12 -15 -27 -25 -19 -56 44 -26 51 -29 65 -21 94 12 42
-1 79 -36 102 -40 26 -105 88 -105 101 0 6 -24 23 -52 38 -98 49 -152 139
-121 198 19 38 11 101 -13 105 -62 9 -63 10 -51 42 10 25 8 32 -10 52 -31 34
-48 99 -33 128 13 25 12 26 -42 55 -24 13 -26 18 -18 41 18 45 12 82 -15 100
-13 9 -27 25 -30 36 -4 10 -20 35 -37 53 -16 19 -31 49 -33 67 -2 18 -7 52
-11 75 -5 30 -2 49 8 65 9 13 18 38 22 55 6 28 3 34 -24 55 -51 38 -59 67 -56
218 1 74 8 151 14 171 11 32 10 40 -13 84 -21 39 -24 53 -16 76 7 20 5 44 -7
88 -9 33 -13 63 -10 67 4 3 89 23 190 44 101 21 289 65 418 99 682 176 1816
451 1859 451 13 0 20 -15 30 -61 8 -34 14 -75 13 -91 0 -17 2 -27 5 -24 16 15
38 -41 35 -89 -3 -41 0 -54 17 -69 18 -17 24 -17 53 -5 18 8 37 14 41 14 11 0
27 27 27 48 0 26 50 94 78 106 29 14 62 28 85 35 9 3 17 9 16 13 -3 20 3 30
31 46 17 10 30 25 30 33 0 8 8 14 18 14 21 0 47 25 56 55 3 12 -2 37 -13 58
l-19 38 23 54 c13 29 43 72 65 94 39 38 52 46 74 42 4 -1 14 3 22 10 13 11 38
4 30 -10 -8 -13 9 -29 37 -36 20 -5 27 -4 27 8 0 8 10 17 22 21 18 4 20 8 10
18 -15 15 -16 28 -2 28 6 0 10 -6 10 -14 0 -8 11 -17 25 -20 14 -4 25 -14 25
-24 1 -14 5 -12 22 8 11 14 25 24 31 22 64 -19 166 14 204 67 12 16 35 31 52
34 28 6 31 10 31 47 0 26 6 45 18 55 85 74 126 95 136 69 8 -22 23 -17 64 20
22 21 53 37 77 42 22 4 53 17 68 30 35 29 101 32 137 7z m-2965 -143 c37 -23
101 -21 154 6 41 21 104 14 135 -15 17 -16 33 -21 67 -19 39 3 44 1 47 -20 5
-34 -5 -56 -21 -45 -57 45 -142 -6 -117 -72 12 -31 83 -76 131 -82 81 -11 123
31 149 147 20 93 20 92 36 79 7 -6 21 -9 29 -5 21 8 120 -37 149 -69 20 -21
28 -24 49 -16 21 8 29 5 56 -22 26 -24 31 -36 26 -56 -11 -44 -11 -46 11 -43
26 3 47 -20 48 -56 1 -20 9 -31 35 -44 18 -9 43 -25 55 -36 11 -11 41 -23 66
-27 25 -4 51 -11 59 -15 8 -4 -130 -42 -325 -89 -187 -46 -661 -163 -1054
-262 -641 -161 -900 -223 -906 -216 -2 1 18 29 43 62 25 33 80 112 123 175 95
142 162 209 410 413 107 89 226 187 263 219 38 31 75 54 82 52 7 -3 19 2 26
11 47 57 59 65 100 65 24 0 55 -8 74 -20z m-415 -35 c-7 -9 -15 -13 -19 -10
-3 3 1 10 9 15 21 14 24 12 10 -5z m-397 -330 c-102 -93 -133 -118 -133 -107
0 16 101 122 116 122 8 0 14 5 14 10 0 6 9 10 21 10 12 0 23 8 26 20 3 11 10
17 15 14 5 -4 -21 -34 -59 -69z m-183 -185 c-37 -46 -40 -48 -33 -17 7 29 32
57 50 57 10 0 4 -13 -17 -40z m2643 -1178 c-12 -9 -43 -33 -70 -52 -162 -119
-323 -280 -323 -323 0 -8 21 -25 48 -38 42 -21 61 -23 185 -23 93 0 141 4 149
12 7 7 22 12 34 12 13 0 25 4 28 9 3 4 18 11 34 14 38 8 133 65 202 122 l55
45 3 -79 c4 -114 -5 -140 -53 -157 -44 -15 -67 -41 -86 -96 -13 -39 -5 -67 33
-120 9 -12 9 -22 0 -42 l-11 -25 -92 39 c-109 47 -124 57 -108 76 13 15 12 16
-56 18 -57 2 -52 25 14 59 54 27 54 27 20 26 -19 0 -86 -4 -149 -9 -120 -9
-310 2 -390 22 -64 16 -99 35 -143 77 -84 79 -115 199 -85 328 12 50 15 54 53
64 24 7 45 7 55 2 8 -5 30 -6 50 -1 178 41 297 55 490 56 129 1 134 1 113 -16z
m254 -37 c35 -21 73 -67 73 -89 0 -3 -16 -8 -36 -12 -25 -4 -39 -3 -44 6 -6 9
-21 5 -61 -17 -30 -16 -66 -33 -81 -36 -25 -7 -28 -5 -28 17 0 13 12 39 27 58
28 34 95 98 102 98 2 0 24 -11 48 -25z m500 -650 c55 -23 75 -52 71 -104 -1
-26 2 -46 9 -48 21 -7 43 28 43 68 0 46 8 48 49 14 34 -30 66 -103 59 -140 -7
-37 27 -33 47 5 24 46 32 40 59 -44 12 -35 -13 -94 -55 -129 -47 -41 -67 -47
-174 -56 l-80 -6 39 -23 c21 -13 36 -26 32 -29 -11 -11 -140 29 -209 65 -70
36 -149 109 -179 165 -23 43 -22 116 2 169 25 55 40 74 76 93 38 20 163 20
211 0z m-559 -84 c12 -7 11 -14 -2 -39 -23 -44 -33 -47 -61 -16 -27 30 -32 50
-12 57 20 9 61 7 75 -2z m208 -46 c21 -57 11 -72 -34 -49 -18 8 -32 20 -32 25
0 17 30 69 39 69 5 0 17 -20 27 -45z m-86 -119 c0 -71 -36 -129 -87 -142 -36
-10 -38 1 -6 48 16 24 40 62 53 85 24 44 40 48 40 9z m1685 -11 c-9 -20 -18
-35 -21 -32 -3 2 3 21 12 41 23 47 29 40 9 -9z m-1955 -394 c0 -5 -17 -27 -37
-49 -75 -79 -168 -201 -159 -209 2 -3 40 16 85 41 114 65 235 123 316 152 66
23 195 44 195 31 0 -3 -47 -38 -104 -77 -113 -77 -139 -100 -112 -100 8 0 33
6 53 14 119 42 222 60 306 53 194 -17 280 -27 285 -31 2 -3 -6 -9 -19 -14
-233 -88 -348 -125 -597 -191 -280 -74 -574 -132 -590 -117 -7 8 36 93 79 158
71 107 269 348 284 348 8 0 15 -4 15 -9z m1090 -706 c10 -12 10 -15 -4 -15 -9
0 -16 7 -16 15 0 8 2 15 4 15 2 0 9 -7 16 -15z m-2294 -370 c-26 -20 -41 -7
-20 16 13 14 21 16 28 9 8 -8 6 -15 -8 -25z m2887 -1084 c55 -21 43 -92 -28
-166 -19 -21 -35 -39 -35 -40 0 -2 16 -6 35 -9 19 -4 39 -15 45 -25 9 -17 3
-19 -68 -24 -42 -3 -80 -2 -84 2 -24 22 -9 53 60 129 39 44 72 83 72 87 0 12
-45 -7 -81 -36 -20 -15 -39 -25 -43 -22 -27 27 28 87 101 112 1 1 13 -3 26 -8z
m362 -16 c14 -13 25 -31 25 -40 0 -27 -26 -68 -69 -110 l-41 -39 42 -11 c28
-6 44 -16 46 -27 3 -15 -4 -18 -41 -18 -24 0 -58 -3 -75 -6 -27 -5 -33 -3 -43
20 -11 24 -8 30 58 103 38 43 73 84 77 92 13 21 -33 3 -75 -30 -37 -29 -49
-29 -49 1 0 28 73 86 113 89 4 1 19 -10 32 -24z m173 -5 c23 0 22 -23 -4 -132
-15 -62 -29 -115 -31 -117 -9 -12 -33 26 -33 53 0 30 -2 32 -29 28 -23 -3 -33
1 -46 21 -15 23 -15 28 -1 54 8 15 36 51 61 78 42 46 48 48 59 33 7 -10 18
-18 24 -18z m742 10 c38 -38 24 -86 -47 -161 l-35 -36 36 -7 c20 -4 40 -15 46
-25 9 -17 3 -19 -68 -23 -118 -8 -123 19 -22 131 39 43 70 81 70 84 0 13 -61
-16 -82 -39 -27 -28 -34 -29 -42 -8 -9 24 18 60 62 83 47 25 57 26 82 1z
m-1113 -5 c12 -9 25 -31 29 -49 9 -49 -21 -143 -56 -178 -28 -28 -31 -28 -58
-14 -49 25 -55 72 -21 158 38 99 60 115 106 83z m598 -21 c20 -30 22 -31 34
-13 6 11 27 27 46 36 33 16 37 16 52 0 15 -15 17 -15 28 0 15 21 35 9 35 -21
0 -32 -34 -166 -50 -196 -23 -44 -59 -53 -92 -23 -22 20 -24 35 -3 26 20 -7
51 21 63 57 10 28 10 28 -16 15 -28 -15 -59 -6 -69 21 -8 21 -20 8 -27 -29 -3
-18 -20 -49 -36 -69 -28 -34 -33 -36 -60 -26 -35 12 -50 35 -50 77 0 32 31
120 56 159 21 33 62 26 89 -14z m350 22 c12 -12 11 -28 -10 -112 -14 -55 -25
-107 -25 -117 0 -12 -6 -17 -17 -15 -15 3 -19 16 -21 73 -2 39 -8 73 -15 77
-8 5 -5 15 11 35 12 15 27 38 32 51 11 25 25 28 45 8z m-515 -216 c0 -13 -7
-20 -20 -20 -13 0 -20 7 -20 20 0 13 7 20 20 20 13 0 20 -7 20 -20z m403 14
c11 -11 -5 -34 -24 -34 -12 0 -19 7 -19 20 0 19 28 28 43 14z m-1191 -96 c7
-13 11 -29 10 -35 -4 -16 22 -17 47 -1 15 9 23 7 44 -8 30 -21 34 -34 12 -34
-9 0 -20 -20 -30 -52 -18 -63 -19 -79 -2 -73 25 9 41 -14 47 -66 6 -58 2 -61
50 43 23 51 60 81 86 71 9 -3 24 -23 33 -44 l17 -38 13 62 c7 34 21 81 31 105
18 39 21 42 41 32 16 -9 19 -18 15 -37 -21 -81 -37 -176 -33 -195 3 -20 7 -16
25 23 28 60 45 74 62 54 8 -10 10 -30 6 -58 l-6 -42 24 40 c56 93 66 99 107
66 l23 -18 -23 -12 c-21 -11 -51 -65 -51 -91 0 -23 30 -8 63 31 43 53 57 36
16 -20 -42 -56 -74 -63 -110 -24 l-27 31 -11 -24 c-11 -25 -54 -34 -66 -14 -4
6 -14 1 -24 -12 -18 -21 -19 -21 -44 -5 -15 9 -31 32 -36 50 -5 17 -10 24 -10
15 -1 -21 -49 -78 -66 -78 -7 0 -25 10 -40 21 -22 18 -29 20 -36 8 -5 -8 -9
-17 -9 -21 0 -18 -31 -6 -46 17 -11 18 -15 38 -11 65 3 22 2 40 -2 40 -10 0
-51 -75 -51 -94 0 -23 -36 -20 -53 5 -15 21 -15 21 -21 1 -11 -33 -33 -47 -52
-31 -9 7 -19 21 -23 31 -6 18 -8 18 -28 -1 -11 -11 -24 -17 -27 -14 -3 4 -6
-1 -6 -10 0 -10 -3 -17 -7 -17 -12 0 -43 33 -43 47 0 11 -4 11 -20 1 -17 -11
-25 -10 -48 2 -39 23 -43 80 -7 116 23 22 32 25 65 20 22 -3 41 -2 45 4 11 17
35 11 35 -9 0 -10 -6 -36 -13 -57 -23 -65 -28 -94 -17 -94 18 0 56 74 73 142
21 82 21 75 -3 81 -29 8 -24 27 8 33 22 4 34 17 50 50 24 50 36 54 54 22z
m-4761 -132 c-26 -117 -26 -119 -1 -78 26 42 60 58 89 43 32 -18 26 -49 -14
-72 -19 -12 -35 -28 -35 -36 0 -12 5 -12 33 4 21 12 41 37 56 71 26 54 40 63
61 37 10 -12 16 -13 27 -3 21 17 46 -17 40 -55 -7 -49 21 -24 43 37 16 43 35
18 31 -41 -2 -41 -1 -45 12 -31 9 8 30 50 48 92 17 42 36 76 42 76 31 0 -53
-220 -89 -234 -19 -7 -54 19 -54 40 0 8 -11 12 -27 11 -23 -2 -29 4 -39 32
l-11 34 -26 -54 c-15 -29 -27 -61 -27 -71 0 -16 -3 -17 -20 -8 -12 6 -20 21
-20 35 0 28 -12 32 -30 10 -18 -21 -66 -19 -90 5 l-20 20 -6 -30 c-11 -53 -65
-32 -99 39 -11 22 -23 41 -26 41 -4 0 -11 -21 -16 -47 -6 -38 -12 -48 -28 -48
-15 0 -21 8 -23 29 -4 32 23 164 44 214 13 33 14 33 43 17 25 -12 31 -23 36
-62 3 -27 9 -66 13 -88 l7 -40 17 68 c24 94 56 163 69 150 7 -7 4 -39 -10
-107z m4447 71 c24 -23 28 -47 10 -65 -9 -9 -16 -8 -29 4 -16 14 -19 12 -44
-29 -29 -51 -45 -99 -45 -139 0 -37 12 -35 44 7 27 35 50 40 39 7 -11 -31 -54
-82 -69 -82 -8 0 -27 12 -41 26 -23 23 -25 31 -19 80 9 74 44 163 77 197 30
30 37 29 77 -6z m-3559 14 c12 -8 11 -23 -4 -102 -9 -52 -19 -102 -22 -113 -8
-30 15 -9 31 27 7 18 25 43 39 56 21 19 30 22 54 14 48 -16 42 -41 -21 -86
-10 -8 -17 -19 -15 -25 6 -19 67 28 78 60 14 39 56 64 85 50 18 -8 27 -7 39 6
15 14 17 14 23 -2 4 -10 -1 -44 -11 -76 -10 -32 -14 -63 -10 -70 9 -15 59 70
70 118 6 27 9 31 21 21 11 -9 13 -24 8 -58 -6 -44 -5 -45 11 -29 10 9 32 49
50 89 31 70 55 98 55 65 0 -27 -59 -172 -81 -200 -25 -31 -33 -32 -57 -6 -20
22 -46 19 -56 -6 -8 -21 -47 -17 -53 6 -4 15 -11 18 -32 14 -18 -4 -33 0 -44
11 -15 15 -19 14 -46 -6 -29 -21 -51 -22 -93 -4 -12 5 -18 3 -18 -7 0 -8 -5
-19 -11 -25 -18 -18 -69 12 -70 40 -3 61 17 166 43 222 12 27 16 29 37 16z
m4717 -16 c4 -9 -5 -42 -19 -75 -14 -32 -29 -75 -33 -96 -7 -40 -1 -41 44 -1
22 21 32 11 10 -11 -8 -8 -8 -12 -1 -12 6 0 18 10 26 23 9 12 16 17 16 11 1
-16 -74 -94 -91 -94 -8 0 -25 10 -37 22 -20 18 -23 28 -18 72 8 71 61 176 89
176 5 0 11 -7 14 -15z m147 -11 c-1 -10 -14 -77 -29 -149 -21 -96 -30 -123
-35 -105 l-7 25 -2 -25 -1 -25 -10 24 c-5 13 -8 47 -7 75 3 44 1 51 -14 48
-12 -2 -16 2 -12 11 3 9 13 13 25 10 11 -3 19 0 19 6 0 7 -4 9 -10 6 -18 -11
-11 13 13 42 12 15 28 41 35 56 13 31 38 32 35 1z m447 -36 c-1 -35 -62 -183
-87 -212 -29 -33 -36 -33 -67 5 -15 18 -26 25 -26 16 0 -27 -29 -42 -59 -30
-25 9 -29 7 -44 -20 -16 -27 -19 -28 -40 -14 -19 13 -22 24 -22 81 0 65 0 66
-18 43 -10 -12 -25 -36 -32 -54 -19 -42 -31 -48 -59 -29 -22 14 -23 19 -15 54
15 70 28 94 47 90 10 -2 16 -12 15 -25 -2 -17 7 -12 42 25 37 40 47 45 62 36
20 -12 22 -45 10 -129 l-7 -50 26 50 c50 95 53 99 74 80 15 -14 16 -22 8 -52
-5 -19 -7 -37 -4 -40 6 -7 33 51 41 90 11 52 30 25 27 -38 -2 -53 -1 -57 14
-44 9 8 25 33 35 56 11 24 28 63 39 88 21 48 40 59 40 23z m-951 -2 c11 -14 5
-46 -9 -46 -15 0 -32 30 -26 45 7 19 20 19 35 1z m770 0 c11 -14 5 -46 -9 -46
-15 0 -32 30 -26 45 7 19 20 19 35 1z m-4344 -12 c15 -15 14 -19 -9 -43 l-26
-27 30 -23 c36 -26 46 -22 54 24 13 68 50 51 39 -17 -3 -21 -2 -38 3 -38 5 0
24 23 42 51 28 41 36 48 48 38 8 -6 12 -19 10 -28 -3 -9 -8 -29 -12 -45 -10
-43 11 -25 35 29 11 25 24 45 29 45 17 0 34 -30 28 -47 -6 -15 -5 -16 5 -5 19
18 29 15 38 -10 8 -22 8 -22 24 7 23 46 52 68 78 60 20 -7 21 -11 15 -63 -8
-65 4 -62 39 11 23 49 48 55 53 14 3 -23 6 -26 17 -17 17 14 35 5 35 -18 0 -9
12 3 27 26 31 48 58 61 80 39 12 -12 13 -24 5 -63 -6 -27 -9 -50 -7 -52 1 -2
16 19 33 47 37 60 61 75 96 61 37 -14 33 -44 -9 -70 -34 -21 -46 -40 -24 -40
26 0 66 41 78 80 14 47 38 62 57 35 11 -15 16 -16 30 -4 14 11 18 11 30 -6 9
-12 12 -30 8 -47 -5 -27 8 -39 21 -18 3 6 14 10 23 10 13 0 10 -6 -11 -27 -22
-22 -31 -26 -45 -17 -9 6 -19 24 -22 40 -5 28 -6 28 -33 -25 -15 -30 -27 -61
-27 -69 0 -26 -35 -7 -38 21 -4 30 -14 34 -32 12 -16 -19 -60 -19 -87 0 -20
14 -23 14 -33 -5 -12 -22 -45 -27 -56 -8 -4 6 -10 25 -13 42 l-7 30 -21 -37
c-25 -42 -50 -41 -55 1 -3 26 -3 26 -21 -10 -19 -41 -37 -47 -57 -23 -12 14
-15 14 -31 -1 -31 -28 -53 -14 -59 36 l-5 45 -23 -43 c-25 -46 -40 -49 -59
-12 l-12 24 -10 -26 c-13 -34 -26 -41 -52 -28 -16 9 -24 8 -39 -5 -17 -15 -19
-14 -37 8 -14 18 -22 22 -34 14 -21 -13 -50 -2 -56 23 -7 26 -23 26 -23 0 0
-54 -79 -112 -121 -90 -30 17 -19 41 33 75 57 36 60 47 11 33 -31 -8 -39 -7
-50 8 -20 28 -15 58 15 86 22 20 59 46 69 48 1 0 9 -7 18 -16z m-1056 -41 c8
-15 11 -15 26 -3 15 12 19 12 31 -5 9 -12 12 -30 8 -47 -5 -27 8 -39 21 -18 3
6 14 10 23 10 13 0 10 -6 -11 -27 -22 -22 -31 -26 -45 -17 -9 6 -18 21 -20 33
-2 11 -7 21 -11 21 -9 0 -51 -91 -51 -110 0 -25 -35 -4 -38 23 -4 30 -14 34
-32 12 -18 -21 -66 -19 -90 5 -26 26 -25 39 3 80 31 47 50 56 81 42 37 -16 33
-46 -9 -72 -19 -12 -35 -28 -35 -37 0 -12 6 -11 33 6 35 22 39 28 61 84 16 39
39 48 55 20z m832 -12 c23 -19 23 -19 5 -40 -10 -11 -27 -23 -37 -26 -19 -6
-27 -35 -10 -35 5 0 23 12 40 26 48 40 63 23 18 -20 -77 -73 -159 -26 -112 64
26 51 59 61 96 31z m4779 -141 c0 -13 -7 -20 -19 -20 -22 0 -35 15 -26 30 12
19 45 11 45 -10z"/>
<path d="M585 9130 c-15 -17 -45 -137 -45 -184 0 -15 3 -16 15 -6 30 25 76
192 56 204 -4 3 -16 -3 -26 -14z"/>
<path d="M1052 9069 c-36 -55 -37 -59 -19 -59 11 0 62 99 54 106 -1 1 -17 -20
-35 -47z"/>
<path d="M1973 9098 c-16 -8 -23 -20 -23 -41 l0 -30 33 26 c48 37 40 69 -10
45z"/>
<path d="M290 8184 c-11 -36 -20 -76 -19 -88 0 -11 9 8 18 44 9 36 21 75 25
88 4 12 5 22 2 22 -3 0 -14 -30 -26 -66z"/>
<path d="M261 8054 c0 -11 3 -14 6 -6 3 7 2 16 -1 19 -3 4 -6 -2 -5 -13z"/>
<path d="M405 7998 c-50 -36 -96 -78 -86 -78 8 0 92 62 126 91 19 18 -11 8
-40 -13z"/>
<path d="M2961 7928 c-1 -10 -5 -18 -11 -18 -5 0 -10 -21 -10 -46 0 -28 4 -43
10 -39 6 4 8 11 5 16 -4 5 -1 9 6 9 7 0 9 3 6 6 -3 4 -3 14 2 23 4 9 5 27 0
41 -4 16 -7 19 -8 8z"/>
<path d="M3046 7850 c-9 -22 -16 -47 -16 -56 0 -8 -7 -17 -15 -20 -8 -4 -12
-10 -9 -16 7 -10 34 9 34 25 0 5 11 24 24 41 20 27 22 35 11 49 -11 16 -14 13
-29 -23z"/>
<path d="M2940 7786 c-15 -39 -12 -46 6 -13 9 16 13 31 10 34 -3 3 -10 -6 -16
-21z"/>
<path d="M2448 8013 c-8 -10 -18 -25 -22 -33 -4 -8 0 -6 8 5 9 11 24 26 33 33
9 6 12 12 6 12 -5 0 -17 -8 -25 -17z"/>
<path d="M1952 7947 c-30 -79 -27 -95 4 -24 14 33 23 64 21 70 -2 7 -13 -14
-25 -46z"/>
<path d="M2595 7954 c-16 -8 -43 -28 -58 -45 -32 -34 -71 -114 -62 -129 14
-23 77 43 144 153 25 41 21 44 -24 21z"/>
<path d="M2427 7953 c-4 -3 -7 -16 -6 -27 0 -19 1 -19 10 3 10 24 8 36 -4 24z"/>
<path d="M1443 8008 c-11 -13 -23 -30 -27 -38 -4 -8 1 -4 12 9 11 14 28 31 38
38 10 7 13 13 8 13 -6 0 -20 -10 -31 -22z"/>
<path d="M1595 7955 c-52 -22 -125 -120 -125 -167 0 -24 10 -23 41 5 28 24
125 164 118 171 -2 2 -17 -2 -34 -9z"/>
<path d="M1417 7935 c-4 -8 -2 -17 3 -20 6 -4 10 3 10 14 0 25 -6 27 -13 6z"/>
<path d="M1662 7685 c0 -16 2 -22 5 -12 2 9 2 23 0 30 -3 6 -5 -1 -5 -18z"/>
<path d="M3640 8049 c0 -5 -5 -7 -10 -4 -6 4 -9 1 -8 -7 2 -7 -3 -12 -11 -10
-16 3 -31 -15 -31 -37 0 -11 4 -10 13 4 8 10 19 15 25 11 7 -4 12 -3 12 3 0 6
6 8 13 5 8 -3 13 5 15 21 1 14 -3 25 -8 25 -6 0 -10 -5 -10 -11z"/>
<path d="M3536 7985 c-8 -22 -8 -22 9 -22 17 0 18 6 6 25 -7 11 -10 10 -15 -3z"/>
<path d="M3525 7941 c-3 -5 -1 -12 5 -16 5 -3 10 1 10 9 0 18 -6 21 -15 7z"/>
<path d="M6215 7345 c-24 -23 -33 -45 -19 -45 7 0 29 25 45 53 14 24 2 21 -26
-8z"/>
<path d="M5012 7347 c-12 -13 -22 -30 -22 -38 1 -15 50 35 50 52 0 13 -4 11
-28 -14z"/>
<path d="M5216 7338 c-9 -12 -16 -29 -16 -38 0 -8 10 0 21 18 24 37 20 55 -5
20z"/>
<path d="M3885 4693 c60 -13 198 -58 250 -81 115 -49 225 -141 225 -187 0 -13
-5 -16 -22 -11 -13 4 -42 10 -65 13 -48 6 -63 -10 -43 -47 18 -33 15 -168 -4
-212 -15 -35 -15 -41 -1 -75 42 -100 212 -207 371 -234 83 -14 281 -16 295 -2
6 6 -41 51 -128 124 -179 148 -303 270 -303 296 0 37 72 40 243 11 37 -6 70
-9 73 -5 9 9 -17 77 -52 132 -114 183 -371 286 -709 284 -82 -1 -141 -3 -130
-6z"/>
<path d="M2548 3617 c-42 -19 -68 -48 -68 -77 0 -32 51 -83 101 -100 33 -12
39 -11 67 9 24 17 32 32 38 67 7 52 -9 77 -63 100 -38 16 -39 16 -75 1z"/>
<path d="M2993 3533 c-51 -26 -53 -26 -73 -8 -11 10 -22 16 -23 14 -2 -2 -15
-25 -30 -50 -32 -56 -111 -131 -130 -123 -8 3 -19 15 -24 27 -10 21 -11 21
-32 -14 -11 -19 -39 -46 -62 -58 -22 -13 -37 -27 -32 -31 16 -14 89 -27 141
-24 80 4 131 34 198 117 75 92 135 179 122 176 -2 0 -26 -12 -55 -26z"/>
<path d="M3345 4284 c-182 -14 -324 -44 -362 -76 -35 -29 -35 -46 4 -88 20
-23 54 -50 75 -61 34 -17 44 -18 79 -8 25 8 53 28 75 53 65 74 129 137 157
154 25 15 37 34 20 30 -5 -1 -26 -3 -48 -4z"/>
<path d="M5853 768 c-21 -28 -24 -38 -10 -38 8 0 17 11 19 25 6 28 4 30 -9 13z"/>
<path d="M5508 810 c-10 -14 -20 -52 -23 -85 l-5 -60 26 52 c15 33 24 65 22
85 l-3 33 -17 -25z"/>
<path d="M6088 810 c-9 -14 -19 -52 -23 -85 -6 -56 -5 -59 10 -40 20 25 37 89
33 123 l-3 27 -17 -25z"/>
<path d="M6245 800 c-10 -11 -16 -22 -13 -25 3 -3 13 4 23 15 10 11 16 22 13
25 -3 3 -13 -4 -23 -15z"/>
<path d="M5161 393 c-10 -38 -22 -81 -26 -98 -6 -30 -6 -30 13 -10 11 11 27
47 35 80 9 33 19 68 22 78 5 12 2 17 -9 17 -10 0 -21 -21 -35 -67z"/>
<path d="M4937 322 c-18 -19 -23 -42 -9 -42 4 0 16 14 25 30 20 33 10 40 -16
12z"/>
<path d="M5427 302 c-2 -9 -8 -26 -13 -37 -7 -20 -7 -20 14 -1 23 20 28 41 13
50 -5 3 -11 -2 -14 -12z"/>
<path d="M1516 328 c-9 -12 -16 -26 -16 -31 0 -13 29 12 41 35 14 26 -6 23
-25 -4z"/>
<path d="M6191 314 c0 -11 3 -14 6 -6 3 7 2 16 -1 19 -3 4 -6 -2 -5 -13z"/>
<path d="M6227 303 c-4 -3 -7 -11 -7 -17 0 -6 5 -5 12 2 6 6 9 14 7 17 -3 3
-9 2 -12 -2z"/>
<path d="M2044 254 c-18 -14 -18 -15 4 -4 12 6 22 13 22 15 0 8 -5 6 -26 -11z"/>
</g>
</svg>
