<?xml version="1.0" standalone="no"?>
<!DOCTYPE svg PUBLIC "-//W3C//DTD SVG 20010904//EN"
 "http://www.w3.org/TR/2001/REC-SVG-20010904/DTD/svg10.dtd">
<svg version="1.0" xmlns="http://www.w3.org/2000/svg"
 width="676.000000pt" height="958.000000pt" viewBox="0 0 676.000000 958.000000"
 preserveAspectRatio="xMidYMid meet">

<g transform="translate(0.000000,958.000000) scale(0.100000,-0.100000)"
fill="#000000" stroke="none">
<path d="M0 4790 l0 -4790 3380 0 3380 0 0 4790 0 4790 -3380 0 -3380 0 0
-4790z m1779 4507 c8 -10 7 -36 -4 -97 -8 -46 -13 -85 -11 -87 2 -3 23 1 45 7
81 22 75 -13 -8 -49 l-48 -20 -12 -76 c-6 -42 -11 -84 -11 -95 0 -29 -21 -70
-37 -70 -17 0 -16 30 1 145 8 50 12 94 9 98 -7 11 -43 -2 -78 -27 -104 -77
-167 -94 -187 -52 -10 23 -3 59 27 137 4 11 -4 14 -32 14 -31 0 -38 4 -38 20
0 16 9 21 45 26 25 4 63 12 85 18 62 17 95 14 95 -8 0 -15 -10 -21 -41 -26
-31 -5 -45 -14 -60 -39 -21 -35 -41 -97 -33 -105 2 -3 46 16 97 42 51 26 99
47 109 47 17 0 30 44 43 145 9 68 20 81 44 52z m416 -6 c3 -10 3 -24 1 -32 -2
-8 -7 -26 -10 -41 -6 -27 -5 -28 39 -28 52 0 64 -25 18 -36 -58 -12 -70 -22
-83 -68 -7 -25 -19 -51 -26 -57 -12 -9 -14 -3 -14 37 0 48 27 220 36 236 9 15
33 8 39 -11z m469 -26 c6 -16 0 -51 -45 -279 -29 -152 -40 -179 -60 -159 -8 8
-7 33 1 89 17 115 60 346 66 355 8 14 31 10 38 -6z m-2215 -21 c42 -53 22
-115 -66 -205 l-55 -56 46 -7 c32 -5 52 -15 67 -34 l21 -27 -104 -6 c-108 -6
-120 -2 -132 37 -5 17 10 40 71 108 101 113 127 146 122 150 -10 10 -85 -26
-115 -55 -28 -27 -36 -30 -49 -19 -8 7 -15 17 -15 23 0 23 55 80 94 98 58 26
90 24 115 -7z m207 -16 c25 -25 29 -37 28 -86 0 -72 -25 -147 -65 -195 -36
-44 -70 -48 -114 -13 -27 22 -30 29 -29 83 0 33 8 75 19 98 10 22 26 60 35 85
27 74 73 84 126 28z m263 16 c11 -14 23 -34 26 -44 9 -29 -31 -99 -92 -161
l-55 -56 46 -7 c32 -5 52 -15 66 -33 11 -14 19 -27 18 -29 -2 -1 -50 -4 -108
-6 l-105 -3 -13 28 c-16 33 -10 43 112 175 42 45 76 86 76 91 0 6 -13 6 -32 0
-18 -5 -34 -9 -35 -9 -2 0 -21 -16 -43 -36 -33 -30 -43 -34 -55 -24 -8 7 -15
17 -15 23 0 23 55 80 94 98 58 26 90 24 115 -7z m201 6 c6 -11 15 -19 21 -17
6 1 16 -6 22 -15 9 -13 4 -49 -23 -160 -18 -79 -37 -146 -40 -151 -3 -4 -15
-1 -26 7 -14 11 -19 26 -18 59 l1 45 -37 -5 c-30 -4 -41 -1 -59 18 -39 42 -29
67 69 177 58 66 73 73 90 42z m826 -40 c7 -7 19 -7 35 -1 29 11 74 4 88 -13 7
-8 7 -24 1 -44 -7 -25 -6 -32 6 -32 8 0 14 -7 14 -15 0 -17 -16 -20 -25 -5 -3
5 -33 -13 -66 -40 -33 -28 -66 -50 -73 -50 -10 0 -15 25 -18 98 -3 53 -3 100
-1 105 6 10 27 9 39 -3z m628 1 c7 -11 -22 -179 -35 -203 -16 -30 -29 -11 -29
43 l0 49 -25 -16 c-18 -12 -23 -22 -19 -39 8 -33 -14 -41 -42 -14 l-24 23 -30
-35 c-16 -19 -32 -42 -35 -51 -6 -18 -55 -26 -55 -10 0 7 21 39 98 146 18 25
30 46 27 46 -3 0 -28 -11 -55 -25 -61 -31 -72 -31 -68 -3 2 16 21 32 67 56 78
40 115 40 119 -1 2 -16 -2 -35 -9 -43 -22 -27 -3 -24 33 6 20 16 39 41 42 55
6 24 29 34 40 16z m-464 -207 c0 -3 -5 -14 -10 -24 -9 -17 -4 -22 32 -41 99
-50 55 -77 -60 -36 -33 11 -35 11 -72 -33 -30 -35 -41 -42 -51 -33 -10 10 -6
21 15 53 47 71 97 120 122 120 13 0 24 -3 24 -6z m-1725 -531 c32 -35 31 -45
-4 -211 -43 -198 -49 -232 -44 -232 2 0 25 12 51 27 25 15 57 27 71 28 22 0
28 8 43 59 20 64 93 238 116 274 19 29 36 28 56 -3 22 -33 21 -53 -15 -298
-48 -336 -66 -428 -87 -449 -13 -13 -32 -2 -32 19 0 9 -3 14 -6 10 -4 -3 -19
0 -35 8 -24 13 -29 23 -35 72 -4 32 -8 88 -8 125 -1 38 -3 68 -5 68 -13 0
-131 -78 -140 -93 -6 -9 -14 -48 -17 -85 -9 -123 -20 -139 -74 -111 -46 24
-54 43 -52 124 3 153 26 278 82 445 10 30 21 71 25 90 10 47 62 160 74 160 6
0 22 -12 36 -27z m901 -154 c30 -48 67 -232 58 -289 -7 -52 -36 -150 -44 -150
-3 0 -14 25 -24 55 -9 30 -27 63 -40 72 -22 17 -23 19 -9 72 10 37 14 92 11
168 -3 128 5 140 48 72z m2036 -114 c61 -41 62 -92 8 -335 -16 -74 -30 -139
-30 -143 0 -18 20 6 50 59 17 31 39 65 48 75 9 10 24 33 33 51 54 114 67 136
99 167 37 35 87 61 119 61 19 0 81 -47 81 -62 0 -5 -8 -8 -18 -8 -10 0 -23 -5
-30 -12 -7 -7 -12 -8 -12 -3 0 5 -13 -4 -30 -20 -16 -16 -30 -25 -30 -20 0 10
-44 -54 -65 -95 -11 -21 -12 -30 -4 -30 13 0 112 69 117 82 2 4 8 8 13 8 11 0
-1 -32 -15 -42 -7 -5 -5 -8 6 -8 9 0 28 14 42 31 29 35 35 27 8 -11 -51 -75
-132 -140 -174 -140 -12 0 -32 10 -45 22 l-23 21 -30 -67 c-17 -37 -46 -83
-65 -102 -19 -19 -35 -41 -35 -49 0 -29 -63 -18 -105 18 -36 31 -38 36 -42
107 -4 65 13 210 33 285 7 27 -113 -151 -152 -224 -41 -78 -68 -111 -91 -111
-29 0 -43 19 -33 45 5 13 6 32 3 43 -2 11 0 30 7 42 6 12 9 25 5 28 -3 3 -8
-4 -12 -16 -7 -27 -15 -28 -38 -2 -10 11 -26 22 -36 25 -18 6 -18 8 5 48 13
23 34 73 47 111 27 77 47 94 93 76 28 -10 29 -12 23 -63 -4 -28 -9 -63 -12
-77 -4 -17 1 -12 17 16 35 62 57 89 127 157 35 34 69 67 75 74 16 18 27 16 68
-12z m-92 11 c0 -3 -4 -8 -10 -11 -5 -3 -10 -1 -10 4 0 6 5 11 10 11 6 0 10
-2 10 -4z m-2443 -48 c-5 -21 -5 -21 7 -5 18 24 23 22 50 -22 24 -38 24 -40
11 -105 -8 -37 -24 -96 -36 -131 -12 -35 -19 -69 -17 -76 5 -15 130 132 182
214 20 31 43 57 51 57 8 0 22 -14 31 -32 14 -27 15 -42 5 -117 -14 -103 -35
-186 -47 -186 -5 0 -21 23 -35 51 l-25 50 -39 -59 c-84 -130 -117 -150 -174
-102 -91 78 -114 240 -52 380 32 73 102 138 88 83z m1284 -8 c31 -27 32 -31
22 -65 l-11 -35 51 45 c29 25 55 45 60 45 18 0 59 -35 73 -62 11 -22 13 -44 9
-83 -7 -53 -8 -54 -40 -53 -17 1 -37 -2 -43 -6 -8 -5 -12 6 -12 35 0 36 -2 40
-15 29 -54 -45 -130 -202 -156 -322 -7 -36 -17 -58 -26 -58 -7 0 -31 16 -53
36 -35 32 -40 42 -40 80 0 52 -11 62 -36 29 -22 -30 -34 -32 -34 -6 0 11 -5
21 -11 23 -7 2 9 36 39 81 30 46 58 102 68 139 21 78 39 115 72 151 33 34 43
34 83 -3z m-287 5 c29 -29 26 -54 -22 -206 -52 -162 -66 -254 -37 -243 8 3 15
10 15 15 0 5 5 9 10 9 19 0 10 -28 -11 -33 -12 -3 -18 -10 -14 -17 5 -8 10 -8
20 0 8 7 16 7 19 2 6 -10 -23 -39 -33 -33 -3 2 -23 12 -44 22 -41 21 -59 54
-59 107 l0 34 -22 -21 c-12 -12 -26 -18 -29 -14 -4 3 -7 32 -7 63 0 47 6 65
35 110 42 66 43 72 9 60 -41 -16 -44 -13 -44 55 0 57 2 65 19 65 10 0 35 -11
54 -25 l37 -24 30 44 c33 48 49 54 74 30z m1010 -7 c22 -31 21 -39 -16 -160
l-33 -108 -70 1 c-108 1 -111 3 -65 73 22 33 38 62 36 64 -3 2 -20 -4 -39 -13
-36 -17 -76 -56 -97 -95 -11 -20 -16 -21 -78 -15 -37 4 -75 9 -85 12 -17 4
-17 5 1 21 10 10 22 31 26 47 18 74 116 165 178 165 30 0 102 -32 113 -50 10
-16 20 -12 38 20 38 64 65 75 91 38z m1037 -117 c-1 -25 -8 -77 -16 -115 -8
-38 -13 -72 -10 -74 2 -3 36 19 75 48 52 38 74 50 82 42 21 -21 -36 -81 -135
-143 -48 -30 -54 -38 -112 -179 -28 -66 -89 -154 -132 -189 -128 -106 -271
-110 -345 -10 -20 26 -20 27 1 67 24 47 128 134 154 128 9 -2 17 1 17 8 0 13
39 40 47 33 2 -3 14 4 25 15 11 11 23 17 26 13 4 -4 -1 -13 -11 -20 -18 -13
-18 -14 4 -17 19 -3 15 -7 -27 -35 -84 -54 -169 -151 -150 -171 16 -15 96 28
155 83 67 63 148 164 143 179 -2 5 3 13 10 18 9 6 3 8 -17 4 l-30 -7 25 21
c14 11 30 20 37 20 18 0 81 143 92 207 5 32 12 72 16 88 5 23 4 26 -4 15 -6
-8 -11 -23 -11 -32 0 -12 -8 -18 -22 -17 -20 0 -21 1 -5 8 10 4 18 9 17 11 -2
12 23 70 31 70 5 0 8 3 8 8 -5 29 5 30 33 2 27 -28 31 -38 29 -79z m-2395 17
c-7 -22 -10 -68 -6 -78 1 -3 4 -44 6 -92 5 -101 -8 -115 -47 -52 -33 54 -31
150 5 204 29 44 52 54 42 18z m2269 -58 c-3 -5 -12 -10 -18 -10 -7 0 -6 4 3
10 19 12 23 12 15 0z m-1895 -235 c0 -8 -7 -15 -15 -15 -11 0 -13 -8 -10 -32
l5 -33 -12 32 c-8 25 -8 36 2 48 16 19 30 19 30 0z m-633 -32 c-3 -10 -5 -4
-5 12 0 17 2 24 5 18 2 -7 2 -21 0 -30z m1533 -5 c0 -10 5 -16 10 -13 6 3 10
-3 10 -14 0 -12 5 -21 10 -21 6 0 10 5 10 11 0 5 5 7 10 4 16 -10 11 -22 -11
-28 -26 -7 -94 25 -103 48 -11 29 -7 33 29 33 28 0 35 -4 35 -20z m80 8 c0 -8
3 -21 6 -30 3 -9 2 -16 -4 -16 -5 0 -12 10 -16 23 -5 17 -8 19 -15 8 -5 -8
-11 -9 -15 -3 -4 6 2 15 11 21 25 14 33 13 33 -3z m-965 -6 c-3 -5 -10 -10
-16 -10 -5 0 -9 5 -9 10 0 6 7 10 16 10 8 0 12 -4 9 -10z m1000 0 c-3 -5 -10
-10 -16 -10 -5 0 -9 5 -9 10 0 6 7 10 16 10 8 0 12 -4 9 -10z m725 -29 c0 -5
-7 -11 -15 -15 -15 -5 -20 5 -8 17 9 10 23 9 23 -2z m55 -10 c-3 -6 -11 -11
-17 -11 -6 0 -6 6 2 15 14 17 26 13 15 -4z m-50 -21 c-3 -5 -11 -10 -16 -10
-6 0 -7 5 -4 10 3 6 11 10 16 10 6 0 7 -4 4 -10z m2473 -22 c7 -7 12 -22 12
-35 0 -20 5 -22 57 -25 31 -2 58 -8 60 -14 2 -7 -2 -11 -9 -11 -7 1 -38 -2
-69 -6 l-57 -8 -20 -67 c-24 -78 -36 -132 -29 -132 3 0 20 24 38 52 49 81 76
94 119 60 19 -15 21 -22 12 -39 -6 -11 -25 -26 -42 -33 -19 -8 -30 -20 -30
-32 0 -20 0 -20 33 0 17 11 41 38 53 59 27 50 66 73 95 55 18 -11 24 -11 40 4
36 33 43 4 18 -75 -19 -59 -21 -75 -11 -91 18 -30 -13 -26 -33 3 -11 18 -22
23 -43 20 -15 -3 -36 2 -46 10 -18 13 -24 12 -58 -10 l-38 -25 -39 19 -40 20
-12 -29 c-15 -37 -44 -36 -64 2 -19 37 -19 93 0 155 13 46 13 49 -5 62 -28 20
-25 30 11 38 20 5 34 16 40 33 19 49 36 61 57 40z m-1859 -42 c9 -11 9 -24 0
-58 -25 -93 -28 -110 -15 -105 24 9 41 -12 51 -64 9 -49 11 -51 22 -28 6 13
14 36 17 50 7 32 52 79 76 79 10 0 28 -8 40 -18 27 -22 19 -45 -26 -71 -19
-11 -34 -28 -34 -37 0 -26 58 13 94 65 43 61 60 70 94 51 41 -24 39 -45 -7
-75 -49 -30 -59 -65 -13 -41 37 19 54 40 72 90 16 44 54 62 66 32 5 -12 9 -13
25 -3 15 9 21 8 33 -8 9 -11 16 -32 16 -47 0 -16 4 -28 10 -28 14 0 26 28 39
95 14 64 40 127 55 129 5 0 14 -6 19 -16 8 -12 4 -48 -12 -133 -13 -64 -21
-119 -18 -121 3 -3 17 20 31 50 32 68 66 93 104 80 39 -14 37 -53 -5 -79 -34
-21 -47 -41 -34 -49 13 -8 81 46 81 64 0 22 52 70 76 70 11 0 25 -5 32 -12 9
-9 15 -8 26 8 12 15 17 17 27 6 11 -10 11 -21 -1 -60 -19 -68 -24 -122 -11
-122 6 0 10 6 8 13 -1 6 4 11 11 9 8 -1 11 2 7 7 -8 14 53 119 77 132 11 6 31
8 44 5 16 -4 24 -2 24 6 1 27 59 143 72 143 18 0 14 -24 -16 -124 -27 -88 -34
-161 -15 -161 5 0 8 4 5 9 -3 5 5 34 19 66 19 41 30 55 43 53 13 -3 17 -14 16
-51 0 -26 1 -47 3 -47 2 0 15 25 29 56 24 56 46 67 52 27 3 -18 8 -15 45 24
29 30 47 42 59 38 24 -9 27 -36 13 -112 -7 -37 -12 -69 -11 -70 2 -2 20 28 40
66 40 72 70 96 99 79 20 -11 22 -28 4 -28 -16 0 -57 -37 -57 -51 0 -5 11 -2
24 6 33 22 41 3 11 -25 -15 -14 -32 -21 -44 -17 -16 4 -26 -5 -46 -39 -29 -50
-37 -52 -66 -23 -18 18 -20 28 -14 78 6 53 6 55 -10 34 -9 -13 -22 -20 -30
-17 -8 4 -15 1 -15 -6 0 -6 5 -8 10 -5 14 9 12 -1 -5 -35 -17 -33 -26 -36 -56
-19 -17 8 -23 7 -34 -7 -11 -16 -16 -17 -41 -6 -23 11 -29 11 -36 -2 -14 -25
-39 -19 -51 13 l-11 29 -19 -24 c-22 -29 -48 -31 -71 -5 -18 19 -18 19 -40 -6
-25 -29 -61 -26 -71 6 -4 13 -13 16 -36 13 -19 -3 -36 2 -49 13 -18 17 -21 16
-51 -9 -31 -26 -49 -27 -89 -5 -10 5 -21 0 -36 -19 -19 -24 -24 -25 -48 -15
-14 7 -28 23 -32 37 -4 17 -11 22 -25 19 -25 -7 -49 14 -49 43 0 13 -4 24 -9
24 -9 0 -61 -110 -61 -129 0 -16 -10 -14 -32 6 -10 9 -18 25 -18 36 0 18 -2
19 -17 5 -10 -8 -26 -18 -36 -21 -19 -7 -68 8 -78 25 -5 7 -19 4 -42 -11 -33
-20 -38 -21 -71 -7 -35 15 -36 14 -42 -10 -7 -26 -32 -32 -52 -12 -7 7 -12 37
-12 68 l0 55 -20 -25 c-11 -14 -25 -42 -30 -62 -10 -37 -23 -47 -34 -29 -16
25 -23 138 -11 172 12 34 12 36 -5 32 -10 -3 -21 0 -25 7 -5 8 -11 8 -19 0 -9
-7 -22 -7 -44 1 -31 11 -31 11 -16 40 22 43 56 56 89 35 14 -10 30 -27 35 -39
5 -12 9 -17 9 -12 2 16 40 75 50 75 5 0 14 -6 20 -14z m1249 -94 c-2 -9 -11
-18 -21 -20 -19 -4 -32 20 -23 43 8 22 48 0 44 -23z m1191 -40 c6 -12 6 -33 1
-58 -15 -61 -12 -67 15 -37 30 35 32 20 2 -31 -27 -49 -40 -53 -67 -26 -16 16
-21 31 -18 56 2 19 3 34 1 34 -1 0 -12 -18 -23 -39 -11 -22 -24 -43 -30 -46
-16 -10 -40 14 -40 39 -1 21 -1 21 -12 1 -36 -67 -37 -68 -65 -50 -18 12 -28
14 -36 6 -6 -6 -17 -11 -24 -11 -9 0 -4 14 15 43 15 23 36 61 47 85 10 23 24
42 30 42 20 0 36 -26 28 -46 -6 -16 -5 -17 9 -6 14 11 19 10 36 -8 19 -21 20
-21 26 -3 9 29 55 73 76 73 11 0 24 -8 29 -18z m-832 -59 c-5 -48 -2 -51 25
-26 10 9 21 13 26 9 4 -4 -12 -24 -34 -44 -23 -20 -52 -58 -64 -85 -37 -79
-106 -116 -161 -87 -10 6 -19 19 -19 30 0 21 69 80 94 80 9 0 16 5 16 12 0 6
3 8 7 5 3 -4 -12 -24 -35 -45 -43 -40 -57 -71 -24 -53 27 15 83 77 86 95 1 10
7 21 12 24 14 10 32 59 39 110 6 37 9 41 22 30 11 -9 14 -24 10 -55z m-1837
-90 c0 -20 -3 -24 -11 -16 -7 7 -9 19 -6 27 10 24 17 19 17 -11z m1040 -1020
c35 -24 48 -43 55 -80 4 -23 11 -33 24 -33 10 0 26 -11 35 -25 9 -14 22 -25
29 -25 7 0 17 -10 22 -22 13 -31 48 -34 89 -9 51 32 112 20 166 -31 23 -22 39
-46 37 -52 -6 -15 30 -39 43 -31 6 4 10 0 10 -8 0 -13 12 -18 85 -30 43 -8
124 -73 138 -111 6 -14 13 -17 33 -12 16 4 30 1 39 -8 21 -21 37 -67 27 -80
-4 -6 -9 -24 -11 -39 -2 -25 0 -28 18 -22 16 5 23 1 30 -17 4 -13 6 -29 4 -36
-10 -25 8 -62 36 -77 16 -8 32 -23 35 -32 4 -10 25 -29 48 -43 65 -39 108 -79
101 -96 -3 -8 -1 -14 3 -14 5 0 10 -12 10 -27 1 -16 5 -41 10 -58 13 -51 10
-201 -5 -219 -8 -9 -9 -16 -3 -16 20 0 23 -56 7 -98 -15 -36 -15 -53 -5 -132
10 -79 10 -94 -4 -114 -8 -13 -20 -55 -27 -92 -6 -38 -16 -79 -22 -91 -7 -17
-6 -28 7 -47 20 -32 20 -33 -5 -39 -11 -3 -23 -15 -26 -26 -3 -11 -14 -23 -24
-26 -26 -9 -24 -28 7 -58 47 -48 43 -153 -9 -205 -34 -35 -69 -62 -79 -62 -5
0 -6 -9 -3 -20 4 -13 -1 -30 -14 -46 -12 -15 -21 -35 -21 -45 0 -11 -6 -19
-14 -19 -17 0 -46 -43 -46 -68 0 -10 14 -34 30 -52 28 -31 30 -38 24 -84 -10
-77 -66 -176 -100 -176 -6 0 -14 -6 -17 -14 -3 -8 -21 -16 -39 -18 -24 -2 -36
-10 -46 -30 -7 -16 -26 -31 -46 -38 -33 -11 -56 -43 -56 -79 0 -10 -6 -24 -14
-30 -7 -6 -17 -42 -21 -79 -7 -68 -27 -122 -46 -122 -6 0 -7 -4 -4 -10 3 -5
-3 -10 -14 -10 -11 0 -27 -10 -35 -22 -9 -12 -16 -18 -16 -13 0 5 -12 -3 -27
-17 -24 -22 -110 -68 -127 -68 -3 0 -29 -23 -58 -50 -40 -38 -50 -53 -39 -59
20 -13 5 -47 -32 -70 -18 -11 -38 -30 -45 -41 -12 -19 -21 -21 -70 -18 -53 3
-56 2 -62 -22 -3 -17 -19 -31 -48 -45 -23 -11 -42 -24 -42 -29 0 -5 -11 -19
-25 -32 -14 -13 -25 -34 -25 -49 0 -14 -4 -25 -8 -25 -5 0 -7 -13 -4 -29 3
-25 -1 -32 -27 -46 -18 -9 -29 -20 -26 -26 4 -5 10 -7 15 -4 4 3 10 -2 14 -10
7 -21 -25 -75 -46 -75 -23 0 -27 -10 -17 -38 5 -13 17 -22 29 -22 24 0 25 -7
4 -48 -13 -27 -28 -42 -80 -79 -30 -23 -56 -32 -105 -38 -50 -6 -56 -5 -78 19
-34 36 -74 35 -103 -4 -12 -17 -27 -30 -34 -30 -6 0 -22 -11 -35 -25 -13 -13
-32 -25 -42 -25 -19 0 -56 -37 -57 -56 -1 -30 -92 -84 -143 -84 -25 0 -38 -7
-56 -30 -29 -40 -120 -80 -181 -80 -39 0 -54 5 -80 30 -18 17 -42 30 -54 30
-23 0 -66 -33 -66 -50 0 -5 -6 -7 -14 -4 -7 3 -27 -6 -43 -20 -20 -17 -37 -23
-51 -19 -13 3 -22 1 -22 -6 0 -10 -9 -22 -57 -74 -21 -21 -75 -37 -132 -37
-35 0 -49 6 -76 32 -49 49 -92 68 -167 72 -77 4 -83 7 -103 47 -11 21 -23 29
-41 29 -15 0 -43 15 -67 35 -22 19 -46 35 -53 35 -6 0 -17 15 -24 33 -6 17
-16 41 -20 53 -6 15 -26 26 -72 39 -34 9 -73 17 -85 17 -13 0 -23 4 -23 9 0 9
-67 5 -77 -5 -4 -3 -15 2 -25 11 -16 14 -23 15 -38 5 -42 -26 -99 -11 -153 40
-19 18 -42 39 -51 46 -11 8 -16 29 -16 60 0 35 -5 52 -20 65 -11 9 -20 27 -20
40 0 14 -14 37 -35 56 -28 26 -35 39 -35 70 0 41 -11 51 -55 51 -24 0 -65 42
-65 67 0 7 -11 18 -25 23 -14 5 -25 14 -25 19 0 5 -10 13 -22 16 -47 13 -89
37 -101 56 -6 10 -17 19 -23 19 -6 0 -19 9 -29 20 -20 22 -45 27 -45 8 0 -23
-51 38 -65 78 -12 33 -15 36 -20 18 -5 -16 -12 -20 -32 -16 -17 3 -29 -1 -35
-12 -15 -27 -25 -19 -56 44 -26 51 -29 65 -21 94 12 42 -1 79 -36 102 -40 26
-105 88 -105 101 0 6 -24 23 -53 38 -97 49 -151 139 -120 198 19 38 11 101
-13 105 -62 9 -63 10 -51 42 10 25 8 32 -10 52 -31 34 -48 99 -33 128 13 25
12 26 -42 55 -24 13 -26 18 -18 41 18 45 12 82 -15 100 -13 9 -27 25 -30 36
-4 10 -20 35 -37 53 -16 19 -31 49 -33 67 -2 18 -7 52 -11 75 -5 30 -2 49 8
65 9 13 18 38 22 55 6 28 3 34 -24 55 -51 38 -59 67 -56 218 1 74 8 152 15
172 11 34 10 40 -14 78 -22 35 -25 46 -16 71 7 21 6 42 -3 76 -17 60 -26 120
-19 127 10 10 11 86 2 86 -6 0 -7 6 -2 13 4 6 9 21 10 32 2 11 13 28 26 37 12
9 30 24 39 32 9 8 26 19 37 26 12 6 21 20 21 31 0 12 11 34 25 51 21 25 24 35
18 74 -5 40 -4 46 16 51 25 6 27 16 6 37 -32 32 1 109 50 118 12 2 21 13 23
26 4 26 98 132 118 132 8 0 14 5 14 10 0 6 9 10 21 10 12 0 23 8 26 19 3 12
11 17 19 14 8 -3 14 0 14 7 0 8 18 11 57 8 l56 -3 16 45 16 45 6 -75 c4 -41 7
-150 8 -242 1 -154 3 -170 21 -188 25 -25 70 -26 102 0 40 31 91 147 174 395
42 127 85 239 95 250 65 73 68 75 110 75 24 0 55 -8 74 -20 24 -15 43 -19 80
-15 26 3 54 10 61 16 10 8 15 8 18 -2 3 -8 7 -180 10 -384 2 -203 5 -371 5
-372 15 -33 83 -43 113 -16 17 15 18 40 18 380 l0 363 23 1 c12 0 32 2 44 3
12 1 28 -1 34 -5 7 -4 22 -1 34 7 26 17 85 25 85 12 0 -5 10 -8 23 -7 12 2 28
0 35 -5 7 -4 20 -5 28 -2 9 3 24 1 35 -4 18 -10 19 -24 18 -288 0 -198 -4
-287 -13 -312 -16 -44 -4 -83 30 -99 36 -16 49 -14 79 12 35 30 43 95 46 375
2 150 7 226 14 232 8 7 22 -1 44 -22 26 -25 31 -37 26 -57 -11 -44 -11 -46 11
-43 26 3 47 -20 48 -56 1 -20 9 -31 35 -44 18 -9 43 -25 55 -36 11 -10 47 -24
79 -30 57 -11 115 -51 102 -71 -3 -5 2 -16 10 -24 8 -9 15 -22 15 -31 0 -8 6
-19 13 -23 15 -10 39 -100 39 -149 0 -19 3 -33 6 -30 3 3 12 -4 21 -17 11 -15
15 -38 13 -72 -3 -41 0 -54 17 -69 17 -16 25 -17 46 -8 17 8 26 8 31 0 4 -5
27 -20 53 -31 36 -16 66 -20 136 -19 156 1 306 61 468 185 106 82 123 118 79
170 -24 27 -67 21 -109 -16 -132 -115 -266 -183 -400 -202 -86 -11 -153 17
-137 59 6 15 55 40 117 60 9 3 17 9 16 13 -3 20 3 30 31 46 17 10 30 25 30 33
0 8 8 14 18 14 21 0 47 25 56 55 3 12 -2 37 -13 58 l-19 38 23 54 c13 29 43
72 65 94 39 38 52 46 74 42 4 -1 14 3 22 10 13 11 38 4 30 -10 -8 -13 9 -29
37 -36 20 -5 27 -4 27 8 0 8 10 17 22 21 18 4 20 8 10 18 -15 15 -16 28 -2 28
6 0 10 -6 10 -14 0 -8 11 -17 25 -20 14 -4 25 -14 25 -24 1 -14 5 -12 22 8 11
14 25 24 31 22 64 -19 166 14 204 67 12 16 35 31 52 34 28 6 31 10 31 47 0 26
6 45 18 55 85 74 126 95 136 69 8 -22 23 -17 64 20 22 21 53 37 77 42 22 4 53
17 68 30 35 29 101 32 137 7z m-3305 -183 c-12 -53 -105 -317 -100 -281 3 18
5 91 5 161 0 122 1 127 23 138 12 6 35 11 50 11 27 1 28 -1 22 -29z m3125
-3725 c10 -12 10 -15 -4 -15 -9 0 -16 7 -16 15 0 8 2 15 4 15 2 0 9 -7 16 -15z
m-2294 -370 c-26 -20 -41 -7 -20 16 13 14 21 16 28 9 8 -8 6 -15 -8 -25z
m2887 -1084 c55 -21 43 -92 -28 -166 -19 -21 -35 -39 -35 -40 0 -2 16 -6 35
-9 19 -4 39 -15 45 -25 9 -17 3 -19 -68 -24 -42 -3 -80 -2 -84 2 -24 22 -9 53
60 129 39 44 72 83 72 87 0 12 -45 -7 -81 -36 -20 -15 -39 -25 -43 -22 -27 27
28 87 101 112 1 1 13 -3 26 -8z m362 -16 c14 -13 25 -31 25 -40 0 -27 -26 -68
-69 -110 l-41 -39 42 -11 c28 -6 44 -16 46 -27 3 -15 -4 -18 -41 -18 -24 0
-58 -3 -75 -6 -27 -5 -33 -3 -43 20 -11 24 -8 30 58 103 38 43 73 84 77 92 13
21 -33 3 -75 -30 -37 -29 -49 -29 -49 1 0 28 73 86 113 89 4 1 19 -10 32 -24z
m173 -5 c23 0 22 -23 -4 -132 -15 -62 -29 -115 -31 -117 -9 -12 -33 26 -33 53
0 30 -2 32 -29 28 -23 -3 -33 1 -46 21 -15 23 -15 28 -1 54 8 15 36 51 61 78
42 46 48 48 59 33 7 -10 18 -18 24 -18z m742 10 c38 -38 24 -86 -47 -161 l-35
-36 36 -7 c20 -4 40 -15 46 -25 9 -17 3 -19 -68 -23 -118 -8 -123 19 -22 131
39 43 70 81 70 84 0 13 -61 -16 -82 -39 -27 -28 -34 -29 -42 -8 -9 24 18 60
62 83 47 25 57 26 82 1z m-1113 -5 c12 -9 25 -31 29 -49 9 -49 -21 -143 -56
-178 -28 -28 -31 -28 -58 -14 -49 25 -55 72 -21 158 38 99 60 115 106 83z
m598 -21 c20 -30 22 -31 34 -13 6 11 27 27 46 36 33 16 37 16 52 0 15 -15 17
-15 28 0 15 21 35 9 35 -21 0 -32 -34 -166 -50 -196 -23 -44 -59 -53 -92 -23
-22 20 -24 35 -3 26 20 -7 51 21 63 57 10 28 10 28 -16 15 -28 -15 -59 -6 -69
21 -8 21 -20 8 -27 -29 -3 -18 -20 -49 -36 -69 -28 -34 -33 -36 -60 -26 -35
12 -50 35 -50 77 0 32 31 120 56 159 21 33 62 26 89 -14z m350 22 c12 -12 11
-28 -10 -112 -14 -55 -25 -107 -25 -117 0 -12 -6 -17 -17 -15 -15 3 -19 16
-21 73 -2 39 -8 73 -15 77 -8 5 -5 15 11 35 12 15 27 38 32 51 11 25 25 28 45
8z m-515 -216 c0 -13 -7 -20 -20 -20 -13 0 -20 7 -20 20 0 13 7 20 20 20 13 0
20 -7 20 -20z m403 14 c11 -11 -5 -34 -24 -34 -12 0 -19 7 -19 20 0 19 28 28
43 14z m-1191 -96 c7 -13 11 -29 10 -35 -4 -16 22 -17 47 -1 15 9 23 7 44 -8
30 -21 34 -34 12 -34 -9 0 -20 -20 -30 -52 -18 -63 -19 -79 -2 -73 25 9 41
-14 47 -66 6 -58 2 -61 50 43 23 51 60 81 86 71 9 -3 24 -23 33 -44 l17 -38
13 62 c7 34 21 81 31 105 18 39 21 42 41 32 16 -9 19 -18 15 -37 -21 -81 -37
-176 -33 -195 3 -20 7 -16 25 23 28 60 45 74 62 54 8 -10 10 -30 6 -58 l-6
-42 24 40 c56 93 66 99 107 66 l23 -18 -23 -12 c-21 -11 -51 -65 -51 -91 0
-23 30 -8 63 31 43 53 57 36 16 -20 -42 -56 -74 -63 -110 -24 l-27 31 -11 -24
c-11 -25 -54 -34 -66 -14 -4 6 -14 1 -24 -12 -18 -21 -19 -21 -44 -5 -15 9
-31 32 -36 50 -5 17 -10 24 -10 15 -1 -21 -49 -78 -66 -78 -7 0 -25 10 -40 21
-22 18 -29 20 -36 8 -5 -8 -9 -17 -9 -21 0 -18 -31 -6 -46 17 -11 18 -15 38
-11 65 3 22 2 40 -2 40 -10 0 -51 -75 -51 -94 0 -23 -36 -20 -53 5 -15 21 -15
21 -21 1 -11 -33 -33 -47 -52 -31 -9 7 -19 21 -23 31 -6 18 -8 18 -28 -1 -11
-11 -24 -17 -27 -14 -3 4 -6 -1 -6 -10 0 -10 -3 -17 -7 -17 -12 0 -43 33 -43
47 0 11 -4 11 -20 1 -17 -11 -25 -10 -48 2 -39 23 -43 80 -7 116 23 22 32 25
65 20 22 -3 41 -2 45 4 11 17 35 11 35 -9 0 -10 -6 -36 -13 -57 -23 -65 -28
-94 -17 -94 18 0 56 74 73 142 21 82 21 75 -3 81 -29 8 -24 27 8 33 22 4 34
17 50 50 24 50 36 54 54 22z m-4761 -132 c-26 -117 -26 -119 -1 -78 26 42 60
58 89 43 32 -18 26 -49 -14 -72 -19 -12 -35 -28 -35 -36 0 -12 5 -12 33 4 21
12 41 37 56 71 26 54 40 63 61 37 10 -12 16 -13 27 -3 21 17 46 -17 40 -55 -7
-49 21 -24 43 37 16 43 35 18 31 -41 -2 -41 -1 -45 12 -31 9 8 30 50 48 92 17
42 36 76 42 76 31 0 -53 -220 -89 -234 -19 -7 -54 19 -54 40 0 8 -11 12 -27
11 -23 -2 -29 4 -39 32 l-11 34 -26 -54 c-15 -29 -27 -61 -27 -71 0 -16 -3
-17 -20 -8 -12 6 -20 21 -20 35 0 28 -12 32 -30 10 -18 -21 -66 -19 -90 5
l-20 20 -6 -30 c-11 -53 -65 -32 -99 39 -11 22 -23 41 -26 41 -4 0 -11 -21
-16 -47 -6 -38 -12 -48 -28 -48 -15 0 -21 8 -23 29 -4 32 23 164 44 214 13 33
14 33 43 17 25 -12 31 -23 36 -62 3 -27 9 -66 13 -88 l7 -40 17 68 c24 94 56
163 69 150 7 -7 4 -39 -10 -107z m4447 71 c24 -23 28 -47 10 -65 -9 -9 -16 -8
-29 4 -16 14 -19 12 -44 -29 -29 -51 -45 -99 -45 -139 0 -37 12 -35 44 7 27
35 50 40 39 7 -11 -31 -54 -82 -69 -82 -8 0 -27 12 -41 26 -23 23 -25 31 -19
80 9 74 44 163 77 197 30 30 37 29 77 -6z m-3559 14 c12 -8 11 -23 -4 -102 -9
-52 -19 -102 -22 -113 -8 -30 15 -9 31 27 7 18 25 43 39 56 21 19 30 22 54 14
48 -16 42 -41 -21 -86 -10 -8 -17 -19 -15 -25 6 -19 67 28 78 60 14 39 56 64
85 50 18 -8 27 -7 39 6 15 14 17 14 23 -2 4 -10 -1 -44 -11 -76 -10 -32 -14
-63 -10 -70 9 -15 59 70 70 118 6 27 9 31 21 21 11 -9 13 -24 8 -58 -6 -44 -5
-45 11 -29 10 9 32 49 50 89 31 70 55 98 55 65 0 -27 -59 -172 -81 -200 -25
-31 -33 -32 -57 -6 -20 22 -46 19 -56 -6 -8 -21 -47 -17 -53 6 -4 15 -11 18
-32 14 -18 -4 -33 0 -44 11 -15 15 -19 14 -46 -6 -29 -21 -51 -22 -93 -4 -12
5 -18 3 -18 -7 0 -8 -5 -19 -11 -25 -18 -18 -69 12 -70 40 -3 61 17 166 43
222 12 27 16 29 37 16z m4717 -16 c4 -9 -5 -42 -19 -75 -14 -32 -29 -75 -33
-96 -7 -40 -1 -41 44 -1 22 21 32 11 10 -11 -8 -8 -8 -12 -1 -12 6 0 18 10 26
23 9 12 16 17 16 11 1 -16 -74 -94 -91 -94 -8 0 -25 10 -37 22 -20 18 -23 28
-18 72 8 71 61 176 89 176 5 0 11 -7 14 -15z m147 -11 c-1 -10 -14 -77 -29
-149 -21 -96 -30 -123 -35 -105 l-7 25 -2 -25 -1 -25 -10 24 c-5 13 -8 47 -7
75 3 44 1 51 -14 48 -12 -2 -16 2 -12 11 3 9 13 13 25 10 11 -3 19 0 19 6 0 7
-4 9 -10 6 -18 -11 -11 13 13 42 12 15 28 41 35 56 13 31 38 32 35 1z m447
-36 c-1 -35 -62 -183 -87 -212 -29 -33 -36 -33 -67 5 -15 18 -26 25 -26 16 0
-27 -29 -42 -59 -30 -25 9 -29 7 -44 -20 -16 -27 -19 -28 -40 -14 -19 13 -22
24 -22 81 0 65 0 66 -18 43 -10 -12 -25 -36 -32 -54 -19 -42 -31 -48 -59 -29
-22 14 -23 19 -15 54 15 70 28 94 47 90 10 -2 16 -12 15 -25 -2 -17 7 -12 42
25 37 40 47 45 62 36 20 -12 22 -45 10 -129 l-7 -50 26 50 c50 95 53 99 74 80
15 -14 16 -22 8 -52 -5 -19 -7 -37 -4 -40 6 -7 33 51 41 90 11 52 30 25 27
-38 -2 -53 -1 -57 14 -44 9 8 25 33 35 56 11 24 28 63 39 88 21 48 40 59 40
23z m-951 -2 c11 -14 5 -46 -9 -46 -15 0 -32 30 -26 45 7 19 20 19 35 1z m770
0 c11 -14 5 -46 -9 -46 -15 0 -32 30 -26 45 7 19 20 19 35 1z m-4344 -12 c15
-15 14 -19 -9 -43 l-26 -27 30 -23 c36 -26 46 -22 54 24 13 68 50 51 39 -17
-3 -21 -2 -38 3 -38 5 0 24 23 42 51 28 41 36 48 48 38 8 -6 12 -19 10 -28 -3
-9 -8 -29 -12 -45 -10 -43 11 -25 35 29 11 25 24 45 29 45 17 0 34 -30 28 -47
-6 -15 -5 -16 5 -5 19 18 29 15 38 -10 8 -22 8 -22 24 7 23 46 52 68 78 60 20
-7 21 -11 15 -63 -8 -65 4 -62 39 11 23 49 48 55 53 14 3 -23 6 -26 17 -17 17
14 35 5 35 -18 0 -9 12 3 27 26 31 48 58 61 80 39 12 -12 13 -24 5 -63 -6 -27
-9 -50 -7 -52 1 -2 16 19 33 47 37 60 61 75 96 61 37 -14 33 -44 -9 -70 -34
-21 -46 -40 -24 -40 26 0 66 41 78 80 14 47 38 62 57 35 11 -15 16 -16 30 -4
14 11 18 11 30 -6 9 -12 12 -30 8 -47 -5 -27 8 -39 21 -18 3 6 14 10 23 10 13
0 10 -6 -11 -27 -22 -22 -31 -26 -45 -17 -9 6 -19 24 -22 40 -5 28 -6 28 -33
-25 -15 -30 -27 -61 -27 -69 0 -26 -35 -7 -38 21 -4 30 -14 34 -32 12 -16 -19
-60 -19 -87 0 -20 14 -23 14 -33 -5 -12 -22 -45 -27 -56 -8 -4 6 -10 25 -13
42 l-7 30 -21 -37 c-25 -42 -50 -41 -55 1 -3 26 -3 26 -21 -10 -19 -41 -37
-47 -57 -23 -12 14 -15 14 -31 -1 -31 -28 -53 -14 -59 36 l-5 45 -23 -43 c-25
-46 -40 -49 -59 -12 l-12 24 -10 -26 c-13 -34 -26 -41 -52 -28 -16 9 -24 8
-39 -5 -17 -15 -19 -14 -37 8 -14 18 -22 22 -34 14 -21 -13 -50 -2 -56 23 -7
26 -23 26 -23 0 0 -54 -79 -112 -121 -90 -30 17 -19 41 33 75 57 36 60 47 11
33 -31 -8 -39 -7 -50 8 -20 28 -15 58 15 86 22 20 59 46 69 48 1 0 9 -7 18
-16z m-1056 -41 c8 -15 11 -15 26 -3 15 12 19 12 31 -5 9 -12 12 -30 8 -47 -5
-27 8 -39 21 -18 3 6 14 10 23 10 13 0 10 -6 -11 -27 -22 -22 -31 -26 -45 -17
-9 6 -18 21 -20 33 -2 11 -7 21 -11 21 -9 0 -51 -91 -51 -110 0 -25 -35 -4
-38 23 -4 30 -14 34 -32 12 -18 -21 -66 -19 -90 5 -26 26 -25 39 3 80 31 47
50 56 81 42 37 -16 33 -46 -9 -72 -19 -12 -35 -28 -35 -37 0 -12 6 -11 33 6
35 22 39 28 61 84 16 39 39 48 55 20z m832 -12 c23 -19 23 -19 5 -40 -10 -11
-27 -23 -37 -26 -19 -6 -27 -35 -10 -35 5 0 23 12 40 26 48 40 63 23 18 -20
-77 -73 -159 -26 -112 64 26 51 59 61 96 31z m4779 -141 c0 -21 -33 -29 -45
-10 -9 15 4 30 26 30 12 0 19 -7 19 -20z"/>
<path d="M595 9190 c-15 -17 -45 -137 -45 -184 0 -15 3 -16 15 -6 30 25 76
192 56 204 -4 3 -16 -3 -26 -14z"/>
<path d="M1062 9129 c-36 -55 -37 -59 -19 -59 11 0 62 99 54 106 -1 1 -17 -20
-35 -47z"/>
<path d="M1983 9158 c-16 -8 -23 -20 -23 -41 l0 -30 33 26 c48 37 40 69 -10
45z"/>
<path d="M300 8244 c-11 -36 -20 -76 -19 -88 0 -11 9 8 18 44 9 36 21 75 25
88 4 12 5 22 2 22 -3 0 -14 -30 -26 -66z"/>
<path d="M271 8114 c0 -11 3 -14 6 -6 3 7 2 16 -1 19 -3 4 -6 -2 -5 -13z"/>
<path d="M415 8058 c-50 -36 -96 -78 -86 -78 8 0 92 62 126 91 19 18 -11 8
-40 -13z"/>
<path d="M3650 8109 c0 -5 -5 -7 -10 -4 -6 4 -9 1 -8 -7 2 -7 -3 -12 -11 -10
-16 3 -31 -15 -31 -37 0 -11 4 -10 13 4 8 10 19 15 25 11 7 -4 12 -3 12 3 0 6
6 8 13 5 8 -3 13 5 15 21 1 14 -3 25 -8 25 -6 0 -10 -5 -10 -11z"/>
<path d="M3546 8045 c-8 -22 -8 -22 9 -22 17 0 18 6 6 25 -7 11 -10 10 -15 -3z"/>
<path d="M3535 8001 c-3 -5 -1 -12 5 -16 5 -3 10 1 10 9 0 18 -6 21 -15 7z"/>
<path d="M2971 7988 c-1 -10 -5 -18 -11 -18 -5 0 -10 -21 -10 -46 0 -28 4 -43
10 -39 6 4 8 11 5 16 -4 5 -1 9 6 9 7 0 9 3 6 6 -3 4 -3 14 2 23 4 9 5 27 0
41 -4 16 -7 19 -8 8z"/>
<path d="M3056 7910 c-9 -22 -16 -47 -16 -56 0 -8 -7 -17 -15 -20 -8 -4 -12
-10 -9 -16 7 -10 34 9 34 25 0 5 11 24 24 41 20 27 22 35 11 49 -11 16 -14 13
-29 -23z"/>
<path d="M3620 7900 c0 -5 -5 -9 -11 -7 -6 1 -14 -4 -16 -10 -7 -19 8 -16 37
7 20 16 22 20 8 20 -10 0 -18 -4 -18 -10z"/>
<path d="M3240 7710 c0 -5 5 -10 11 -10 5 0 7 5 4 10 -3 6 -8 10 -11 10 -2 0
-4 -4 -4 -10z"/>
<path d="M1962 8007 c-30 -79 -27 -95 4 -24 14 33 23 64 21 70 -2 7 -13 -14
-25 -46z"/>
<path d="M1672 7745 c0 -16 2 -22 5 -12 2 9 2 23 0 30 -3 6 -5 -1 -5 -18z"/>
<path d="M2458 8073 c-8 -10 -18 -25 -22 -33 -4 -8 0 -6 8 5 9 11 24 26 33 33
9 6 12 12 6 12 -5 0 -17 -8 -25 -17z"/>
<path d="M2437 8013 c-4 -3 -7 -16 -6 -27 0 -19 1 -19 10 3 10 24 8 36 -4 24z"/>
<path d="M2716 7995 c-9 -26 -7 -32 5 -12 6 10 9 21 6 23 -2 3 -7 -2 -11 -11z"/>
<path d="M3747 7850 c-3 -11 -1 -20 4 -20 5 0 9 9 9 20 0 11 -2 20 -4 20 -2 0
-6 -9 -9 -20z"/>
<path d="M3425 7619 c-11 -17 -2 -18 19 -3 17 12 17 14 4 14 -9 0 -20 -5 -23
-11z"/>
<path d="M3380 7590 c0 -5 7 -10 15 -10 8 0 15 5 15 10 0 6 -7 10 -15 10 -8 0
-15 -4 -15 -10z"/>
<path d="M6225 7405 c-24 -23 -33 -45 -19 -45 7 0 29 25 45 53 14 24 2 21 -26
-8z"/>
<path d="M5022 7407 c-12 -13 -22 -30 -22 -38 1 -15 50 35 50 52 0 13 -4 11
-28 -14z"/>
<path d="M5226 7398 c-9 -12 -16 -29 -16 -38 0 -8 10 0 21 18 24 37 20 55 -5
20z"/>
<path d="M3995 5310 c-32 -12 -55 -44 -168 -225 -59 -93 -135 -212 -169 -264
-63 -94 -63 -94 -133 -119 -38 -13 -81 -27 -94 -30 -22 -4 -23 -2 -17 22 6 25
5 27 -16 21 -121 -37 -324 -191 -372 -282 -19 -38 -14 -43 32 -32 137 33 314
69 343 69 l30 0 -33 -51 c-18 -29 -40 -55 -48 -60 -8 -4 -64 -13 -124 -19
-107 -12 -204 -38 -233 -62 -35 -29 -35 -46 4 -88 20 -23 54 -50 75 -61 34
-17 44 -18 76 -8 20 6 46 19 56 28 18 15 18 15 6 -9 -27 -52 -123 -190 -132
-190 -31 0 -119 75 -145 124 -77 148 -47 325 80 457 60 62 147 131 233 184
l59 37 -50 -7 c-71 -10 -151 -42 -219 -87 -58 -39 -59 -40 -52 -14 4 16 2 26
-4 26 -30 0 -256 -129 -314 -180 -36 -32 -76 -94 -76 -119 0 -26 37 -51 76
-51 62 0 65 -44 7 -105 -36 -38 -63 -80 -63 -98 0 -18 32 -30 135 -52 99 -21
176 -65 220 -125 47 -64 52 -91 25 -135 -12 -19 -25 -35 -28 -35 -4 0 -27 25
-52 56 -64 81 -144 144 -183 145 -18 0 -79 1 -136 2 -100 2 -104 3 -124 29
-18 24 -19 31 -7 73 7 25 28 72 47 103 28 45 32 61 24 74 -6 10 -11 27 -11 38
0 28 -8 25 -60 -16 -70 -57 -189 -144 -255 -189 -80 -53 -253 -221 -330 -320
-35 -44 -78 -109 -96 -145 -29 -56 -34 -76 -37 -150 -2 -73 1 -91 21 -129 12
-25 28 -46 34 -48 6 -2 31 22 54 54 80 110 153 184 243 251 50 37 105 74 121
83 64 35 161 61 270 74 43 6 262 -17 303 -31 60 -20 102 -42 102 -55 0 -10
-111 -180 -138 -212 -15 -17 -16 -17 -28 5 -12 22 -12 22 -33 -13 -11 -19 -39
-45 -62 -58 -45 -26 -44 -31 8 -46 l36 -10 -189 -280 c-233 -346 -344 -528
-344 -564 0 -32 37 -71 67 -71 33 0 56 27 128 150 106 179 504 768 587 866 96
116 159 208 129 190 -17 -11 -13 3 10 41 l21 34 29 -33 c15 -18 28 -36 29 -40
0 -4 13 -14 30 -23 22 -11 63 -15 172 -15 145 0 153 2 211 43 21 15 36 18 74
12 88 -12 87 -6 36 -215 l-44 -185 -42 -34 c-23 -19 -86 -79 -139 -133 -113
-114 -165 -204 -175 -303 -6 -66 -7 -66 52 10 44 57 220 232 249 247 18 10 18
7 12 -43 -4 -33 -18 -71 -36 -99 -32 -48 -32 -57 -2 -41 19 10 20 8 15 -112
-8 -164 13 -223 90 -264 76 -40 273 -4 432 78 124 65 239 151 254 191 18 50
-26 100 -79 89 -8 -1 -1 10 15 26 17 16 37 43 46 59 16 30 19 31 70 28 30 -3
90 -9 135 -15 108 -14 237 11 350 69 80 41 191 160 222 237 20 49 42 144 42
178 l0 31 -42 -41 c-55 -52 -111 -74 -134 -51 -14 14 -14 19 8 54 33 53 95
211 86 220 -2 2 -15 -7 -29 -19 -34 -30 -70 -50 -77 -42 -3 3 8 32 26 65 42
76 61 139 67 225 4 56 3 65 -6 45 -38 -87 -65 -133 -88 -149 -57 -39 -190 -67
-206 -42 -3 5 2 17 11 25 14 15 10 16 -49 13 -36 -1 -69 1 -73 5 -4 4 6 42 22
85 l30 78 108 1 c59 1 112 6 117 11 9 9 -31 46 -149 140 -14 11 -11 23 21 105
99 250 194 585 180 636 -3 12 -19 30 -35 38 -24 12 -33 13 -56 2 -29 -14 -33
-23 -76 -199 -14 -58 -30 -117 -35 -132 l-10 -26 -73 72 c-143 141 -351 208
-643 206 -82 -1 -141 -3 -130 -6 60 -13 198 -58 250 -81 115 -49 225 -141 225
-187 0 -13 -5 -16 -22 -11 -13 4 -42 10 -65 13 -48 6 -63 -10 -43 -47 18 -33
15 -168 -4 -213 -15 -34 -15 -40 -1 -75 9 -20 30 -52 48 -70 39 -41 137 -103
199 -128 47 -19 57 -34 39 -63 -8 -13 -14 -13 -38 -2 -42 20 -171 61 -233 74
-75 16 -352 17 -390 1 -33 -14 -60 -61 -85 -147 -9 -31 -20 -59 -24 -61 -4 -3
-22 4 -40 15 -27 16 -31 22 -21 34 14 17 14 17 -55 19 -57 2 -52 25 15 59 l55
29 -105 -8 c-139 -10 -340 -8 -352 4 -6 6 3 29 24 61 26 41 37 50 53 45 85
-26 315 -28 331 -3 3 5 16 9 29 9 13 0 26 4 29 9 3 4 19 11 35 14 75 15 235
138 327 251 36 43 63 80 61 82 -2 2 -43 -16 -91 -41 -86 -45 -131 -55 -138
-33 -3 7 -23 1 -59 -19 -29 -16 -66 -33 -81 -36 -25 -7 -28 -5 -28 17 0 50
130 178 245 241 37 20 64 27 107 28 50 0 56 2 48 17 -36 68 -201 130 -343 130
-52 0 -53 1 -33 33 48 79 263 420 287 455 28 41 37 85 21 109 -12 18 -55 31
-77 23z m-310 -839 c0 -8 -19 -28 -43 -45 -23 -17 -63 -46 -88 -65 -42 -31
-45 -32 -34 -10 7 13 31 50 52 82 37 55 41 58 76 55 24 -2 37 -8 37 -17z
m1004 -107 c6 -5 -24 -98 -48 -149 l-18 -40 -77 77 c-76 76 -93 112 -58 121
18 5 194 -3 201 -9z m-269 -610 c22 -9 40 -20 40 -24 0 -12 -138 -392 -145
-398 -19 -20 -151 94 -187 161 -23 43 -22 116 2 169 25 55 40 74 76 93 39 20
162 20 214 -1z m-504 -49 c7 -27 6 -29 -9 -16 -10 7 -17 25 -17 39 0 33 16 18
26 -23z m720 -90 c9 -25 14 -56 12 -70 -7 -37 27 -33 47 5 24 46 32 40 59 -44
19 -58 -45 -142 -129 -172 -48 -16 -155 -19 -155 -3 0 9 90 268 115 332 10 25
30 6 51 -48z m-712 35 c11 -11 46 -157 46 -196 0 -44 -39 -79 -117 -103 -37
-12 -68 -20 -69 -18 -4 3 43 187 49 193 2 3 19 -7 36 -21 39 -33 40 -21 2 31
-28 38 -28 40 -14 87 12 43 16 47 36 41 12 -3 26 -10 31 -14z m577 -370 c17
-13 19 -19 9 -20 -30 0 -60 13 -60 26 0 20 24 17 51 -6z m-451 -234 c0 -19
-17 -37 -79 -80 -44 -30 -82 -60 -86 -66 -9 -14 17 -13 62 4 125 44 137 45
153 7 17 -42 54 -73 96 -80 l36 -6 -78 -58 c-44 -32 -104 -71 -134 -87 -80
-40 -213 -80 -270 -80 -45 0 -50 2 -56 26 -7 27 2 209 14 279 6 37 12 43 71
73 76 39 211 86 259 91 6 0 12 -10 12 -23z"/>
<path d="M2558 3687 c-42 -19 -68 -48 -68 -77 0 -32 51 -83 101 -100 33 -12
39 -11 67 9 24 17 32 32 38 67 7 52 -9 77 -63 100 -38 16 -39 16 -75 1z"/>
<path d="M5863 838 c-21 -28 -24 -38 -10 -38 8 0 17 11 19 25 6 28 4 30 -9 13z"/>
<path d="M5518 880 c-10 -14 -20 -52 -23 -85 l-5 -60 26 52 c15 33 24 65 22
85 l-3 33 -17 -25z"/>
<path d="M6098 880 c-9 -14 -19 -52 -23 -85 -6 -56 -5 -59 10 -40 20 25 37 89
33 123 l-3 27 -17 -25z"/>
<path d="M6255 870 c-10 -11 -16 -22 -13 -25 3 -3 13 4 23 15 10 11 16 22 13
25 -3 3 -13 -4 -23 -15z"/>
<path d="M5171 463 c-10 -38 -22 -81 -26 -98 -6 -30 -6 -30 13 -10 11 11 27
47 35 80 9 33 19 68 22 78 5 12 2 17 -9 17 -10 0 -21 -21 -35 -67z"/>
<path d="M4947 392 c-18 -19 -23 -42 -9 -42 4 0 16 14 25 30 20 33 10 40 -16
12z"/>
<path d="M5437 372 c-2 -9 -8 -26 -13 -37 -7 -20 -7 -20 14 -1 23 20 28 41 13
50 -5 3 -11 -2 -14 -12z"/>
<path d="M1526 398 c-9 -12 -16 -26 -16 -31 0 -13 29 12 41 35 14 26 -6 23
-25 -4z"/>
<path d="M6201 384 c0 -11 3 -14 6 -6 3 7 2 16 -1 19 -3 4 -6 -2 -5 -13z"/>
<path d="M6237 373 c-4 -3 -7 -11 -7 -17 0 -6 5 -5 12 2 6 6 9 14 7 17 -3 3
-9 2 -12 -2z"/>
<path d="M2054 324 c-18 -14 -18 -15 4 -4 12 6 22 13 22 15 0 8 -5 6 -26 -11z"/>
</g>
</svg>
