<svg width="299" height="423" viewBox="0 0 299 423" fill="none" xmlns="http://www.w3.org/2000/svg">
<rect width="299" height="423" rx="15" fill="#F0F0F0"/>
<path d="M101.535 233.847L127.238 205.811V168H82V189.221L109.76 186.222L82 239.074V254H127.238V232.333L101.535 233.847Z" fill="#E94435"/>
<path d="M163.856 168H132.312L138.205 205.918L131.584 254H161.261L158.767 211.798L163.856 168Z" fill="#537DBE"/>
<path d="M216 208.813V168H201.942L204.491 208.813H216Z" fill="#32A851"/>
<path d="M216 227.212L193.381 211L170.762 224.322V254H188.67L193.438 229.28L197.421 254H216V227.212Z" fill="#F7AA1A"/>
<path d="M170.762 186.733V203.429L184.284 206.121C184.263 192.071 181.858 187.701 170.762 186.733Z" fill="#537DBE"/>
<path d="M184.277 168H170.762V186.273C181.559 185.331 184.127 181.168 184.277 168Z" fill="#E94435"/>
<path d="M197.808 186.273V168H184.293C184.443 181.168 187.011 185.331 197.808 186.273Z" fill="#F7AA1A"/>
<path d="M197.808 186.733C186.712 187.701 184.307 192.071 184.286 206.121L197.808 208.813V186.733Z" fill="#32A851"/>
<path d="M184.285 206.309C184.285 206.246 184.286 206.184 184.286 206.121L184.285 206.122C184.285 206.184 184.285 206.246 184.285 206.309Z" fill="white"/>
<path d="M197.808 186.733V186.273C187.011 185.331 184.443 181.168 184.293 168H184.277C184.127 181.168 181.559 185.331 170.762 186.273V186.733C181.858 187.701 184.264 192.071 184.285 206.122L184.286 206.121C184.307 192.071 186.712 187.701 197.808 186.733Z" fill="white"/>
<path d="M117.116 294.797H106.629V293.616H111.136V291.356H107.531V290.239H109.143V286.812H107.493V285.669H116.202V286.812H114.526V290.239H116.164V291.356H112.533V293.616H117.116V294.797ZM113.129 290.239V286.812H110.552V290.239H113.129ZM123.793 286.228C123.793 286.816 123.971 287.389 124.327 287.948C124.686 288.506 125.181 288.989 125.812 289.395C126.443 289.797 127.149 290.066 127.932 290.201L127.297 291.382C126.337 291.179 125.482 290.804 124.733 290.258C123.988 289.708 123.43 289.046 123.057 288.271C122.676 289.042 122.111 289.702 121.362 290.252C120.613 290.798 119.761 291.174 118.804 291.382L118.182 290.201C118.957 290.062 119.655 289.791 120.277 289.389C120.903 288.982 121.394 288.5 121.75 287.941C122.109 287.383 122.291 286.812 122.295 286.228V285.377H123.793V286.228ZM128.351 294.67H117.865V293.502H128.351V294.67ZM138.723 296.143H137.327V289.947H135.168V288.805H137.327V284.653H138.723V296.143ZM134.991 286.799H131.042V288.855H134.534V289.973H131.042V292.334C131.982 292.33 132.797 292.306 133.486 292.264C134.18 292.222 134.876 292.144 135.575 292.029L135.714 293.172C134.919 293.295 134.13 293.379 133.347 293.426C132.564 293.468 131.622 293.493 130.522 293.502H129.621V285.644H134.991V286.799ZM149.324 289.135H151.025V290.315H149.324V296.104H147.915V284.653H149.324V289.135ZM146.29 285.847C146.29 289.613 144.55 292.351 141.072 294.061L140.272 292.969C141.668 292.275 142.745 291.435 143.503 290.449C144.265 289.463 144.717 288.318 144.861 287.015H140.894V285.847H146.29ZM157.258 292.601H158.769V291.369H160.077V295.013C160.508 294.831 160.872 294.59 161.168 294.289C161.465 293.989 161.685 293.659 161.829 293.299C161.972 292.939 162.044 292.571 162.044 292.194V291.28H163.454V292.194C163.454 292.829 163.623 293.403 163.961 293.915C164.3 294.427 164.808 294.797 165.485 295.025L164.761 296.079C164.27 295.906 163.856 295.654 163.517 295.324C163.183 294.994 162.923 294.602 162.736 294.149C162.537 294.585 162.271 294.968 161.937 295.298C161.606 295.633 161.211 295.893 160.75 296.079L160.077 295.083V295.99H155.938V291.369H157.258V292.601ZM158.769 294.911V293.654H157.258V294.911H158.769ZM157.842 285.123C158.329 285.123 158.778 285.21 159.188 285.383C159.603 285.553 159.948 285.794 160.223 286.107C160.498 286.42 160.684 286.782 160.781 287.192H162.857V284.653H164.266V290.734H162.857V288.36H160.788C160.694 288.779 160.508 289.15 160.229 289.471C159.954 289.793 159.609 290.042 159.194 290.22C158.784 290.394 158.333 290.48 157.842 290.48C157.258 290.48 156.736 290.366 156.274 290.138C155.817 289.909 155.458 289.592 155.195 289.186C154.937 288.775 154.808 288.31 154.808 287.789C154.808 287.273 154.937 286.814 155.195 286.412C155.458 286.005 155.817 285.69 156.274 285.466C156.736 285.237 157.258 285.123 157.842 285.123ZM157.842 286.291C157.512 286.291 157.22 286.352 156.966 286.475C156.712 286.598 156.514 286.773 156.37 287.002C156.226 287.226 156.154 287.489 156.154 287.789C156.154 288.094 156.226 288.362 156.37 288.595C156.514 288.828 156.712 289.008 156.966 289.135C157.224 289.262 157.516 289.325 157.842 289.325C158.16 289.325 158.443 289.262 158.693 289.135C158.947 289.008 159.144 288.828 159.283 288.595C159.427 288.362 159.501 288.094 159.505 287.789C159.501 287.489 159.427 287.226 159.283 287.002C159.144 286.773 158.949 286.598 158.699 286.475C158.45 286.352 158.164 286.291 157.842 286.291ZM169.027 285.491C169.543 285.491 170.009 285.629 170.423 285.904C170.838 286.179 171.177 286.572 171.439 287.084C171.701 287.592 171.864 288.191 171.928 288.881H174.118V284.653H175.514V296.143H174.118V290.023H171.947C171.896 290.751 171.742 291.386 171.483 291.928C171.225 292.465 170.885 292.88 170.461 293.172C170.038 293.46 169.56 293.604 169.027 293.604C168.451 293.604 167.941 293.438 167.497 293.108C167.053 292.778 166.706 292.306 166.456 291.693C166.206 291.079 166.082 290.362 166.082 289.541C166.082 288.729 166.206 288.018 166.456 287.408C166.706 286.795 167.053 286.323 167.497 285.993C167.946 285.658 168.456 285.491 169.027 285.491ZM169.027 286.761C168.709 286.761 168.43 286.873 168.189 287.097C167.948 287.317 167.762 287.637 167.63 288.056C167.499 288.47 167.436 288.965 167.44 289.541C167.436 290.121 167.499 290.62 167.63 291.039C167.762 291.458 167.948 291.78 168.189 292.004C168.43 292.224 168.709 292.334 169.027 292.334C169.344 292.334 169.621 292.224 169.858 292.004C170.1 291.78 170.286 291.458 170.417 291.039C170.552 290.62 170.622 290.121 170.626 289.541C170.622 288.965 170.552 288.468 170.417 288.049C170.286 287.63 170.1 287.311 169.858 287.091C169.621 286.871 169.344 286.761 169.027 286.761ZM187.613 294.733H177.126V293.578H179.551V290.677C179.086 290.406 178.724 290.07 178.466 289.668C178.212 289.266 178.087 288.813 178.091 288.31C178.087 287.713 178.267 287.184 178.631 286.723C178.995 286.261 179.5 285.906 180.148 285.656C180.795 285.402 181.528 285.275 182.344 285.275C183.165 285.275 183.899 285.402 184.547 285.656C185.199 285.906 185.706 286.261 186.07 286.723C186.438 287.18 186.623 287.709 186.623 288.31C186.623 288.8 186.498 289.247 186.248 289.649C186.003 290.047 185.653 290.379 185.201 290.646V293.578H187.613V294.733ZM182.344 286.393C181.773 286.393 181.269 286.471 180.833 286.627C180.402 286.78 180.065 287 179.824 287.288C179.587 287.575 179.471 287.916 179.475 288.31C179.471 288.699 179.587 289.037 179.824 289.325C180.065 289.613 180.404 289.835 180.84 289.992C181.276 290.148 181.777 290.227 182.344 290.227C182.911 290.227 183.413 290.148 183.849 289.992C184.289 289.835 184.629 289.613 184.871 289.325C185.116 289.037 185.239 288.699 185.239 288.31C185.239 287.92 185.116 287.582 184.871 287.294C184.629 287.002 184.291 286.78 183.855 286.627C183.419 286.471 182.916 286.393 182.344 286.393ZM183.766 293.578V291.185C183.318 291.282 182.844 291.331 182.344 291.331C181.866 291.331 181.401 291.285 180.948 291.191V293.578H183.766ZM190.583 292.296H189.149L188.997 285.809H190.723L190.583 292.296ZM189.873 295.102C189.695 295.102 189.53 295.057 189.377 294.968C189.225 294.879 189.104 294.759 189.016 294.606C188.927 294.454 188.882 294.289 188.882 294.111C188.882 293.938 188.927 293.777 189.016 293.629C189.104 293.477 189.225 293.356 189.377 293.267C189.53 293.178 189.695 293.134 189.873 293.134C190.042 293.134 190.201 293.178 190.349 293.267C190.501 293.356 190.622 293.477 190.71 293.629C190.804 293.777 190.85 293.938 190.85 294.111C190.85 294.289 190.804 294.454 190.71 294.606C190.622 294.759 190.501 294.879 190.349 294.968C190.201 295.057 190.042 295.102 189.873 295.102Z" fill="black"/>
</svg>
