<svg width="60" height="15" viewBox="0 0 60 15" fill="none" xmlns="http://www.w3.org/2000/svg">
<path d="M4.021 7.19141C4.021 7.51367 4.10645 7.7749 4.27734 7.9751C4.45312 8.17041 4.68262 8.26807 4.96582 8.26807C5.25391 8.26807 5.4834 8.17041 5.6543 7.9751C5.8252 7.77979 5.91064 7.51855 5.91064 7.19141C5.91064 6.85938 5.82275 6.59326 5.64697 6.39307C5.47607 6.19287 5.24902 6.09277 4.96582 6.09277C4.68262 6.09277 4.45312 6.19531 4.27734 6.40039C4.10645 6.60059 4.021 6.86426 4.021 7.19141ZM6.02783 11V9.85742C5.66162 10.3457 5.27832 10.707 4.87793 10.9414C4.47754 11.1709 4.03564 11.2856 3.55225 11.2856C2.67334 11.2856 1.94336 10.9121 1.3623 10.165C0.786133 9.41797 0.498047 8.45605 0.498047 7.2793C0.498047 6.04883 0.778809 5.06006 1.34033 4.31299C1.90674 3.56104 2.64404 3.18506 3.55225 3.18506C4.021 3.18506 4.4458 3.2876 4.82666 3.49268C5.2124 3.69287 5.56885 4.00537 5.896 4.43018V3.42676H9.41895V11H6.02783ZM11.4697 11V6.21729H10.437V3.42676H11.4697V0.921875H15.1465V3.42676H16.1938V6.21729H15.1465V11H11.4697ZM25.7666 7.81396L20.5444 7.82129V7.93848C20.5444 8.32422 20.6128 8.6123 20.7495 8.80273C20.8911 8.98828 21.1035 9.08105 21.3867 9.08105C21.5576 9.08105 21.7065 9.03223 21.8335 8.93457C21.9604 8.83203 22.0605 8.68555 22.1338 8.49512L25.5396 8.72217C25.2417 9.54248 24.729 10.1748 24.0015 10.6191C23.2739 11.0635 22.3828 11.2856 21.3281 11.2856C20.7422 11.2856 20.1929 11.1953 19.6802 11.0146C19.1724 10.8389 18.7158 10.5801 18.3105 10.2383C17.8564 9.84277 17.5073 9.38623 17.2632 8.86865C17.019 8.35107 16.897 7.80664 16.897 7.23535C16.897 6.65918 17.019 6.1123 17.2632 5.59473C17.5122 5.07227 17.8613 4.61816 18.3105 4.23242C18.7158 3.88574 19.1724 3.62451 19.6802 3.44873C20.188 3.27295 20.7373 3.18506 21.3281 3.18506C22.1387 3.18506 22.8662 3.34863 23.5107 3.67578C24.1553 3.99805 24.6924 4.46924 25.1221 5.08936C25.3418 5.40674 25.5054 5.7583 25.6128 6.14404C25.7251 6.5249 25.7812 6.94238 25.7812 7.39648C25.7812 7.51367 25.7788 7.60156 25.7739 7.66016C25.7739 7.71875 25.7715 7.77002 25.7666 7.81396ZM20.5737 6.16602L22.2363 6.17334C22.2217 5.87549 22.146 5.65576 22.0093 5.51416C21.8774 5.37256 21.6797 5.30176 21.416 5.30176C21.1816 5.30176 20.9912 5.37744 20.8447 5.52881C20.7031 5.67529 20.6128 5.8877 20.5737 6.16602ZM28.7402 11L25.7739 3.42676H29.6558L30.3003 6.31982C30.3442 6.51025 30.3809 6.71777 30.4102 6.94238C30.4395 7.16699 30.4639 7.39893 30.4834 7.63818C30.5225 7.35986 30.5615 7.11572 30.6006 6.90576C30.6396 6.69092 30.686 6.49561 30.7397 6.31982L31.5161 3.42676H33.9331L34.6362 6.40771C34.6704 6.54443 34.7046 6.72021 34.7388 6.93506C34.7778 7.14502 34.8145 7.37939 34.8486 7.63818C34.8779 7.38916 34.9146 7.14258 34.9585 6.89844C35.0073 6.64941 35.061 6.40771 35.1196 6.17334L35.8081 3.42676H39.6899L36.438 11H33.5449L32.9004 8.61963C32.8906 8.58545 32.876 8.53174 32.8564 8.4585C32.7393 8.03857 32.6636 7.70654 32.6294 7.4624C32.5952 7.71143 32.5293 8.02393 32.4316 8.3999C32.4023 8.50244 32.3828 8.57324 32.373 8.6123L31.7285 11H28.7402ZM43.2056 7.19141C43.2056 7.51367 43.291 7.7749 43.4619 7.9751C43.6377 8.17041 43.8672 8.26807 44.1504 8.26807C44.4385 8.26807 44.668 8.17041 44.8389 7.9751C45.0098 7.77979 45.0952 7.51855 45.0952 7.19141C45.0952 6.85938 45.0073 6.59326 44.8315 6.39307C44.6606 6.19287 44.4336 6.09277 44.1504 6.09277C43.8672 6.09277 43.6377 6.19531 43.4619 6.40039C43.291 6.60059 43.2056 6.86426 43.2056 7.19141ZM45.2124 11V9.85742C44.8462 10.3457 44.4629 10.707 44.0625 10.9414C43.6621 11.1709 43.2202 11.2856 42.7368 11.2856C41.8579 11.2856 41.1279 10.9121 40.5469 10.165C39.9707 9.41797 39.6826 8.45605 39.6826 7.2793C39.6826 6.04883 39.9634 5.06006 40.5249 4.31299C41.0913 3.56104 41.8286 3.18506 42.7368 3.18506C43.2056 3.18506 43.6304 3.2876 44.0112 3.49268C44.397 3.69287 44.7534 4.00537 45.0806 4.43018V3.42676H48.6035V11H45.2124ZM52.3682 10.3408L49.0796 3.42676H53.1152L53.6865 5.36035C53.6914 5.37988 53.6987 5.4043 53.7085 5.43359C53.9722 6.35156 54.1284 7.0376 54.1772 7.4917C54.3188 6.90088 54.4312 6.43213 54.5142 6.08545C54.6021 5.73389 54.6704 5.47754 54.7192 5.31641L55.2759 3.42676H59.0552L54.4336 14.0908H50.5225L52.3682 10.3408Z" fill="black"/>
</svg>
