<svg width="386" height="101" viewBox="0 0 386 101" fill="none" xmlns="http://www.w3.org/2000/svg">
<path d="M61.7 74.8C61.7 76.9333 61.1 78.6333 59.9 79.9C58.7667 81.1667 57.2667 81.8 55.4 81.8H43.8C42.8667 81.8 41.8667 81.7 40.8 81.5C39.7333 81.3667 38.6333 81.2 37.5 81C36.4333 80.8667 35.3333 80.8 34.2 80.8C33.1333 80.8 32.1667 80.9333 31.3 81.2C29.1 81.9333 26.7667 82.3 24.3 82.3H19.8C13.6 82.3 8.86667 80.6667 5.6 77.4C2.4 74.1333 0.8 68.9667 0.8 61.9V36.6C0.8 29.5333 2.4 24.3667 5.6 21.1C8.86667 17.8333 13.6 16.2 19.8 16.2H23.2C25.1333 16.2 26.9333 16.4 28.6 16.8C30.3333 17.1333 31.8667 17.5667 33.2 18.1C34 18.4333 34.8333 18.5333 35.7 18.4C36.6333 18.2667 37.5667 18.0667 38.5 17.8C39.4333 17.5333 40.3333 17.2667 41.2 17C42.1333 16.6667 43 16.5 43.8 16.5H55.4C57.2667 16.5 58.7667 17.1333 59.9 18.4C61.1 19.6667 61.7 21.3667 61.7 23.5V74.8ZM34.5 60.2C35.2333 56.8 35.6 53.1667 35.6 49.3C35.6 45.4333 35.2333 41.8 34.5 38.4H26.1C26.6333 41.8 26.9 45.4333 26.9 49.3C26.9667 53.1667 26.7 56.8 26.1 60.2H34.5ZM104.195 75.3C104.195 77.4333 103.628 79.1333 102.495 80.4C101.361 81.6667 99.8279 82.3 97.8945 82.3H89.0945C82.8945 82.3 78.1612 80.6667 74.8945 77.4C71.6945 74.1333 70.0945 68.9667 70.0945 61.9V35.7H69.9945C68.4612 35.7 67.2279 35.2 66.2945 34.2C65.3612 33.1333 64.8945 31.7333 64.8945 30V22C64.8945 20.3333 65.3279 19 66.1945 18C67.1279 17 68.3612 16.5 69.8945 16.5H70.0945V7C70.0945 4.86667 70.6612 3.16667 71.7945 1.9C72.9279 0.633329 74.4612 -5.72205e-06 76.3945 -5.72205e-06H90.0945C92.0279 -5.72205e-06 93.5612 0.633329 94.6945 1.9C95.8279 3.16667 96.3945 4.86667 96.3945 7V16.5H97.8945C99.8279 16.5 101.361 17.1333 102.495 18.4C103.628 19.6667 104.195 21.3667 104.195 23.5V28.7C104.195 30.8333 103.628 32.5333 102.495 33.8C101.361 35.0667 99.8279 35.7 97.8945 35.7H96.3945V55.3C96.3945 57.1667 96.8945 58.3333 97.8945 58.8C100.161 59.9333 101.761 61.0667 102.695 62.2C103.695 63.3333 104.195 64.6333 104.195 66.1V75.3ZM169.827 48.1C169.827 50.2333 169.227 51.9333 168.027 53.2C166.893 54.4667 165.393 55.1 163.527 55.1H134.427V59.2C134.427 60.7333 134.593 61.9333 134.927 62.8C135.26 63.6 136.06 64 137.327 64H140.527C140.993 64 141.427 63.9 141.827 63.7C142.493 63.3667 143.06 62.9333 143.527 62.4C143.993 61.8 144.46 61.2333 144.927 60.7C145.393 60.1667 145.86 59.7 146.327 59.3C146.86 58.9 147.493 58.7 148.227 58.7H163.527C165.46 58.7 166.993 59.3667 168.127 60.7C169.327 62.0333 169.827 63.7 169.627 65.7C169.027 71.4333 167.127 75.6333 163.927 78.3C160.793 80.9667 156.427 82.3 150.827 82.3H127.027C120.827 82.3 116.093 80.6667 112.827 77.4C109.627 74.1333 108.027 68.9667 108.027 61.9V36.6C108.027 29.5333 109.627 24.3667 112.827 21.1C116.093 17.8333 120.827 16.2 127.027 16.2H150.827C157.027 16.2 161.727 17.8333 164.927 21.1C168.193 24.3667 169.827 29.5333 169.827 36.6V48.1ZM143.427 43V39.3C143.427 37.7667 143.227 36.6 142.827 35.8C142.493 34.9333 141.727 34.5 140.527 34.5H137.327C136.06 34.5 135.26 34.9333 134.927 35.8C134.593 36.6 134.427 37.7667 134.427 39.3V43H143.427ZM250.656 74.8C250.523 76.9333 249.856 78.6333 248.656 79.9C247.456 81.1667 245.89 81.8 243.956 81.8H222.856C220.923 81.8 219.323 81.1667 218.056 79.9C216.79 78.6333 216.023 76.9667 215.756 74.9L213.156 50.6H212.556L209.856 74.9C209.59 76.9667 208.823 78.6333 207.556 79.9C206.29 81.1667 204.69 81.8 202.756 81.8H181.656C179.723 81.8 178.156 81.1667 176.956 79.9C175.756 78.6333 175.09 76.9333 174.956 74.8L172.056 23.5C171.923 21.3667 172.39 19.6667 173.456 18.4C174.523 17.1333 176.023 16.5 177.956 16.5H188.756C190.69 16.5 192.223 17.1333 193.356 18.4C194.556 19.6667 195.223 21.3667 195.356 23.5L196.756 57.6H197.256L200.456 23.5C200.59 21.3667 201.29 19.6667 202.556 18.4C203.823 17.1333 205.423 16.5 207.356 16.5H218.256C220.19 16.5 221.756 17.1333 222.956 18.4C224.223 19.6667 224.956 21.3667 225.156 23.5L228.356 57.6H228.856L230.256 23.5C230.39 21.3667 231.023 19.6667 232.156 18.4C233.356 17.1333 234.923 16.5 236.856 16.5H247.656C249.59 16.5 251.09 17.1333 252.156 18.4C253.223 19.6667 253.69 21.3667 253.556 23.5L250.656 74.8ZM318.634 74.8C318.634 76.9333 318.034 78.6333 316.834 79.9C315.7 81.1667 314.2 81.8 312.334 81.8H300.734C299.8 81.8 298.8 81.7 297.734 81.5C296.667 81.3667 295.567 81.2 294.434 81C293.367 80.8667 292.267 80.8 291.134 80.8C290.067 80.8 289.1 80.9333 288.234 81.2C286.034 81.9333 283.7 82.3 281.234 82.3H276.734C270.534 82.3 265.8 80.6667 262.534 77.4C259.334 74.1333 257.734 68.9667 257.734 61.9V36.6C257.734 29.5333 259.334 24.3667 262.534 21.1C265.8 17.8333 270.534 16.2 276.734 16.2H280.134C282.067 16.2 283.867 16.4 285.534 16.8C287.267 17.1333 288.8 17.5667 290.134 18.1C290.934 18.4333 291.767 18.5333 292.634 18.4C293.567 18.2667 294.5 18.0667 295.434 17.8C296.367 17.5333 297.267 17.2667 298.134 17C299.067 16.6667 299.934 16.5 300.734 16.5H312.334C314.2 16.5 315.7 17.1333 316.834 18.4C318.034 19.6667 318.634 21.3667 318.634 23.5V74.8ZM291.434 60.2C292.167 56.8 292.534 53.1667 292.534 49.3C292.534 45.4333 292.167 41.8 291.434 38.4H283.034C283.567 41.8 283.834 45.4333 283.834 49.3C283.9 53.1667 283.634 56.8 283.034 60.2H291.434ZM336.428 100.5C334.495 100.5 332.961 99.8667 331.828 98.6C330.695 97.3333 330.128 95.6333 330.128 93.5V87.7C330.128 84.0333 332.228 81.5667 336.428 80.3C337.561 79.9667 338.528 79.3333 339.328 78.4C340.128 77.4667 340.761 76.0667 341.228 74.2L322.428 23C321.695 21.0667 321.661 19.5 322.328 18.3C323.061 17.1 324.395 16.5 326.328 16.5H340.228C342.095 16.5 343.728 17.1333 345.128 18.4C346.595 19.6 347.595 21.2333 348.128 23.3L352.728 42.4H353.728L358.328 23.3C358.861 21.2333 359.828 19.6 361.228 18.4C362.695 17.1333 364.395 16.5 366.328 16.5H380.128C382.061 16.5 383.395 17.1 384.128 18.3C384.861 19.5 384.895 21.0667 384.228 23L363.328 84.1C361.328 89.9 358.528 94.0667 354.928 96.6C351.395 99.2 346.661 100.5 340.728 100.5H336.428Z" fill="#EA4435"/>
</svg>
