<svg width="272" height="108" viewBox="0 0 272 108" fill="none" xmlns="http://www.w3.org/2000/svg">
<path d="M61.7 30.5V81.8C61.7 86 59.1 88.8 55.4 88.8H43.8C40.1 88.8 34.9 87 31.3 88.2C29.2 88.9 26.8 89.3 24.3 89.3H19.8C7.5 89.3 0.8 82.9 0.8 68.9V43.6C0.8 29.6 7.5 23.2 19.8 23.2H23.2C27 23.2 30.6 24 33.2 25.1C36.3 26.4 40.6 23.5 43.8 23.5H55.4C59.1 23.5 61.7 26.3 61.7 30.5ZM26.1 67.2H34.5C36 60.5 36 52.1 34.5 45.4H26.1C27.2 52.1 27.3 60.5 26.1 67.2ZM104.195 73.1V82.3C104.195 86.5 101.695 89.3 97.8945 89.3H89.0945C76.7945 89.3 70.0945 82.9 70.0945 68.9V42.7H69.9945C66.9945 42.7 64.8945 40.4 64.8945 37V29C64.8945 25.7 66.8945 23.5 69.8945 23.5H70.0945V14C70.0945 9.79999 72.5945 6.99999 76.3945 6.99999H90.0945C93.8945 6.99999 96.3945 9.79999 96.3945 14V23.5H97.8945C101.695 23.5 104.195 26.3 104.195 30.5V35.7C104.195 39.9 101.695 42.7 97.8945 42.7H96.3945V62.3C96.3945 64.1 96.8945 65.3 97.8945 65.8C102.395 68.1 104.195 70.2 104.195 73.1ZM136.527 6.99999V12C136.527 16.2 133.927 19 130.227 19H114.727C110.927 19 108.427 16.2 108.427 12V6.99999C108.427 2.79999 110.927 -5.00679e-06 114.727 -5.00679e-06H130.227C133.927 -5.00679e-06 136.527 2.79999 136.527 6.99999ZM136.527 30.5V81.8C136.527 86 133.927 88.8 130.227 88.8H114.727C110.927 88.8 108.427 86 108.427 81.8V30.5C108.427 26.3 110.927 23.5 114.727 23.5H130.227C133.927 23.5 136.527 26.3 136.527 30.5ZM205.199 43.6V81.8C205.199 86 202.599 88.8 198.899 88.8H184.299C180.499 88.8 177.299 86.5 177.999 82.3C179.999 70.7 180.299 58.9 177.399 47.5H169.599C172.199 58.9 172.099 70.4 170.099 81.8C169.399 86 167.099 88.8 163.399 88.8H149.199C145.399 88.8 142.899 86 142.899 81.8V30.5C142.899 26.3 145.399 23.5 149.199 23.5H160.199C163.899 23.5 169.099 26 172.699 24.7C175.199 23.8 178.399 23.2 181.699 23.2H187.099C199.399 23.2 205.199 29.6 205.199 43.6ZM212.956 90.8C212.556 86.8 215.156 83.8 219.056 83.8H233.356C236.256 83.8 237.156 87.5 239.756 88.8C240.056 89 240.556 89.1 241.056 89.1H243.556C245.956 89.1 246.456 87.4 246.456 84.3V77.5C243.956 79.8 238.756 81.3 233.356 81.3H229.956C217.656 81.3 210.956 76.9 210.956 62.9V43.6C210.956 29.6 217.656 23.2 229.956 23.2H234.456C236.956 23.2 239.356 23.6 241.456 24.1C245.056 25.2 250.256 23.5 253.956 23.5H265.556C269.256 23.5 271.856 26.3 271.856 30.5V87C271.856 101 265.156 107.4 252.856 107.4H231.756C220.656 107.4 214.056 102.2 212.956 90.8ZM236.656 61.9H245.056C246.356 56.2 246.356 49 245.056 43.3H236.656C237.756 49 237.856 56.2 236.656 61.9Z" fill="#F8AB1A"/>
</svg>
