<svg width="42" height="16" viewBox="0 0 42 16" fill="none" xmlns="http://www.w3.org/2000/svg">
<path d="M4.021 8.19141C4.021 8.51367 4.10645 8.7749 4.27734 8.9751C4.45312 9.17041 4.68262 9.26807 4.96582 9.26807C5.25391 9.26807 5.4834 9.17041 5.6543 8.9751C5.8252 8.77979 5.91064 8.51855 5.91064 8.19141C5.91064 7.85938 5.82275 7.59326 5.64697 7.39307C5.47607 7.19287 5.24902 7.09277 4.96582 7.09277C4.68262 7.09277 4.45312 7.19531 4.27734 7.40039C4.10645 7.60059 4.021 7.86426 4.021 8.19141ZM6.02783 12V10.8574C5.66162 11.3457 5.27832 11.707 4.87793 11.9414C4.47754 12.1709 4.03564 12.2856 3.55225 12.2856C2.67334 12.2856 1.94336 11.9121 1.3623 11.165C0.786133 10.418 0.498047 9.45605 0.498047 8.2793C0.498047 7.04883 0.778809 6.06006 1.34033 5.31299C1.90674 4.56104 2.64404 4.18506 3.55225 4.18506C4.021 4.18506 4.4458 4.2876 4.82666 4.49268C5.2124 4.69287 5.56885 5.00537 5.896 5.43018V4.42676H9.41895V12H6.02783ZM11.4697 12V7.21729H10.437V4.42676H11.4697V1.92188H15.1465V4.42676H16.1938V7.21729H15.1465V12H11.4697ZM21.145 2.06836C21.145 2.61035 20.9668 3.04248 20.6104 3.36475C20.2539 3.68213 19.7729 3.84082 19.1675 3.84082C18.5571 3.84082 18.0713 3.67969 17.71 3.35742C17.3486 3.03516 17.168 2.60547 17.168 2.06836C17.168 1.53125 17.3462 1.10889 17.7026 0.80127C18.0591 0.48877 18.5474 0.33252 19.1675 0.33252C19.7827 0.33252 20.2661 0.48877 20.6177 0.80127C20.9692 1.10889 21.145 1.53125 21.145 2.06836ZM17.3218 12V4.42676H20.9985V12H17.3218ZM22.6685 12V4.42676H26.2354V5.47412C26.5527 5.03955 26.9043 4.71729 27.29 4.50732C27.6758 4.29248 28.1104 4.18506 28.5938 4.18506C29.3994 4.18506 30.0366 4.4292 30.5054 4.91748C30.979 5.40576 31.2158 6.07227 31.2158 6.91699V12H27.5391V8.17676C27.5391 7.80078 27.5 7.54199 27.4219 7.40039C27.3438 7.25879 27.207 7.18799 27.0117 7.18799C26.7969 7.18799 26.6333 7.271 26.521 7.43701C26.4087 7.60303 26.3525 7.84961 26.3525 8.17676V12H22.6685ZM36.0864 8.0376C36.0864 8.33057 36.1694 8.56494 36.3354 8.74072C36.5015 8.91162 36.7236 8.99707 37.002 8.99707C37.2852 8.99707 37.5098 8.91162 37.6758 8.74072C37.8467 8.56494 37.9321 8.33057 37.9321 8.0376C37.9321 7.74951 37.8467 7.51514 37.6758 7.33447C37.5049 7.15381 37.2803 7.06348 37.002 7.06348C36.7285 7.06348 36.5063 7.15381 36.3354 7.33447C36.1694 7.51025 36.0864 7.74463 36.0864 8.0376ZM37.8442 11.3115V10.6523C37.5024 11.0283 37.1411 11.3066 36.7603 11.4873C36.3794 11.668 35.9595 11.7583 35.5005 11.7583C34.6167 11.7583 33.8867 11.4263 33.3105 10.7622C32.7344 10.0933 32.4463 9.23633 32.4463 8.19141C32.4463 6.98047 32.7246 6.01123 33.2812 5.28369C33.8428 4.55127 34.5825 4.18506 35.5005 4.18506C35.9741 4.18506 36.4014 4.28516 36.7822 4.48535C37.168 4.68066 37.522 4.98584 37.8442 5.40088V4.42676H41.3672V10.9014C41.3672 11.5703 41.3379 12.0684 41.2793 12.3955C41.2207 12.7275 41.1255 13.0303 40.9937 13.3037C40.6763 13.958 40.1221 14.4512 39.3311 14.7832C38.5449 15.1201 37.5391 15.2886 36.3135 15.2886C35.6299 15.2886 34.9927 15.2275 34.4019 15.1055C33.8159 14.9883 33.2788 14.8125 32.7905 14.5781L33.5815 12.1318C34.0015 12.3955 34.4116 12.5908 34.812 12.7178C35.2173 12.8496 35.6177 12.9155 36.0132 12.9155C36.6089 12.9155 37.063 12.7788 37.3755 12.5054C37.688 12.2319 37.8442 11.834 37.8442 11.3115Z" fill="black"/>
</svg>
