<svg width="131" height="178" viewBox="0 0 131 178" fill="none" xmlns="http://www.w3.org/2000/svg">
<path d="M13.4 177.6C9.53333 177.6 6.46667 176.333 4.2 173.8C1.93333 171.267 0.8 167.867 0.8 163.6V14C0.8 9.73332 1.93333 6.33332 4.2 3.79999C6.46667 1.26666 9.53333 -1.00136e-05 13.4 -1.00136e-05H88.6C94.7333 -1.00136e-05 100.333 0.933323 105.4 2.79999C110.6 4.66666 115 7.39999 118.6 11C122.333 14.6 125.2 19.0667 127.2 24.4C129.333 29.7333 130.4 35.8667 130.4 42.8V134.8C130.4 141.867 129.333 148.067 127.2 153.4C125.2 158.733 122.333 163.2 118.6 166.8C115 170.4 110.6 173.067 105.4 174.8C100.333 176.667 94.7333 177.6 88.6 177.6H13.4ZM67.4 129C69.9333 129 71.8 128.2 73 126.6C74.3333 124.867 75.2667 122.467 75.8 119.4C76.6 114.867 77.2 110 77.6 104.8C78 99.4667 78.2 94.1333 78.2 88.8C78.2 83.4667 78 78.2 77.6 73C77.2 67.8 76.6 62.8667 75.8 58.2C75.1333 55.1333 74.2 52.8 73 51.2C71.8 49.4667 69.9333 48.6 67.4 48.6H55.2C57.6 62.0667 58.7333 75.4667 58.6 88.8C58.6 102.133 57.4667 115.533 55.2 129H67.4Z" fill="#ECECEC"/>
</svg>
