<svg width="28" height="29" viewBox="0 0 28 29" fill="none" xmlns="http://www.w3.org/2000/svg">
<path d="M10.8711 20.2695C13.1888 20.2565 14.8815 19.8073 15.9492 18.9219C17.0169 18.0234 17.5508 16.6237 17.5508 14.7227C17.5508 12.8607 17.0365 11.474 16.0078 10.5625C14.9922 9.65104 13.4297 9.19531 11.3203 9.19531H10.8711V20.2695ZM0.675781 29V0.40625H8.99609C11.6393 0.40625 13.8919 0.55599 15.7539 0.855469C17.6289 1.14193 19.1523 1.59115 20.3242 2.20312C22.7982 3.50521 24.6927 5.23047 26.0078 7.37891C27.3359 9.52734 28 11.9753 28 14.7227C28 17.457 27.3424 19.8919 26.0273 22.0273C24.7122 24.1628 22.8112 25.888 20.3242 27.2031C19.1133 27.8281 17.5768 28.2839 15.7148 28.5703C13.8529 28.8568 11.3594 29 8.23438 29H0.675781Z" fill="black"/>
</svg>
