<svg width="275" height="91" viewBox="0 0 275 91" fill="none" xmlns="http://www.w3.org/2000/svg">
<path d="M44.3 89.8H6.7C2.9 89.8 0.4 87 0.4 82.8V7.99999C0.4 3.79999 2.9 0.999995 6.7 0.999995H44.3C56.6 0.999995 65.2 8.4 65.2 22.4V68.4C65.2 82.4 56.6 89.8 44.3 89.8ZM27.6 65.5H33.7C36.2 65.5 37.4 63.8 37.9 60.7C39.4 51.5 39.6 39.3 37.9 30.1C37.3 27.1 36.2 25.3 33.7 25.3H27.6C30 38.7 29.9 52.1 27.6 65.5ZM136.491 21.9V24.6C136.491 28.8 133.991 31.6 130.191 31.6H116.691C112.491 31.6 112.391 25.7 108.591 24C108.191 23.9 107.891 23.8 107.391 23.8H101.291C98.8914 23.8 97.9914 25.5 97.9914 28.6V62.2C97.9914 65.3 98.8914 67 101.291 67H106.391C108.591 66.9 109.691 65.3 109.691 62.2V56.2H108.591C104.891 56.2 102.291 53.4 102.291 49.2V43.9C102.291 39.7 104.891 36.9 108.591 36.9H130.191C133.991 36.9 136.491 39.7 136.491 43.9V68.9C136.491 82.9 128.991 90.3 116.591 90.3H91.0914C78.7914 90.3 71.1914 82.9 71.1914 68.9V21.9C71.1914 7.9 78.7914 0.499995 91.0914 0.499995H116.591C128.991 0.499995 136.491 7.9 136.491 21.9Z" fill="#547DBF"/>
<path d="M203.18 44.6V69.9C203.18 83.9 196.48 90.3 184.18 90.3H161.28C148.98 90.3 142.28 83.9 142.28 69.9V44.6C142.28 30.6 148.98 24.2 161.28 24.2H184.18C196.48 24.2 203.18 30.6 203.18 44.6ZM167.98 68.2H176.38C177.88 61.5 177.88 53.1 176.38 46.4H167.98C169.08 53.1 169.18 61.5 167.98 68.2ZM274.284 21.9V32.6C274.284 36.8 271.784 39.6 267.984 39.6H253.384C249.584 39.6 247.084 36.8 247.084 32.6V29.6C247.084 26.5 246.184 24.8 243.684 24.8H239.584C237.184 24.8 236.284 26.5 236.284 29.6V61.2C236.284 64.3 237.184 66 239.584 66H243.684C245.984 65.9 247.084 64.3 247.084 61.2V57.7C247.084 53.5 249.584 50.7 253.384 50.7H267.984C271.784 50.7 274.284 53.5 274.284 57.7V68.9C274.284 82.9 266.784 90.3 254.384 90.3H228.884C216.584 90.3 208.984 82.9 208.984 68.9V21.9C208.984 7.9 216.584 0.499995 228.884 0.499995H254.384C266.784 0.499995 274.284 7.9 274.284 21.9Z" fill="#33A851"/>
</svg>
