<svg width="82" height="12" viewBox="0 0 82 12" fill="none" xmlns="http://www.w3.org/2000/svg">
<path d="M3.82666 7.72607C4.6958 7.72119 5.33057 7.55273 5.73096 7.2207C6.13135 6.88379 6.33154 6.35889 6.33154 5.646C6.33154 4.94775 6.13867 4.42773 5.75293 4.08594C5.37207 3.74414 4.78613 3.57324 3.99512 3.57324H3.82666V7.72607ZM0.00341797 11V0.277344H3.12354C4.11475 0.277344 4.95947 0.333496 5.65771 0.445801C6.36084 0.553223 6.93213 0.72168 7.37158 0.951172C8.29932 1.43945 9.00977 2.08643 9.50293 2.89209C10.001 3.69775 10.25 4.61572 10.25 5.646C10.25 6.67139 10.0034 7.58447 9.51025 8.38525C9.01709 9.18604 8.3042 9.83301 7.37158 10.3262C6.91748 10.5605 6.34131 10.7314 5.64307 10.8389C4.94482 10.9463 4.00977 11 2.83789 11H0.00341797ZM18.6948 7.16211H17.0176V4.64258H22.9429C22.9526 4.8623 22.96 5.02588 22.9648 5.1333C22.9697 5.24072 22.9722 5.33594 22.9722 5.41895C22.9722 6.03418 22.9136 6.5957 22.7964 7.10352C22.6792 7.61133 22.5083 8.06055 22.2837 8.45117C21.7368 9.36914 21.0312 10.0723 20.167 10.5605C19.3027 11.0439 18.3213 11.2856 17.2227 11.2856C16.4121 11.2856 15.6577 11.1514 14.9595 10.8828C14.2661 10.6094 13.6509 10.209 13.1138 9.68164C12.5815 9.1543 12.1787 8.55127 11.9053 7.87256C11.6318 7.19385 11.4951 6.45654 11.4951 5.66064C11.4951 4.85986 11.6318 4.12012 11.9053 3.44141C12.1836 2.75781 12.5864 2.15723 13.1138 1.63965C13.646 1.11719 14.2612 0.719238 14.9595 0.445801C15.6577 0.172363 16.4121 0.0356445 17.2227 0.0356445C18.3213 0.0356445 19.2979 0.277344 20.1523 0.760742C21.0068 1.23926 21.7051 1.94238 22.2471 2.87012L18.812 4.14453C18.6313 3.84668 18.4141 3.62451 18.1602 3.47803C17.9062 3.33154 17.6157 3.2583 17.2886 3.2583C16.7173 3.2583 16.2607 3.47559 15.9189 3.91016C15.582 4.34473 15.4136 4.92822 15.4136 5.66064C15.4136 6.41748 15.5845 7.00586 15.9263 7.42578C16.2681 7.84082 16.7515 8.04834 17.3765 8.04834C17.7476 8.04834 18.0479 7.97021 18.2773 7.81396C18.5117 7.65771 18.6509 7.44043 18.6948 7.16211ZM28.2529 8.26807C28.5166 8.26807 28.7314 8.17285 28.8975 7.98242C29.0635 7.79199 29.1465 7.54297 29.1465 7.23535C29.1465 6.92285 29.0635 6.67383 28.8975 6.48828C28.7363 6.29785 28.5215 6.20264 28.2529 6.20264C27.9795 6.20264 27.7598 6.29785 27.5938 6.48828C27.4326 6.67383 27.3521 6.92285 27.3521 7.23535C27.3521 7.54785 27.4326 7.79932 27.5938 7.98975C27.7598 8.17529 27.9795 8.26807 28.2529 8.26807ZM32.6768 7.23535C32.6768 7.80664 32.5547 8.35107 32.3105 8.86865C32.0664 9.38623 31.7173 9.84277 31.2632 10.2383C30.8677 10.5801 30.4136 10.8389 29.9009 11.0146C29.3931 11.1953 28.8438 11.2856 28.2529 11.2856C27.6621 11.2856 27.1128 11.1978 26.605 11.022C26.0972 10.8462 25.6406 10.585 25.2354 10.2383C24.7861 9.85742 24.437 9.40576 24.188 8.8833C23.9438 8.35596 23.8218 7.80664 23.8218 7.23535C23.8218 6.65918 23.9438 6.1123 24.188 5.59473C24.437 5.07227 24.7861 4.61816 25.2354 4.23242C25.6406 3.88574 26.0972 3.62451 26.605 3.44873C27.1128 3.27295 27.6621 3.18506 28.2529 3.18506C28.8438 3.18506 29.3931 3.27539 29.9009 3.45605C30.4136 3.63184 30.8726 3.89062 31.2778 4.23242C31.7222 4.61328 32.0664 5.06494 32.3105 5.5874C32.5547 6.10986 32.6768 6.65918 32.6768 7.23535ZM42.0225 4.53271C41.6709 4.1958 41.312 3.94434 40.9458 3.77832C40.5796 3.6123 40.1938 3.5293 39.7886 3.5293C39.1587 3.5293 38.6509 3.72461 38.2651 4.11523C37.8843 4.50098 37.6938 5.01611 37.6938 5.66064C37.6938 6.29053 37.877 6.79346 38.2432 7.16943C38.6094 7.54541 39.1001 7.7334 39.7153 7.7334C40.0864 7.7334 40.4624 7.65527 40.8433 7.49902C41.229 7.33789 41.6489 7.08398 42.103 6.7373L41.9785 10.7729C41.5586 10.9438 41.1387 11.0708 40.7188 11.1538C40.2988 11.2417 39.8789 11.2856 39.459 11.2856C38.9365 11.2856 38.4336 11.2271 37.9502 11.1099C37.4668 10.9927 37.0298 10.8267 36.6392 10.6118C35.6919 10.0649 34.9741 9.37402 34.4858 8.53906C34.0024 7.7041 33.7607 6.74463 33.7607 5.66064C33.7607 4.85986 33.8975 4.11768 34.1709 3.43408C34.4492 2.75049 34.8521 2.14746 35.3794 1.625C35.9116 1.09766 36.5269 0.699707 37.2251 0.431152C37.9282 0.157715 38.6875 0.0209961 39.5029 0.0209961C39.9375 0.0209961 40.3647 0.0673828 40.7847 0.160156C41.2095 0.248047 41.6221 0.382324 42.0225 0.562988V4.53271ZM56.7588 4.53271C56.4072 4.1958 56.0483 3.94434 55.6821 3.77832C55.3159 3.6123 54.9302 3.5293 54.5249 3.5293C53.895 3.5293 53.3872 3.72461 53.0015 4.11523C52.6206 4.50098 52.4302 5.01611 52.4302 5.66064C52.4302 6.29053 52.6133 6.79346 52.9795 7.16943C53.3457 7.54541 53.8364 7.7334 54.4517 7.7334C54.8228 7.7334 55.1987 7.65527 55.5796 7.49902C55.9653 7.33789 56.3853 7.08398 56.8394 6.7373L56.7148 10.7729C56.2949 10.9438 55.875 11.0708 55.4551 11.1538C55.0352 11.2417 54.6152 11.2856 54.1953 11.2856C53.6729 11.2856 53.1699 11.2271 52.6865 11.1099C52.2031 10.9927 51.7661 10.8267 51.3755 10.6118C50.4282 10.0649 49.7104 9.37402 49.2222 8.53906C48.7388 7.7041 48.4971 6.74463 48.4971 5.66064C48.4971 4.85986 48.6338 4.11768 48.9072 3.43408C49.1855 2.75049 49.5884 2.14746 50.1157 1.625C50.6479 1.09766 51.2632 0.699707 51.9614 0.431152C52.6646 0.157715 53.4238 0.0209961 54.2393 0.0209961C54.6738 0.0209961 55.1011 0.0673828 55.521 0.160156C55.9458 0.248047 56.3584 0.382324 56.7588 0.562988V4.53271ZM58.3481 6.09277V0.277344H62.2007V6.12207C62.2007 6.80078 62.2812 7.26953 62.4424 7.52832C62.6035 7.78223 62.8794 7.90918 63.27 7.90918C63.6558 7.90918 63.9316 7.77734 64.0977 7.51367C64.2637 7.25 64.3467 6.78613 64.3467 6.12207V0.277344H68.1992V6.09277C68.1992 6.85449 68.1479 7.48193 68.0454 7.9751C67.9478 8.46826 67.7891 8.88086 67.5693 9.21289C67.1396 9.88184 66.5537 10.3945 65.8115 10.751C65.0693 11.1074 64.2222 11.2856 63.27 11.2856C62.313 11.2856 61.4634 11.1074 60.7212 10.751C59.979 10.3945 59.3931 9.88184 58.9634 9.21289C58.7485 8.88574 58.5923 8.47803 58.4946 7.98975C58.397 7.50146 58.3481 6.86914 58.3481 6.09277ZM70.1987 11V0.277344H73.978V4.84766L76.4243 0.277344H80.7896L77.5522 5.55811L81.2437 11H76.5781L73.978 6.51758V11H70.1987Z" fill="black"/>
</svg>
