<svg width="131" height="180" viewBox="0 0 131 180" fill="none" xmlns="http://www.w3.org/2000/svg">
<path d="M130.6 48.2C130.6 52.4667 129.467 55.8667 127.2 58.4C124.933 60.9333 121.867 62.2 118 62.2H91C88.8667 62.2 87.2 61.6 86 60.4C84.8 59.0667 83.6667 57.6 82.6 56C81.5333 54.2667 80.4 52.5333 79.2 50.8C78.1333 49.0667 76.6667 47.8 74.8 47C74.4 46.8667 74 46.8 73.6 46.8C73.3333 46.6667 72.9333 46.6 72.4 46.6H60.2C57.8 46.6 56.0667 47.4667 55 49.2C54.0667 50.8 53.6 53.1333 53.6 56.2V123.4C53.6 126.467 54.0667 128.867 55 130.6C56.0667 132.2 57.8 133 60.2 133H70.4C74.8 132.867 77 129.667 77 123.4V111.4H74.8C71.0667 111.4 68 110.133 65.6 107.6C63.3333 105.067 62.2 101.667 62.2 97.4V86.8C62.2 82.5333 63.3333 79.1333 65.6 76.6C68 74.0667 71.0667 72.8 74.8 72.8H118C121.867 72.8 124.933 74.0667 127.2 76.6C129.467 79.1333 130.6 82.5333 130.6 86.8V136.8C130.6 150.933 127.067 161.6 120 168.8C113.067 176 103.333 179.6 90.8 179.6H39.8C27.4 179.6 17.6667 176 10.6 168.8C3.53333 161.6 2.38419e-07 150.933 2.38419e-07 136.8V42.8C2.38419e-07 28.6667 3.53333 18 10.6 10.8C17.6667 3.59999 27.4 -9.05991e-06 39.8 -9.05991e-06H90.8C103.333 -9.05991e-06 113.067 3.59999 120 10.8C127.067 18 130.6 28.6667 130.6 42.8V48.2Z" fill="#ECECEC"/>
</svg>
