<svg width="131" height="180" viewBox="0 0 131 180" fill="none" xmlns="http://www.w3.org/2000/svg">
<path d="M130.6 42.8V48.2C130.6 56.6 125.6 62.2 118 62.2H91C82.6 62.2 82.4 50.4 74.8 47C74 46.8 73.4 46.6 72.4 46.6H60.2C55.4 46.6 53.6 50 53.6 56.2V123.4C53.6 129.6 55.4 133 60.2 133H70.4C74.8 132.8 77 129.6 77 123.4V111.4H74.8C67.4 111.4 62.2 105.8 62.2 97.4V86.8C62.2 78.4 67.4 72.8 74.8 72.8H118C125.6 72.8 130.6 78.4 130.6 86.8V136.8C130.6 164.8 115.6 179.6 90.8 179.6H39.8C15.2 179.6 2.38419e-07 164.8 2.38419e-07 136.8V42.8C2.38419e-07 14.8 15.2 -9.05991e-06 39.8 -9.05991e-06H90.8C115.6 -9.05991e-06 130.6 14.8 130.6 42.8Z" fill="#EA4435"/>
</svg>
