<svg width="32" height="31" viewBox="0 0 32 31" fill="none" xmlns="http://www.w3.org/2000/svg">
<path d="M19.8789 19.7656H15.4062V13.0469H31.207C31.2331 13.6328 31.2526 14.069 31.2656 14.3555C31.2786 14.6419 31.2852 14.8958 31.2852 15.1172C31.2852 16.7578 31.1289 18.2552 30.8164 19.6094C30.5039 20.9635 30.0482 22.1615 29.4492 23.2031C27.9909 25.651 26.1094 27.526 23.8047 28.8281C21.5 30.1172 18.8828 30.7617 15.9531 30.7617C13.7917 30.7617 11.7799 30.4036 9.91797 29.6875C8.06901 28.9583 6.42839 27.8906 4.99609 26.4844C3.57682 25.0781 2.5026 23.4701 1.77344 21.6602C1.04427 19.8503 0.679688 17.8841 0.679688 15.7617C0.679688 13.6263 1.04427 11.6536 1.77344 9.84375C2.51562 8.02083 3.58984 6.41927 4.99609 5.03906C6.41536 3.64583 8.05599 2.58464 9.91797 1.85547C11.7799 1.1263 13.7917 0.761719 15.9531 0.761719C18.8828 0.761719 21.487 1.40625 23.7656 2.69531C26.0443 3.97135 27.9062 5.84635 29.3516 8.32031L20.1914 11.7188C19.7096 10.9245 19.1302 10.332 18.4531 9.94141C17.776 9.55078 17.0013 9.35547 16.1289 9.35547C14.6055 9.35547 13.388 9.9349 12.4766 11.0938C11.5781 12.2526 11.1289 13.8086 11.1289 15.7617C11.1289 17.7799 11.5846 19.349 12.4961 20.4688C13.4076 21.5755 14.6966 22.1289 16.3633 22.1289C17.3529 22.1289 18.1536 21.9206 18.7656 21.5039C19.3906 21.0872 19.7617 20.5078 19.8789 19.7656Z" fill="black"/>
</svg>
