<svg width="26" height="26" viewBox="0 0 26 26" fill="none" xmlns="http://www.w3.org/2000/svg">
<path d="M10.0532 12.4564C10.0532 12.4564 11.3097 3.32975 16.0709 2.436C16.0709 2.436 17.6582 0.989103 20.2465 1.8783C22.8348 2.76815 24.3877 5.27975 24.6379 7.2863C24.8245 8.7813 24.649 11.8136 23.7871 15.1747C23.687 15.5647 23.3932 15.8761 23.0103 16.0022C22.1757 16.2778 20.3479 16.4546 16.4629 15.555C10.0909 14.0795 10.0532 12.4564 10.0532 12.4564Z" fill="#333333"/>
<path d="M10.2872 5.85759C9.91672 5.61384 9.41817 5.71654 9.17442 6.08704L8.30147 7.02629L8.08177 5.96094L7.56177 2.90594V2.90529C7.49677 2.52374 7.14187 2.26634 6.76877 2.33004C6.39567 2.39374 6.14607 2.75384 6.21107 3.13539L6.65827 5.76399L6.31897 5.83419L5.59032 2.83509C5.49932 2.45939 5.12687 2.22734 4.75962 2.31639C4.39172 2.40544 4.16812 2.78244 4.25912 3.15879L4.98062 6.12864L4.70242 6.26579L3.72417 3.80164C3.58442 3.44934 3.18597 3.27709 2.83432 3.41684C2.48267 3.55659 2.31107 3.95504 2.45082 4.30734L3.46937 6.87289L3.12877 7.04059L2.27467 5.26219C2.10697 4.91249 1.69422 4.76169 1.35297 4.92549C1.01172 5.08929 0.871971 5.50529 1.03967 5.85499L2.64647 9.20054L2.65232 9.19664C3.20287 10.741 4.81747 11.6855 6.46912 11.3449C7.37262 11.1583 8.11492 10.6234 8.58487 9.90904L10.518 6.97169C10.7617 6.60119 10.659 6.10264 10.2885 5.85889L10.2872 5.85759Z" fill="#FFCBA7"/>
<path d="M17.8165 16.1098L17.7749 16.3516C17.6488 17.0829 16.954 17.5736 16.2221 17.4475C15.4908 17.3214 15.0001 16.6259 15.1262 15.8947L15.1678 15.6535C14.8428 15.6275 14.5152 15.6054 14.1778 15.5989L13.73 15.5573C9.8508 14.9697 9.24695 11.4201 9.1319 10.2689C9.11435 10.0934 8.96615 9.96407 8.79 9.96862L2.97055 10.1077C2.7814 10.1123 2.628 10.2696 2.64035 10.4581C2.8321 13.3083 4.66575 18.0299 9.21704 20.3192C9.30934 20.366 9.36979 20.459 9.37044 20.5623L9.40099 24.0873C9.4023 24.2413 9.5271 24.3648 9.68115 24.3648H24.9054C24.9054 20.4993 22.2014 17.3091 17.8152 16.1105L17.8165 16.1098Z" fill="#482EC4"/>
<path d="M20.326 8.01085C18.0666 7.121 16.9037 5.2191 16.5475 4.5392C16.4994 4.4469 16.3662 4.45145 16.3246 4.54765C16.0672 5.14175 15.2989 6.6257 13.7512 7.47265C13.7512 7.47265 13.4977 7.58705 13.1818 7.85485C12.7177 8.2481 12.4382 8.8214 12.4031 9.4285C12.2504 12.0831 13.9358 14.5148 16.5033 15.1095C18.9168 15.6685 21.3439 14.4264 22.4814 12.2398C23.1795 10.5816 22.4762 8.85845 20.3247 8.0115L20.326 8.01085Z" fill="#FFCBA7"/>
<path d="M16.2234 17.4481C16.9547 17.5742 17.6495 17.0834 17.7763 16.3522L17.8179 16.1104L18.0181 14.9501L15.37 14.4932L15.1698 15.6534L15.1282 15.8946C15.0021 16.6258 15.4928 17.3213 16.2241 17.4474L16.2234 17.4481Z" fill="#FFCBA7"/>
<path d="M16.8211 9.22532C16.9103 8.84027 16.7223 8.46786 16.4013 8.39352C16.0802 8.31918 15.7477 8.57106 15.6585 8.95612C15.5693 9.34117 15.7573 9.71358 16.0784 9.78792C16.3994 9.86226 16.732 9.61038 16.8211 9.22532Z" fill="black"/>
<path d="M19.8895 9.93529C19.9787 9.55023 19.7907 9.17782 19.4696 9.10348C19.1486 9.02914 18.816 9.28102 18.7269 9.66608C18.6377 10.0511 18.8257 10.4235 19.1467 10.4979C19.4678 10.5722 19.8003 10.3203 19.8895 9.93529Z" fill="black"/>
<path d="M17.7921 12.697C17.9208 12.7269 17.9838 12.8718 17.9208 12.9882C17.7206 13.358 17.2916 13.5647 16.8619 13.4653C16.4323 13.3658 16.1378 12.9921 16.1203 12.5715C16.1151 12.4396 16.2353 12.3369 16.364 12.3668L17.7921 12.697Z" fill="#5C2F17"/>
</svg>
