<svg width="203" height="163" viewBox="0 0 203 163" fill="none" xmlns="http://www.w3.org/2000/svg">
<path d="M138.279 144.279L180.336 102.017C193.179 91.0287 201.007 74.3497 199.873 55.8767C198.154 27.8797 175.532 5.22471 147.537 3.46271C129.106 2.30271 112.469 10.0757 101.464 22.8427C90.4589 10.0757 73.8209 2.30271 55.3899 3.46271C27.3959 5.22471 4.77393 27.8797 3.05493 55.8767C1.92093 74.3497 9.74893 91.0287 22.5919 102.017L64.6509 144.28C84.9539 164.681 117.975 164.681 138.278 144.28L138.279 144.279Z" fill="#EB4335"/>
<path d="M101.464 162.081C86.874 162.081 73.171 156.386 62.879 146.044L20.891 103.852C6.83199 91.783 -0.577016 74.248 0.560984 55.725C2.36398 26.358 25.868 2.817 55.234 0.967996C72.785 -0.146004 89.474 6.45199 101.464 19.114C113.455 6.45199 130.141 -0.137004 147.694 0.967996C177.06 2.816 200.564 26.356 202.367 55.724C203.505 74.246 196.096 91.783 182.038 103.851L140.051 146.043C129.758 156.385 116.055 162.081 101.464 162.081ZM59.016 5.848C57.865 5.848 56.709 5.88399 55.548 5.95699C28.694 7.64699 7.19897 29.175 5.55097 56.03C4.50797 73.007 11.312 89.075 24.218 100.117L24.365 100.253L66.424 142.516C75.77 151.908 88.214 157.08 101.464 157.08C114.714 157.08 127.159 151.907 136.506 142.515L178.711 100.118C191.616 89.076 198.42 73.007 197.377 56.03C195.729 29.174 174.234 7.64699 147.38 5.95799C130.474 4.88799 114.419 11.643 103.358 24.475L101.464 26.672L99.57 24.475C89.269 12.525 74.641 5.84899 59.015 5.84899L59.016 5.848Z" fill="#A61E22"/>
</svg>
