<?xml version="1.0" encoding="UTF-8"?><svg id="Layer_1" xmlns="http://www.w3.org/2000/svg" viewBox="0 0 566.929 566.929"><defs><style>.cls-1{fill:#a61e22;}.cls-2{fill:#eb4335;}</style></defs><path class="cls-2" d="M320.279,346.279l42.057-42.262c12.843-10.988,20.671-27.667,19.537-46.14-1.719-27.997-24.341-50.652-52.336-52.414-18.431-1.16-35.068,6.613-46.073,19.38-11.005-12.767-27.643-20.54-46.074-19.38-27.994,1.762-50.616,24.417-52.335,52.414-1.134,18.473,6.694,35.152,19.537,46.14l42.059,42.263c20.303,20.401,53.324,20.401,73.627,0Z"/><path class="cls-1" d="M283.464,364.081c-14.59,0-28.293-5.695-38.585-16.037l-41.988-42.192c-14.059-12.069-21.468-29.604-20.33-48.127,1.803-29.367,25.307-52.908,54.673-54.757,17.551-1.114,34.24,5.484,46.23,18.146,11.991-12.662,28.677-19.251,46.23-18.146,29.366,1.848,52.87,25.388,54.673,54.756,1.138,18.522-6.271,36.059-20.329,48.127l-41.987,42.192-1.772-1.764,1.772,1.764c-10.293,10.342-23.996,16.038-38.587,16.038ZM241.016,207.848c-1.151,0-2.307.036-3.468.109-26.854,1.69-48.349,23.218-49.997,50.073-1.043,16.977,5.761,33.045,18.667,44.087l.147.136,42.059,42.263c9.346,9.392,21.79,14.564,35.04,14.564s25.695-5.173,35.042-14.565l42.205-42.397c12.905-11.042,19.709-27.111,18.666-44.088-1.648-26.856-23.143-48.383-49.997-50.072-16.906-1.07-32.961,5.685-44.022,18.517l-1.894,2.197-1.894-2.197c-10.301-11.95-24.929-18.626-40.555-18.626Z"/></svg>