<?xml version="1.0" encoding="UTF-8"?><svg id="Layer_1" xmlns="http://www.w3.org/2000/svg" viewBox="0 0 566.929 566.929"><defs><style>.cls-1{fill:#a61e22;}.cls-2{fill:#eb4335;}.cls-3{stroke-width:13px;}.cls-3,.cls-4{fill:none;stroke-linecap:round;}.cls-3,.cls-4,.cls-5{stroke:#4c3216;stroke-miterlimit:10;}.cls-4,.cls-5{stroke-width:3px;}.cls-5{fill:#7d5b24;}</style></defs><path class="cls-2" d="M310.93,240.369l14.626-16.414c4.505-4.306,7.049-10.606,6.256-17.385-1.202-10.273-9.991-18.154-20.333-18.234-6.809-.053-12.777,3.147-16.569,8.071-4.311-4.477-10.595-7.001-17.357-6.199-10.271,1.217-18.14,10.018-18.204,20.361-.042,6.824,3.178,12.806,8.13,16.591l16.344,14.706c7.889,7.099,20.047,6.428,27.108-1.496Z"/><path class="cls-1" d="M297.737,247.67c-5.372.296-10.532-1.522-14.532-5.121l-16.316-14.681c-5.421-4.158-8.505-10.464-8.463-17.306.067-10.849,8.243-19.994,19.017-21.271,6.439-.767,12.718,1.324,17.39,5.742,4.158-4.905,10.167-7.67,16.652-7.62,10.849.084,19.981,8.273,21.241,19.049.795,6.796-1.576,13.403-6.507,18.132l-14.602,16.387-.688-.613.688.613c-3.58,4.017-8.509,6.392-13.881,6.689ZM278.935,191.012c-.424.023-.849.06-1.275.111-9.853,1.168-17.329,9.53-17.391,19.451-.039,6.272,2.792,12.049,7.768,15.853l.057.047,16.343,14.706c3.632,3.268,8.318,4.92,13.197,4.651s9.355-2.426,12.606-6.074l14.678-16.467c4.527-4.328,6.706-10.382,5.977-16.611-1.152-9.854-9.503-17.343-19.425-17.42-6.246-.051-12.02,2.762-15.832,7.711l-.653.847-.742-.771c-4.035-4.191-9.556-6.351-15.31-6.034Z"/><path class="cls-2" d="M367.556,241.963l19.375-10.39c5.711-2.496,10.264-7.539,11.848-14.177,2.401-10.06-3.145-20.482-12.83-24.111-6.377-2.389-13.08-1.435-18.334,1.887-2.51-5.686-7.544-10.215-14.17-11.786-10.064-2.386-20.477,3.175-24.091,12.866-2.385,6.394-1.415,13.119,1.935,18.374l10.296,19.426c4.97,9.377,16.618,12.925,25.971,7.909Z"/><path class="cls-1" d="M352.658,244.288c-5.146-1.567-9.368-5.048-11.888-9.802l-10.278-19.394c-3.662-5.768-4.392-12.749-2.001-19.16,3.791-10.165,14.61-15.944,25.168-13.442,6.311,1.492,11.489,5.613,14.358,11.367,5.59-3.178,12.184-3.71,18.257-1.435,10.16,3.806,15.922,14.635,13.403,25.188-1.589,6.656-6.086,12.046-12.341,14.792l-19.343,10.372-.436-.813.436.813c-4.742,2.542-10.187,3.079-15.334,1.512ZM354.468,184.618c-.406-.124-.818-.235-1.235-.334-9.654-2.289-19.549,2.996-23.015,12.292-2.192,5.876-1.518,12.275,1.848,17.557l.037.064,10.296,19.426c2.288,4.317,6.122,7.478,10.795,8.902s9.619.936,13.925-1.373l19.442-10.421c5.738-2.509,9.865-7.446,11.32-13.546,2.304-9.65-2.966-19.553-12.257-23.034-5.849-2.194-12.237-1.536-17.518,1.802l-.904.572-.432-.978c-2.35-5.322-6.792-9.248-12.304-10.927Z"/><path class="cls-2" d="M337.451,254.556l17.469-13.349c5.239-3.376,8.929-9.08,9.433-15.886.764-10.315-6.374-19.717-16.514-21.753-6.676-1.341-13.142.672-17.797,4.789-3.386-5.212-9.078-8.88-15.87-9.373-10.316-.749-19.708,6.403-21.728,16.547-1.333,6.693.697,13.176,4.843,17.83l13.265,17.534c6.403,8.464,18.468,10.106,26.901,3.662Z"/><path class="cls-1" d="M323.115,259.228c-5.331-.726-10.054-3.488-13.3-7.779l-13.242-17.504c-4.536-5.109-6.371-11.884-5.034-18.595,2.119-10.64,11.878-18.072,22.699-17.287,6.468.466,12.237,3.707,15.988,8.93,5.011-4.03,11.435-5.607,17.794-4.33,10.637,2.136,18.054,11.906,17.252,22.725-.506,6.824-4.085,12.863-9.822,16.573l-17.439,13.327-.56-.733.56.733c-4.275,3.267-9.565,4.666-14.896,3.94ZM315.377,200.035c-.421-.057-.845-.102-1.272-.133-9.896-.718-18.82,6.078-20.758,15.808-1.226,6.151.461,12.36,4.627,17.036l.047.057,13.264,17.533c2.947,3.896,7.237,6.405,12.078,7.064,4.841.659,9.645-.612,13.528-3.579l17.529-13.391c5.264-3.392,8.55-8.925,9.013-15.18.734-9.894-6.049-18.829-15.776-20.782-6.124-1.232-12.326.437-17.005,4.576l-.801.709-.583-.897c-3.169-4.879-8.182-8.045-13.891-8.823Z"/><path class="cls-2" d="M379.573,259.842l19.705-9.75c5.789-2.308,10.505-7.199,12.306-13.781,2.729-9.976-2.473-20.574-12.034-24.518-6.295-2.596-13.026-1.862-18.386,1.286-2.323-5.765-7.206-10.456-13.777-12.243-9.981-2.714-20.57,2.504-24.499,12.071-2.593,6.313-1.844,13.065,1.333,18.428l9.655,19.753c4.66,9.535,16.186,13.461,25.698,8.755Z"/><path class="cls-1" d="M364.607,261.678c-5.092-1.735-9.198-5.352-11.561-10.186l-9.638-19.72c-3.472-5.884-3.973-12.886-1.373-19.216,4.121-10.036,15.124-15.458,25.594-12.611,6.258,1.698,11.299,5.986,13.978,11.831,5.691-2.994,12.298-3.309,18.294-.836,10.03,4.137,15.435,15.148,12.572,25.613-1.805,6.6-6.476,11.84-12.818,14.381l-19.672,9.734-.409-.826.409.826c-4.822,2.386-10.283,2.744-15.375,1.009ZM368.369,202.1c-.402-.137-.809-.262-1.223-.374-9.574-2.603-19.636,2.355-23.405,11.532-2.383,5.801-1.919,12.219,1.273,17.608l.035.065,9.654,19.752c2.145,4.389,5.874,7.675,10.498,9.25,4.625,1.576,9.584,1.25,13.963-.917l19.773-9.78c5.817-2.319,10.103-7.119,11.758-13.169,2.618-9.57-2.324-19.639-11.497-23.422-5.774-2.384-12.181-1.935-17.567,1.228l-.922.542-.4-.992c-2.174-5.396-6.486-9.465-11.94-11.324Z"/><path class="cls-2" d="M407.722,282.687l21.081-6.239c6.099-1.285,11.581-5.297,14.48-11.475,4.394-9.363,1.08-20.694-7.667-26.214-5.759-3.634-12.517-4.061-18.335-1.876-1.303-6.077-5.313-11.534-11.482-14.418-9.37-4.38-20.695-1.049-26.202,7.706-3.633,5.777-4.049,12.558-1.837,18.384l6.137,21.112c2.962,10.191,13.647,16.03,23.824,13.018Z"/><path class="cls-1" d="M392.662,281.938c-4.721-2.58-8.148-6.846-9.65-12.012l-6.126-21.077c-2.415-6.391-1.712-13.375,1.931-19.167,5.776-9.184,17.544-12.645,27.373-8.051,5.876,2.743,10.11,7.829,11.75,14.046,6.119-1.977,12.683-1.159,18.168,2.303,9.176,5.79,12.619,17.563,8.009,27.385-2.907,6.195-8.405,10.559-15.088,11.978l-21.046,6.228-.262-.884.262.884c-5.159,1.526-10.6.947-15.322-1.633ZM406.552,223.879c-.373-.204-.753-.396-1.141-.578-8.988-4.201-19.75-1.036-25.032,7.362-3.339,5.309-3.979,11.711-1.755,17.566l.024.07,6.136,21.112c1.363,4.691,4.475,8.566,8.763,10.908s9.229,2.87,13.914,1.483l21.153-6.256c6.128-1.291,11.171-5.288,13.835-10.965,4.215-8.982,1.067-19.748-7.324-25.043-5.281-3.336-11.671-3.989-17.519-1.792l-1.001.376-.224-1.046c-1.22-5.688-4.773-10.435-9.829-13.198Z"/><path class="cls-2" d="M376.237,283.614l17.469-13.349c5.239-3.376,8.929-9.08,9.433-15.886.764-10.315-6.374-19.717-16.514-21.753-6.676-1.341-13.142.672-17.797,4.789-3.386-5.212-9.078-8.88-15.87-9.373-10.316-.749-19.708,6.403-21.728,16.547-1.333,6.693.697,13.176,4.843,17.83l13.265,17.534c6.403,8.464,18.468,10.106,26.901,3.662Z"/><path class="cls-1" d="M361.9,288.287c-5.331-.726-10.054-3.488-13.3-7.779l-13.242-17.504c-4.536-5.109-6.371-11.884-5.034-18.595,2.119-10.64,11.878-18.072,22.699-17.287,6.468.466,12.237,3.707,15.988,8.93,5.011-4.03,11.435-5.607,17.794-4.33,10.637,2.136,18.054,11.906,17.252,22.725-.506,6.824-4.085,12.863-9.822,16.573l-17.439,13.327-.56-.733.56.733c-4.275,3.267-9.565,4.666-14.896,3.94ZM354.163,229.094c-.421-.057-.845-.102-1.272-.133-9.896-.718-18.82,6.078-20.758,15.808-1.226,6.151.461,12.36,4.627,17.036l.047.057,13.264,17.533c2.947,3.896,7.237,6.405,12.078,7.064,4.841.659,9.645-.612,13.528-3.579l17.529-13.391c5.264-3.392,8.55-8.925,9.013-15.18.734-9.894-6.049-18.829-15.776-20.782-6.124-1.232-12.326.437-17.005,4.576l-.801.709-.583-.897c-3.169-4.879-8.182-8.045-13.891-8.823Z"/><path class="cls-2" d="M281.34,258.553l17.469-13.349c5.239-3.376,8.929-9.08,9.433-15.886.764-10.315-6.374-19.717-16.514-21.753-6.676-1.341-13.142.672-17.797,4.789-3.386-5.212-9.078-8.88-15.87-9.373-10.316-.749-19.708,6.403-21.728,16.547-1.333,6.693.697,13.176,4.843,17.83l13.265,17.534c6.403,8.464,18.468,10.106,26.901,3.662Z"/><path class="cls-1" d="M267.004,263.226c-5.331-.726-10.054-3.488-13.3-7.779l-13.242-17.504c-4.536-5.109-6.371-11.884-5.034-18.595,2.119-10.64,11.878-18.072,22.699-17.287,6.468.466,12.237,3.707,15.988,8.93,5.011-4.03,11.435-5.607,17.794-4.33,10.637,2.136,18.054,11.906,17.252,22.725-.506,6.824-4.085,12.863-9.822,16.573l-17.439,13.327-.56-.733.56.733c-4.275,3.267-9.565,4.666-14.896,3.94ZM259.266,204.032c-.421-.057-.845-.102-1.272-.133-9.896-.718-18.82,6.078-20.758,15.808-1.226,6.151.461,12.36,4.627,17.036l.047.057,13.264,17.533c2.947,3.896,7.237,6.405,12.078,7.064,4.841.659,9.645-.612,13.528-3.579l17.529-13.391c5.264-3.392,8.55-8.925,9.013-15.18.734-9.894-6.049-18.829-15.776-20.782-6.124-1.232-12.326.437-17.005,4.576l-.801.709-.583-.897c-3.169-4.879-8.182-8.045-13.891-8.823Z"/><path class="cls-2" d="M166.032,404.512l-36.426-10.779c-10.537-2.219-20.01-9.153-25.019-19.828-7.592-16.178-1.866-35.756,13.247-45.293,9.95-6.279,21.627-7.017,31.68-3.241,2.252-10.5,9.18-19.929,19.839-24.911,16.19-7.568,35.758-1.812,45.273,13.315,6.278,9.982,6.997,21.698,3.173,31.765l-10.603,36.479c-5.118,17.609-23.58,27.697-41.164,22.494Z"/><path class="cls-1" d="M165.58,406.039l.452-1.528-.452,1.528-36.365-10.762c-11.547-2.452-21.046-9.993-26.069-20.696-7.964-16.97-2.016-37.312,13.838-47.317,9.477-5.98,20.818-7.394,31.391-3.979,2.835-10.742,10.15-19.531,20.303-24.27,16.983-7.938,37.316-1.957,47.296,13.911,6.295,10.008,7.51,22.075,3.337,33.118l-10.585,36.417c-2.595,8.926-8.516,16.297-16.673,20.754-8.158,4.458-17.559,5.459-26.473,2.822ZM151.071,325.704l-.387,1.807-1.73-.65c-10.105-3.795-21.144-2.666-30.27,3.097-14.498,9.149-19.938,27.751-12.655,43.27,4.603,9.81,13.317,16.716,23.905,18.946l36.549,10.81c8.095,2.396,16.634,1.486,24.042-2.562s12.785-10.742,15.141-18.848l10.603-36.478.041-.121c3.842-10.116,2.737-21.179-3.033-30.352-9.126-14.511-27.72-19.98-43.251-12.721-.672.314-1.328.647-1.972.998-8.736,4.774-14.875,12.975-16.983,22.804Z"/><path class="cls-2" d="M326.134,283.614l17.469-13.349c5.239-3.376,8.929-9.08,9.433-15.886.764-10.315-6.374-19.717-16.514-21.753-6.676-1.341-13.142.672-17.797,4.789-3.386-5.212-9.078-8.88-15.87-9.373-10.316-.749-19.708,6.403-21.728,16.547-1.333,6.693.697,13.176,4.843,17.83l13.265,17.534c6.403,8.464,18.468,10.106,26.901,3.662Z"/><path class="cls-1" d="M311.798,288.286c-5.331-.726-10.054-3.488-13.3-7.779l-13.242-17.504c-4.536-5.109-6.371-11.884-5.034-18.595,2.119-10.64,11.878-18.072,22.699-17.287,6.468.466,12.237,3.707,15.988,8.93,5.011-4.03,11.435-5.607,17.794-4.33,10.637,2.136,18.054,11.906,17.252,22.725-.506,6.824-4.085,12.863-9.822,16.573l-17.439,13.327-.56-.733.56.733c-4.275,3.267-9.565,4.666-14.896,3.94ZM304.06,229.093c-.421-.057-.845-.102-1.272-.133-9.896-.718-18.82,6.078-20.758,15.808-1.226,6.151.461,12.36,4.627,17.036l.047.057,13.264,17.533c2.947,3.896,7.237,6.405,12.078,7.064,4.841.659,9.645-.612,13.528-3.579l17.529-13.391c5.264-3.392,8.55-8.925,9.013-15.18.734-9.894-6.049-18.829-15.776-20.782-6.124-1.232-12.326.437-17.005,4.576l-.801.709-.583-.897c-3.169-4.879-8.182-8.045-13.891-8.823Z"/><path class="cls-3" d="M245.337,260.766c5.877-42.793,57.846-116.662,105.377-110.134,47.531,6.528,72.625,90.98,66.748,133.774"/><path class="cls-5" d="M215.491,328.657l3.988-48.892c-.568-3.868-2.339-7.523-5.265-10.115-4.743-4.203-7.351-11.666-6.246-19.71h0c1.584-11.535,10.532-21.382,19.233-18.639,26.406,8.326,56.573,29.05,104.845,35.68,64.178,8.814,86.926-3.465,115.859-5.368,9.103-.599,15.08,11.599,13.495,23.134h0c-1.135,8.261-10.685,14.683-11.794,17.511l.017.002-16.493,54.831s-11.123,57.161-81.612,47.48l-70.489-9.681s-60.65-2.685-65.539-66.233Z"/><path class="cls-4" d="M230.463,279.143s111.833,48.99,196.368,26.97"/><path class="cls-4" d="M250.953,293.397s-16.059,50.52,11.226,82.198"/><path class="cls-4" d="M290.35,305.363s-6.214,61.847,7.354,75.111"/><path class="cls-4" d="M355.345,317.71s-9.033,57.47-23.794,67.413"/><path class="cls-4" d="M406.437,321.307s-8.856,56.178-42.996,68.196"/><path class="cls-4" d="M368.25,333.732s12.102-21.708,15.105,2.075"/><path class="cls-4" d="M360.886,352.886s15.61-19.34,14.534,4.608"/><path class="cls-4" d="M349.221,373.197s17.228-17.914,14.08,5.85"/><path class="cls-4" d="M272.11,319.042s-5.801-24.167-15.105-2.075"/><path class="cls-4" d="M274.038,339.472s-9.818-22.832-15.238.519"/><path class="cls-4" d="M279.795,362.176s-11.76-21.895-15.136,1.838"/><path class="cls-2" d="M231.854,413.089l36.426-10.779c10.537-2.219,20.01-9.153,25.019-19.828,7.592-16.178,1.866-35.756-13.247-45.293-9.95-6.279-21.627-7.017-31.68-3.241-2.252-10.5-9.18-19.929-19.839-24.911-16.19-7.568-35.758-1.812-45.273,13.315-6.278,9.982-6.997,21.698-3.173,31.765l10.603,36.479c5.118,17.609,23.58,27.697,41.164,22.494Z"/><path class="cls-1" d="M205.833,411.795c-8.157-4.457-14.078-11.828-16.673-20.754l-10.585-36.417c-4.173-11.043-2.958-23.11,3.337-33.118,9.98-15.868,30.313-21.849,47.296-13.911,10.153,4.739,17.468,13.527,20.303,24.27,10.573-3.416,21.914-2.002,31.391,3.979,15.854,10.005,21.803,30.347,13.838,47.317-5.023,10.703-14.522,18.244-26.069,20.696l-36.365,10.762-.452-1.528.452,1.528c-8.914,2.637-18.316,1.636-26.473-2.822ZM229.832,311.478c-.644-.352-1.301-.685-1.972-.998-15.531-7.259-34.125-1.79-43.251,12.721-5.77,9.173-6.875,20.235-3.033,30.352l.041.121,10.603,36.478c2.356,8.106,7.733,14.8,15.141,18.848s15.946,4.958,24.042,2.562l36.549-10.81c10.589-2.231,19.302-9.136,23.905-18.946,7.283-15.519,1.843-34.121-12.655-43.27-9.125-5.763-20.165-6.892-30.27-3.097l-1.73.65-.387-1.807c-2.108-9.828-8.247-18.03-16.983-22.804Z"/></svg>