<svg width="202" height="155" viewBox="0 0 202 155" fill="none" xmlns="http://www.w3.org/2000/svg">
<g clip-path="url(#clip0_3122_3627)">
<path d="M115.43 54.1489L123.114 45.2552C125.481 42.922 126.818 39.5084 126.401 35.8353C125.769 30.269 121.152 25.9988 115.718 25.9554C112.141 25.9267 109.005 27.6606 107.013 30.3286C104.748 27.9028 101.447 26.5352 97.894 26.9698C92.4977 27.6292 88.3634 32.3979 88.3298 38.0021C88.3077 41.6996 89.9995 44.9409 92.6012 46.9918L101.188 54.9601C105.333 58.8066 111.721 58.443 115.43 54.1495L115.43 54.1489Z" fill="#EB4335"/>
<path d="M108.498 58.105C105.676 58.2654 102.965 57.2803 100.864 55.3303L92.2913 47.3755C89.4432 45.1226 87.8229 41.7057 87.8449 37.9985C87.8802 32.1201 92.1757 27.1649 97.8362 26.473C101.219 26.0574 104.518 27.1904 106.973 29.5842C109.157 26.9265 112.314 25.4283 115.721 25.4554C121.421 25.501 126.219 29.9381 126.881 35.7769C127.299 39.4593 126.053 43.0392 123.463 45.6015L115.791 54.4807C113.91 56.6572 111.32 57.9441 108.498 58.105H108.498ZM98.6207 27.405C98.3979 27.4174 98.1746 27.4375 97.9508 27.4651C92.7741 28.098 88.8463 32.6288 88.8138 38.0044C88.7933 41.4028 90.2806 44.533 92.895 46.5942L92.9249 46.6197L101.511 54.5879C103.42 56.3587 105.882 57.2538 108.445 57.108C111.008 56.9623 113.36 55.7935 115.068 53.8169L122.78 44.8944C125.158 42.5494 126.303 39.2691 125.92 35.894C125.315 30.5547 120.927 26.4969 115.714 26.4551C112.433 26.4275 109.399 27.9517 107.396 30.6332L107.053 31.0922L106.663 30.6744C104.543 28.4036 101.643 27.2332 98.6196 27.405H98.6207Z" fill="#A61E22"/>
<path d="M145.18 55.0124L155.36 49.3827C158.36 48.0303 160.752 45.2978 161.585 41.7011C162.846 36.2502 159.932 30.6031 154.844 28.6368C151.493 27.3423 147.972 27.8593 145.211 29.6592C143.893 26.5783 141.248 24.1244 137.767 23.2731C132.479 21.9803 127.008 24.9935 125.11 30.2444C123.857 33.7089 124.366 37.3528 126.126 40.2002L131.536 50.7259C134.147 55.8068 140.266 57.7292 145.18 55.0113V55.0124Z" fill="#EB4335"/>
<path d="M137.353 56.2721C134.65 55.423 132.431 53.5369 131.107 50.961L125.707 40.4526C123.784 37.3273 123.4 33.5447 124.656 30.0709C126.648 24.5632 132.332 21.4319 137.879 22.7876C141.195 23.596 143.915 25.8289 145.423 28.9466C148.36 27.2247 151.824 26.9364 155.015 28.1691C160.353 30.2313 163.38 36.0989 162.056 41.8169C161.222 45.4234 158.859 48.3439 155.573 49.8318L145.41 55.4518C142.919 56.8291 140.058 57.1201 137.354 56.271L137.353 56.2721ZM138.304 23.9411C138.091 23.8739 137.874 23.8138 137.655 23.7602C132.583 22.5199 127.385 25.3835 125.564 30.4204C124.412 33.6043 124.766 37.0715 126.534 39.9335L126.554 39.9682L131.963 50.4939C133.165 52.8331 135.18 54.5458 137.635 55.3174C140.09 56.089 142.689 55.8245 144.951 54.5734L155.165 48.9269C158.18 47.5675 160.348 44.8924 161.113 41.5872C162.323 36.3584 159.555 30.9926 154.673 29.1065C151.6 27.9177 148.244 28.2742 145.469 30.0829L144.994 30.3928L144.767 29.8629C143.533 26.9792 141.199 24.852 138.303 23.9422L138.304 23.9411Z" fill="#A61E22"/>
<path d="M129.364 61.8365L138.542 54.6035C141.294 52.7742 143.233 49.6836 143.498 45.9958C143.899 40.4068 140.149 35.3124 134.821 34.2092C131.314 33.4826 127.917 34.5733 125.471 36.8041C123.692 33.98 120.702 31.9926 117.133 31.7254C111.713 31.3196 106.779 35.1948 105.718 40.6912C105.017 44.3178 106.084 47.8305 108.262 50.3522L115.231 59.8528C118.595 64.4389 124.934 65.3286 129.365 61.837L129.364 61.8365Z" fill="#EB4335"/>
<path d="M121.832 64.3677C119.031 63.9743 116.549 62.4777 114.844 60.1527L107.887 50.6684C105.504 47.9001 104.54 44.2291 105.242 40.5929C106.355 34.8277 111.483 30.8007 117.168 31.2261C120.566 31.4786 123.597 33.2347 125.568 36.0647C128.2 33.8811 131.575 33.0266 134.916 33.7185C140.505 34.8759 144.402 40.1697 143.98 46.0318C143.715 49.7293 141.834 53.0015 138.82 55.0117L129.658 62.2328C127.412 64.003 124.632 64.761 121.832 64.3677ZM117.766 32.2946C117.545 32.2637 117.322 32.2393 117.098 32.2225C111.899 31.8335 107.21 35.5158 106.192 40.7879C105.548 44.1208 106.434 47.485 108.623 50.0187L108.648 50.0496L115.616 59.5496C117.165 61.6606 119.419 63.0201 121.962 63.3772C124.505 63.7343 127.029 63.0456 129.069 61.4379L138.279 54.1822C141.045 52.3443 142.771 49.3463 143.014 45.9571C143.4 40.5961 139.836 35.7548 134.726 34.6966C131.508 34.029 128.25 34.9334 125.791 37.176L125.371 37.5602L125.064 37.0742C123.399 34.4305 120.766 32.7151 117.766 32.2935V32.2946Z" fill="#A61E22"/>
<path d="M151.495 64.7003L161.847 59.4173C164.889 58.1668 167.367 55.5166 168.313 51.9502C169.747 46.5449 167.014 40.8025 161.99 38.6655C158.683 37.2588 155.147 37.6565 152.33 39.3623C151.11 36.2386 148.545 33.6968 145.092 32.7285C139.848 31.258 134.285 34.0853 132.221 39.2691C130.858 42.6897 131.252 46.3482 132.921 49.2541L137.994 59.957C140.442 65.1234 146.498 67.2507 151.495 64.7008L151.495 64.7003Z" fill="#EB4335"/>
<path d="M143.631 65.6953C140.956 64.7552 138.798 62.7954 137.557 60.1761L132.493 49.4911C130.669 46.3029 130.406 42.5089 131.772 39.0791C133.937 33.6412 139.718 30.7034 145.219 32.246C148.506 33.166 151.155 35.4894 152.562 38.6565C155.552 37.0342 159.024 36.8635 162.174 38.2035C167.444 40.4451 170.283 46.4113 168.779 52.0816C167.831 55.6577 165.377 58.497 162.045 59.8738L151.709 65.1481C149.176 66.4409 146.307 66.6349 143.631 65.6948L143.631 65.6953ZM145.607 33.4136C145.396 33.3394 145.182 33.2717 144.965 33.211C139.935 31.8006 134.648 34.487 132.668 39.4595C131.416 42.6027 131.66 46.0802 133.337 49.0002L133.355 49.0354L138.427 59.7378C139.554 62.1159 141.514 63.8964 143.943 64.7498C146.373 65.6037 148.978 65.4271 151.279 64.2529L161.667 58.9538C164.724 57.6972 166.975 55.0964 167.845 51.8183C169.22 46.6329 166.624 41.1771 161.805 39.1273C158.771 37.8356 155.405 38.0789 152.575 39.7927L152.091 40.0864L151.88 39.5489C150.738 36.6251 148.473 34.4209 145.607 33.4136Z" fill="#A61E22"/>
<path d="M166.283 77.0783L177.359 73.6977C180.563 73.0015 183.444 70.8276 184.967 67.4801C187.275 62.4069 185.534 56.2673 180.939 53.2764C177.913 51.3073 174.362 51.076 171.306 52.2599C170.621 48.9671 168.514 46.0103 165.273 44.4476C160.35 42.0744 154.4 43.8793 151.507 48.623C149.598 51.7533 149.38 55.4275 150.542 58.5842L153.766 70.0235C155.322 75.5454 160.936 78.7092 166.283 77.0772L166.283 77.0783Z" fill="#EB4335"/>
<path d="M158.371 76.6721C155.891 75.2742 154.09 72.9627 153.301 70.1635L150.082 58.7432C148.814 55.2803 149.183 51.4961 151.097 48.3578C154.132 43.3815 160.314 41.5062 165.478 43.9954C168.566 45.4817 170.79 48.2375 171.652 51.6061C174.867 50.5349 178.315 50.9781 181.197 52.854C186.018 55.9912 187.827 62.3703 185.405 67.6922C183.877 71.0489 180.989 73.4135 177.478 74.1824L166.42 77.5569C163.71 78.3838 160.851 78.0701 158.37 76.6721H158.371ZM165.669 45.214C165.473 45.1035 165.273 44.9995 165.069 44.9009C160.347 42.6246 154.693 44.3395 151.918 48.8899C150.163 51.7665 149.827 55.2353 150.996 58.4078L151.008 58.4457L154.232 69.885C154.948 72.4268 156.583 74.5264 158.836 75.7954C161.089 77.0644 163.685 77.3505 166.146 76.599L177.26 73.2092C180.479 72.5097 183.129 70.344 184.528 67.268C186.743 62.4012 185.089 56.5677 180.68 53.6987C177.906 51.8911 174.549 51.5373 171.476 52.7277L170.95 52.9315L170.833 52.3647C170.192 49.2827 168.325 46.7111 165.669 45.214Z" fill="#A61E22"/>
<path d="M149.741 77.5806L158.919 70.3476C161.672 68.5184 163.61 65.4277 163.875 61.74C164.276 56.1509 160.526 51.0565 155.199 49.9534C151.691 49.2268 148.294 50.3175 145.848 52.5482C144.07 49.7242 141.079 47.7367 137.511 47.4696C132.091 47.0637 127.156 50.939 126.095 56.4354C125.395 60.0619 126.461 63.5746 128.639 66.0964L135.609 75.597C138.973 80.1831 145.312 81.0728 149.742 77.5812L149.741 77.5806Z" fill="#EB4335"/>
<path d="M142.209 80.1128C139.408 79.7194 136.927 78.2228 135.221 75.8978L128.264 66.4135C125.881 63.6452 124.917 59.9743 125.619 56.338C126.733 50.5728 131.86 46.5459 137.545 46.9712C140.943 47.2237 143.974 48.9798 145.945 51.8098C148.578 49.6262 151.953 48.7717 155.294 49.4637C160.882 50.621 164.779 55.9148 164.358 61.7769C164.092 65.4745 162.212 68.7466 159.198 70.7568L150.035 77.9779C147.789 79.7481 145.01 80.5061 142.209 80.1128ZM138.144 48.0397C137.922 48.0088 137.7 47.9844 137.475 47.9676C132.276 47.5786 127.588 51.2609 126.569 56.533C125.925 59.8659 126.812 63.2302 129 65.7638L129.025 65.7947L135.994 75.2947C137.542 77.4057 139.796 78.7652 142.339 79.1223C144.883 79.4794 147.407 78.7907 149.447 77.1831L158.656 69.9273C161.422 68.0894 163.148 65.0914 163.392 61.7022C163.777 56.3412 160.214 51.4999 155.103 50.4417C151.886 49.7741 148.627 50.6785 146.169 52.9211L145.748 53.3053L145.442 52.8193C143.777 50.1756 141.143 48.4602 138.144 48.0386V48.0397Z" fill="#A61E22"/>
<path d="M99.8837 64.0015L109.062 56.7685C111.814 54.9393 113.753 51.8486 114.018 48.1609C114.419 42.5718 110.669 37.4774 105.341 36.3743C101.834 35.6477 98.4367 36.7384 95.9911 38.9691C94.2121 36.1451 91.2216 34.1576 87.6532 33.8905C82.2333 33.4846 77.2988 37.3599 76.2375 42.8563C75.5372 46.4828 76.6037 49.9955 78.782 52.5173L85.7512 62.0179C89.1153 66.604 95.4541 67.4937 99.8847 64.0021L99.8837 64.0015Z" fill="#EB4335"/>
<path d="M92.3517 66.5337C89.5508 66.1403 87.0694 64.6437 85.364 62.3187L78.4068 52.8344C76.0237 50.0661 75.0596 46.3952 75.762 42.7589C76.8753 36.9937 82.0026 32.9668 87.6878 33.3921C91.086 33.6446 94.117 35.4007 96.0877 38.2307C98.7204 36.0471 102.096 35.1926 105.436 35.8846C111.025 37.0419 114.922 42.3357 114.5 48.1979C114.235 51.8954 112.354 55.1675 109.34 57.1777L100.178 64.3988C97.9318 66.169 95.1525 66.927 92.3517 66.5337ZM88.2862 34.4606C88.065 34.4297 87.8423 34.4053 87.6179 34.3885C82.4187 33.9995 77.7301 37.6818 76.7119 42.9539C76.0678 46.2868 76.9541 49.6511 79.1429 52.1847L79.1676 52.2156L86.1363 61.7156C87.6847 63.8266 89.9386 65.1861 92.482 65.5432C95.0254 65.9003 97.5493 65.2116 99.5894 63.604L108.799 56.3482C111.565 54.5103 113.291 51.5123 113.534 48.1231C113.92 42.7621 110.356 37.9208 105.246 36.8626C102.028 36.195 98.7698 37.0994 96.3115 39.342L95.8907 39.7262L95.5844 39.2402C93.9194 36.5965 91.2857 34.8811 88.2862 34.4595V34.4606Z" fill="#A61E22"/>
<path d="M39.3021 143.088L20.1643 137.247C14.6283 136.045 9.65133 132.288 7.01966 126.504C3.03092 117.738 6.03929 107.13 13.9795 101.962C19.2071 98.5601 25.342 98.1603 30.6237 100.206C31.8069 94.5169 35.4468 89.4079 41.0469 86.7085C49.5529 82.6079 59.8337 85.7267 64.8328 93.9231C68.1312 99.3317 68.5089 105.68 66.4998 111.135L60.9292 130.9C58.2402 140.442 48.5405 145.907 39.3021 143.088Z" fill="#EB4335"/>
<path d="M39.0648 143.916L19.959 138.084C13.8924 136.756 8.90173 132.67 6.2627 126.871C2.07852 117.676 5.20352 106.653 13.533 101.232C18.5121 97.9922 24.4705 97.226 30.0255 99.0764C31.5149 93.256 35.3581 88.4938 40.6924 85.926C49.6151 81.6249 60.2978 84.8656 65.5411 93.4635C68.8485 98.8862 69.4868 105.425 67.2944 111.408L61.7331 131.14C60.3698 135.977 57.2589 139.971 52.9733 142.386C48.6878 144.801 43.7481 145.343 39.0648 143.915V143.916ZM31.4419 100.387L31.2386 101.366L30.3297 101.014C25.0206 98.9578 19.2209 99.5695 14.4262 102.692C6.80911 107.649 3.951 117.729 7.7774 126.137C10.1958 131.453 14.774 135.195 20.3368 136.403L39.5392 142.26C43.7922 143.559 48.2785 143.066 52.1706 140.872C56.0626 138.679 58.8876 135.052 60.1254 130.66L65.6961 110.894L65.7177 110.829C67.7362 105.348 67.1557 99.3533 64.1242 94.383C59.3295 86.5204 49.5604 83.5571 41.4006 87.4903C41.0476 87.6604 40.7029 87.8409 40.3646 88.031C35.7748 90.6178 32.5494 95.0614 31.4419 100.387Z" fill="#A61E22"/>
<path d="M123.418 77.5806L132.596 70.3476C135.349 68.5184 137.288 65.4277 137.552 61.74C137.954 56.1509 134.203 51.0565 128.876 49.9534C125.369 49.2268 121.971 50.3175 119.526 52.5482C117.747 49.7242 114.756 47.7367 111.188 47.4696C105.768 47.0637 100.833 50.939 99.7722 56.4354C99.0719 60.0619 100.138 63.5746 102.317 66.0964L109.286 75.597C112.65 80.1831 118.989 81.0728 123.419 77.5812L123.418 77.5806Z" fill="#EB4335"/>
<path d="M115.886 80.1128C113.085 79.7194 110.604 78.2228 108.898 75.8978L101.941 66.4135C99.5579 63.6452 98.5938 59.9743 99.2962 56.338C100.41 50.5728 105.537 46.5459 111.222 46.9712C114.62 47.2237 117.651 48.9798 119.622 51.8098C122.255 49.6262 125.63 48.7717 128.971 49.4637C134.559 50.621 138.456 55.9148 138.035 61.7769C137.769 65.4745 135.888 68.7466 132.874 70.7568L123.712 77.9779C121.466 79.7481 118.687 80.5061 115.886 80.1128ZM111.821 48.0397C111.6 48.0088 111.377 47.9844 111.153 47.9676C105.953 47.5786 101.265 51.2609 100.247 56.533C99.6025 59.8659 100.489 63.2302 102.678 65.7638L102.702 65.7947L109.671 75.2947C111.219 77.4057 113.473 78.7652 116.017 79.1223C118.56 79.4794 121.084 78.7907 123.124 77.183L132.334 69.9273C135.099 68.0894 136.826 65.0914 137.069 61.7022C137.455 56.3412 133.891 51.4999 128.78 50.4417C125.563 49.7741 122.305 50.6785 119.846 52.9211L119.425 53.3053L119.119 52.8193C117.454 50.1756 114.82 48.4602 111.821 48.0386V48.0397Z" fill="#A61E22"/>
<path d="M80.9678 65.2011C84.0555 42.0142 111.359 1.98914 136.332 5.52627C161.304 9.06339 174.488 54.8228 171.4 78.0102" stroke="#4C3216" stroke-width="13" stroke-miterlimit="10" stroke-linecap="round"/>
<path d="M65.2871 101.987L67.3823 75.4951C67.0839 73.3993 66.1535 71.4189 64.6162 70.0144C62.1243 67.7371 60.754 63.6934 61.3346 59.3348C62.1668 53.0847 66.868 47.7492 71.4394 49.2355C85.3128 53.7468 101.162 64.9759 126.524 68.5683C160.242 73.344 172.193 66.6908 187.395 65.6597C192.177 65.3351 195.317 71.9445 194.485 78.1946C193.888 82.6707 188.871 86.1504 188.288 87.6827L188.297 87.6838L179.632 117.393C179.632 117.393 173.788 148.365 136.754 143.12L99.7199 137.874C99.7199 137.874 67.8557 136.419 65.2871 101.987Z" fill="#7D5B24" stroke="#4C3216" stroke-width="3" stroke-miterlimit="10"/>
<path d="M73.1533 75.1582C73.1533 75.1582 131.909 101.703 176.323 89.7716" stroke="#4C3216" stroke-width="3" stroke-miterlimit="10" stroke-linecap="round"/>
<path d="M83.9191 82.8818C83.9191 82.8818 75.4819 110.256 89.8171 127.42" stroke="#4C3216" stroke-width="3" stroke-miterlimit="10" stroke-linecap="round"/>
<path d="M104.618 89.3652C104.618 89.3652 101.353 122.876 108.481 130.063" stroke="#4C3216" stroke-width="3" stroke-miterlimit="10" stroke-linecap="round"/>
<path d="M138.765 96.0557C138.765 96.0557 134.019 127.195 126.264 132.583" stroke="#4C3216" stroke-width="3" stroke-miterlimit="10" stroke-linecap="round"/>
<path d="M165.608 98.0039C165.608 98.0039 160.955 128.443 143.019 134.955" stroke="#4C3216" stroke-width="3" stroke-miterlimit="10" stroke-linecap="round"/>
<path d="M145.545 104.737C145.545 104.737 151.903 92.9747 153.481 105.861" stroke="#4C3216" stroke-width="3" stroke-miterlimit="10" stroke-linecap="round"/>
<path d="M141.676 115.115C141.676 115.115 149.878 104.636 149.312 117.612" stroke="#4C3216" stroke-width="3" stroke-miterlimit="10" stroke-linecap="round"/>
<path d="M135.548 126.121C135.548 126.121 144.599 116.414 142.945 129.291" stroke="#4C3216" stroke-width="3" stroke-miterlimit="10" stroke-linecap="round"/>
<path d="M95.0346 96.7772C95.0346 96.7772 91.9868 83.6826 87.0986 95.6529" stroke="#4C3216" stroke-width="3" stroke-miterlimit="10" stroke-linecap="round"/>
<path d="M96.0474 107.847C96.0474 107.847 90.8891 95.4754 88.0415 108.128" stroke="#4C3216" stroke-width="3" stroke-miterlimit="10" stroke-linecap="round"/>
<path d="M99.0719 120.149C99.0719 120.149 92.8933 108.285 91.1196 121.145" stroke="#4C3216" stroke-width="3" stroke-miterlimit="10" stroke-linecap="round"/>
<path d="M73.8844 147.735L93.0222 141.895C98.5582 140.693 103.535 136.935 106.167 131.151C110.156 122.385 107.147 111.777 99.2071 106.61C93.9795 103.208 87.8445 102.808 82.5628 104.854C81.3796 99.1644 77.7397 94.0554 72.1396 91.356C63.6336 87.2553 53.3528 90.3741 48.3537 98.5705C45.0553 103.979 44.6776 110.327 46.6867 115.782L52.2574 135.548C54.9463 145.089 64.646 150.555 73.8844 147.736V147.735Z" fill="#EB4335"/>
<path d="M60.213 147.034C55.9274 144.619 52.8166 140.625 51.4532 135.789L45.892 116.057C43.6995 110.073 44.3379 103.535 47.6452 98.112C52.8886 89.5141 63.5713 86.2733 72.4939 90.5744C77.8282 93.1422 81.6714 97.9039 83.1609 103.725C88.7158 101.874 94.6742 102.64 99.6533 105.881C107.983 111.302 111.108 122.324 106.924 131.519C104.285 137.318 99.294 141.404 93.2273 142.733L74.1216 148.564C69.4383 149.993 64.4986 149.451 60.213 147.035V147.034ZM72.8218 92.6789C72.4834 92.4882 72.1382 92.3078 71.7857 92.1382C63.6259 88.205 53.8569 91.1683 49.0622 99.0309C46.0307 104.001 45.4501 109.995 47.4687 115.477L47.4902 115.542L53.0609 135.308C54.2987 139.7 57.1237 143.327 61.0158 145.52C64.9079 147.713 69.3936 148.207 73.6472 146.908L92.8495 141.051C98.4129 139.842 102.991 136.101 105.409 130.785C109.235 122.377 106.377 112.297 98.7602 107.34C93.966 104.217 88.1657 103.606 82.8567 105.662L81.9478 106.014L81.7444 105.035C80.6369 99.7098 77.4116 95.2657 72.8218 92.6789Z" fill="#A61E22"/>
</g>
<defs>
<clipPath id="clip0_3122_3627">
<rect width="202" height="155" fill="white"/>
</clipPath>
</defs>
</svg>
