<svg width="328" height="162" viewBox="0 0 328 162" fill="none" xmlns="http://www.w3.org/2000/svg">
<path d="M242.981 156.848L286.312 151.141C298.686 150.512 310.696 144.334 318.306 133.102C329.84 116.081 326.85 92.8043 311.388 79.2503C301.208 70.3273 288.071 67.3913 275.968 69.8763C275.295 57.5393 269.116 45.5793 257.898 38.0023C240.859 26.4943 217.587 29.5193 204.056 45.0013C195.128 55.2173 192.207 68.4033 194.743 80.5303L200.24 123.89C202.893 144.821 222.062 159.602 242.979 156.847L242.981 156.848Z" fill="#EB4335"/>
<path d="M213.642 150.703C205.173 144.172 199.768 134.732 198.423 124.122L192.936 80.8354C190.178 67.5364 193.726 54.0404 202.678 43.7984C216.87 27.5584 241.051 24.4144 258.925 36.4864C269.612 43.6954 276.346 54.9964 277.638 67.7144C290.267 65.7314 302.902 69.3764 312.597 77.8744C328.817 92.0924 331.923 116.277 319.824 134.132C312.193 145.393 300.043 152.257 286.48 152.969L243.221 158.666C232.617 160.062 222.113 157.235 213.643 150.703H213.642ZM258.936 41.0114C258.268 40.4964 257.581 39.9994 256.874 39.5224C240.529 28.4824 218.415 31.3574 205.437 46.2094C197.232 55.5974 193.989 67.9704 196.538 80.1574L196.563 80.3024L202.059 123.661C203.28 133.296 208.188 141.869 215.88 147.8C223.572 153.731 233.111 156.299 242.741 155.031L286.219 149.312C298.653 148.679 309.796 142.397 316.789 132.075C327.854 115.747 325.013 93.6304 310.18 80.6294C300.845 72.4404 288.502 69.1754 276.337 71.6724L274.254 72.1004L274.138 69.9774C273.508 58.4294 268.005 48.0064 258.934 41.0124L258.936 41.0114Z" fill="#A61E22"/>
<path d="M84.2004 156.848L40.8694 151.141C28.4954 150.512 16.4854 144.334 8.87542 133.102C-2.65858 116.081 0.331436 92.8043 15.7934 79.2503C25.9734 70.3273 39.1104 67.3913 51.2134 69.8763C51.8864 57.5393 58.0654 45.5793 69.2834 38.0023C86.3224 26.4943 109.594 29.5193 123.125 45.0013C132.053 55.2173 134.974 68.4033 132.438 80.5303L126.941 123.89C124.288 144.821 105.119 159.602 84.2024 156.847L84.2004 156.848Z" fill="#EB4335"/>
<path d="M83.9614 158.665L40.7024 152.968C27.1395 152.256 14.9894 145.392 7.35845 134.131C-4.74155 116.276 -1.63455 92.0914 14.5854 77.8734C24.2804 69.3744 36.9154 65.7304 49.5444 67.7134C50.8364 54.9964 57.5704 43.6954 68.2574 36.4854C86.1314 24.4134 110.312 27.5574 124.504 43.7974C133.456 54.0404 137.004 67.5354 134.246 80.8344L128.759 124.121C127.414 134.731 122.009 144.171 113.54 150.702C105.071 157.233 94.5654 160.061 83.9614 158.665ZM53.0424 69.9764L52.9264 72.0994L50.8434 71.6714C38.6784 69.1744 26.3354 72.4394 17.0004 80.6284C2.16844 93.6304 -0.673554 115.747 10.3914 132.074C17.3854 142.395 28.5275 148.678 40.9615 149.311L84.4394 155.03C94.0694 156.298 103.609 153.73 111.3 147.799C118.991 141.868 123.9 133.295 125.121 123.66L130.617 80.3014L130.642 80.1564C133.191 67.9694 129.948 55.5964 121.743 46.2084C108.765 31.3574 86.6524 28.4824 70.3064 39.5214C69.5994 39.9984 68.9124 40.4944 68.2444 41.0104C59.1734 48.0054 53.6704 58.4284 53.0404 69.9754L53.0424 69.9764Z" fill="#A61E22"/>
<path d="M200.405 143.432L242.462 101.17C255.305 90.182 263.133 73.503 261.999 55.03C260.28 27.033 237.658 4.37803 209.663 2.61603C191.232 1.45603 174.595 9.22903 163.59 21.996C152.585 9.22903 135.947 1.45603 117.516 2.61603C89.5224 4.37803 66.9004 27.033 65.1814 55.03C64.0474 73.503 71.8754 90.182 84.7184 101.17L126.777 143.433C147.08 163.834 180.101 163.834 200.404 143.433L200.405 143.432Z" fill="#EB4335"/>
<path d="M163.591 161.234C149.001 161.234 135.298 155.539 125.006 145.197L83.0184 103.005C68.9594 90.9363 61.5504 73.4013 62.6884 54.8783C64.4914 25.5113 87.9954 1.97032 117.361 0.121316C134.912 -0.992684 151.601 5.60531 163.591 18.2673C175.582 5.60531 192.268 -0.983684 209.821 0.121316C239.187 1.96932 262.691 25.5093 264.494 54.8773C265.632 73.3993 258.223 90.9363 244.165 103.004L202.178 145.196C191.885 155.538 178.182 161.234 163.591 161.234ZM121.142 5.00132C119.991 5.00132 118.835 5.03731 117.674 5.11031C90.8204 6.80031 69.3254 28.3283 67.6774 55.1833C66.6344 72.1603 73.4384 88.2283 86.3444 99.2703L86.4914 99.4063L128.55 141.669C137.896 151.061 150.34 156.233 163.59 156.233C176.84 156.233 189.285 151.06 198.632 141.668L240.837 99.2713C253.742 88.2293 260.546 72.1603 259.503 55.1833C257.855 28.3273 236.36 6.80032 209.506 5.11132C192.6 4.04132 176.545 10.7963 165.484 23.6283L163.59 25.8253L161.696 23.6283C151.395 11.6783 136.767 5.00231 121.141 5.00231L121.142 5.00132Z" fill="#A61E22"/>
</svg>
