<?xml version="1.0" encoding="UTF-8"?><svg id="Layer_1" xmlns="http://www.w3.org/2000/svg" viewBox="0 0 566.929 566.929"><defs><style>.cls-1{fill:#a61e22;}.cls-2{fill:#eb4335;}</style></defs><path class="cls-2" d="M362.855,358.522l43.331-5.707c12.374-.629,24.384-6.807,31.994-18.039,11.534-17.021,8.544-40.298-6.918-53.852-10.18-8.923-23.317-11.859-35.42-9.374-.673-12.337-6.852-24.297-18.07-31.874-17.039-11.508-40.311-8.483-53.842,6.999-8.928,10.216-11.849,23.402-9.313,35.529l5.497,43.36c2.653,20.931,21.822,35.712,42.739,32.957Z"/><path class="cls-1" d="M333.516,352.377c-8.469-6.531-13.874-15.971-15.219-26.581l-5.487-43.287c-2.758-13.299.79-26.795,9.742-37.037,14.192-16.24,38.373-19.384,56.247-7.312,10.687,7.209,17.421,18.51,18.713,31.228,12.629-1.983,25.264,1.662,34.959,10.16,16.22,14.218,19.326,38.403,7.227,56.258-7.631,11.261-19.781,18.125-33.344,18.837l-43.259,5.697-.239-1.817.239,1.817c-10.604,1.396-21.108-1.431-29.578-7.963ZM378.81,242.685c-.668-.515-1.355-1.012-2.062-1.489-16.345-11.04-38.459-8.165-51.437,6.687-8.205,9.388-11.448,21.761-8.899,33.948l.025.145,5.496,43.359c1.221,9.635,6.129,18.208,13.821,24.139s17.231,8.499,26.861,7.231l43.478-5.719c12.434-.633,23.577-6.915,30.57-17.237,11.065-16.328,8.224-38.445-6.609-51.446-9.335-8.189-21.678-11.454-33.843-8.957l-2.083.428-.116-2.123c-.63-11.548-6.133-21.971-15.204-28.965Z"/><path class="cls-2" d="M204.074,358.522l-43.331-5.707c-12.374-.629-24.384-6.807-31.994-18.039-11.534-17.021-8.544-40.298,6.918-53.852,10.18-8.923,23.317-11.859,35.42-9.374.673-12.337,6.852-24.297,18.07-31.874,17.039-11.508,40.311-8.483,53.842,6.999,8.928,10.216,11.849,23.402,9.313,35.529l-5.497,43.36c-2.653,20.931-21.822,35.712-42.739,32.957Z"/><path class="cls-1" d="M203.835,360.339l.239-1.817-.239,1.817-43.259-5.697c-13.563-.712-25.713-7.576-33.344-18.837-12.1-17.855-8.993-42.04,7.227-56.258,9.695-8.499,22.33-12.143,34.959-10.16,1.292-12.717,8.026-24.018,18.713-31.228,17.874-12.072,42.055-8.928,56.247,7.312,8.952,10.243,12.5,23.738,9.742,37.037l-5.487,43.287c-1.345,10.61-6.75,20.05-15.219,26.581s-18.974,9.359-29.578,7.963ZM172.916,271.65l-.116,2.123-2.083-.428c-12.165-2.497-24.508.768-33.843,8.957-14.832,13.002-17.674,35.119-6.609,51.446,6.994,10.321,18.136,16.604,30.57,17.237l43.478,5.719c9.63,1.268,19.17-1.3,26.861-7.231,7.691-5.931,12.6-14.504,13.821-24.139l5.496-43.359.025-.145c2.549-12.187-.694-24.56-8.899-33.948-12.978-14.851-35.091-17.726-51.437-6.687-.707.477-1.394.973-2.062,1.489-9.071,6.995-14.574,17.418-15.204,28.965Z"/><path class="cls-2" d="M320.279,345.106l42.057-42.262c12.843-10.988,20.671-27.667,19.537-46.14-1.719-27.997-24.341-50.652-52.336-52.414-18.431-1.16-35.068,6.613-46.073,19.38-11.005-12.767-27.643-20.54-46.074-19.38-27.994,1.762-50.616,24.417-52.335,52.414-1.134,18.473,6.694,35.152,19.537,46.14l42.059,42.263c20.303,20.401,53.324,20.401,73.627,0Z"/><path class="cls-1" d="M283.465,362.908c-14.59,0-28.293-5.695-38.585-16.037l-41.988-42.192c-14.059-12.069-21.468-29.604-20.33-48.127,1.803-29.367,25.307-52.908,54.673-54.757,17.551-1.114,34.24,5.484,46.23,18.146,11.991-12.662,28.677-19.251,46.23-18.146,29.366,1.848,52.87,25.388,54.673,54.756,1.138,18.522-6.271,36.059-20.329,48.127l-41.987,42.192-1.772-1.764,1.772,1.764c-10.293,10.342-23.996,16.038-38.587,16.038ZM241.016,206.675c-1.151,0-2.307.036-3.468.109-26.854,1.69-48.349,23.218-49.997,50.073-1.043,16.977,5.761,33.045,18.667,44.087l.147.136,42.059,42.263c9.346,9.392,21.79,14.564,35.04,14.564s25.695-5.173,35.042-14.565l42.205-42.397c12.905-11.042,19.709-27.111,18.666-44.088-1.648-26.856-23.143-48.383-49.997-50.072-16.906-1.07-32.961,5.685-44.022,18.517l-1.894,2.197-1.894-2.197c-10.301-11.95-24.929-18.626-40.555-18.626Z"/></svg>