<?xml version="1.0" encoding="UTF-8"?><svg id="Layer_1" xmlns="http://www.w3.org/2000/svg" xmlns:xlink="http://www.w3.org/1999/xlink" viewBox="0 0 416.752 367.058"><defs><style>.cls-1,.cls-2,.cls-3{fill:none;}.cls-4{filter:url(#drop-shadow-1);}.cls-5{filter:url(#drop-shadow-3);}.cls-6{filter:url(#drop-shadow-2);}.cls-7{filter:url(#drop-shadow-5);}.cls-8{filter:url(#drop-shadow-4);}.cls-9{clip-path:url(#clippath-1);}.cls-10{clip-path:url(#clippath-3);}.cls-11{clip-path:url(#clippath-4);}.cls-12{clip-path:url(#clippath-2);}.cls-13{fill:url(#linear-gradient);}.cls-13,.cls-2,.cls-14,.cls-15,.cls-16,.cls-17,.cls-3{stroke:#fff;stroke-miterlimit:10;}.cls-13,.cls-14,.cls-15,.cls-16,.cls-17{stroke-width:5px;}.cls-2,.cls-3{stroke-linecap:round;stroke-width:7px;}.cls-14{fill:url(#linear-gradient-5);}.cls-15{fill:url(#linear-gradient-4);}.cls-16{fill:url(#linear-gradient-3);}.cls-17{fill:url(#linear-gradient-2);}.cls-18{clip-path:url(#clippath);}.cls-3{stroke-dasharray:7.978 12.964;}</style><filter id="drop-shadow-1" x="32.826" y="11.358" width="372.96" height="280.56" filterUnits="userSpaceOnUse"><feOffset dx="0" dy="0"/><feGaussianBlur result="blur" stdDeviation="2.835"/><feFlood flood-color="#231f20" flood-opacity=".5"/><feComposite in2="blur" operator="in"/><feComposite in="SourceGraphic"/></filter><clipPath id="clippath"><path class="cls-1" d="M352.842,90.176c-5.246-11.4-5.119-24.049-.666-35.589,1.895-4.91,1.598-10.399-.602-15.18l-5.297-11.51c-3.123-6.787-11.157-9.757-17.944-6.634L49.22,149.709c-6.787,3.123-9.757,11.157-6.634,17.944l5.074,11.025c2.231,4.849,6.288,8.682,11.34,10.406,11.898,4.06,21.806,12.257,27.131,23.829,5.325,11.572,5.107,24.429.451,36.107-1.977,4.958-1.704,10.533.527,15.382l5.074,11.025c3.123,6.787,11.157,9.757,17.944,6.634l279.114-128.445c6.787-3.123,9.757-11.157,6.634-17.944l-5.297-11.51c-2.2-4.781-6.176-8.577-11.138-10.332-11.661-4.124-21.351-12.255-26.598-23.655Z"/></clipPath><linearGradient id="linear-gradient" x1="-1133.144" y1="345.417" x2="-820.676" y2="226.573" gradientTransform="translate(994.241 -523.79) rotate(-24.711)" gradientUnits="userSpaceOnUse"><stop offset="0" stop-color="#c1c8e5"/><stop offset=".121" stop-color="#d2d4ea"/><stop offset=".282" stop-color="#d6d6eb"/><stop offset=".432" stop-color="#d3d2e9"/><stop offset=".543" stop-color="#d8d2e8"/><stop offset=".675" stop-color="#e7cfe4"/><stop offset=".842" stop-color="#e9cee3"/><stop offset="1" stop-color="#f3eef6"/></linearGradient><filter id="drop-shadow-2" x="32.346" y="57.836" width="372.48" height="247.042" filterUnits="userSpaceOnUse"><feOffset dx="0" dy="0"/><feGaussianBlur result="blur-2" stdDeviation="2.835"/><feFlood flood-color="#231f20" flood-opacity=".5"/><feComposite in2="blur-2" operator="in"/><feComposite in="SourceGraphic"/></filter><clipPath id="clippath-1"><path class="cls-1" d="M359.711,140.884c-3.54-12.039-1.583-24.537,4.494-35.31,2.586-4.584,3.087-10.058,1.602-15.107l-3.574-12.155c-2.108-7.168-9.627-11.269-16.794-9.162L50.669,155.832c-7.168,2.108-11.269,9.627-9.162,16.794l3.424,11.644c1.506,5.121,4.965,9.501,9.714,11.938,11.185,5.74,19.801,15.285,23.395,27.506,3.594,12.221,1.516,24.911-4.781,35.792-2.674,4.62-3.211,10.175-1.705,15.296l3.424,11.644c2.108,7.168,9.627,11.269,16.794,9.162l294.769-86.682c7.168-2.108,11.269-9.627,9.162-16.794l-3.574-12.155c-1.485-5.049-4.869-9.381-9.525-11.835-10.941-5.768-19.352-15.217-22.893-27.256Z"/></clipPath><linearGradient id="linear-gradient-2" x1="-797.794" y1="308.33" x2="-485.327" y2="189.487" gradientTransform="translate(771.977 -243.564) rotate(-16.387)" xlink:href="#linear-gradient"/><filter id="drop-shadow-3" x="27.786" y="84.822" width="367.44" height="226.776" filterUnits="userSpaceOnUse"><feOffset dx="0" dy="0"/><feGaussianBlur result="blur-3" stdDeviation="2.835"/><feFlood flood-color="#231f20" flood-opacity=".5"/><feComposite in2="blur-3" operator="in"/><feComposite in="SourceGraphic"/></filter><clipPath id="clippath-2"><path class="cls-1" d="M356.301,178.298c-2.196-12.356,1.123-24.562,8.348-34.602,3.074-4.272,4.173-9.657,3.253-14.84l-2.217-12.475c-1.307-7.356-8.33-12.259-15.686-10.952L47.488,159.185c-7.356,1.307-12.259,8.33-10.952,15.686l2.123,11.95c.934,5.256,3.891,9.989,8.343,12.933,10.487,6.935,18.001,17.369,20.23,29.911,2.229,12.542-1.231,24.927-8.687,35.05-3.165,4.298-4.31,9.76-3.376,15.016l2.123,11.95c1.307,7.356,8.33,12.259,15.686,10.952l302.511-53.756c7.356-1.307,12.259-8.33,10.952-15.686l-2.217-12.475c-.921-5.182-3.808-9.859-8.166-12.81-10.241-6.936-17.562-17.252-19.758-29.608Z"/></clipPath><linearGradient id="linear-gradient-3" x1="-575.493" y1="131.867" x2="-263.025" y2="13.023" gradientTransform="translate(620.328 54.131) rotate(-10.076)" xlink:href="#linear-gradient"/><filter id="drop-shadow-4" x="27.786" y="130.16" width="353.52" height="195.465" filterUnits="userSpaceOnUse"><feOffset dx="0" dy="0"/><feGaussianBlur result="blur-4" stdDeviation="2.835"/><feFlood flood-color="#231f20" flood-opacity=".5"/><feComposite in2="blur-4" operator="in"/><feComposite in="SourceGraphic"/></filter><clipPath id="clippath-3"><path class="cls-1" d="M351.52,239.195c.213-12.547,5.809-23.892,14.823-32.361,3.836-3.604,5.947-8.679,6.036-13.941l.215-12.668c.127-7.47-5.826-13.628-13.296-13.755l-307.206-5.206c-7.47-.127-13.628,5.826-13.755,13.296l-.206,12.135c-.09,5.337,1.904,10.549,5.71,14.292,8.963,8.816,14.34,20.496,14.124,33.233-.216,12.737-5.985,24.229-15.242,32.736-3.93,3.612-6.101,8.753-6.191,14.09l-.206,12.135c-.127,7.47,5.826,13.628,13.296,13.755l307.206,5.206c7.47.127,13.628-5.826,13.755-13.296l.215-12.668c.089-5.262-1.848-10.406-5.56-14.138-8.722-8.77-13.931-20.298-13.718-32.845Z"/></clipPath><linearGradient id="linear-gradient-4" x1="-103.16" y1="197.756" x2="209.307" y2="78.913" gradientTransform="translate(163.299 94.037) rotate(.971)" xlink:href="#linear-gradient"/><filter id="drop-shadow-5" x="9.786" y="152.718" width="366" height="207.84" filterUnits="userSpaceOnUse"><feOffset dx="0" dy="0"/><feGaussianBlur result="blur-5" stdDeviation="2.835"/><feFlood flood-color="#231f20" flood-opacity=".5"/><feComposite in2="blur-5" operator="in"/><feComposite in="SourceGraphic"/></filter><clipPath id="clippath-4"><path class="cls-1" d="M338.105,278.778c1.892-12.406,8.959-22.898,19.027-30.083,4.284-3.057,7.056-7.803,7.85-13.007l1.911-12.525c1.127-7.386-3.947-14.286-11.333-15.413L51.823,161.418c-7.386-1.127-14.286,3.947-15.413,11.333l-1.83,11.998c-.805,5.277.473,10.709,3.743,14.928,7.701,9.937,11.463,22.233,9.542,34.826-1.921,12.593-9.178,23.208-19.492,30.397-4.379,3.052-7.219,7.857-8.024,13.134l-1.83,11.998c-1.127,7.386,3.947,14.286,11.333,15.413l303.737,46.333c7.386,1.127,14.286-3.947,15.413-11.333l1.911-12.525c.794-5.203-.437-10.56-3.615-14.755-7.468-9.86-11.085-21.982-9.193-34.387Z"/></clipPath><linearGradient id="linear-gradient-5" x1="225.203" y1="181.325" x2="537.671" y2="62.481" gradientTransform="translate(-156.05 76.43) rotate(8.673)" xlink:href="#linear-gradient"/></defs><g class="cls-4"><g class="cls-18"><path class="cls-13" d="M352.842,90.176c-5.246-11.4-5.119-24.049-.666-35.589,1.895-4.91,1.598-10.399-.602-15.18l-5.297-11.51c-3.123-6.787-11.157-9.757-17.944-6.634L49.22,149.709c-6.787,3.123-9.757,11.157-6.634,17.944l5.074,11.025c2.231,4.849,6.288,8.682,11.34,10.406,11.898,4.06,21.806,12.257,27.131,23.829,5.325,11.572,5.107,24.429.451,36.107-1.977,4.958-1.704,10.533.527,15.382l5.074,11.025c3.123,6.787,11.157,9.757,17.944,6.634l279.114-128.445c6.787-3.123,9.757-11.157,6.634-17.944l-5.297-11.51c-2.2-4.781-6.176-8.577-11.138-10.332-11.661-4.124-21.351-12.255-26.598-23.655Z"/><line class="cls-2" x1="243.122" y1="25.836" x2="244.795" y2="29.469"/><line class="cls-3" x1="250.214" y1="41.246" x2="317.539" y2="187.545"/><line class="cls-2" x1="320.249" y1="193.433" x2="321.921" y2="197.067"/></g></g><g class="cls-6"><g class="cls-9"><path class="cls-17" d="M359.711,140.884c-3.54-12.039-1.583-24.537,4.494-35.31,2.586-4.584,3.087-10.058,1.602-15.107l-3.574-12.155c-2.108-7.168-9.627-11.269-16.794-9.162L50.669,155.832c-7.168,2.108-11.269,9.627-9.162,16.794l3.424,11.644c1.506,5.121,4.965,9.501,9.714,11.938,11.185,5.74,19.801,15.285,23.395,27.506,3.594,12.221,1.516,24.911-4.781,35.792-2.674,4.62-3.211,10.175-1.705,15.296l3.424,11.644c2.108,7.168,9.627,11.269,16.794,9.162l294.769-86.682c7.168-2.108,11.269-9.627,9.162-16.794l-3.574-12.155c-1.485-5.049-4.869-9.381-9.525-11.835-10.941-5.768-19.352-15.217-22.893-27.256Z"/><line class="cls-2" x1="260.462" y1="61.336" x2="261.591" y2="65.173"/><line class="cls-3" x1="265.248" y1="77.61" x2="310.683" y2="232.115"/><line class="cls-2" x1="312.512" y1="238.334" x2="313.64" y2="242.171"/></g></g><g class="cls-5"><g class="cls-12"><path class="cls-16" d="M356.301,178.298c-2.196-12.356,1.123-24.562,8.348-34.602,3.074-4.272,4.173-9.657,3.253-14.84l-2.217-12.475c-1.307-7.356-8.33-12.259-15.686-10.952L47.488,159.185c-7.356,1.307-12.259,8.33-10.952,15.686l2.123,11.95c.934,5.256,3.891,9.989,8.343,12.933,10.487,6.935,18.001,17.369,20.23,29.911,2.229,12.542-1.231,24.927-8.687,35.05-3.165,4.298-4.31,9.76-3.376,15.016l2.123,11.95c1.307,7.356,8.33,12.259,15.686,10.952l302.511-53.756c7.356-1.307,12.259-8.33,10.952-15.686l-2.217-12.475c-.921-5.182-3.808-9.859-8.166-12.81-10.241-6.936-17.562-17.252-19.758-29.608Z"/><line class="cls-2" x1="266.397" y1="88.322" x2="267.097" y2="92.261"/><line class="cls-3" x1="269.365" y1="105.024" x2="297.542" y2="263.587"/><line class="cls-2" x1="298.676" y1="269.969" x2="299.375" y2="273.907"/></g></g><g class="cls-8"><g class="cls-10"><path class="cls-15" d="M351.52,239.195c.213-12.547,5.809-23.892,14.823-32.361,3.836-3.604,5.947-8.679,6.036-13.941l.215-12.668c.127-7.47-5.826-13.628-13.296-13.755l-307.206-5.206c-7.47-.127-13.628,5.826-13.755,13.296l-.206,12.135c-.09,5.337,1.904,10.549,5.71,14.292,8.963,8.816,14.34,20.496,14.124,33.233-.216,12.737-5.985,24.229-15.242,32.736-3.93,3.612-6.101,8.753-6.191,14.09l-.206,12.135c-.127,7.47,5.826,13.628,13.296,13.755l307.206,5.206c7.47.127,13.628-5.826,13.755-13.296l.215-12.668c.089-5.262-1.848-10.406-5.56-14.138-8.722-8.77-13.931-20.298-13.718-32.845Z"/><line class="cls-2" x1="280.523" y1="133.66" x2="280.456" y2="137.659"/><line class="cls-3" x1="280.236" y1="150.621" x2="277.507" y2="311.645"/><line class="cls-2" x1="277.397" y1="318.126" x2="277.329" y2="322.125"/></g></g><g class="cls-7"><g class="cls-11"><path class="cls-14" d="M338.105,278.778c1.892-12.406,8.959-22.898,19.027-30.083,4.284-3.057,7.056-7.803,7.85-13.007l1.911-12.525c1.127-7.386-3.947-14.286-11.333-15.413L51.823,161.418c-7.386-1.127-14.286,3.947-15.413,11.333l-1.83,11.998c-.805,5.277.473,10.709,3.743,14.928,7.701,9.937,11.463,22.233,9.542,34.826-1.921,12.593-9.178,23.208-19.492,30.397-4.379,3.052-7.219,7.857-8.024,13.134l-1.83,11.998c-1.127,7.386,3.947,14.286,11.333,15.413l303.737,46.333c7.386,1.127,14.286-3.947,15.413-11.333l1.911-12.525c.794-5.203-.437-10.56-3.615-14.755-7.468-9.86-11.085-21.982-9.193-34.387Z"/><line class="cls-2" x1="281.892" y1="164.68" x2="281.289" y2="168.634"/><line class="cls-3" x1="279.334" y1="181.449" x2="255.049" y2="340.654"/><line class="cls-2" x1="254.071" y1="347.062" x2="253.468" y2="351.016"/></g></g></svg>