<?xml version="1.0" encoding="UTF-8"?><svg id="Layer_1" xmlns="http://www.w3.org/2000/svg" xmlns:xlink="http://www.w3.org/1999/xlink" viewBox="0 0 398.203 319.911"><defs><style>.cls-1,.cls-2,.cls-3{fill:none;}.cls-4{filter:url(#drop-shadow-1);}.cls-5{filter:url(#drop-shadow-3);}.cls-6{filter:url(#drop-shadow-2);}.cls-7{clip-path:url(#clippath-1);}.cls-8{clip-path:url(#clippath-2);}.cls-9{fill:url(#linear-gradient);}.cls-9,.cls-2,.cls-10,.cls-11,.cls-3{stroke:#fff;stroke-miterlimit:10;}.cls-9,.cls-10,.cls-11{stroke-width:5px;}.cls-2,.cls-3{stroke-linecap:round;stroke-width:7px;}.cls-10{fill:url(#linear-gradient-3);}.cls-11{fill:url(#linear-gradient-2);}.cls-12{clip-path:url(#clippath);}.cls-3{stroke-dasharray:7.978 12.964;}</style><filter id="drop-shadow-1" x="15.404" y="6.857" width="373.44" height="274.56" filterUnits="userSpaceOnUse"><feOffset dx="0" dy="0"/><feGaussianBlur result="blur" stdDeviation="2.835"/><feFlood flood-color="#231f20" flood-opacity=".5"/><feComposite in2="blur" operator="in"/><feComposite in="SourceGraphic"/></filter><clipPath id="clippath"><path class="cls-1" d="M337.248,86.045c-4.947-11.533-4.491-24.174.261-35.594,2.022-4.859,1.868-10.353-.207-15.19l-4.995-11.644c-2.945-6.866-10.899-10.044-17.765-7.099L32.178,137.65c-6.866,2.945-10.044,10.899-7.099,17.765l4.785,11.154c2.104,4.906,6.06,8.843,11.065,10.697,11.789,4.369,21.479,12.821,26.501,24.528s4.469,24.554-.49,36.107c-2.105,4.905-1.978,10.485.126,15.39l4.785,11.154c2.945,6.866,10.899,10.044,17.765,7.099l282.364-121.132c6.866-2.945,10.044-10.899,7.099-17.765l-4.995-11.644c-2.075-4.837-5.95-8.735-10.865-10.618-11.55-4.426-21.025-12.807-25.972-24.34Z"/></clipPath><linearGradient id="linear-gradient" x1="-1126.921" y1="246.233" x2="-814.453" y2="127.389" gradientTransform="translate(1027.802 -417.406) rotate(-23.219)" gradientUnits="userSpaceOnUse"><stop offset="0" stop-color="#c1c8e5"/><stop offset=".121" stop-color="#d2d4ea"/><stop offset=".282" stop-color="#d6d6eb"/><stop offset=".432" stop-color="#d3d2e9"/><stop offset=".543" stop-color="#d8d2e8"/><stop offset=".675" stop-color="#e7cfe4"/><stop offset=".842" stop-color="#e9cee3"/><stop offset="1" stop-color="#f3eef6"/></linearGradient><filter id="drop-shadow-2" x="14.684" y="51.308" width="371.76" height="242.348" filterUnits="userSpaceOnUse"><feOffset dx="0" dy="0"/><feGaussianBlur result="blur-2" stdDeviation="2.835"/><feFlood flood-color="#231f20" flood-opacity=".5"/><feComposite in2="blur-2" operator="in"/><feComposite in="SourceGraphic"/></filter><clipPath id="clippath-1"><path class="cls-1" d="M342.794,136.914c-3.226-12.128-.944-24.57,5.412-35.181,2.704-4.515,3.348-9.974,1.995-15.06l-3.257-12.244c-1.92-7.22-9.33-11.516-16.55-9.596L33.467,143.808c-7.22,1.92-11.516,9.33-9.596,16.55l3.12,11.729c1.372,5.159,4.716,9.627,9.4,12.187,11.032,6.029,19.397,15.795,22.671,28.106,3.274,12.311.867,24.942-5.712,35.655-2.793,4.549-3.475,10.088-2.103,15.246l3.12,11.729c1.92,7.22,9.33,11.516,16.55,9.596l296.927-78.976c7.22-1.92,11.516-9.33,9.596-16.55l-3.257-12.244c-1.353-5.086-4.623-9.504-9.213-12.079-10.788-6.051-18.949-15.716-22.175-27.843Z"/></clipPath><linearGradient id="linear-gradient-2" x1="-794.811" y1="292.968" x2="-482.343" y2="174.124" gradientTransform="translate(765.997 -221.054) rotate(-14.895)" xlink:href="#linear-gradient"/><filter id="drop-shadow-3" x="13.484" y="98.644" width="358.32" height="203.173" filterUnits="userSpaceOnUse"><feOffset dx="0" dy="0"/><feGaussianBlur result="blur-3" stdDeviation="2.835"/><feFlood flood-color="#231f20" flood-opacity=".5"/><feComposite in2="blur-3" operator="in"/><feComposite in="SourceGraphic"/></filter><clipPath id="clippath-2"><path class="cls-1" d="M339.394,201.76c-.776-12.525,3.909-24.275,12.229-33.428,3.54-3.895,5.245-9.12,4.919-14.373l-.784-12.646c-.462-7.457-6.882-13.127-14.338-12.665l-306.662,19.002c-7.457.462-13.127,6.882-12.665,14.338l.751,12.114c.33,5.328,2.729,10.366,6.818,13.798,9.63,8.082,15.909,19.303,16.697,32.018.788,12.714-4.058,24.625-12.617,33.834-3.634,3.91-5.392,9.207-5.062,14.534l.751,12.114c.462,7.457,6.882,13.127,14.338,12.665l306.662-19.002c7.457-.462,13.127-6.882,12.665-14.338l-.784-12.646c-.326-5.253-2.662-10.228-6.656-13.656-9.386-8.056-15.486-19.138-16.262-31.663Z"/></clipPath><linearGradient id="linear-gradient-3" x1="-340.525" y1="273.13" x2="-28.058" y2="154.286" gradientTransform="translate(372.575 -18.034) rotate(-3.546)" xlink:href="#linear-gradient"/></defs><g class="cls-4"><g class="cls-12"><path class="cls-9" d="M337.248,86.045c-4.947-11.533-4.491-24.174.261-35.594,2.022-4.859,1.868-10.353-.207-15.19l-4.995-11.644c-2.945-6.866-10.899-10.044-17.765-7.099L32.178,137.65c-6.866,2.945-10.044,10.899-7.099,17.765l4.785,11.154c2.104,4.906,6.06,8.843,11.065,10.697,11.789,4.369,21.479,12.821,26.501,24.528s4.469,24.554-.49,36.107c-2.105,4.905-1.978,10.485.126,15.39l4.785,11.154c2.945,6.866,10.899,10.044,17.765,7.099l282.364-121.132c6.866-2.945,10.044-10.899,7.099-17.765l-4.995-11.644c-2.075-4.837-5.95-8.735-10.865-10.618-11.55-4.426-21.025-12.807-25.972-24.34Z"/><line class="cls-2" x1="229.241" y1="18.868" x2="230.818" y2="22.544"/><line class="cls-3" x1="235.929" y1="34.458" x2="299.421" y2="182.461"/><line class="cls-2" x1="301.976" y1="188.418" x2="303.553" y2="192.094"/></g></g><g class="cls-6"><g class="cls-7"><path class="cls-11" d="M342.794,136.914c-3.226-12.128-.944-24.57,5.412-35.181,2.704-4.515,3.348-9.974,1.995-15.06l-3.257-12.244c-1.92-7.22-9.33-11.516-16.55-9.596L33.467,143.808c-7.22,1.92-11.516,9.33-9.596,16.55l3.12,11.729c1.372,5.159,4.716,9.627,9.4,12.187,11.032,6.029,19.397,15.795,22.671,28.106,3.274,12.311.867,24.942-5.712,35.655-2.793,4.549-3.475,10.088-2.103,15.246l3.12,11.729c1.92,7.22,9.33,11.516,16.55,9.596l296.927-78.976c7.22-1.92,11.516-9.33,9.596-16.55l-3.257-12.244c-1.353-5.086-4.623-9.504-9.213-12.079-10.788-6.051-18.949-15.716-22.175-27.843Z"/><line class="cls-2" x1="245.65" y1="54.808" x2="246.678" y2="58.674"/><line class="cls-3" x1="250.011" y1="71.202" x2="291.406" y2="226.838"/><line class="cls-2" x1="293.073" y1="233.102" x2="294.101" y2="236.967"/></g></g><g class="cls-5"><g class="cls-8"><path class="cls-10" d="M339.394,201.76c-.776-12.525,3.909-24.275,12.229-33.428,3.54-3.895,5.245-9.12,4.919-14.373l-.784-12.646c-.462-7.457-6.882-13.127-14.338-12.665l-306.662,19.002c-7.457.462-13.127,6.882-12.665,14.338l.751,12.114c.33,5.328,2.729,10.366,6.818,13.798,9.63,8.082,15.909,19.303,16.697,32.018.788,12.714-4.058,24.625-12.617,33.834-3.634,3.91-5.392,9.207-5.062,14.534l.751,12.114c.462,7.457,6.882,13.127,14.338,12.665l306.662-19.002c7.457-.462,13.127-6.882,12.665-14.338l-.784-12.646c-.326-5.253-2.662-10.228-6.656-13.656-9.386-8.056-15.486-19.138-16.262-31.663Z"/><line class="cls-2" x1="260.307" y1="102.144" x2="260.554" y2="106.136"/><line class="cls-3" x1="261.356" y1="119.075" x2="271.316" y2="279.814"/><line class="cls-2" x1="271.717" y1="286.283" x2="271.964" y2="290.275"/></g></g></svg>