<?xml version="1.0" encoding="UTF-8"?><svg id="Layer_1" xmlns="http://www.w3.org/2000/svg" xmlns:xlink="http://www.w3.org/1999/xlink" viewBox="0 0 566.929 566.929"><defs><style>.cls-1,.cls-2,.cls-3{fill:none;}.cls-4{fill:url(#linear-gradient);stroke-width:17px;}.cls-4,.cls-2,.cls-3{stroke:#fff;stroke-miterlimit:10;}.cls-2,.cls-3{stroke-linecap:round;stroke-width:7px;}.cls-5{clip-path:url(#clippath);}.cls-3{stroke-dasharray:7.978 12.964;}</style><clipPath id="clippath"><path class="cls-1" d="M416.863,221.515c-5.286-11.382-5.202-24.031-.789-35.586,1.878-4.917,1.562-10.404-.655-15.178l-5.337-11.491c-3.147-6.776-11.191-9.718-17.967-6.571L113.448,282.1c-6.776,3.147-9.718,11.191-6.571,17.967l5.112,11.008c2.248,4.841,6.318,8.66,11.376,10.366,11.912,4.019,21.848,12.181,27.214,23.735,5.366,11.554,5.191,24.411.576,36.105-1.96,4.965-1.668,10.538.58,15.38l5.112,11.008c3.147,6.776,11.191,9.718,17.967,6.571l278.667-129.412c6.776-3.147,9.718-11.191,6.571-17.967l-5.337-11.491c-2.217-4.774-6.205-8.555-11.174-10.293-11.676-4.083-21.394-12.181-26.679-23.563Z"/></clipPath><linearGradient id="linear-gradient" x1="-885.028" y1="393.607" x2="-572.56" y2="274.763" gradientTransform="translate(810.797 -333.873) rotate(-24.91)" gradientUnits="userSpaceOnUse"><stop offset="0" stop-color="#c1c8e5"/><stop offset=".121" stop-color="#d2d4ea"/><stop offset=".282" stop-color="#d6d6eb"/><stop offset=".432" stop-color="#d3d2e9"/><stop offset=".543" stop-color="#d8d2e8"/><stop offset=".675" stop-color="#e7cfe4"/><stop offset=".842" stop-color="#e9cee3"/><stop offset="1" stop-color="#f3eef6"/></linearGradient></defs><g class="cls-5"><path class="cls-4" d="M416.863,221.515c-5.286-11.382-5.202-24.031-.789-35.586,1.878-4.917,1.562-10.404-.655-15.178l-5.337-11.491c-3.147-6.776-11.191-9.718-17.967-6.571L113.448,282.1c-6.776,3.147-9.718,11.191-6.571,17.967l5.112,11.008c2.248,4.841,6.318,8.66,11.376,10.366,11.912,4.019,21.848,12.181,27.214,23.735,5.366,11.554,5.191,24.411.576,36.105-1.96,4.965-1.668,10.538.58,15.38l5.112,11.008c3.147,6.776,11.191,9.718,17.967,6.571l278.667-129.412c6.776-3.147,9.718-11.191,6.571-17.967l-5.337-11.491c-2.217-4.774-6.205-8.555-11.174-10.293-11.676-4.083-21.394-12.181-26.679-23.563Z"/><line class="cls-2" x1="306.92" y1="157.555" x2="308.605" y2="161.183"/><line class="cls-3" x1="314.065" y1="172.941" x2="381.897" y2="319.006"/><line class="cls-2" x1="384.627" y1="324.884" x2="386.312" y2="328.512"/></g></svg>