<svg width="371" height="290" viewBox="0 0 371 290" fill="none" xmlns="http://www.w3.org/2000/svg">
<g filter="url(#filter0_d_3129_3760)">
<mask id="mask0_3129_3760" style="mask-type:luminance" maskUnits="userSpaceOnUse" x="8" y="5" width="357" height="259">
<path d="M321.552 76.5663C316.605 65.0333 317.061 52.3923 321.813 40.9723C323.835 36.1133 323.681 30.6193 321.606 25.7823L316.611 14.1383C313.666 7.27234 305.712 4.09434 298.846 7.03934L16.4821 128.171C9.61608 131.116 6.43809 139.07 9.38309 145.936L14.1681 157.09C16.2721 161.996 20.2281 165.933 25.2331 167.787C37.0221 172.156 46.7121 180.608 51.7341 192.315C56.7561 204.022 56.2031 216.869 51.2441 228.422C49.1391 233.327 49.2661 238.907 51.3701 243.812L56.1551 254.966C59.1001 261.832 67.0541 265.01 73.9201 262.065L356.284 140.933C363.15 137.988 366.328 130.034 363.383 123.168L358.388 111.524C356.313 106.687 352.438 102.789 347.523 100.906C335.973 96.4803 326.498 88.0993 321.551 76.5663H321.552Z" fill="white"/>
</mask>
<g mask="url(#mask0_3129_3760)">
<path d="M321.552 76.5663C316.605 65.0333 317.061 52.3923 321.813 40.9723C323.835 36.1133 323.681 30.6193 321.606 25.7823L316.611 14.1383C313.666 7.27234 305.712 4.09434 298.846 7.03934L16.4821 128.171C9.61608 131.116 6.43809 139.07 9.38309 145.936L14.1681 157.09C16.2721 161.996 20.2281 165.933 25.2331 167.787C37.0221 172.156 46.7121 180.608 51.7341 192.315C56.7561 204.022 56.2031 216.869 51.2441 228.422C49.1391 233.327 49.2661 238.907 51.3701 243.812L56.1551 254.966C59.1001 261.832 67.0541 265.01 73.9201 262.065L356.284 140.933C363.15 137.988 366.328 130.034 363.383 123.168L358.388 111.524C356.313 106.687 352.438 102.789 347.523 100.906C335.973 96.4803 326.498 88.0993 321.551 76.5663H321.552Z" fill="url(#paint0_linear_3129_3760)" stroke="white" stroke-width="5" stroke-miterlimit="10"/>
<path d="M213.545 9.38965L215.122 13.0666" stroke="white" stroke-width="7" stroke-miterlimit="10" stroke-linecap="round"/>
<path d="M220.233 24.9795L283.725 172.982" stroke="white" stroke-width="7" stroke-miterlimit="10" stroke-linecap="round" stroke-dasharray="7.98 12.96"/>
<path d="M286.28 178.939L287.857 182.615" stroke="white" stroke-width="7" stroke-miterlimit="10" stroke-linecap="round"/>
</g>
</g>
<g filter="url(#filter1_d_3129_3760)">
<mask id="mask1_3129_3760" style="mask-type:luminance" maskUnits="userSpaceOnUse" x="7" y="54" width="356" height="222">
<path d="M327.098 127.435C323.872 115.307 326.154 102.865 332.51 92.2542C335.214 87.7392 335.858 82.2802 334.505 77.1942L331.247 64.9502C329.327 57.7302 321.918 53.4342 314.698 55.3542L17.7705 134.33C10.5505 136.25 6.25452 143.66 8.17452 150.88L11.2945 162.609C12.6665 167.768 16.0105 172.236 20.6945 174.796C31.7265 180.825 40.0915 190.591 43.3655 202.902C46.6395 215.213 44.2325 227.844 37.6535 238.557C34.8605 243.106 34.1785 248.645 35.5505 253.803L38.6705 265.532C40.5905 272.752 48.0005 277.048 55.2205 275.128L352.148 196.152C359.368 194.232 363.663 186.822 361.743 179.602L358.487 167.358C357.134 162.272 353.863 157.854 349.273 155.279C338.485 149.228 330.325 139.563 327.099 127.436L327.098 127.435Z" fill="white"/>
</mask>
<g mask="url(#mask1_3129_3760)">
<path d="M327.098 127.435C323.872 115.307 326.154 102.865 332.51 92.2542C335.214 87.7392 335.858 82.2802 334.505 77.1942L331.247 64.9502C329.327 57.7302 321.918 53.4342 314.698 55.3542L17.7705 134.33C10.5505 136.25 6.25452 143.66 8.17452 150.88L11.2945 162.609C12.6665 167.768 16.0105 172.236 20.6945 174.796C31.7265 180.825 40.0915 190.591 43.3655 202.902C46.6395 215.213 44.2325 227.844 37.6535 238.557C34.8605 243.106 34.1785 248.645 35.5505 253.803L38.6705 265.532C40.5905 272.752 48.0005 277.048 55.2205 275.128L352.148 196.152C359.368 194.232 363.663 186.822 361.743 179.602L358.487 167.358C357.134 162.272 353.863 157.854 349.273 155.279C338.485 149.228 330.325 139.563 327.099 127.436L327.098 127.435Z" fill="url(#paint1_linear_3129_3760)" stroke="white" stroke-width="5" stroke-miterlimit="10"/>
<path d="M234.314 61.7227L275.71 217.359" stroke="white" stroke-width="7" stroke-miterlimit="10" stroke-linecap="round" stroke-dasharray="7.98 12.96"/>
<path d="M277.377 223.623L278.405 227.488" stroke="white" stroke-width="7" stroke-miterlimit="10" stroke-linecap="round"/>
</g>
</g>
<g filter="url(#filter2_d_3129_3760)">
<mask id="mask2_3129_3760" style="mask-type:luminance" maskUnits="userSpaceOnUse" x="6" y="119" width="342" height="165">
<path d="M323.698 192.281C322.922 179.756 327.607 168.006 335.927 158.853C339.467 154.958 341.172 149.733 340.846 144.48L340.062 131.834C339.6 124.377 333.18 118.707 325.724 119.169L19.0624 138.171C11.6054 138.633 5.93544 145.053 6.39744 152.509L7.14844 164.623C7.47844 169.951 9.87744 174.989 13.9664 178.421C23.5964 186.503 29.8754 197.724 30.6634 210.439C31.4514 223.153 26.6054 235.064 18.0464 244.273C14.4124 248.183 12.6544 253.48 12.9844 258.807L13.7354 270.921C14.1974 278.378 20.6174 284.048 28.0734 283.586L334.735 264.584C342.192 264.122 347.862 257.702 347.4 250.246L346.616 237.6C346.29 232.347 343.954 227.372 339.96 223.944C330.574 215.888 324.474 204.806 323.698 192.281Z" fill="white"/>
</mask>
<g mask="url(#mask2_3129_3760)">
<path d="M323.698 192.281C322.922 179.756 327.607 168.006 335.927 158.853C339.467 154.958 341.172 149.733 340.846 144.48L340.062 131.834C339.6 124.377 333.18 118.707 325.724 119.169L19.0624 138.171C11.6054 138.633 5.93544 145.053 6.39744 152.509L7.14844 164.623C7.47844 169.951 9.87744 174.989 13.9664 178.421C23.5964 186.503 29.8754 197.724 30.6634 210.439C31.4514 223.153 26.6054 235.064 18.0464 244.273C14.4124 248.183 12.6544 253.48 12.9844 258.807L13.7354 270.921C14.1974 278.378 20.6174 284.048 28.0734 283.586L334.735 264.584C342.192 264.122 347.862 257.702 347.4 250.246L346.616 237.6C346.29 232.347 343.954 227.372 339.96 223.944C330.574 215.888 324.474 204.806 323.698 192.281Z" fill="url(#paint2_linear_3129_3760)" stroke="white" stroke-width="5" stroke-miterlimit="10"/>
<path d="M245.66 109.596L255.62 270.335" stroke="white" stroke-width="7" stroke-miterlimit="10" stroke-linecap="round" stroke-dasharray="7.98 12.96"/>
<path d="M256.021 276.804L256.268 280.796" stroke="white" stroke-width="7" stroke-miterlimit="10" stroke-linecap="round"/>
</g>
</g>
<defs>
<filter id="filter0_d_3129_3760" x="2.61418" y="0.27043" width="367.538" height="268.564" filterUnits="userSpaceOnUse" color-interpolation-filters="sRGB">
<feFlood flood-opacity="0" result="BackgroundImageFix"/>
<feColorMatrix in="SourceAlpha" type="matrix" values="0 0 0 0 0 0 0 0 0 0 0 0 0 0 0 0 0 0 127 0" result="hardAlpha"/>
<feOffset/>
<feGaussianBlur stdDeviation="2.835"/>
<feColorMatrix type="matrix" values="0 0 0 0 0.137255 0 0 0 0 0.121569 0 0 0 0 0.12549 0 0 0 0.5 0"/>
<feBlend mode="normal" in2="BackgroundImageFix" result="effect1_dropShadow_3129_3760"/>
<feBlend mode="normal" in="SourceGraphic" in2="effect1_dropShadow_3129_3760" result="shape"/>
</filter>
<filter id="filter1_d_3129_3760" x="2.0468" y="49.2265" width="365.824" height="232.029" filterUnits="userSpaceOnUse" color-interpolation-filters="sRGB">
<feFlood flood-opacity="0" result="BackgroundImageFix"/>
<feColorMatrix in="SourceAlpha" type="matrix" values="0 0 0 0 0 0 0 0 0 0 0 0 0 0 0 0 0 0 127 0" result="hardAlpha"/>
<feOffset/>
<feGaussianBlur stdDeviation="2.835"/>
<feColorMatrix type="matrix" values="0 0 0 0 0.137255 0 0 0 0 0.121569 0 0 0 0 0.12549 0 0 0 0.5 0"/>
<feBlend mode="normal" in2="BackgroundImageFix" result="effect1_dropShadow_3129_3760"/>
<feBlend mode="normal" in="SourceGraphic" in2="effect1_dropShadow_3129_3760" result="shape"/>
</filter>
<filter id="filter2_d_3129_3760" x="0.701094" y="113.473" width="352.396" height="175.81" filterUnits="userSpaceOnUse" color-interpolation-filters="sRGB">
<feFlood flood-opacity="0" result="BackgroundImageFix"/>
<feColorMatrix in="SourceAlpha" type="matrix" values="0 0 0 0 0 0 0 0 0 0 0 0 0 0 0 0 0 0 127 0" result="hardAlpha"/>
<feOffset/>
<feGaussianBlur stdDeviation="2.835"/>
<feColorMatrix type="matrix" values="0 0 0 0 0.137255 0 0 0 0 0.121569 0 0 0 0 0.12549 0 0 0 0.5 0"/>
<feBlend mode="normal" in2="BackgroundImageFix" result="effect1_dropShadow_3129_3760"/>
<feBlend mode="normal" in="SourceGraphic" in2="effect1_dropShadow_3129_3760" result="shape"/>
</filter>
<linearGradient id="paint0_linear_3129_3760" x1="73.5373" y1="243.689" x2="313.843" y2="11.2824" gradientUnits="userSpaceOnUse">
<stop stop-color="#C2C9E6"/>
<stop offset="0.121" stop-color="#D2D4EB"/>
<stop offset="0.282" stop-color="#D6D7EC"/>
<stop offset="0.432" stop-color="#D4D3EA"/>
<stop offset="0.543" stop-color="#D9D2E9"/>
<stop offset="0.675" stop-color="#E7D0E5"/>
<stop offset="0.842" stop-color="#EACFE4"/>
<stop offset="1" stop-color="#F3EEF6"/>
</linearGradient>
<linearGradient id="paint1_linear_3129_3760" x1="57.5036" y1="256.893" x2="328.923" y2="61.723" gradientUnits="userSpaceOnUse">
<stop stop-color="#C2C9E6"/>
<stop offset="0.121" stop-color="#D2D4EB"/>
<stop offset="0.282" stop-color="#D6D7EC"/>
<stop offset="0.432" stop-color="#D4D3EA"/>
<stop offset="0.543" stop-color="#D9D2E9"/>
<stop offset="0.675" stop-color="#E7D0E5"/>
<stop offset="0.842" stop-color="#EACFE4"/>
<stop offset="1" stop-color="#F3EEF6"/>
</linearGradient>
<linearGradient id="paint2_linear_3129_3760" x1="33.8996" y1="266.155" x2="338.419" y2="128.212" gradientUnits="userSpaceOnUse">
<stop stop-color="#C2C9E6"/>
<stop offset="0.121" stop-color="#D2D4EB"/>
<stop offset="0.282" stop-color="#D6D7EC"/>
<stop offset="0.432" stop-color="#D4D3EA"/>
<stop offset="0.543" stop-color="#D9D2E9"/>
<stop offset="0.675" stop-color="#E7D0E5"/>
<stop offset="0.842" stop-color="#EACFE4"/>
<stop offset="1" stop-color="#F3EEF6"/>
</linearGradient>
</defs>
</svg>
