<svg width="40" height="40" viewBox="0 0 40 40" fill="none" xmlns="http://www.w3.org/2000/svg">
<g clip-path="url(#clip0_1373_4042)">
<path d="M24.1505 8.97301C22.7575 10.599 20.2465 10.867 19.0705 10.9C18.7045 10.91 18.3735 10.626 18.3275 10.263C18.1795 9.09601 18.0605 6.57401 19.4545 4.94801C20.8475 3.32201 23.3585 3.05401 24.5345 3.02101C24.9005 3.01101 25.2315 3.29501 25.2775 3.65801C25.4255 4.82501 25.5445 7.34701 24.1505 8.97301Z" fill="#006956"/>
<path d="M29.3733 8.47095C26.9283 7.97195 24.4213 8.50295 22.1633 9.81195C20.8343 10.582 19.1663 10.582 17.8373 9.81195C15.5793 8.50395 13.0723 7.97195 10.6273 8.47095C4.4473 9.73295 1.0093 17.095 2.9463 24.916C4.8843 32.737 11.4643 38.054 17.6433 36.793C18.1393 36.692 18.6163 36.55 19.0743 36.372C19.6673 36.142 20.3323 36.142 20.9243 36.372C21.3823 36.55 21.8603 36.691 22.3553 36.793C28.5353 38.054 35.1153 32.737 37.0523 24.916C38.9903 17.095 35.5513 9.73195 29.3713 8.47095H29.3733Z" fill="#EF4452"/>
</g>
<defs>
<clipPath id="clip0_1373_4042">
<rect width="40" height="40" fill="white"/>
</clipPath>
</defs>
</svg>
