<svg width="40" height="40" viewBox="0 0 40 40" fill="none" xmlns="http://www.w3.org/2000/svg">
<g clip-path="url(#clip0_1373_3928)">
<path d="M34.8384 13.7851C35.6864 12.6801 36.1964 11.3021 36.1964 9.80109C36.1964 6.18109 33.2614 3.24609 29.6404 3.24609C27.4604 3.24609 25.5344 4.31409 24.3424 5.95109H15.6574C14.4654 4.31409 12.5394 3.24609 10.3594 3.24609C6.73939 3.24609 3.80339 6.18109 3.80339 9.80109C3.80339 11.3191 4.32439 12.7131 5.19039 13.8241C3.66439 16.3931 2.77539 19.3851 2.77539 22.5931C2.77539 32.1201 10.4984 36.7531 20.0254 36.7531C29.5524 36.7531 37.2754 32.1191 37.2754 22.5931C37.2754 19.3691 36.3794 16.3631 34.8384 13.7851Z" fill="#AA8074"/>
<path d="M23.8512 19.2671L24.7852 23.2281C25.5092 26.2981 23.1802 29.2391 20.0262 29.2391C16.8722 29.2391 14.5442 26.2971 15.2672 23.2281L16.2012 19.2671C16.2952 18.8701 16.6492 18.5901 17.0562 18.5901H22.9962C23.4042 18.5901 23.7582 18.8701 23.8512 19.2671Z" fill="white"/>
<path d="M23.1084 20.5919C23.1084 21.4679 22.2924 22.2589 21.4994 22.8199C20.6164 23.4449 19.4354 23.4449 18.5524 22.8199C17.7604 22.2589 16.9434 21.4679 16.9434 20.5919V20.2119C16.9434 19.8439 17.2424 19.5449 17.6104 19.5449H22.4404C22.8084 19.5449 23.1074 19.8439 23.1074 20.2119L23.1084 20.5919Z" fill="black"/>
<path d="M14.586 14.6189C13.502 14.6189 12.623 15.4979 12.623 16.5819C12.623 17.6659 13.502 18.5449 14.586 18.5449C15.67 18.5449 16.549 17.6659 16.549 16.5819C16.549 15.4979 15.67 14.6189 14.586 14.6189Z" fill="black"/>
<path d="M25.4142 14.6189C24.3302 14.6189 23.4512 15.4979 23.4512 16.5819C23.4512 17.6659 24.3302 18.5449 25.4142 18.5449C26.4982 18.5449 27.3772 17.6659 27.3772 16.5819C27.3772 15.4979 26.4982 14.6189 25.4142 14.6189Z" fill="black"/>
<path d="M20.5581 23.012H19.4941V25.663H20.5581V23.012Z" fill="black"/>
</g>
<defs>
<clipPath id="clip0_1373_3928">
<rect width="40" height="40" fill="white"/>
</clipPath>
</defs>
</svg>
