<svg width="40" height="40" viewBox="0 0 40 40" fill="none" xmlns="http://www.w3.org/2000/svg">
<g clip-path="url(#clip0_1455_3112)">
<path d="M32.6318 31.545H31.1738V28.506H32.6318C33.4478 28.506 34.1118 27.842 34.1118 27.026V19.394C34.1118 18.578 33.4478 17.914 32.6318 17.914H31.1738V14.875H32.6318C35.1238 14.875 37.1518 16.902 37.1518 19.395V27.027C37.1518 29.519 35.1248 31.547 32.6318 31.547V31.545Z" fill="#FFAA00"/>
<path d="M5.85061 10.271H31.1736V32.218C31.1736 35.013 28.9046 37.283 26.1086 37.283H10.9146C8.11961 37.283 5.84961 35.014 5.84961 32.218L5.85061 10.271Z" fill="#FFAA00"/>
<path d="M18.5121 30.7231C17.8131 30.7231 17.2461 30.1561 17.2461 29.4561V17.0981C17.2461 16.3991 17.8131 15.8311 18.5121 15.8311C19.2111 15.8311 19.7781 16.3981 19.7781 17.0981V29.4561C19.7781 30.1551 19.2111 30.7231 18.5121 30.7231Z" fill="#F77F00"/>
<path d="M24.5902 30.7231C23.8912 30.7231 23.3242 30.1561 23.3242 29.4561V17.0981C23.3242 16.3991 23.8912 15.8311 24.5902 15.8311C25.2892 15.8311 25.8562 16.3981 25.8562 17.0981V29.4561C25.8562 30.1551 25.2892 30.7231 24.5902 30.7231Z" fill="#F77F00"/>
<path d="M12.4359 30.7231C11.7369 30.7231 11.1699 30.1561 11.1699 29.4561V22.2101C11.1699 21.5111 11.7369 20.9431 12.4359 20.9431C13.1349 20.9431 13.7019 21.5101 13.7019 22.2101V29.4561C13.7019 30.1551 13.1349 30.7231 12.4359 30.7231Z" fill="#F77F00"/>
<path d="M28.6572 2.71704H8.36719C6.15819 2.71704 4.36719 4.50804 4.36719 6.71704V13.717C4.36719 15.794 5.92219 17.656 7.99719 17.765C10.2092 17.881 12.0402 16.121 12.0402 13.934C12.0402 12.519 13.1872 11.372 14.6022 11.372H30.6582C31.7632 11.372 32.6582 10.477 32.6582 9.37204V6.71704C32.6582 4.50804 30.8662 2.71704 28.6572 2.71704Z" fill="#EBEBEB"/>
</g>
<defs>
<clipPath id="clip0_1455_3112">
<rect width="40" height="40" fill="white"/>
</clipPath>
</defs>
</svg>
