<svg width="40" height="40" viewBox="0 0 40 40" fill="none" xmlns="http://www.w3.org/2000/svg">
<g clip-path="url(#clip0_1373_4027)">
<path d="M21.0473 2.15894L20.0923 3.94794L19.1373 2.15894C12.0053 2.44394 11.8303 5.88794 12.0023 8.42194C12.3873 14.1009 20.0113 20.6299 20.0923 20.6809C20.1733 20.6299 27.7973 14.1009 28.1823 8.42194C28.3543 5.88894 28.1793 2.44394 21.0473 2.15894Z" fill="#FFD3D5"/>
<path d="M10.9335 9.19883C8.57752 8.25283 5.24752 7.35383 2.77252 14.0498L4.17952 15.5108L2.18252 15.8658C0.249518 22.7368 3.47152 23.9678 5.93352 24.5868C11.4535 25.9758 20.0185 20.7428 20.0925 20.6808C20.0685 20.5878 16.2155 11.3198 10.9335 9.19883Z" fill="#FFD3D5"/>
<path d="M20.0931 20.6809C19.9971 20.6749 9.9921 21.4749 6.3421 25.8439C4.7141 27.7929 2.83109 30.6819 8.43309 35.1039L10.2571 34.2179L9.9781 36.2269C15.9151 40.1889 18.0811 37.5049 19.4311 35.3539C22.4581 30.5329 20.1271 20.7699 20.0921 20.6809H20.0931Z" fill="#FFD3D5"/>
<path d="M33.8442 25.8439C30.1942 21.4759 20.1892 20.6749 20.0932 20.6809C20.0572 20.7699 17.7272 30.5329 20.7542 35.3539C22.1042 37.5049 24.2702 40.1889 30.2072 36.2269L29.9282 34.2179L31.7522 35.1039C37.3552 30.6819 35.4712 27.7919 33.8432 25.8439H33.8442Z" fill="#FFD3D5"/>
<path d="M36.0068 15.5099L37.4138 14.0489C34.9388 7.35386 31.6088 8.25186 29.2528 9.19786C23.9708 11.3189 20.1168 20.5869 20.0938 20.6799C20.1678 20.7409 28.7327 25.9739 34.2527 24.5859C36.7147 23.9659 39.9378 22.7359 38.0038 15.8649L36.0068 15.5099Z" fill="#FFD3D5"/>
<path d="M20.0281 20.473C20.0661 20.449 21.6001 18.96 21.7791 16.312C21.8131 15.816 21.5361 15.102 21.1921 14.427C20.7041 13.466 19.3511 13.466 18.8631 14.427C18.5201 15.103 18.2431 15.816 18.2761 16.313C18.4551 18.96 19.9891 20.45 20.0271 20.474" fill="#E32939"/>
<path d="M20.0271 20.4731C20.0161 20.4301 19.0731 18.5111 16.6111 17.5221C16.1501 17.3371 15.3851 17.3801 14.6371 17.4971C13.5731 17.6641 13.1541 18.9511 13.9171 19.7121C14.4541 20.2471 15.0471 20.7311 15.5291 20.8531C18.1021 21.5001 19.9931 20.5021 20.0271 20.4731Z" fill="#E32939"/>
<path d="M20.0273 20.4732C19.9823 20.4702 17.8663 20.7742 16.1653 22.8102C15.8463 23.1922 15.6513 23.9322 15.5313 24.6802C15.3613 25.7442 16.4563 26.5392 17.4153 26.0492C18.0903 25.7042 18.7343 25.2892 18.9983 24.8682C20.4093 22.6212 20.0433 20.5142 20.0273 20.4732Z" fill="#E32939"/>
<path d="M20.0273 20.4732C20.0103 20.5152 19.6453 22.6212 21.0563 24.8682C21.3203 25.2892 21.9643 25.7042 22.6393 26.0492C23.5983 26.5402 24.6933 25.7442 24.5233 24.6802C24.4033 23.9322 24.2083 23.1912 23.8893 22.8102C22.1883 20.7742 20.0713 20.4702 20.0273 20.4732Z" fill="#E32939"/>
<path d="M20.0264 20.4731C20.0604 20.5021 21.9514 21.5001 24.5244 20.8531C25.0064 20.7321 25.5994 20.2481 26.1364 19.7131C26.8994 18.9521 26.4814 17.6651 25.4164 17.4981C24.6674 17.3801 23.9034 17.3371 23.4414 17.5231C20.9794 18.5121 20.0364 20.4311 20.0254 20.4741" fill="#E32939"/>
<path d="M20.0039 22.6118C21.1085 22.6118 22.0039 21.7164 22.0039 20.6118C22.0039 19.5072 21.1085 18.6118 20.0039 18.6118C18.8993 18.6118 18.0039 19.5072 18.0039 20.6118C18.0039 21.7164 18.8993 22.6118 20.0039 22.6118Z" fill="#FFDA16"/>
</g>
<defs>
<clipPath id="clip0_1373_4027">
<rect width="40" height="40" fill="white"/>
</clipPath>
</defs>
</svg>
