<svg width="40" height="40" viewBox="0 0 40 40" fill="none" xmlns="http://www.w3.org/2000/svg">
<g clip-path="url(#clip0_1373_4178)">
<path d="M20 17.6109C19.655 16.9419 19.37 16.5609 19.37 16.5609V16.5639C15.813 11.2209 6.333 5.04492 3.561 5.04492C2.423 5.04492 1.5 5.96792 1.5 7.10592C1.5 9.24092 2.685 12.2419 3.66 14.9859C4.722 17.9729 5.586 21.5339 8.37 21.5339H15.24C10.502 22.4639 5.621 22.8959 5.621 28.7529C5.621 31.6009 6.841 33.8049 9.931 34.7579C10.835 35.0019 15.604 35.9329 19.015 29.7739C19.367 29.1379 19.681 28.5159 19.945 27.8899V27.8939C19.966 27.8529 19.979 27.8129 19.999 27.7719C17.764 23.1809 19.092 19.3669 19.999 17.6089L20 17.6109Z" fill="#6B99E0"/>
<path d="M36.341 14.9859C37.317 12.2419 38.501 9.24192 38.501 7.10592C38.501 5.96792 37.578 5.04492 36.44 5.04492C33.668 5.04492 24.188 11.2209 20.631 16.5639V16.5609C20.631 16.5609 20.346 16.9419 20.002 17.6109C20.909 19.3689 22.237 23.1819 20.002 27.7739C20.022 27.8149 20.035 27.8539 20.055 27.8959V27.8919C20.319 28.5179 20.634 29.1399 20.985 29.7759C24.396 35.9349 29.164 35.0029 30.069 34.7599C33.159 33.8069 34.379 31.6029 34.379 28.7549C34.379 22.8969 29.498 22.4659 24.76 21.5359H31.63C34.414 21.5359 35.278 17.9749 36.34 14.9879L36.341 14.9859Z" fill="#6B99E0"/>
<path d="M20.0004 17.6108C19.0934 19.3688 17.7654 23.1818 20.0004 27.7738C22.2354 23.1828 20.9074 19.3688 20.0004 17.6108Z" fill="#2E5791"/>
</g>
<defs>
<clipPath id="clip0_1373_4178">
<rect width="40" height="40" fill="white"/>
</clipPath>
</defs>
</svg>
