<svg width="40" height="40" viewBox="0 0 40 40" fill="none" xmlns="http://www.w3.org/2000/svg">
<path d="M13.6637 6.48906C13.6637 5.82606 13.1267 5.28906 12.4637 5.28906H7.83672C7.17372 5.28906 6.63672 5.82606 6.63672 6.48906V7.53106H13.6637V6.48906Z" fill="#8595AA"/>
<path d="M19.9994 15.4319C16.4754 15.4319 13.6074 18.2999 13.6074 21.8249C13.6074 25.3499 16.4744 28.2159 19.9994 28.2159C23.5244 28.2159 26.3914 25.3489 26.3914 21.8249C26.3914 18.3009 23.5244 15.4319 19.9994 15.4319ZM19.9994 25.0239C18.2354 25.0239 16.8004 23.5879 16.8004 21.8239C16.8004 21.3989 16.8874 20.9959 17.0384 20.6249C16.7024 20.3919 16.4674 20.0219 16.4674 19.5829C16.4674 18.8709 17.0464 18.2909 17.7584 18.2909C18.1974 18.2909 18.5674 18.5249 18.8004 18.8619C19.1714 18.7109 19.5754 18.6239 19.9994 18.6239C21.7634 18.6239 23.1994 20.0599 23.1994 21.8239C23.1994 23.5879 21.7644 25.0239 19.9994 25.0239Z" fill="#333D4B"/>
<path d="M33.7008 7.53101H30.6558L31.0768 10.437C31.2058 11.329 31.7448 12.029 32.4208 12.18L35.3578 12.839C35.6058 12.895 35.7818 13.115 35.7818 13.369C35.7818 13.623 35.6058 13.844 35.3578 13.899L32.4208 14.557C31.7458 14.708 31.2058 15.409 31.0768 16.299L30.5478 19.959C30.5098 20.226 30.2798 20.424 30.0108 20.424C29.7418 20.424 29.5118 20.226 29.4738 19.958L28.9458 16.299C28.8168 15.408 28.2768 14.708 27.6018 14.557L24.6648 13.899C24.4168 13.843 24.2408 13.623 24.2408 13.369C24.2408 13.115 24.4168 12.894 24.6648 12.839L27.6018 12.18C28.2778 12.029 28.8168 11.328 28.9458 10.438L29.3658 7.53101H6.30078C4.09178 7.53101 2.30078 9.32201 2.30078 11.531V31.666C2.30078 33.866 4.10078 35.666 6.30078 35.666H33.7008C35.9098 35.666 37.7008 33.875 37.7008 31.666V11.531C37.7008 9.32201 35.9098 7.53101 33.7008 7.53101ZM20.0008 29.715C15.6488 29.715 12.1088 26.175 12.1088 21.824C12.1088 17.473 15.6488 13.931 20.0008 13.931C24.3528 13.931 27.8928 17.472 27.8928 21.824C27.8928 26.176 24.3528 29.715 20.0008 29.715Z" fill="#4E5968"/>
<path d="M20.0008 18.623C19.5768 18.623 19.1728 18.71 18.8018 18.861C18.9468 19.07 19.0508 19.309 19.0508 19.582C19.0508 20.294 18.4718 20.873 17.7598 20.873C17.4868 20.873 17.2478 20.769 17.0388 20.624C16.8878 20.995 16.8008 21.399 16.8008 21.823C16.8008 23.587 18.2358 25.023 19.9998 25.023C21.7638 25.023 23.1998 23.587 23.1998 21.823C23.1998 20.059 21.7658 18.623 20.0008 18.623Z" fill="#4E5968"/>
<path d="M19.0507 19.582C19.0507 19.309 18.9468 19.07 18.8018 18.861C18.5688 18.525 18.1988 18.29 17.7598 18.29C17.0478 18.29 16.4688 18.869 16.4688 19.582C16.4688 20.021 16.7037 20.391 17.0397 20.624C17.2487 20.769 17.4877 20.873 17.7607 20.873C18.4727 20.873 19.0518 20.294 19.0518 19.582H19.0507Z" fill="white"/>
<path d="M19.9994 13.9319C15.6474 13.9319 12.1074 17.4729 12.1074 21.8249C12.1074 26.1769 15.6474 29.7159 19.9994 29.7159C24.3514 29.7159 27.8914 26.1759 27.8914 21.8249C27.8914 17.4739 24.3514 13.9319 19.9994 13.9319ZM19.9994 28.2149C16.4754 28.2149 13.6074 25.3479 13.6074 21.8239C13.6074 18.2999 16.4744 15.4309 19.9994 15.4309C23.5244 15.4309 26.3914 18.2989 26.3914 21.8239C26.3914 25.3489 23.5244 28.2149 19.9994 28.2149Z" fill="#D0D6DE"/>
<path d="M35.7802 13.3701C35.7802 13.6201 35.6002 13.8401 35.3602 13.9001L32.4202 14.5601C31.7402 14.7101 31.2002 15.4101 31.0802 16.3001L30.5502 19.9601C30.5102 20.2301 30.2802 20.4301 30.0102 20.4301C29.7402 20.4301 29.5102 20.2301 29.4702 19.9601L28.9402 16.3001C28.8102 15.4101 28.2702 14.7101 27.6002 14.5601L24.6602 13.9001C24.4202 13.8401 24.2402 13.6201 24.2402 13.3701C24.2402 13.1201 24.4202 12.9001 24.6602 12.8401L27.6002 12.1801C28.2802 12.0301 28.8102 11.3301 28.9402 10.4401L29.3602 7.53006L29.4702 6.78006C29.5102 6.51006 29.7402 6.31006 30.0102 6.31006C30.2802 6.31006 30.5102 6.51006 30.5502 6.78006L30.6502 7.53006L31.0802 10.4401C31.2002 11.3301 31.7402 12.0301 32.4202 12.1801L35.3602 12.8401C35.6002 12.9001 35.7802 13.1201 35.7802 13.3701Z" fill="#FFE63B"/>
</svg>
