<svg width="40" height="40" viewBox="0 0 40 40" fill="none" xmlns="http://www.w3.org/2000/svg">
<g clip-path="url(#clip0_1455_3138)">
<path d="M38.8811 21.85C38.8811 20.001 37.7071 18.3571 35.9591 17.7561L33.1741 16.8H3.01914C1.97014 16.8 1.11914 17.6511 1.11914 18.7001V28.475H38.8821L38.8811 21.85Z" fill="#4592FB"/>
<path d="M1.11914 28.4751V29.5081C1.11914 30.5051 1.92714 31.3131 2.92414 31.3131H36.9811C38.0301 31.3131 38.8811 30.4621 38.8811 29.4131V28.4751H1.11914Z" fill="#2D67D5"/>
<path d="M31.5996 34.8679C34.361 34.8679 36.5996 32.6293 36.5996 29.8679C36.5996 27.1065 34.361 24.8679 31.5996 24.8679C28.8382 24.8679 26.5996 27.1065 26.5996 29.8679C26.5996 32.6293 28.8382 34.8679 31.5996 34.8679Z" fill="#313D4C"/>
<path d="M31.5996 31.8679C32.7042 31.8679 33.5996 30.9725 33.5996 29.8679C33.5996 28.7634 32.7042 27.8679 31.5996 27.8679C30.495 27.8679 29.5996 28.7634 29.5996 29.8679C29.5996 30.9725 30.495 31.8679 31.5996 31.8679Z" fill="#6B7683"/>
<path d="M8.40039 34.8679C11.1618 34.8679 13.4004 32.6293 13.4004 29.8679C13.4004 27.1065 11.1618 24.8679 8.40039 24.8679C5.63897 24.8679 3.40039 27.1065 3.40039 29.8679C3.40039 32.6293 5.63897 34.8679 8.40039 34.8679Z" fill="#313D4C"/>
<path d="M8.40039 31.8679C9.50496 31.8679 10.4004 30.9725 10.4004 29.8679C10.4004 28.7634 9.50496 27.8679 8.40039 27.8679C7.29582 27.8679 6.40039 28.7634 6.40039 29.8679C6.40039 30.9725 7.29582 31.8679 8.40039 31.8679Z" fill="#6B7683"/>
<path d="M38.8804 24.3279H38.0884C37.4324 24.3279 36.9004 23.7959 36.9004 23.1399C36.9004 22.4839 37.4324 21.9519 38.0884 21.9519H38.8804V24.3279Z" fill="white"/>
<path d="M1.11914 24.3279H2.86114C3.51714 24.3279 4.04914 23.7959 4.04914 23.1409C4.04914 22.4849 3.51714 21.9529 2.86214 21.9529H1.12014V24.3279H1.11914Z" fill="#EF4452"/>
<path d="M29.8021 8.52804C29.2241 7.08804 27.8281 6.14404 26.2761 6.14404H8.77408C6.84908 6.14404 5.19808 7.51504 4.84308 9.40604L3.45508 16.8H33.1231L29.8021 8.52804Z" fill="#313D4C"/>
</g>
<defs>
<clipPath id="clip0_1455_3138">
<rect width="40" height="40" fill="white"/>
</clipPath>
</defs>
</svg>
