<svg width="40" height="40" viewBox="0 0 40 40" fill="none" xmlns="http://www.w3.org/2000/svg">
<g clip-path="url(#clip0_1373_3859)">
<path d="M26.3855 5.2451C25.7985 4.7231 24.8795 4.8921 24.5125 5.5861L22.9615 8.5201C22.6865 9.0401 22.1465 9.3651 21.5585 9.3651H18.4395C17.8515 9.3651 17.3115 9.0401 17.0365 8.5201L15.4855 5.5861C15.1185 4.8911 14.2005 4.7231 13.6125 5.2451C8.60547 9.6941 2.48047 16.0911 2.48047 20.7611C2.48047 28.6581 10.3235 35.0601 19.9995 35.0601C29.6755 35.0601 37.5185 28.6581 37.5185 20.7611C37.5185 16.0911 31.3925 9.6941 26.3855 5.2451Z" fill="#FFB72D"/>
<path d="M37.22 18.864L33.927 20.543C33.165 20.932 33.165 22.021 33.927 22.409L37.049 24C37.345 22.958 37.517 21.877 37.517 20.761C37.517 20.155 37.41 19.519 37.22 18.864Z" fill="black"/>
<path d="M2.77942 18.864L6.07242 20.543C6.83442 20.932 6.83442 22.021 6.07242 22.409L2.95042 24C2.65442 22.958 2.48242 21.877 2.48242 20.761C2.48242 20.155 2.58942 19.519 2.77942 18.864Z" fill="black"/>
<path d="M19.1238 19.8831H20.8748C21.7328 19.8831 22.1908 20.6851 21.6248 21.1961L20.7498 21.9881C20.3528 22.3471 19.6468 22.3471 19.2498 21.9881L18.3748 21.1961C17.8088 20.6851 18.2658 19.8831 19.1238 19.8831Z" fill="#FF5E01"/>
<path d="M15.8916 18.717C16.9039 18.717 17.7246 17.8964 17.7246 16.884C17.7246 15.8717 16.9039 15.051 15.8916 15.051C14.8793 15.051 14.0586 15.8717 14.0586 16.884C14.0586 17.8964 14.8793 18.717 15.8916 18.717Z" fill="black"/>
<path d="M23.708 18.717C24.7203 18.717 25.541 17.8964 25.541 16.884C25.541 15.8717 24.7203 15.051 23.708 15.051C22.6957 15.051 21.875 15.8717 21.875 16.884C21.875 17.8964 22.6957 18.717 23.708 18.717Z" fill="black"/>
<path d="M16.5774 27.9662C16.3884 27.9662 16.2014 27.8852 16.0714 27.7292C15.8394 27.4502 15.8784 27.0362 16.1574 26.8032L19.3424 24.1582V21.2842C19.3424 20.9212 19.6364 20.6272 19.9994 20.6272C20.3624 20.6272 20.6564 20.9212 20.6564 21.2842V24.4672C20.6564 24.6622 20.5694 24.8482 20.4194 24.9732L16.9964 27.8152C16.8734 27.9172 16.7254 27.9662 16.5774 27.9662Z" fill="#FF5E01"/>
<path d="M23.2286 27.966C23.0746 27.966 22.9196 27.912 22.7946 27.802L19.5646 24.96C19.2926 24.721 19.2656 24.306 19.5056 24.033C19.7456 23.76 20.1596 23.732 20.4326 23.973L23.6626 26.815C23.9346 27.054 23.9616 27.469 23.7216 27.742C23.5916 27.889 23.4116 27.966 23.2286 27.966Z" fill="#FF5E01"/>
</g>
<defs>
<clipPath id="clip0_1373_3859">
<rect width="40" height="40" fill="white"/>
</clipPath>
</defs>
</svg>
