<svg width="40" height="40" viewBox="0 0 40 40" fill="none" xmlns="http://www.w3.org/2000/svg">
<g clip-path="url(#clip0_1373_4055)">
<path d="M3.62305 19.9949V33.8629C3.62305 34.7829 4.36905 35.5289 5.28905 35.5289H9.31205C9.59005 35.5289 9.80205 35.3109 9.83605 35.0349C10.08 33.0259 11.791 31.4699 13.865 31.4699C15.939 31.4699 17.651 33.0259 17.894 35.0349C17.927 35.3109 18.14 35.5289 18.418 35.5289H34.71C35.63 35.5289 36.376 34.7829 36.376 33.8629V19.9949H3.62305Z" fill="#FFA938"/>
<path d="M25.1437 29.18C27.2877 29.18 29.0257 27.442 29.0257 25.298C29.0257 23.154 27.2877 21.416 25.1437 21.416C22.9997 21.416 21.2617 23.154 21.2617 25.298C21.2617 27.442 22.9997 29.18 25.1437 29.18Z" fill="#F77F00"/>
<path d="M36.375 19.9949C34.65 9.86793 26.113 5.77092 22.995 4.59692C22.309 4.33892 21.537 4.48592 20.983 4.96492L18.368 7.22892C18.212 7.36392 18.204 7.59292 18.333 7.75392C18.969 8.55393 19.278 9.62592 19.049 10.7679C18.775 12.1379 17.676 13.2639 16.312 13.5659C14.943 13.8689 13.671 13.3979 12.836 12.5099C12.695 12.3599 12.47 12.3359 12.315 12.4699L3.62305 19.9949H36.375Z" fill="#FFCA38"/>
</g>
<defs>
<clipPath id="clip0_1373_4055">
<rect width="40" height="40" fill="white"/>
</clipPath>
</defs>
</svg>
