<svg width="40" height="40" viewBox="0 0 40 40" fill="none" xmlns="http://www.w3.org/2000/svg">
<g clip-path="url(#clip0_1373_3974)">
<path d="M13.2003 35.7999C13.1003 36.1999 12.8003 36.4999 12.5003 36.5999L10.6003 37.3999C10.2003 37.4999 10.3003 38.0999 10.7003 38.0999H16.9003C17.2003 38.0999 17.3003 37.6999 17.0003 37.5999L16.0003 36.9999C15.5003 36.6999 15.2003 36.1999 15.4003 35.5999L15.6433 34.3029C14.9373 34.1669 14.2663 34.0059 13.6533 33.8059L13.2003 35.7999Z" fill="#FF7500"/>
<path d="M24.6995 35.5999C24.8995 36.1999 24.5995 36.6999 24.0995 36.9999L22.9995 37.4999C22.6995 37.5999 22.7995 37.9999 23.0995 37.9999H29.2995C29.6995 37.9999 29.7995 37.3999 29.3995 37.2999L27.4995 36.5999C27.1995 36.4999 26.8995 36.1999 26.7995 35.7999L26.3465 33.8049C25.7615 33.9959 25.1225 34.1509 24.4535 34.2839L24.6995 35.5999Z" fill="#FF7500"/>
<path d="M32.9004 18.8001C32.7424 18.1271 32.5204 17.4671 32.2494 16.6281C31.8354 15.3461 31.3044 13.6411 30.7004 10.8001C29.6004 5.8001 26.0004 2.1001 20.0004 2.1001C14.1004 2.1001 10.4004 5.8001 9.30039 10.8001C8.71139 13.5671 8.19339 15.2561 7.78439 16.5271C7.49839 17.4151 7.26539 18.1011 7.10039 18.8001C6.70039 20.5001 6.40039 22.4001 6.40039 23.8001C6.40039 23.9901 6.41439 24.1791 6.42239 24.3681C6.59039 28.3241 8.53539 32.1301 13.6534 33.8051C14.2664 34.0061 14.9374 34.1661 15.6434 34.3021C16.9364 34.5511 18.3714 34.6991 20.0004 34.6991C21.6694 34.6991 23.1364 34.5441 24.4534 34.2831C25.1234 34.1501 25.7614 33.9961 26.3464 33.8041C31.4684 32.1281 33.4134 28.3171 33.5784 24.3581C33.5864 24.1711 33.6004 23.9851 33.6004 23.7981C33.6004 22.3981 33.3004 20.4981 32.9004 18.7981V18.8001ZM17.2004 11.1001C16.4274 11.1001 15.8004 10.4731 15.8004 9.7001C15.8004 8.9271 16.4274 8.3001 17.2004 8.3001C17.9734 8.3001 18.6004 8.9271 18.6004 9.7001C18.6004 10.4731 17.9734 11.1001 17.2004 11.1001ZM21.8004 12.7001L20.5004 13.6001C20.4004 13.8001 20.1004 13.8001 19.9004 13.6001L18.6004 12.7001C18.3004 12.5001 18.3004 12.0001 18.6004 11.8001L19.9004 10.9001C20.1004 10.8001 20.3004 10.8001 20.5004 10.9001L21.8004 11.8001C22.1004 12.0001 22.1004 12.5001 21.8004 12.7001ZM23.0004 11.1001C22.2274 11.1001 21.6004 10.4731 21.6004 9.7001C21.6004 8.9271 22.2274 8.3001 23.0004 8.3001C23.7734 8.3001 24.4004 8.9271 24.4004 9.7001C24.4004 10.4731 23.7734 11.1001 23.0004 11.1001Z" fill="#FFDC42"/>
<path d="M7.09961 18.8001C7.26461 18.1011 7.49761 17.4151 7.78361 16.5271L2.69961 20.4001C1.89961 21.0001 1.89961 22.3001 2.69961 22.9001C3.78561 23.7361 5.08361 24.2181 6.42161 24.3691C6.41361 24.1791 6.39961 23.9901 6.39961 23.8011C6.39961 22.4011 6.69961 20.5011 7.09961 18.8011V18.8001Z" fill="#FFCE00"/>
<path d="M37.199 20.4002L32.248 16.6282C32.519 17.4682 32.741 18.1282 32.899 18.8002C33.299 20.5002 33.599 22.4002 33.599 23.8002C33.599 23.9872 33.585 24.1732 33.577 24.3602C34.879 24.1962 36.139 23.7152 37.199 22.9002C37.999 22.3002 37.999 21.0002 37.199 20.4002Z" fill="#FFCE00"/>
<path d="M20.5 10.9C20.3 10.8 20.1 10.8 19.9 10.9L18.6 11.8C18.3 12 18.3 12.5 18.6 12.7L19.9 13.6C20.1 13.8 20.4 13.8 20.5 13.6L21.8 12.7C22.1 12.5 22.1 12 21.8 11.8L20.5 10.9Z" fill="#FF7500"/>
<path d="M17.2008 8.30005C16.4278 8.30005 15.8008 8.92705 15.8008 9.70005C15.8008 10.473 16.4278 11.1 17.2008 11.1C17.9738 11.1 18.6008 10.473 18.6008 9.70005C18.6008 8.92705 17.9738 8.30005 17.2008 8.30005Z" fill="black"/>
<path d="M23.0016 8.30005C22.2286 8.30005 21.6016 8.92705 21.6016 9.70005C21.6016 10.473 22.2286 11.1 23.0016 11.1C23.7746 11.1 24.4016 10.473 24.4016 9.70005C24.4016 8.92705 23.7746 8.30005 23.0016 8.30005Z" fill="black"/>
</g>
<defs>
<clipPath id="clip0_1373_3974">
<rect width="40" height="40" fill="white"/>
</clipPath>
</defs>
</svg>
