<svg width="40" height="40" viewBox="0 0 40 40" fill="none" xmlns="http://www.w3.org/2000/svg">
<g clip-path="url(#clip0_1373_4215)">
<path d="M10.9139 16.4022L23.598 29.0863C24.217 29.7052 25.2205 29.7052 25.8395 29.0863L38.5356 16.3902C39.1546 15.7712 39.1546 14.7676 38.5356 14.1486L25.8515 1.46455C25.2326 0.845573 24.229 0.845573 23.61 1.46455L10.9139 14.1607C10.2949 14.7796 10.2949 15.7832 10.9139 16.4022Z" fill="#8B3900"/>
<path d="M17.0787 11.0701L13.1577 14.9911C12.9657 15.1831 12.9657 15.4961 13.1577 15.6881L17.1387 19.6691C17.2017 19.7321 17.2377 19.8181 17.2387 19.9081L17.2547 21.9421C17.2547 22.2381 16.8967 22.3871 16.6867 22.1771L10.9177 16.4081C10.2957 15.7861 10.2957 14.7791 10.9177 14.1571L16.6317 8.4431C16.8617 8.2131 17.2557 8.3761 17.2557 8.7011V10.6481C17.2557 10.8061 17.1907 10.9581 17.0787 11.0701Z" fill="#632800"/>
<path d="M24.7178 27.412V29.548C24.3108 29.548 23.9028 29.392 23.5928 29.082L17.8468 23.336C17.5198 23.009 17.5198 22.48 17.8468 22.154L24.0948 15.906C24.3248 15.676 24.7188 15.839 24.7188 16.164V18.1C24.7188 18.286 24.6448 18.465 24.5128 18.597L20.6228 22.487C20.4388 22.671 20.4388 22.968 20.6228 23.152L24.6018 27.131C24.6768 27.206 24.7178 27.307 24.7178 27.412Z" fill="#632800"/>
<path d="M24.7178 1.01489V3.05089C24.7178 3.29389 24.6208 3.52789 24.4488 3.69989L20.6218 7.52689C20.4378 7.71089 20.4378 8.00789 20.6218 8.19189L24.4488 12.0189C24.6208 12.1909 24.7178 12.4239 24.7178 12.6679V14.4739C24.7178 14.7719 24.3568 14.9219 24.1458 14.7109L17.8668 8.43189C17.5288 8.09389 17.5288 7.54489 17.8668 7.20689L23.5918 1.48189C23.9028 1.17089 24.3098 1.01589 24.7168 1.01589L24.7178 1.01489Z" fill="#632800"/>
<path d="M32.1943 8.68796V10.535C32.1943 10.778 32.0973 11.011 31.9253 11.183L28.1153 14.993C27.9313 15.177 27.9313 15.474 28.1153 15.658L31.9253 19.468C32.0973 19.64 32.1943 19.873 32.1943 20.117V21.922C32.1943 22.22 31.8333 22.37 31.6223 22.159L25.3433 15.88C25.0053 15.542 25.0053 14.993 25.3433 14.655L31.5703 8.42796C31.8003 8.19796 32.1933 8.36096 32.1933 8.68596L32.1943 8.68796Z" fill="#632800"/>
<path d="M13.959 38.4863L1.51458 26.0419C0.830101 25.3574 0.830102 24.2459 1.51458 23.5614L12.3057 12.7702L27.2306 27.6951L16.4395 38.4863C15.755 39.1708 14.6434 39.1708 13.959 38.4863Z" fill="#D12030"/>
<path d="M23.8142 31.111L20.5993 23.738L11.8742 20.029L10.0312 15.043L12.3053 12.769L27.2313 27.695L23.8142 31.111Z" fill="#D5D5D5"/>
</g>
<defs>
<clipPath id="clip0_1373_4215">
<rect width="40" height="40" fill="white"/>
</clipPath>
</defs>
</svg>
