<svg width="40" height="40" viewBox="0 0 40 40" fill="none" xmlns="http://www.w3.org/2000/svg">
<g clip-path="url(#clip0_1373_4198)">
<path d="M25.413 38.5051C21.817 38.5051 19 34.5311 19 29.4591V20.3481C19 19.7951 19.447 19.3481 20 19.3481C20.553 19.3481 21 19.7951 21 20.3481V29.4591C21 33.2781 23.021 36.5051 25.413 36.5051C25.966 36.5051 26.413 36.9521 26.413 37.5051C26.413 38.0581 25.966 38.5051 25.413 38.5051Z" fill="#23B169"/>
<path d="M20.1174 17.4641C20.1174 17.4641 20.6224 10.3921 19.4034 6.41312C18.1844 2.43512 13.9724 1.46312 11.8314 3.60412C9.69044 5.74512 11.0064 8.35312 11.0064 8.35312C11.0064 8.35312 8.39843 7.03712 6.25743 9.17812C4.11643 11.3191 5.08743 15.5311 9.06643 16.7501C13.0444 17.9691 20.1174 17.4641 20.1174 17.4641Z" fill="#23B169"/>
<path d="M19.883 17.2311C19.883 17.2311 19.378 24.3031 20.597 28.2821C21.816 32.2601 26.028 33.2321 28.169 31.0911C30.31 28.9501 28.994 26.3421 28.994 26.3421C28.994 26.3421 31.602 27.6581 33.743 25.5171C35.884 23.3761 34.913 19.1641 30.934 17.9451C26.956 16.7261 19.883 17.2311 19.883 17.2311Z" fill="#23B169"/>
<path d="M19.883 17.4641C19.883 17.4641 26.955 17.9691 30.934 16.7501C34.913 15.5311 35.884 11.3191 33.743 9.17811C31.602 7.03712 28.994 8.35311 28.994 8.35311C28.994 8.35311 30.31 5.74511 28.169 3.60411C26.028 1.46311 21.816 2.43411 20.597 6.41311C19.378 10.3911 19.883 17.4641 19.883 17.4641Z" fill="#68C76F"/>
<path d="M20.1172 17.2311C20.1172 17.2311 13.0452 16.7261 9.0662 17.9451C5.0882 19.1641 4.1162 23.3761 6.2572 25.5171C8.3982 27.6581 11.0062 26.3421 11.0062 26.3421C11.0062 26.3421 9.6902 28.9501 11.8312 31.0911C13.9722 33.2321 18.1842 32.2611 19.4032 28.2821C20.6222 24.3031 20.1172 17.2311 20.1172 17.2311Z" fill="#68C76F"/>
</g>
<defs>
<clipPath id="clip0_1373_4198">
<rect width="40" height="40" fill="white"/>
</clipPath>
</defs>
</svg>
