<svg width="40" height="40" viewBox="0 0 40 40" fill="none" xmlns="http://www.w3.org/2000/svg">
<g clip-path="url(#clip0_1455_3100)">
<path d="M10.6079 26.552C10.5699 26.751 10.5469 26.954 10.5469 27.159C10.5469 30.186 14.7829 32.639 20.0089 32.639C25.2349 32.639 29.4709 30.185 29.4709 27.159C29.4709 26.953 29.4479 26.751 29.4099 26.552C26.8919 28.744 23.6099 30.082 20.0089 30.082C16.4079 30.082 13.1249 28.745 10.6079 26.552Z" fill="#AFB7C0"/>
<path d="M20.0081 8.19509C14.1781 8.19509 9.31306 10.5831 8.16406 13.7621C10.2911 16.1641 14.8531 17.8731 20.0081 17.8731C25.1631 17.8731 29.7261 16.1641 31.8521 13.7621C31.7871 13.5841 31.7061 13.4091 31.6181 13.2351C30.1471 10.3231 25.5101 8.19409 20.0071 8.19409L20.0081 8.19509Z" fill="#6E4944"/>
<path d="M33.1306 10.79C33.1306 11.14 33.0606 11.48 32.9606 11.82C32.7706 12.5 32.3906 13.15 31.8506 13.76C31.7906 13.58 31.7106 13.41 31.6206 13.24C30.1506 10.32 25.5106 8.19995 20.0106 8.19995C14.1806 8.19995 9.31062 10.58 8.16062 13.76C7.36062 12.85 6.89062 11.84 6.89062 10.79C6.89062 6.94995 12.9006 3.69995 20.0106 3.69995C27.1206 3.69995 33.1306 6.94995 33.1306 10.79Z" fill="#D0D5DA"/>
<path d="M34.3399 11.87V10.99L34.3199 11.05C34.2899 11.53 34.2099 12 34.0499 12.46C33.9599 12.73 33.8399 13 33.6999 13.26C31.8799 16.64 26.4399 19.09 20.0099 19.09C13.5799 19.09 8.12992 16.64 6.31992 13.26C6.17992 13 6.05992 12.73 5.95992 12.46C5.79992 12 5.71992 11.53 5.68992 11.05L5.66992 10.99V15.75C5.66992 17.38 5.95992 18.94 6.45992 20.41C7.28992 22.81 8.72992 24.92 10.6099 26.55C13.1299 28.74 16.4099 30.08 20.0099 30.08C23.6099 30.08 26.8899 28.74 29.4099 26.55C30.6199 25.49 31.6599 24.23 32.4599 22.82H33.6199C34.4099 22.82 35.1599 22.65 35.8399 22.35C37.7699 21.5 39.1299 19.57 39.1299 17.32C39.1299 14.53 37.0399 12.23 34.3399 11.87ZM33.6199 20.43H33.5399C33.5466 20.4233 33.5499 20.4167 33.5499 20.41C34.0599 18.94 34.3399 17.38 34.3399 15.75V14.31C35.7099 14.63 36.7299 15.86 36.7299 17.32C36.7299 19.04 35.3399 20.43 33.6199 20.43Z" fill="#D0D5DA"/>
<path d="M33.5529 20.408C33.5499 20.416 33.5469 20.423 33.5449 20.431H33.5899C33.5779 20.423 33.5639 20.416 33.5529 20.408Z" fill="#E5E8EB"/>
<path d="M33.624 22.823H32.464C31.66 24.234 30.624 25.492 29.407 26.552C29.445 26.752 29.468 26.954 29.468 27.159C29.468 30.186 25.232 32.639 20.006 32.639C14.78 32.639 10.544 30.185 10.544 27.159C10.544 26.953 10.567 26.751 10.605 26.552C8.73005 24.919 7.28705 22.81 6.46005 20.408C3.76305 22.222 2.12305 24.577 2.12305 27.159C2.12305 32.879 10.129 37.517 20.005 37.517C29.881 37.517 37.888 32.88 37.888 27.159C37.888 25.423 37.142 23.79 35.839 22.353C35.16 22.653 34.412 22.823 33.624 22.823Z" fill="#E5E8EB"/>
<path d="M34.2699 9.93998C34.1699 9.37998 33.9799 8.83998 33.6999 8.31998C33.4199 7.79998 33.0499 7.29998 32.6099 6.82998C32.3899 6.58998 32.1499 6.36998 31.8999 6.13998C31.3799 5.69998 30.7899 5.28998 30.1399 4.91998C27.5499 3.40998 23.9699 2.47998 20.0099 2.47998C16.0499 2.47998 12.4599 3.40998 9.86992 4.91998C9.21992 5.28998 8.63992 5.69998 8.11992 6.13998C7.85992 6.36998 7.61992 6.58998 7.39992 6.82998C6.95992 7.29998 6.59992 7.79998 6.31992 8.31998C6.03992 8.83998 5.83992 9.37998 5.74992 9.93998C5.69992 10.22 5.66992 10.5 5.66992 10.79C5.66992 10.88 5.68992 10.96 5.68992 11.05C5.71992 11.53 5.79992 12 5.95992 12.46C6.05992 12.73 6.17992 13 6.31992 13.26C8.12992 16.64 13.5699 19.09 20.0099 19.09C26.4499 19.09 31.8799 16.64 33.6999 13.26C33.8399 13 33.9599 12.73 34.0499 12.46C34.2099 12 34.2899 11.53 34.3199 11.05C34.3299 10.96 34.3399 10.88 34.3399 10.79C34.3399 10.5 34.3199 10.22 34.2699 9.93998ZM32.9599 11.82C32.7699 12.5 32.3899 13.15 31.8499 13.76C29.7299 16.16 25.1599 17.87 20.0099 17.87C14.8599 17.87 10.2899 16.16 8.15992 13.76C7.35992 12.85 6.88992 11.84 6.88992 10.79C6.88992 6.94998 12.8999 3.69998 20.0099 3.69998C27.1199 3.69998 33.1299 6.94998 33.1299 10.79C33.1299 11.14 33.0599 11.48 32.9599 11.82Z" fill="#E5E8EB"/>
</g>
<defs>
<clipPath id="clip0_1455_3100">
<rect width="40" height="40" fill="white"/>
</clipPath>
</defs>
</svg>
