<svg width="40" height="40" viewBox="0 0 40 40" fill="none" xmlns="http://www.w3.org/2000/svg">
<g clip-path="url(#clip0_1373_3791)">
<path d="M29.5458 26.371L24.5378 24.468C21.6138 23.357 18.3848 23.357 15.4608 24.468L10.4528 26.371C8.04178 27.287 6.04678 29.007 4.78178 31.209C4.26278 32.113 3.93478 33.113 3.68578 34.125L3.04578 36.726C2.94878 37.119 3.24678 37.499 3.65178 37.499H36.3468C36.7518 37.499 37.0498 37.119 36.9528 36.726L36.3128 34.124C36.0638 33.112 35.7358 32.112 35.2168 31.208C33.9528 29.005 31.9568 27.286 29.5468 26.37L29.5458 26.371Z" fill="#5A81FF"/>
<path d="M19.9993 25.0299C25.0461 25.0299 29.1373 20.9387 29.1373 15.8919C29.1373 10.8451 25.0461 6.75391 19.9993 6.75391C14.9525 6.75391 10.8613 10.8451 10.8613 15.8919C10.8613 20.9387 14.9525 25.0299 19.9993 25.0299Z" fill="#FFCCA8"/>
<path d="M11.66 19.579C13.6802 19.579 15.318 18.0429 15.318 16.148C15.318 14.2532 13.6802 12.717 11.66 12.717C9.6397 12.717 8.00195 14.2532 8.00195 16.148C8.00195 18.0429 9.6397 19.579 11.66 19.579Z" fill="#FFCCA8"/>
<path d="M28.3377 19.579C30.3579 19.579 31.9957 18.0429 31.9957 16.148C31.9957 14.2532 30.3579 12.717 28.3377 12.717C26.3174 12.717 24.6797 14.2532 24.6797 16.148C24.6797 18.0429 26.3174 19.579 28.3377 19.579Z" fill="#FFCCA8"/>
<path d="M30.3338 13.272C30.4298 6.71898 24.5378 1.42298 17.7788 2.68898C13.5578 3.47898 10.1798 6.89598 9.43881 11.126C9.30481 11.889 9.25381 12.64 9.27681 13.372C9.27881 13.43 9.32481 13.482 9.38381 13.482C9.61781 13.484 10.2148 13.603 10.7978 14.662C10.8858 14.821 11.0998 14.857 11.2208 14.721L16.9968 8.25798C16.9968 8.25798 24.3148 14.135 29.1438 13.814C29.2498 13.807 29.3728 13.77 29.4938 13.718C29.8158 13.537 30.0858 13.2 30.3338 13.272Z" fill="#333333"/>
<path d="M17.431 16.617C17.9678 16.617 18.403 16.0945 18.403 15.45C18.403 14.8054 17.9678 14.283 17.431 14.283C16.8942 14.283 16.459 14.8054 16.459 15.45C16.459 16.0945 16.8942 16.617 17.431 16.617Z" fill="black"/>
<path d="M22.5658 16.617C23.1026 16.617 23.5378 16.0945 23.5378 15.45C23.5378 14.8054 23.1026 14.283 22.5658 14.283C22.0289 14.283 21.5938 14.8054 21.5938 15.45C21.5938 16.0945 22.0289 16.617 22.5658 16.617Z" fill="black"/>
<path d="M21.2091 20.051C21.4281 20.051 21.5831 20.261 21.5251 20.472C21.3411 21.142 20.7281 21.633 20.0001 21.633C19.2721 21.633 18.6591 21.141 18.4751 20.472C18.4171 20.261 18.5721 20.051 18.7911 20.051H21.2101H21.2091Z" fill="#5C2F17"/>
<path d="M17.8086 23.6279H22.1906V27.7869C22.1906 28.9959 21.2086 29.9779 19.9996 29.9779C18.7906 29.9779 17.8086 28.9959 17.8086 27.7869V23.6279Z" fill="#FFCCA8"/>
<path d="M34.1491 37.4999H5.85112L4.62712 23.0159C4.57212 22.3709 5.08112 21.8169 5.72912 21.8169H34.2711C34.9181 21.8169 35.4271 22.3709 35.3731 23.0159L34.1491 37.4999Z" fill="#C4C4C4"/>
</g>
<defs>
<clipPath id="clip0_1373_3791">
<rect width="40" height="40" fill="white"/>
</clipPath>
</defs>
</svg>
