<svg width="40" height="40" viewBox="0 0 40 40" fill="none" xmlns="http://www.w3.org/2000/svg">
<g clip-path="url(#clip0_1373_3807)">
<path d="M8.88281 22.6551C8.88281 22.6551 7.55081 8.0201 14.6288 4.9181C14.6288 4.9181 16.5748 2.0981 20.9168 2.5491C25.2588 3.0001 28.5758 6.3451 29.6868 9.3731C30.5148 11.6291 31.3328 16.4041 31.2038 21.9381C31.1888 22.5801 30.8438 23.1691 30.2948 23.5031C29.0968 24.2311 26.3208 25.1641 19.9588 25.1641C9.52481 25.1641 8.88281 22.6541 8.88281 22.6541V22.6551Z" fill="#333333"/>
<path d="M23.2493 12.0051C19.4183 11.4421 16.9263 8.93212 16.1283 8.01312C16.0203 7.88812 15.8153 7.94312 15.7853 8.10512C15.5993 9.10912 14.9393 11.6651 12.8393 13.5171C12.8393 13.5171 12.4873 13.7831 12.0923 14.3071C11.5123 15.0771 11.2843 16.0571 11.4483 17.0031C12.1653 21.1381 15.6603 24.2761 19.8643 24.2761C23.8163 24.2761 27.1413 21.5031 28.1223 17.7361C28.6103 14.9381 26.8973 12.5401 23.2493 12.0041V12.0051Z" fill="#FFCCA8"/>
<path d="M17.286 16.3392C17.8118 16.3392 18.238 15.8279 18.238 15.1972C18.238 14.5665 17.8118 14.0552 17.286 14.0552C16.7602 14.0552 16.334 14.5665 16.334 15.1972C16.334 15.8279 16.7602 16.3392 17.286 16.3392Z" fill="black"/>
<path d="M22.3114 16.3392C22.8372 16.3392 23.2634 15.8279 23.2634 15.1972C23.2634 14.5665 22.8372 14.0552 22.3114 14.0552C21.7856 14.0552 21.3594 14.5665 21.3594 15.1972C21.3594 15.8279 21.7856 16.3392 22.3114 16.3392Z" fill="black"/>
<path d="M20.9847 20.2141C21.1977 20.2141 21.3497 20.4191 21.2927 20.6251C21.1127 21.2811 20.5127 21.7631 19.7997 21.7631C19.0867 21.7631 18.4867 21.2811 18.3067 20.6251C18.2507 20.4191 18.4017 20.2141 18.6147 20.2141H20.9847Z" fill="#5C2F17"/>
<path d="M29.3719 26.5749L24.4559 24.7069C21.5859 23.6169 18.4159 23.6169 15.5449 24.7069L10.6289 26.5749C8.26289 27.4739 6.30389 29.1619 5.06189 31.3249C4.55289 32.2119 4.22989 33.1939 3.98589 34.1869L3.35789 36.7409C3.26289 37.1269 3.55489 37.4999 3.95289 37.4999H36.0479C36.4459 37.4999 36.7379 37.1269 36.6429 36.7409L36.0149 34.1869C35.7709 33.1939 35.4479 32.2119 34.9389 31.3249C33.6979 29.1629 31.7389 27.4739 29.3719 26.5749Z" fill="#5A81FF"/>
<path d="M17.8496 23.8821H22.1516V27.9651C22.1516 29.1521 21.1876 30.1161 20.0006 30.1161C18.8136 30.1161 17.8496 29.1521 17.8496 27.9651V23.8821Z" fill="#FFCCA8"/>
<path d="M33.8902 37.5H6.11225L4.91025 23.281C4.85625 22.648 5.35625 22.104 5.99225 22.104H34.0112C34.6472 22.104 35.1462 22.648 35.0932 23.281L33.8902 37.5Z" fill="#C4C4C4"/>
</g>
<defs>
<clipPath id="clip0_1373_3807">
<rect width="40" height="40" fill="white"/>
</clipPath>
</defs>
</svg>
