<svg width="40" height="40" viewBox="0 0 40 40" fill="none" xmlns="http://www.w3.org/2000/svg">
<g clip-path="url(#clip0_1373_3850)">
<path d="M19.9792 24.157C19.9622 24.157 19.9472 24.157 19.9302 24.157C19.5762 25.423 18.4272 26.357 17.0492 26.357C17.0152 26.357 16.9842 26.348 16.9512 26.347V29.029C16.9512 30.688 18.2962 32.033 19.9552 32.033C21.6142 32.033 22.9592 30.688 22.9592 29.029V26.347C22.9262 26.348 22.8942 26.357 22.8602 26.357C21.4812 26.357 20.3322 25.423 19.9792 24.157Z" fill="#E84453"/>
<path d="M36.03 17.5501L34.29 13.6001H34.31L33.14 4.61009C32.88 2.63009 30.45 1.83009 29.07 3.28009L24.21 8.36009H16.01L11.15 3.28009C9.77 1.83009 7.34 2.63009 7.08 4.61009L6.03 12.6801L3.88 17.5501C3.23 18.8001 2.98 20.2001 3.01 21.6101H3C3 21.6701 3.01 21.7501 3.01 21.8201C3.02 22.0701 3.04 22.3301 3.07 22.5801C3.08 22.7101 3.09 22.8301 3.11 22.9501C3.15 23.2501 3.2 23.5501 3.27 23.8501C3.67 25.7401 4.56 27.4701 5.76 28.9401C7.41 31.1901 9.73 33.2201 12.46 34.6001C12.61 34.6801 12.77 34.7501 12.92 34.8301C13.15 34.9401 13.38 35.0401 13.62 35.1401C14 35.3101 14.38 35.4501 14.77 35.5801C14.85 35.6101 14.94 35.6401 15.02 35.6701C15.49 35.8201 15.96 35.9501 16.43 36.0501C16.49 36.0701 16.55 36.0801 16.61 36.1001C17.1 36.2001 17.58 36.2801 18.07 36.3401C18.14 36.3401 18.22 36.3601 18.29 36.3701C18.85 36.4301 19.41 36.4601 19.97 36.4601H19.98C20.03 36.4601 20.08 36.4501 20.12 36.4501C20.61 36.4501 21.1 36.4201 21.59 36.3701C21.8 36.3501 22 36.3101 22.21 36.2801C22.53 36.2401 22.86 36.1901 23.19 36.1201C23.43 36.0701 23.66 36.0101 23.9 35.9501C24.16 35.8901 24.43 35.8201 24.7 35.7301C25.01 35.6401 25.32 35.5301 25.63 35.4101C25.77 35.3601 25.9 35.3201 26.03 35.2601C29.24 33.9901 31.98 31.8201 33.91 29.3301L34.15 29.1001C36.72 26.1601 38.02 21.4001 36.03 17.5501ZM23.98 15.1501C24.83 15.1501 25.52 15.8401 25.52 16.6901C25.52 17.5401 24.83 18.2301 23.98 18.2301C23.13 18.2301 22.44 17.5401 22.44 16.6901C22.44 15.8401 23.13 15.1501 23.98 15.1501ZM15.93 18.2301C15.08 18.2301 14.39 17.5401 14.39 16.6901C14.39 15.8401 15.08 15.1501 15.93 15.1501C16.78 15.1501 17.47 15.8401 17.47 16.6901C17.47 17.5401 16.78 18.2301 15.93 18.2301ZM22.96 29.0301C22.96 30.6901 21.61 32.0301 19.95 32.0301C18.3 32.0301 16.95 30.6901 16.95 29.0301V26.3501C16.98 26.3501 17.02 26.3601 17.05 26.3601C18.43 26.3601 19.58 25.4201 19.93 24.1601C19.69 24.1501 19.46 24.0501 19.29 23.8501L17.54 21.7701C17.17 21.3201 17.35 20.7001 17.8 20.4601C17.92 20.3901 18.05 20.3501 18.21 20.3501H21.7C21.86 20.3501 21.99 20.3901 22.11 20.4601C22.56 20.7001 22.74 21.3201 22.37 21.7701L20.62 23.8501C20.45 24.0501 20.22 24.1501 19.98 24.1601C20.33 25.4201 21.48 26.3601 22.86 26.3601C22.89 26.3601 22.93 26.3501 22.96 26.3501V29.0301Z" fill="#FFB72D"/>
<path d="M17.544 21.7699L19.292 23.8539C19.459 24.0529 19.694 24.1509 19.93 24.1579C19.947 24.1579 19.962 24.1579 19.979 24.1579C20.216 24.1509 20.45 24.0529 20.617 23.8539L22.365 21.7699C22.74 21.3239 22.561 20.6979 22.106 20.4559C21.987 20.3929 21.854 20.3489 21.702 20.3489H18.205C18.053 20.3489 17.92 20.3919 17.801 20.4559C17.347 20.6989 17.168 21.3239 17.542 21.7699H17.544Z" fill="black"/>
<path d="M15.9277 18.229C16.7788 18.229 17.4687 17.539 17.4687 16.688C17.4687 15.8369 16.7788 15.147 15.9277 15.147C15.0766 15.147 14.3867 15.8369 14.3867 16.688C14.3867 17.539 15.0766 18.229 15.9277 18.229Z" fill="black"/>
<path d="M23.9844 18.229C24.8354 18.229 25.5254 17.539 25.5254 16.688C25.5254 15.8369 24.8354 15.147 23.9844 15.147C23.1333 15.147 22.4434 15.8369 22.4434 16.688C22.4434 17.539 23.1333 18.229 23.9844 18.229Z" fill="black"/>
</g>
<defs>
<clipPath id="clip0_1373_3850">
<rect width="40" height="40" fill="white"/>
</clipPath>
</defs>
</svg>
