<svg width="40" height="40" viewBox="0 0 40 40" fill="none" xmlns="http://www.w3.org/2000/svg">
<g clip-path="url(#clip0_1373_4021)">
<path d="M32.0974 17.3329C32.8854 17.3959 33.6864 17.3129 34.4214 17.0229C35.3544 16.6559 36.3264 15.8969 35.4854 14.6559C35.1664 14.1849 34.8884 13.8339 34.6324 13.5569C33.6744 12.5169 33.0554 11.2209 32.6394 9.86888C32.3094 8.79688 31.7364 7.56788 30.8644 6.58388C28.1664 3.53988 22.5254 3.01588 18.8364 3.03988C18.3624 3.04288 17.8954 2.96488 17.4424 2.82588C15.6834 2.28588 10.8294 1.05388 6.3934 2.27288C5.9184 2.40388 5.7094 2.95888 6.0004 3.35588L6.1984 3.62688C7.9724 6.05388 7.7474 9.30088 5.8964 11.6699C4.5024 13.4549 3.5484 16.1699 4.7154 20.1379C5.9044 24.1799 8.5474 27.7159 12.2364 29.7509C14.8254 31.1799 17.0574 31.5069 18.0494 31.5809C18.3564 31.6039 18.6044 31.8389 18.6394 32.1449C18.7884 33.4509 19.4844 36.7639 22.7204 38.2269C22.8874 38.3019 23.0784 38.1639 23.0574 37.9819C22.9254 36.8069 22.9914 33.2669 27.4594 29.0429C27.5904 28.9189 27.4944 28.6979 27.3154 28.7239L19.5404 30.0479C19.1634 30.1119 18.7814 30.0269 18.4674 29.8089C17.0244 28.8069 13.0764 25.6819 14.1614 22.1159C15.1974 18.7109 17.4534 18.2669 18.3784 18.2339C18.5924 18.2259 18.7534 18.4239 18.7154 18.6349L17.9394 22.8669C17.8894 23.1399 18.1244 23.3839 18.3974 23.3299C19.5464 23.1039 22.3954 22.0509 26.1344 17.2069C26.2884 17.0069 26.5354 16.8909 26.7874 16.9109L32.0964 17.3339L32.0974 17.3329Z" fill="#2F81F9"/>
<path d="M27.7731 13.9529C28.4546 13.9529 29.0071 13.4004 29.0071 12.7189C29.0071 12.0373 28.4546 11.4849 27.7731 11.4849C27.0915 11.4849 26.5391 12.0373 26.5391 12.7189C26.5391 13.4004 27.0915 13.9529 27.7731 13.9529Z" fill="black"/>
<path d="M9.38924 18.395C11.7912 11.87 24.5992 13.118 27.1982 15.305C28.8512 16.696 32.3112 16.942 34.6152 16.937C34.5512 16.966 34.4882 16.997 34.4252 17.022C33.6902 17.312 32.8892 17.395 32.1012 17.332L26.7922 16.909C26.5412 16.889 26.2932 17.005 26.1392 17.205C22.4002 22.05 19.5512 23.102 18.4022 23.328C18.1292 23.382 17.8942 23.138 17.9442 22.865L18.7202 18.633C18.7592 18.423 18.5972 18.225 18.3832 18.232C17.4582 18.265 15.2032 18.709 14.1662 22.114C13.0802 25.681 17.0282 28.806 18.4722 29.807C18.7862 30.025 19.1682 30.11 19.5452 30.046L27.3202 28.722C27.4992 28.696 27.5952 28.917 27.4642 29.041C23.0082 33.252 22.9312 36.784 23.0612 37.969C23.0822 38.156 22.8902 38.3 22.7192 38.222C19.5022 36.764 18.7992 33.475 18.6462 32.159C18.6102 31.845 18.3662 31.602 18.0512 31.579C13.6912 29.634 6.98824 24.919 9.39024 18.394L9.38924 18.395Z" fill="#93C9FF"/>
</g>
<defs>
<clipPath id="clip0_1373_4021">
<rect width="40" height="40" fill="white"/>
</clipPath>
</defs>
</svg>
