<svg width="40" height="40" viewBox="0 0 40 40" fill="none" xmlns="http://www.w3.org/2000/svg">
<g clip-path="url(#clip0_1373_4082)">
<path d="M20.0006 2.5C10.3456 2.5 2.51758 10.327 2.51758 19.983C2.51758 29.639 10.3446 37.466 20.0006 37.466C29.6566 37.466 37.4836 29.639 37.4836 19.983C37.4836 10.327 29.6556 2.5 20.0006 2.5ZM20.0006 26.803C16.2336 26.803 13.1806 23.75 13.1806 19.983C13.1806 16.216 16.2336 13.163 20.0006 13.163C23.7676 13.163 26.8206 16.216 26.8206 19.983C26.8206 23.75 23.7676 26.803 20.0006 26.803Z" fill="#5E403B"/>
<path d="M19.9918 37.5001C25.5468 37.5001 30.4868 34.9011 33.6888 30.8621L32.8518 30.0251C31.7288 28.9021 29.9068 28.9021 28.7838 30.0251L27.6648 31.1441C26.5418 32.2671 24.7198 32.2671 23.5968 31.1441L22.4778 30.0251C21.3548 28.9021 19.5328 28.9021 18.4098 30.0251L17.2908 31.1441C16.1678 32.2671 14.3458 32.2671 13.2228 31.1441L12.1038 30.0251C10.9808 28.9021 9.15884 28.9021 8.03584 30.0251L6.71484 31.3461C9.92184 35.1001 14.6678 37.5011 19.9928 37.5011L19.9918 37.5001Z" fill="#FFB72D"/>
<path d="M16.8594 9.71709C16.6504 9.71709 16.4464 9.61309 16.3274 9.42309L15.0724 7.42009C14.8884 7.12609 14.9774 6.73909 15.2704 6.55609C15.5664 6.37309 15.9514 6.46309 16.1344 6.75409L17.3894 8.75709C17.5734 9.05109 17.4844 9.43809 17.1914 9.62109C17.0874 9.68509 16.9724 9.71709 16.8594 9.71709Z" fill="#FFCF2E"/>
<path d="M31.0811 18.0032C30.8721 18.0032 30.6681 17.8992 30.5491 17.7092L29.2951 15.7062C29.1111 15.4122 29.2001 15.0252 29.4931 14.8422C29.7881 14.6582 30.1741 14.7482 30.3571 15.0402L31.6111 17.0432C31.7951 17.3372 31.7061 17.7242 31.4131 17.9072C31.3091 17.9712 31.1941 18.0032 31.0811 18.0032Z" fill="#FFCF2E"/>
<path d="M8.20996 21.7351C8.00096 21.7351 7.79696 21.6311 7.67796 21.4411L6.42396 19.4381C6.23996 19.1441 6.32896 18.7571 6.62196 18.5741C6.91796 18.3901 7.30296 18.4811 7.48596 18.7721L8.73996 20.7751C8.92396 21.0691 8.83496 21.4561 8.54196 21.6391C8.43796 21.7031 8.32296 21.7351 8.20996 21.7351Z" fill="#FFCF2E"/>
<path d="M25.2804 10.8101C25.7902 10.8101 26.2034 10.3969 26.2034 9.88711C26.2034 9.37735 25.7902 8.96411 25.2804 8.96411C24.7707 8.96411 24.3574 9.37735 24.3574 9.88711C24.3574 10.3969 24.7707 10.8101 25.2804 10.8101Z" fill="#93EFFF"/>
<path d="M32.8878 24.253C33.3976 24.253 33.8108 23.8397 33.8108 23.33C33.8108 22.8202 33.3976 22.407 32.8878 22.407C32.3781 22.407 31.9648 22.8202 31.9648 23.33C31.9648 23.8397 32.3781 24.253 32.8878 24.253Z" fill="#93EFFF"/>
<path d="M11.0734 14.4022C11.5831 14.4022 11.9964 13.9889 11.9964 13.4792C11.9964 12.9694 11.5831 12.5562 11.0734 12.5562C10.5636 12.5562 10.1504 12.9694 10.1504 13.4792C10.1504 13.9889 10.5636 14.4022 11.0734 14.4022Z" fill="#93EFFF"/>
</g>
<defs>
<clipPath id="clip0_1373_4082">
<rect width="40" height="40" fill="white"/>
</clipPath>
</defs>
</svg>
