<svg width="40" height="40" viewBox="0 0 40 40" fill="none" xmlns="http://www.w3.org/2000/svg">
<g clip-path="url(#clip0_1373_3741)">
<path d="M20 37.5C29.665 37.5 37.5 29.665 37.5 20C37.5 10.335 29.665 2.5 20 2.5C10.335 2.5 2.5 10.335 2.5 20C2.5 29.665 10.335 37.5 20 37.5Z" fill="#FFC84D"/>
<path d="M9.00219 20.022C8.33419 19.862 7.69919 20.427 7.78519 21.109C8.55319 27.174 13.7262 31.864 19.9992 31.864C26.2722 31.864 31.4452 27.173 32.2132 21.109C32.2992 20.427 31.6642 19.862 30.9962 20.022C27.7672 20.796 24.0112 21.241 19.9992 21.241C15.9872 21.241 12.2312 20.796 9.00219 20.022Z" fill="#FF6D00"/>
<path d="M19.9376 24.2029C24.0396 24.2029 27.8346 22.6539 30.9396 20.0289C27.7216 20.7959 23.9906 21.2399 19.9996 21.2399C15.9406 21.2399 12.1446 20.7839 8.89062 19.9939C12.0036 22.6409 15.8166 24.2029 19.9376 24.2029Z" fill="white"/>
<path d="M18.0302 14.807C18.0302 15.873 15.3942 17.267 12.9292 18.06C12.5892 18.169 12.2892 17.842 12.5082 17.599L14.1822 15.75C14.6872 15.192 14.6872 14.422 14.1822 13.863L12.5082 12.014C12.2892 11.772 12.5892 11.444 12.9292 11.553C15.3942 12.346 18.0302 13.74 18.0302 14.806V14.807Z" fill="black"/>
<path d="M21.9707 14.807C21.9707 15.873 24.6067 17.267 27.0717 18.06C27.4117 18.169 27.7117 17.842 27.4927 17.599L25.8187 15.75C25.3137 15.192 25.3137 14.422 25.8187 13.863L27.4927 12.014C27.7117 11.772 27.4117 11.444 27.0717 11.553C24.6067 12.346 21.9707 13.74 21.9707 14.806V14.807Z" fill="black"/>
</g>
<defs>
<clipPath id="clip0_1373_3741">
<rect width="40" height="40" fill="white"/>
</clipPath>
</defs>
</svg>
