<svg width="40" height="40" viewBox="0 0 40 40" fill="none" xmlns="http://www.w3.org/2000/svg">
<g clip-path="url(#clip0_1373_3786)">
<path d="M30.3791 19.009C29.8011 20.92 30.8841 25.223 33.2601 22.722C35.6361 20.221 36.3861 16.239 34.7321 12.488C33.2061 10.211 30.7741 8.74805 28.0441 8.74805C24.5251 8.74805 22.4061 10.585 21.2341 12.166C20.6151 13.001 19.3931 13.001 18.7741 12.166C17.6021 10.585 15.4831 8.74805 11.9641 8.74805C9.06008 8.74805 6.50208 10.412 5.00508 12.943C3.61608 16.62 4.58808 21.154 6.65608 23.741C8.74408 26.354 12.0271 28.395 12.0271 24.845C14.4711 28.4 10.1641 29.339 15.2121 34.402C16.2521 35.183 17.2081 35.851 17.9841 36.372C19.2111 37.195 20.7981 37.195 22.0251 36.372C23.4661 35.406 25.5121 33.943 27.6081 32.157C27.4531 30.935 27.4491 29.331 27.4491 27.762C27.4491 23.397 29.1081 21.011 30.3781 19.008L30.3791 19.009Z" fill="#EC4452"/>
<path d="M36.3791 18.0399C36.3791 18.1899 36.3791 18.3399 36.3691 18.4999C36.3491 18.9199 36.3091 19.3399 36.2491 19.7699C36.2491 19.7799 36.2391 19.7799 36.2391 19.7899C36.1791 20.2099 36.0891 20.6299 35.9791 21.0599C35.9491 21.1599 35.8991 21.2699 35.8691 21.3799C35.7691 21.7099 35.6691 22.0399 35.5391 22.3699C35.3591 22.8199 35.1591 23.2699 34.9191 23.7199C34.9191 23.7299 34.9091 23.7299 34.9091 23.7299C34.7191 24.0999 34.4991 24.4599 34.2791 24.8199L34.0391 25.1799C33.8791 25.4199 33.7191 25.6699 33.5491 25.9099C33.4491 26.0399 33.3491 26.1699 33.2491 26.3099C33.0791 26.5299 32.9091 26.7499 32.7391 26.9699C32.6291 27.1099 32.5191 27.2399 32.4091 27.3699C32.2291 27.5899 32.0491 27.8099 31.8591 28.0199C31.7491 28.1499 31.6391 28.2699 31.5291 28.3899C31.3191 28.6199 31.1091 28.8399 30.8991 29.0599C30.7991 29.1699 30.6991 29.2699 30.5991 29.3699C30.3491 29.6299 30.0991 29.8799 29.8391 30.1299L29.6491 30.3199C28.9791 30.9599 28.2891 31.5799 27.6091 32.1599C27.4491 30.9399 27.4491 29.3299 27.4491 27.7599C27.4491 23.3999 29.1091 21.0099 30.3791 19.0099C29.7991 20.9199 30.8791 25.2199 33.2591 22.7199C34.7691 21.1399 35.6191 18.9599 35.6191 16.6199C35.6191 15.2699 35.3391 13.8599 34.7291 12.4899C33.2091 10.2099 30.7791 8.74993 28.0491 8.74993C24.5291 8.74993 22.4091 10.5899 21.2391 12.1699C20.6191 12.9999 19.3891 12.9999 18.7791 12.1699C17.5991 10.5899 15.4891 8.74993 11.9691 8.74993C9.05906 8.74993 6.49906 10.4099 5.00906 12.9399C3.61906 16.6199 4.58906 21.1499 6.65906 23.7399C8.74906 26.3599 12.0291 28.3999 12.0291 24.8499C14.4691 28.3999 10.1791 29.3399 15.1991 34.3899C13.9691 33.3499 12.4591 32.2099 10.8791 30.7999C8.86906 29.0099 6.74906 26.7699 4.99906 23.7199C4.14906 22.2399 3.74906 20.7199 3.59906 19.2699C3.59906 19.1999 3.58906 19.1299 3.58906 19.0599C3.56906 18.8799 3.55906 18.6899 3.54906 18.4999C3.53906 18.3399 3.53906 18.1899 3.53906 18.0399C3.53906 11.3399 6.07906 8.24993 8.41906 5.04993C7.34906 8.09993 9.78906 8.43993 11.2291 7.32993C15.0491 4.40993 11.8391 -7.23826e-05 11.8391 -7.23826e-05C11.8891 -0.0100724 14.4891 -0.0800724 16.6091 3.71993C18.3391 6.79993 17.2391 9.28993 19.1391 9.58993C21.4991 9.95993 20.0091 3.77993 24.2291 1.55993C22.9291 5.24993 24.7391 7.35993 26.9091 7.66993C28.8891 7.93993 31.4491 6.87993 30.5691 4.33993C32.3791 6.79993 35.9991 10.9499 36.3391 17.0399V17.0599C36.3491 17.2099 36.3591 17.3499 36.3591 17.4899C36.3691 17.6699 36.3791 17.8499 36.3791 18.0399Z" fill="#FF9E00"/>
</g>
<defs>
<clipPath id="clip0_1373_3786">
<rect width="40" height="40" fill="white"/>
</clipPath>
</defs>
</svg>
