<svg width="40" height="40" viewBox="0 0 40 40" fill="none" xmlns="http://www.w3.org/2000/svg">
<g clip-path="url(#clip0_1373_3905)">
<path d="M29.7609 5.62409L23.7929 9.48909C21.8609 10.7401 19.3999 10.7401 17.4679 9.48909L11.4999 5.62409C9.56486 4.37109 7.00486 5.46909 6.51486 7.76209L3.13086 23.5821L18.9419 34.3771C19.9649 35.0751 21.2959 35.0751 22.3189 34.3771L38.1299 23.5821L34.7459 7.76209C34.2549 5.46909 31.6949 4.37109 29.7609 5.62409Z" fill="#EC6700"/>
<path d="M24.1505 32.5591H17.1055V33.1251L18.9395 34.3771C19.9625 35.0751 21.2935 35.0751 22.3165 34.3771L24.1505 33.1251V32.5591Z" fill="black"/>
<path d="M16.1822 22.551C17.3 22.551 18.2062 21.6211 18.2062 20.474C18.2062 19.3269 17.3 18.397 16.1822 18.397C15.0644 18.397 14.1582 19.3269 14.1582 20.474C14.1582 21.6211 15.0644 22.551 16.1822 22.551Z" fill="black"/>
<path d="M25.0767 22.551C26.1946 22.551 27.1007 21.6211 27.1007 20.474C27.1007 19.3269 26.1946 18.397 25.0767 18.397C23.9589 18.397 23.0527 19.3269 23.0527 20.474C23.0527 21.6211 23.9589 22.551 25.0767 22.551Z" fill="black"/>
<path d="M3.12891 23.582C3.12891 23.582 15.3029 23.007 18.9399 34.377L3.12891 23.582Z" fill="#FFB72D"/>
<path d="M38.1294 23.582C38.1294 23.582 25.9554 23.007 22.3184 34.377L38.1294 23.582Z" fill="#FFB72D"/>
</g>
<defs>
<clipPath id="clip0_1373_3905">
<rect width="40" height="40" fill="white"/>
</clipPath>
</defs>
</svg>
