<svg width="40" height="40" viewBox="0 0 40 40" fill="none" xmlns="http://www.w3.org/2000/svg">
<g clip-path="url(#clip0_1373_4061)">
<path d="M29.6245 26.944L26.7285 26.228C26.1785 26.092 25.8435 25.536 25.9795 24.987L30.3885 7.14401C30.5715 6.40501 31.4665 6.11601 32.0465 6.60801L34.5865 8.76201C34.8835 9.01401 35.0125 9.41201 34.9185 9.79001L30.8655 26.194C30.7295 26.744 30.1735 27.08 29.6245 26.944Z" fill="#FFAA00"/>
<path d="M18.943 26.07H21.926C22.492 26.07 22.951 25.611 22.951 25.045V6.665C22.951 5.904 22.151 5.408 21.47 5.747L18.487 7.229C18.138 7.402 17.918 7.758 17.918 8.147V25.044C17.918 25.61 18.377 26.07 18.943 26.07Z" fill="#FFAA00"/>
<path d="M12.0863 26.366L9.1333 26.784C8.5723 26.863 8.0543 26.473 7.9743 25.913L5.3973 7.71498C5.2903 6.96198 6.0133 6.35898 6.7353 6.59798L9.8963 7.64698C10.2653 7.76998 10.5343 8.09098 10.5883 8.47598L12.9563 25.206C13.0353 25.767 12.6453 26.285 12.0853 26.365L12.0863 26.366Z" fill="#FFAA00"/>
<path d="M17.8936 23.5509L13.5686 22.9569C13.0026 22.9809 12.5256 22.5409 12.5016 21.9759L11.8056 5.33993C11.7896 4.96693 11.9786 4.61493 12.2976 4.42093L15.2086 2.65093C15.8756 2.24593 16.7326 2.70393 16.7656 3.48393L17.8936 23.5509Z" fill="#FFCD00"/>
<path d="M22.6903 22.848L27.1553 24.051L29.6133 4.28304C29.7293 3.53104 29.0143 2.91904 28.2893 3.15004L25.1153 4.15904C24.7443 4.27704 24.4723 4.59504 24.4133 4.98004L21.8343 21.679C21.7483 22.239 22.1313 22.762 22.6913 22.849L22.6903 22.848Z" fill="#FFCD00"/>
<path d="M32.1987 14.5898C31.5637 14.5898 30.9967 14.9238 30.6097 15.4268C28.9477 17.5858 24.8277 19.1158 19.9997 19.1158C15.1717 19.1158 11.0517 17.5858 9.38969 15.4268C9.00169 14.9238 8.43569 14.5898 7.80069 14.5898H4.98669C4.36069 14.5898 3.88569 15.1518 3.98869 15.7688L7.35069 35.8108C7.51369 36.7858 8.35769 37.4998 9.34569 37.4998H30.6527C31.6407 37.4998 32.4847 36.7858 32.6477 35.8108L36.0097 15.7688C36.1127 15.1518 35.6377 14.5898 35.0117 14.5898H32.1987Z" fill="#E32939"/>
</g>
<defs>
<clipPath id="clip0_1373_4061">
<rect width="40" height="40" fill="white"/>
</clipPath>
</defs>
</svg>
