<svg width="40" height="40" viewBox="0 0 40 40" fill="none" xmlns="http://www.w3.org/2000/svg">
<g clip-path="url(#clip0_1373_3962)">
<path d="M20 35.5001C29.94 35.5001 37.998 29.9981 37.998 23.2111C37.998 16.4241 29.94 10.9221 20 10.9221C10.0599 10.9221 2.00195 16.4241 2.00195 23.2111C2.00195 29.9981 10.0599 35.5001 20 35.5001Z" fill="#C1EEC9"/>
<path d="M27.3383 15.782C30.4537 15.782 32.9793 13.2564 32.9793 10.141C32.9793 7.02556 30.4537 4.5 27.3383 4.5C24.2228 4.5 21.6973 7.02556 21.6973 10.141C21.6973 13.2564 24.2228 15.782 27.3383 15.782Z" fill="#03905A"/>
<path d="M37.998 23.2111C37.998 23.2111 34.956 17.9531 20 17.9531C5.04395 17.9531 2.00195 23.2111 2.00195 23.2111C2.00195 16.6261 10.06 8.97607 20 8.97607C29.94 8.97607 37.998 16.6261 37.998 23.2111Z" fill="#03905A"/>
<path d="M18.0252 14.88C18.3886 14.88 18.6832 14.5854 18.6832 14.222C18.6832 13.8586 18.3886 13.564 18.0252 13.564C17.6618 13.564 17.3672 13.8586 17.3672 14.222C17.3672 14.5854 17.6618 14.88 18.0252 14.88Z" fill="black"/>
<path d="M22.0174 14.88C22.3808 14.88 22.6754 14.5854 22.6754 14.222C22.6754 13.8586 22.3808 13.564 22.0174 13.564C21.654 13.564 21.3594 13.8586 21.3594 14.222C21.3594 14.5854 21.654 14.88 22.0174 14.88Z" fill="black"/>
<path d="M27.3383 12.573C28.6814 12.573 29.7703 11.4841 29.7703 10.141C29.7703 8.79783 28.6814 7.70898 27.3383 7.70898C25.9951 7.70898 24.9062 8.79783 24.9062 10.141C24.9062 11.4841 25.9951 12.573 27.3383 12.573Z" fill="black"/>
<path d="M12.6605 15.782C15.776 15.782 18.3015 13.2564 18.3015 10.141C18.3015 7.02556 15.776 4.5 12.6605 4.5C9.54509 4.5 7.01953 7.02556 7.01953 10.141C7.01953 13.2564 9.54509 15.782 12.6605 15.782Z" fill="#03905A"/>
<path d="M12.6605 12.573C14.0037 12.573 15.0925 11.4841 15.0925 10.141C15.0925 8.79783 14.0037 7.70898 12.6605 7.70898C11.3174 7.70898 10.2285 8.79783 10.2285 10.141C10.2285 11.4841 11.3174 12.573 12.6605 12.573Z" fill="black"/>
</g>
<defs>
<clipPath id="clip0_1373_3962">
<rect width="40" height="40" fill="white"/>
</clipPath>
</defs>
</svg>
