<svg width="40" height="40" viewBox="0 0 40 40" fill="none" xmlns="http://www.w3.org/2000/svg">
<g clip-path="url(#clip0_1373_3773)">
<path d="M33.9191 36.044C34.5331 35.151 34.8371 34.035 34.6801 32.861C33.9141 27.144 32.6801 18.165 31.9151 13.837C30.7521 7.254 26.2501 3 19.9981 3C13.7461 3 9.24415 7.254 8.08115 13.837C7.31615 18.166 6.08215 27.144 5.31615 32.861C5.16215 34.013 5.45315 35.107 6.04415 35.992C6.65115 36.537 7.34315 37 8.51715 37C11.3911 37 11.3911 34.242 14.2641 34.242C17.1371 34.242 17.1371 37 20.0101 37C22.8831 37 22.8831 34.242 25.7561 34.242C28.6291 34.242 28.6291 37 31.5021 37C32.6391 37 33.3241 36.566 33.9171 36.044H33.9191Z" fill="#E0E0E0"/>
<path d="M8.30707 24.6931L2.18707 17.7571C0.850072 16.2421 2.12807 13.8221 3.93707 14.4431L9.60907 16.3611L8.30807 24.6931H8.30707Z" fill="#E0E0E0"/>
<path d="M31.6907 24.6931L37.8107 17.7571C39.1477 16.2421 37.8697 13.8221 36.0607 14.4431L30.3887 16.3611L31.6907 24.6931Z" fill="#E0E0E0"/>
<path d="M16.38 13.769C17.3493 13.769 18.135 12.9833 18.135 12.014C18.135 11.0448 17.3493 10.259 16.38 10.259C15.4107 10.259 14.625 11.0448 14.625 12.014C14.625 12.9833 15.4107 13.769 16.38 13.769Z" fill="black"/>
<path d="M23.7042 13.8301C24.6735 13.8301 25.4592 13.0443 25.4592 12.0751C25.4592 11.1058 24.6735 10.3201 23.7042 10.3201C22.735 10.3201 21.9492 11.1058 21.9492 12.0751C21.9492 13.0443 22.735 13.8301 23.7042 13.8301Z" fill="black"/>
<path d="M26.2988 16.7799C26.1638 16.5869 25.9188 16.5069 25.6948 16.5699C22.2198 17.6269 17.7688 17.5899 14.3118 16.4749C14.0878 16.4039 13.8428 16.4829 13.7048 16.6749C13.5678 16.8659 13.5698 17.1239 13.7108 17.3129C15.1258 19.2139 17.4658 20.3599 19.9708 20.3809C22.4768 20.4019 24.8358 19.2949 26.2808 17.4179C26.4248 17.2309 26.4328 16.9729 26.2988 16.7799Z" fill="black"/>
<path d="M22.5582 19.069V17.195C20.8522 17.389 19.0702 17.373 17.3692 17.144L17.3672 19.894V19.905C17.3672 19.911 17.3682 19.916 17.3682 19.921C17.3682 19.925 17.3692 19.93 17.3692 19.934C17.3742 21.309 18.5172 22.428 19.9402 22.44C21.3732 22.452 22.5452 21.336 22.5562 19.948L22.5622 19.069H22.5572H22.5582Z" fill="#F93052"/>
</g>
<defs>
<clipPath id="clip0_1373_3773">
<rect width="40" height="40" fill="white"/>
</clipPath>
</defs>
</svg>
