<svg width="40" height="40" viewBox="0 0 40 40" fill="none" xmlns="http://www.w3.org/2000/svg">
<g clip-path="url(#clip0_1455_3152)">
<path d="M27.7325 23.813C27.8545 23.625 27.9695 23.428 28.0765 23.222C29.4105 20.66 29.0715 17.308 27.1725 14.765C24.0225 10.549 18.2965 9.91398 15.0825 13.128C14.9815 13.229 14.8845 13.332 14.7915 13.438C13.8525 14.508 12.4815 15.061 11.0025 15.179C8.48647 15.381 6.10347 16.418 4.29447 18.315C0.317472 22.485 0.620472 29.596 4.97947 34.283C9.76147 39.424 17.4125 39.943 21.8385 35.517C23.1945 34.161 24.0865 32.502 24.5225 30.716C25.1385 28.196 26.3485 25.941 27.7315 23.812L27.7325 23.813Z" fill="#FFAA00"/>
<path d="M31.6142 6.22348L20.5098 17.3279L22.6551 19.4732L33.7595 8.36884L31.6142 6.22348Z" fill="#3D3D3D"/>
<path d="M14.309 29.3581L10.6242 25.6733C10.3075 25.3566 9.79403 25.3566 9.47732 25.6733C9.1606 25.99 9.1606 26.5035 9.47732 26.8202L13.1621 30.505C13.4788 30.8217 13.9923 30.8217 14.309 30.505C14.6257 30.1883 14.6257 29.6748 14.309 29.3581Z" fill="#F77F00"/>
<path d="M19.3972 24.117C21.3479 24.117 22.9292 22.5356 22.9292 20.585C22.9292 18.6343 21.3479 17.053 19.3972 17.053C17.4466 17.053 15.8652 18.6343 15.8652 20.585C15.8652 22.5356 17.4466 24.117 19.3972 24.117Z" fill="#3D3D3D"/>
<path d="M31.6646 5.20301L34.6876 1.75701C34.9956 1.40601 35.5376 1.38801 35.8676 1.71801L38.2636 4.11401C38.5946 4.44501 38.5766 4.98601 38.2246 5.29401L34.7786 8.31701C34.4586 8.59801 33.9746 8.58201 33.6726 8.28101L31.6996 6.30801C31.3986 6.00701 31.3826 5.52301 31.6636 5.20201L31.6646 5.20301Z" fill="#FFAA00"/>
</g>
<defs>
<clipPath id="clip0_1455_3152">
<rect width="40" height="40" fill="white"/>
</clipPath>
</defs>
</svg>
