<svg width="40" height="40" viewBox="0 0 40 40" fill="none" xmlns="http://www.w3.org/2000/svg">
<g clip-path="url(#clip0_1373_3885)">
<path d="M36.6148 19.8681L31.2868 11.5041C25.8478 2.96707 14.1468 2.96707 8.70782 11.5041L3.37982 19.8671C-0.0201755 25.2041 3.62882 32.1931 8.89682 33.9751C11.8768 35.2341 15.1718 36.0311 19.9978 36.0311C24.8238 36.0311 28.1178 35.2341 31.0988 33.9751C36.3678 32.1921 40.0168 25.2041 36.6158 19.8671L36.6148 19.8681Z" fill="#FFBA5E"/>
<path d="M31.2794 22.5071C29.1614 24.7161 25.7274 24.7161 23.6104 22.5071C21.4924 20.2981 18.0584 20.2981 15.9404 22.5071C13.8224 24.7161 10.3894 24.7161 8.27138 22.5071C6.76038 20.9311 4.58638 20.5011 2.69238 21.1731C0.425384 26.2871 4.04638 32.3361 8.89538 33.9761C11.8764 35.2351 15.1694 36.0321 19.9964 36.0321C24.8234 36.0321 28.1164 35.2351 31.0964 33.9761C35.8804 32.3581 39.4924 26.4501 37.3854 21.3811C35.3814 20.4141 32.9324 20.7831 31.2794 22.5071Z" fill="#FFE3A0"/>
<path d="M30.7738 3.84789C32.8428 5.91689 32.8318 9.28089 30.7508 11.3619C28.6698 13.4429 25.3048 13.4539 23.2368 11.3849C21.1678 9.31589 28.7058 1.77889 30.7738 3.84789Z" fill="#FFBA5E"/>
<path d="M9.21665 3.84789C7.14765 5.91689 7.15865 9.28089 9.23965 11.3619C11.3207 13.4429 14.6857 13.4539 16.7537 11.3849C18.8227 9.31589 11.2847 1.77889 9.21665 3.84789Z" fill="#FFBA5E"/>
<path d="M24.8512 20.5851C25.9005 20.5851 26.7512 19.7398 26.7512 18.6971C26.7512 17.6544 25.9005 16.8091 24.8512 16.8091C23.8018 16.8091 22.9512 17.6544 22.9512 18.6971C22.9512 19.7398 23.8018 20.5851 24.8512 20.5851Z" fill="black"/>
<path d="M15.1363 20.5851C16.1857 20.5851 17.0363 19.7398 17.0363 18.6971C17.0363 17.6544 16.1857 16.8091 15.1363 16.8091C14.087 16.8091 13.2363 17.6544 13.2363 18.6971C13.2363 19.7398 14.087 20.5851 15.1363 20.5851Z" fill="black"/>
<path d="M21.3236 25.2729L22.0266 24.2549C22.3706 23.7569 22.0136 23.0769 21.4086 23.0769H18.5766C17.9746 23.0769 17.6196 23.7529 17.9616 24.2479L18.6686 25.2729C19.3096 26.2019 20.6826 26.2019 21.3236 25.2729Z" fill="#FA878F"/>
</g>
<defs>
<clipPath id="clip0_1373_3885">
<rect width="40" height="40" fill="white"/>
</clipPath>
</defs>
</svg>
