<svg width="40" height="40" viewBox="0 0 40 40" fill="none" xmlns="http://www.w3.org/2000/svg">
<g clip-path="url(#clip0_1373_4184)">
<path d="M18.8401 11.8562C16.2921 8.38424 11.0871 9.24124 8.16515 10.9282C4.08515 13.2842 8.57015 19.3062 8.57015 19.3062C7.16215 16.8672 10.0031 14.9642 11.7201 13.9732C13.4371 12.9822 15.5691 14.0022 16.4861 14.7062C17.2801 15.3162 18.4051 15.1942 19.0601 14.5472C19.8311 13.7862 19.4511 12.6882 18.8401 11.8562Z" fill="#E68E51"/>
<path d="M18.535 28.9521L15.976 27.5191C14.136 26.4891 12.187 24.6981 11.157 22.8581C10.469 21.6301 9.986 20.2211 9.986 18.6171C9.986 15.4091 10.274 12.8121 12.233 11.6521C13.939 10.6421 16.077 11.4041 16.994 12.1081C17.788 12.7181 18.913 12.5961 19.568 11.9491C20.339 11.1881 19.959 10.0901 19.348 9.25812C16.8 5.78612 11.756 5.89312 8.834 7.58012C6.981 8.64912 4.338 11.8221 2.982 15.1521C1.626 18.4821 1 20.4551 1 22.1491C1 25.0161 2.839 28.0761 5.769 29.1301C8.699 30.1841 16.929 33.3651 16.929 33.3651C18.148 33.8091 19.343 33.5161 19.787 32.2971C20.231 31.0781 19.814 29.6621 18.536 28.9511L18.535 28.9521Z" fill="#FFCCA8"/>
<path d="M21.1594 11.856C23.7074 8.38399 28.9124 9.24099 31.8344 10.928C35.9144 13.284 31.4294 19.306 31.4294 19.306C32.8374 16.867 29.9964 14.964 28.2794 13.973C26.5624 12.982 24.4304 14.002 23.5134 14.706C22.7194 15.316 21.5944 15.194 20.9394 14.547C20.1684 13.786 20.5484 12.688 21.1594 11.856Z" fill="#E68E51"/>
<path d="M21.4646 28.9521L24.0236 27.5191C25.8636 26.4891 27.8126 24.6981 28.8426 22.8581C29.5306 21.6301 30.0136 20.2211 30.0136 18.6171C30.0136 15.4091 29.7256 12.8121 27.7666 11.6521C26.0606 10.6421 23.9226 11.4041 23.0056 12.1081C22.2116 12.7181 21.0866 12.5961 20.4316 11.9491C19.6606 11.1881 20.0406 10.0901 20.6516 9.25812C23.1996 5.78612 28.2436 5.89312 31.1656 7.58012C33.0186 8.64912 35.6616 11.8221 37.0176 15.1521C38.3736 18.4821 38.9996 20.4551 38.9996 22.1491C38.9996 25.0161 37.1606 28.0761 34.2306 29.1301C31.3006 30.1841 23.0706 33.3651 23.0706 33.3651C21.8516 33.8091 20.6566 33.5161 20.2126 32.2971C19.7686 31.0781 20.1856 29.6621 21.4636 28.9511L21.4646 28.9521Z" fill="#FFCCA8"/>
</g>
<defs>
<clipPath id="clip0_1373_4184">
<rect width="40" height="40" fill="white"/>
</clipPath>
</defs>
</svg>
