<svg width="40" height="40" viewBox="0 0 40 40" fill="none" xmlns="http://www.w3.org/2000/svg">
<g clip-path="url(#clip0_1467_3185)">
<path d="M33.5553 17.736C33.5553 17.736 35.2602 14.782 34.3412 11.532L31.2533 11.885L29.6763 9.026L26.4312 9.629L23.9193 6.321L21.1383 7.688L18.4603 5.948L16.9972 7.854L13.1252 7.115L12.3472 9.513L8.53525 8.927L8.38525 11.954L4.86325 12.252L6.07725 15.356L2.60525 16.52L4.68325 18.947L2.40625 20.813L5.27225 22.821L3.27425 24.957L5.80825 26.88L4.86325 29.523C4.86325 29.523 7.46925 30.069 10.8932 30.143C14.3172 30.217 28.7212 27.602 31.1672 22.624C33.4742 17.928 33.5572 17.736 33.5572 17.736H33.5553Z" fill="#5E403B"/>
<path d="M35.5434 22.6581C34.7474 21.9601 33.4364 20.1531 33.5544 17.7361C33.5544 17.7361 23.5104 24.1141 8.98435 30.0521L8.38435 33.9531C8.37435 34.0041 8.41435 34.0511 8.46535 34.0511H11.3384L11.4174 33.9911L11.9984 30.9591C12.0184 30.8901 12.0874 30.8471 12.1574 30.8611L13.1594 31.1361C13.2134 31.1461 13.2564 31.1871 13.2684 31.2411L13.5074 33.9871C13.5164 34.0241 13.5494 34.0511 13.5884 34.0511H16.0914L16.1734 33.9571L16.0004 31.3671C15.9934 31.3121 16.0394 31.2841 16.0944 31.2861C17.3414 31.3351 19.7254 31.1901 21.4614 30.9231C21.5064 30.9161 21.5524 30.9281 21.5664 30.9711L22.1494 33.9941C22.1604 34.0281 22.1924 34.0511 22.2284 34.0511H24.7764C24.8224 34.0511 24.8594 34.0131 24.8594 33.9671L24.8254 30.7301C24.8254 30.6861 24.8594 30.6491 24.9024 30.6471L25.8474 30.4591C25.8984 30.4551 25.9194 30.4611 25.9334 30.5241L26.3994 33.9811L26.4854 34.0501H29.1364C29.1854 34.0501 29.2244 34.0071 29.2184 33.9581L28.9834 31.8301C28.6984 29.2511 30.4434 26.3731 32.8614 25.4331L35.2104 24.5201C35.6364 24.3551 35.9164 23.9451 35.9164 23.4881C35.9164 23.1701 35.7824 22.8651 35.5434 22.6561V22.6581Z" fill="#AC8074"/>
<path d="M31.8376 22.162C32.3595 22.162 32.7826 21.7389 32.7826 21.217C32.7826 20.6951 32.3595 20.272 31.8376 20.272C31.3157 20.272 30.8926 20.6951 30.8926 21.217C30.8926 21.7389 31.3157 22.162 31.8376 22.162Z" fill="black"/>
<path d="M35.5435 22.664C35.7825 22.874 35.9165 23.179 35.9165 23.496C35.9165 23.953 35.6365 24.363 35.2105 24.528L34.6445 24.748L35.2485 22.375C35.3515 22.485 35.4515 22.584 35.5435 22.664Z" fill="#474747"/>
</g>
<defs>
<clipPath id="clip0_1467_3185">
<rect width="40" height="40" fill="white"/>
</clipPath>
</defs>
</svg>
