<svg width="40" height="40" viewBox="0 0 40 40" fill="none" xmlns="http://www.w3.org/2000/svg">
<g clip-path="url(#clip0_1469_3263)">
<path d="M27.6836 15.8919H38.5006L32.1306 4.60791H32.1296L27.6836 15.8919Z" fill="#7D9DFF"/>
<path d="M7.87 4.60791L1.5 15.8919H12.317L7.87 4.60791Z" fill="#7D9DFF"/>
<path d="M27.6824 15.8918H12.3164L19.9994 35.3918L27.6824 15.8918Z" fill="#7D9DFF"/>
<path d="M12.3164 15.8919H27.6824L19.9994 4.60791L12.3164 15.8919Z" fill="#5A81FF"/>
<path d="M1.5 15.8918L20 35.3918L12.317 15.8918H1.5Z" fill="#A8BFFF"/>
<path d="M27.683 15.8918L20 35.3918L38.5 15.8918H27.683Z" fill="#A8BFFF"/>
<path d="M19.9991 4.60791H7.86914L12.3161 15.8919L19.9991 4.60791Z" fill="#A8BFFF"/>
<path d="M27.683 15.8919L32.129 4.60791H20L27.683 15.8919Z" fill="#A8BFFF"/>
</g>
<defs>
<clipPath id="clip0_1469_3263">
<rect width="40" height="40" fill="white"/>
</clipPath>
</defs>
</svg>
