<svg width="40" height="40" viewBox="0 0 40 40" fill="none" xmlns="http://www.w3.org/2000/svg">
<g clip-path="url(#clip0_1373_3938)">
<path d="M36.9867 7.8729C34.0687 4.4539 30.0737 4.0259 26.6867 6.9169L26.5407 7.0419C24.5717 6.0619 22.3547 5.4979 20.0007 5.4979C17.6467 5.4979 15.4307 6.0629 13.4607 7.0419L13.3147 6.9169C9.92767 4.0259 5.93267 4.4539 3.01367 7.8729C0.0956745 11.2919 -0.642326 16.4079 2.74567 19.2989L5.49767 21.6479C6.33868 28.8479 12.5057 34.9989 19.9997 34.9989C27.4937 34.9989 33.6607 28.8479 34.5017 21.6479L37.2537 19.2989C40.6407 16.4079 39.9047 11.2919 36.9867 7.8729Z" fill="#495B73"/>
<path d="M22.8596 25.9618V24.3518C22.8596 23.6378 22.2806 23.0588 21.5666 23.0588H18.4356C17.7216 23.0588 17.1426 23.6378 17.1426 24.3518V25.9708C17.1426 27.0618 17.5256 28.1178 18.2236 28.9558C18.6156 29.4258 19.1966 29.6978 19.8086 29.6978H20.1856C20.7956 29.6978 21.3736 29.4278 21.7656 28.9608L21.7676 28.9588C22.4726 28.1188 22.8596 27.0588 22.8596 25.9618Z" fill="black"/>
<path d="M14.4116 22.825C15.4361 22.825 16.2666 21.9945 16.2666 20.97C16.2666 19.9455 15.4361 19.115 14.4116 19.115C13.3872 19.115 12.5566 19.9455 12.5566 20.97C12.5566 21.9945 13.3872 22.825 14.4116 22.825Z" fill="black"/>
<path d="M25.4644 22.825C26.4889 22.825 27.3194 21.9945 27.3194 20.97C27.3194 19.9455 26.4889 19.115 25.4644 19.115C24.4399 19.115 23.6094 19.9455 23.6094 20.97C23.6094 21.9945 24.4399 22.825 25.4644 22.825Z" fill="black"/>
</g>
<defs>
<clipPath id="clip0_1373_3938">
<rect width="40" height="40" fill="white"/>
</clipPath>
</defs>
</svg>
