<svg width="40" height="40" viewBox="0 0 40 40" fill="none" xmlns="http://www.w3.org/2000/svg">
<g clip-path="url(#clip0_1455_3089)">
<path d="M2.8901 37.2309C2.3221 36.6609 2.32309 35.7379 2.89309 35.1699L20.6631 17.542C21.2331 16.974 22.1561 16.975 22.7241 17.545C23.2921 18.115 23.2911 19.038 22.7211 19.606L4.9511 37.234C4.3811 37.802 3.4581 37.8009 2.8901 37.2309Z" fill="#A96951"/>
<path d="M23.8666 31.483C31.8197 31.0662 37.929 24.2812 37.5122 16.3281C37.0954 8.37509 30.3103 2.26577 22.3573 2.68257C14.4042 3.09937 8.29492 9.88446 8.71172 17.8375C9.12852 25.7905 15.9136 31.8998 23.8666 31.483Z" fill="#FDAEB3"/>
<path d="M22.9863 17.1699L22.9883 17.1679C22.9723 17.1459 17.4593 9.4279 9.61926 12.0219C8.60726 14.7119 8.37726 17.7259 9.15726 20.7189C9.45326 21.8539 9.88926 22.9119 10.4203 23.9019C11.5843 21.9609 14.8123 18.2929 22.9863 17.1699Z" fill="#EF4452"/>
<path d="M22.9885 17.168V17.169H22.9855C22.9275 17.21 15.2445 22.624 17.7105 30.436C20.4855 31.561 23.6275 31.85 26.7475 31.036C27.8125 30.758 28.8115 30.359 29.7485 29.874C27.8555 28.762 24.0665 25.538 22.9875 17.167L22.9885 17.168Z" fill="#EF4452"/>
<path d="M22.9942 17.1699L22.9922 17.1719C23.0082 17.1939 28.6152 25.0439 36.5612 22.2499C37.6072 19.5329 37.8562 16.4799 37.0662 13.4479C36.7582 12.2649 36.2972 11.1649 35.7342 10.1399C34.7332 11.9749 31.6072 15.9869 22.9942 17.1699Z" fill="#EF4452"/>
<path d="M22.9912 17.1719V17.1709H22.9942C23.0532 17.1289 30.9432 11.5699 28.1652 3.58893C25.4772 2.57993 22.4662 2.35093 19.4762 3.12993C18.3052 3.43493 17.2152 3.88993 16.1992 4.44493C18.0812 5.53993 21.9072 8.75593 22.9922 17.1719H22.9912Z" fill="#EF4452"/>
</g>
<defs>
<clipPath id="clip0_1455_3089">
<rect width="40" height="40" fill="white"/>
</clipPath>
</defs>
</svg>
