<svg width="40" height="40" viewBox="0 0 40 40" fill="none" xmlns="http://www.w3.org/2000/svg">
<g clip-path="url(#clip0_1373_4171)">
<path d="M17.4757 19.7831H24.9097C25.2897 19.7831 25.6367 19.5671 25.8057 19.2271L33.6267 3.44009C33.9557 2.77509 33.4727 1.99609 32.7307 1.99609H25.2967C24.9167 1.99609 24.5697 2.21209 24.4007 2.55209L16.5797 18.3391C16.2507 19.0041 16.7337 19.7831 17.4757 19.7831Z" fill="#D12030"/>
<path d="M22.5237 19.7831H15.0897C14.7097 19.7831 14.3627 19.5671 14.1937 19.2271L6.37271 3.43912C6.04371 2.77412 6.52671 1.99512 7.26871 1.99512H14.7027C15.0827 1.99512 15.4297 2.21112 15.5987 2.55112L23.4197 18.3381C23.7487 19.0031 23.2657 19.7821 22.5237 19.7821V19.7831Z" fill="#EF4452"/>
<path d="M20 38.0051C27.4558 38.0051 33.5 31.961 33.5 24.5051C33.5 17.0493 27.4558 11.0051 20 11.0051C12.5442 11.0051 6.5 17.0493 6.5 24.5051C6.5 31.961 12.5442 38.0051 20 38.0051Z" fill="#FFCD00"/>
<path d="M20.8054 17.2151L22.4294 20.5061C22.5604 20.7711 22.8124 20.9541 23.1054 20.9971L26.7364 21.5251C27.4724 21.6321 27.7664 22.5371 27.2334 23.0561L24.6054 25.6171C24.3934 25.8231 24.2974 26.1201 24.3474 26.4111L24.9674 30.0281C25.0934 30.7611 24.3234 31.3201 23.6654 30.9741L20.4174 29.2661C20.1564 29.1291 19.8434 29.1291 19.5824 29.2661L16.3344 30.9741C15.6764 31.3201 14.9064 30.7611 15.0324 30.0281L15.6524 26.4111C15.7024 26.1201 15.6054 25.8231 15.3944 25.6171L12.7664 23.0561C12.2334 22.5371 12.5274 21.6321 13.2634 21.5251L16.8944 20.9971C17.1864 20.9551 17.4394 20.7711 17.5704 20.5061L19.1944 17.2151C19.5234 16.5481 20.4754 16.5481 20.8054 17.2151Z" fill="#FFAA00"/>
</g>
<defs>
<clipPath id="clip0_1373_4171">
<rect width="40" height="40" fill="white"/>
</clipPath>
</defs>
</svg>
