<svg width="40" height="40" viewBox="0 0 40 40" fill="none" xmlns="http://www.w3.org/2000/svg">
<g clip-path="url(#clip0_1373_3987)">
<path d="M33.4152 11.3454L28.6557 6.58587C23.8753 1.80546 16.1247 1.80546 11.3443 6.58587L6.58477 11.3454C1.80436 16.1258 1.80436 23.8764 6.58477 28.6568L11.3443 33.4163C16.1247 38.1967 23.8753 38.1967 28.6557 33.4163L33.4152 28.6568C38.1956 23.8764 38.1956 16.1258 33.4152 11.3454Z" fill="#A54D3C"/>
<path d="M15.8045 24.7822C19.6672 24.7822 22.7985 21.6509 22.7985 17.7882C22.7985 13.9255 19.6672 10.7942 15.8045 10.7942C11.9419 10.7942 8.81055 13.9255 8.81055 17.7882C8.81055 21.6509 11.9419 24.7822 15.8045 24.7822Z" fill="#FBBD58"/>
<path d="M24.1971 24.7822C28.0598 24.7822 31.1911 21.6509 31.1911 17.7882C31.1911 13.9255 28.0598 10.7942 24.1971 10.7942C20.3344 10.7942 17.2031 13.9255 17.2031 17.7882C17.2031 21.6509 20.3344 24.7822 24.1971 24.7822Z" fill="#FBBD58"/>
<path d="M20.1678 31.7751C24.0305 31.7751 27.1618 28.6438 27.1618 24.7811C27.1618 20.9184 24.0305 17.7871 20.1678 17.7871C16.3051 17.7871 13.1738 20.9184 13.1738 24.7811C13.1738 28.6438 16.3051 31.7751 20.1678 31.7751Z" fill="#FBBD58"/>
<path d="M24.1962 19.6753C25.2289 19.6753 26.0662 18.8381 26.0662 17.8053C26.0662 16.7725 25.2289 15.9353 24.1962 15.9353C23.1634 15.9353 22.3262 16.7725 22.3262 17.8053C22.3262 18.8381 23.1634 19.6753 24.1962 19.6753Z" fill="black"/>
<path d="M15.8036 19.6753C16.8364 19.6753 17.6736 18.8381 17.6736 17.8053C17.6736 16.7725 16.8364 15.9353 15.8036 15.9353C14.7708 15.9353 13.9336 16.7725 13.9336 17.8053C13.9336 18.8381 14.7708 19.6753 15.8036 19.6753Z" fill="black"/>
<path d="M18.9481 20.9971C19.2679 20.9971 19.5271 20.7379 19.5271 20.4181C19.5271 20.0983 19.2679 19.8391 18.9481 19.8391C18.6284 19.8391 18.3691 20.0983 18.3691 20.4181C18.3691 20.7379 18.6284 20.9971 18.9481 20.9971Z" fill="black"/>
<path d="M21.0536 20.9971C21.3734 20.9971 21.6326 20.7379 21.6326 20.4181C21.6326 20.0983 21.3734 19.8391 21.0536 19.8391C20.7338 19.8391 20.4746 20.0983 20.4746 20.4181C20.4746 20.7379 20.7338 20.9971 21.0536 20.9971Z" fill="black"/>
<path d="M22.1333 25.8792C22.4753 25.8282 22.7863 26.1282 22.7123 26.4662C22.4233 27.7852 21.3193 28.7672 20.0003 28.7672C18.6813 28.7672 17.5763 27.7852 17.2883 26.4662C17.2143 26.1282 17.5253 25.8282 17.8673 25.8792H22.1333Z" fill="#F93052"/>
</g>
<defs>
<clipPath id="clip0_1373_3987">
<rect width="40" height="40" fill="white"/>
</clipPath>
</defs>
</svg>
