<svg width="40" height="40" viewBox="0 0 40 40" fill="none" xmlns="http://www.w3.org/2000/svg">
<g clip-path="url(#clip0_1373_3872)">
<path d="M10.2647 19.3981C15.1894 19.3981 19.1817 15.3834 19.1817 10.4311C19.1817 5.47877 15.1894 1.46411 10.2647 1.46411C5.33993 1.46411 1.34766 5.47877 1.34766 10.4311C1.34766 15.3834 5.33993 19.3981 10.2647 19.3981Z" fill="#6B7683"/>
<path d="M10.2656 16.1701C13.4175 16.1701 15.9726 13.6007 15.9726 10.4311C15.9726 7.26158 13.4175 4.69214 10.2656 4.69214C7.1137 4.69214 4.55859 7.26158 4.55859 10.4311C4.55859 13.6007 7.1137 16.1701 10.2656 16.1701Z" fill="#FA878F"/>
<path d="M29.7432 19.3981C34.6679 19.3981 38.6602 15.3834 38.6602 10.4311C38.6602 5.47877 34.6679 1.46411 29.7432 1.46411C24.8184 1.46411 20.8262 5.47877 20.8262 10.4311C20.8262 15.3834 24.8184 19.3981 29.7432 19.3981Z" fill="#6B7683"/>
<path d="M29.7441 16.1701C32.896 16.1701 35.4511 13.6007 35.4511 10.4311C35.4511 7.26158 32.896 4.69214 29.7441 4.69214C26.5922 4.69214 24.0371 7.26158 24.0371 10.4311C24.0371 13.6007 26.5922 16.1701 29.7441 16.1701Z" fill="#FA878F"/>
<path d="M14.8183 34.1991L9.55731 28.9091C4.74131 24.0661 4.74131 16.2431 9.55731 11.4011C15.2173 5.71006 24.4263 5.71006 30.0853 11.4011C34.9013 16.2441 34.9013 24.0671 30.0853 28.9091L24.8243 34.1991C22.0653 36.9731 17.5763 36.9731 14.8173 34.1991H14.8183Z" fill="#6B7683"/>
<path d="M23.0958 26.9162C24.0181 26.9162 24.7658 26.173 24.7658 25.2562C24.7658 24.3394 24.0181 23.5962 23.0958 23.5962C22.1735 23.5962 21.4258 24.3394 21.4258 25.2562C21.4258 26.173 22.1735 26.9162 23.0958 26.9162Z" fill="black"/>
<path d="M16.8946 26.9162C17.8169 26.9162 18.5646 26.173 18.5646 25.2562C18.5646 24.3394 17.8169 23.5962 16.8946 23.5962C15.9723 23.5962 15.2246 24.3394 15.2246 25.2562C15.2246 26.173 15.9723 26.9162 16.8946 26.9162Z" fill="black"/>
<path d="M20.9279 32.5262L21.9059 31.1102C22.2299 30.6412 21.8939 30.0022 21.3249 30.0022H18.6609C18.0939 30.0022 17.7609 30.6382 18.0829 31.1042L19.0649 32.5262C19.5149 33.1782 20.4789 33.1782 20.9289 32.5262H20.9279Z" fill="#FA878F"/>
</g>
<defs>
<clipPath id="clip0_1373_3872">
<rect width="40" height="40" fill="white"/>
</clipPath>
</defs>
</svg>
