<svg width="40" height="40" viewBox="0 0 40 40" fill="none" xmlns="http://www.w3.org/2000/svg">
<g clip-path="url(#clip0_1373_3749)">
<path d="M20 37.5C29.665 37.5 37.5 29.665 37.5 20C37.5 10.335 29.665 2.5 20 2.5C10.335 2.5 2.5 10.335 2.5 20C2.5 29.665 10.335 37.5 20 37.5Z" fill="#FFC84D"/>
<path d="M15.2843 18.568C16.2773 18.568 17.0823 17.5195 17.0823 16.226C17.0823 14.9326 16.2773 13.884 15.2843 13.884C14.2913 13.884 13.4863 14.9326 13.4863 16.226C13.4863 17.5195 14.2913 18.568 15.2843 18.568Z" fill="black"/>
<path d="M24.716 18.568C25.709 18.568 26.514 17.5195 26.514 16.226C26.514 14.9326 25.709 13.884 24.716 13.884C23.723 13.884 22.918 14.9326 22.918 16.226C22.918 17.5195 23.723 18.568 24.716 18.568Z" fill="black"/>
<path d="M13.9672 21.37C11.1312 21.37 8.82422 19.062 8.82422 16.226C8.82422 13.39 11.1312 11.083 13.9672 11.083C16.8032 11.083 19.1112 13.39 19.1112 16.226C19.1112 19.062 16.8032 21.37 13.9672 21.37ZM13.9672 12.083C11.6832 12.083 9.82422 13.941 9.82422 16.226C9.82422 18.511 11.6822 20.37 13.9672 20.37C16.2522 20.37 18.1112 18.511 18.1112 16.226C18.1112 13.941 16.2532 12.083 13.9672 12.083Z" fill="black"/>
<path d="M26.2631 21.37C23.4271 21.37 21.1191 19.062 21.1191 16.226C21.1191 13.39 23.4271 11.083 26.2631 11.083C29.0991 11.083 31.4071 13.39 31.4071 16.226C31.4071 19.062 29.0991 21.37 26.2631 21.37ZM26.2631 12.083C23.9781 12.083 22.1191 13.941 22.1191 16.226C22.1191 18.511 23.9771 20.37 26.2631 20.37C28.5491 20.37 30.4071 18.511 30.4071 16.226C30.4071 13.941 28.5491 12.083 26.2631 12.083Z" fill="black"/>
<path d="M22.146 16.7141H21.146C21.146 16.1451 20.683 15.6821 20.115 15.6821C19.547 15.6821 19.084 16.1451 19.084 16.7141H18.084C18.084 15.5941 18.995 14.6821 20.115 14.6821C21.235 14.6821 22.146 15.5941 22.146 16.7141Z" fill="black"/>
<path d="M26.2507 23.0161C26.2537 23.0571 26.2627 23.0981 26.2627 23.1401C26.2627 24.8811 23.5107 26.2931 20.1157 26.2931C16.7207 26.2931 13.9688 24.8811 13.9688 23.1401C13.9688 23.0981 13.9777 23.0581 13.9807 23.0161C15.4797 23.6721 17.6687 24.0871 20.1147 24.0871C22.5608 24.0871 24.7497 23.6711 26.2487 23.0161H26.2507Z" fill="#FF6D00"/>
<path d="M17.3633 25.0219C17.3633 26.2029 18.3213 27.1609 19.5023 27.1609C19.6743 27.1609 19.8143 27.0209 19.8143 26.8489V24.0809C18.9563 24.0689 18.1333 24.0079 17.3633 23.9009V25.0219Z" fill="white"/>
<path d="M20.4141 24.0799V26.8469C20.4141 27.0199 20.5541 27.1599 20.7271 27.1599C21.9081 27.1599 22.8661 26.2019 22.8661 25.0209V23.8999C22.0961 24.0069 21.2721 24.0679 20.4141 24.0799Z" fill="white"/>
</g>
<defs>
<clipPath id="clip0_1373_3749">
<rect width="40" height="40" fill="white"/>
</clipPath>
</defs>
</svg>
