<svg width="35" height="62" viewBox="0 0 35 62" fill="none" xmlns="http://www.w3.org/2000/svg">
<path d="M17.348 42.2507C14.7782 42.2507 12.6962 40.1686 12.6962 37.5988C12.6962 30.0266 17.3069 26.3521 20.67 23.6687C23.3788 21.5083 24.9399 20.1666 25.5079 17.6947C25.9682 15.689 25.6215 13.9948 24.4424 12.516C22.9126 10.5965 20.0628 9.30373 17.348 9.30373C13.8087 9.30373 10.7218 11.5699 9.66805 14.9428C9.42713 15.7145 9.30373 16.5234 9.30373 17.348C9.30373 19.9178 7.22166 21.9999 4.65187 21.9999C2.08208 21.9999 0 19.9178 0 17.348C0 15.5793 0.26638 13.8361 0.787389 12.1654C3.06142 4.89083 9.71702 0 17.3461 0C22.9107 0 28.4185 2.57566 31.7189 6.72023C34.6491 10.3986 35.6637 15.0368 34.5727 19.7768C33.2506 25.5353 29.4899 28.5341 26.4677 30.9452C23.3671 33.4171 21.9979 34.6334 21.9979 37.5988C21.9979 40.1686 19.9178 42.2507 17.348 42.2507Z" fill="#D5DADF"/>
<path d="M17.4107 47.7505C13.5051 47.7505 10.3398 50.9157 10.3398 54.8213C10.3398 58.7269 13.5051 61.8922 17.4107 61.8922C21.3163 61.8922 24.4815 58.7269 24.4815 54.8213C24.4815 50.9157 21.3163 47.7505 17.4107 47.7505Z" fill="#D5DADF"/>
</svg>
