<svg width="40" height="40" viewBox="0 0 40 40" fill="none" xmlns="http://www.w3.org/2000/svg">
<g clip-path="url(#clip0_1373_4010)">
<path d="M26.0091 10.51C25.7191 5.49 21.5591 1.5 16.4591 1.5C11.3591 1.5 7.18914 5.49 6.89914 10.51H6.86914V15.83C13.1391 15.83 18.2191 20.91 18.2191 27.17C18.2191 33.21 13.4791 38.15 7.50914 38.49C13.9891 38.28 19.6491 34.85 22.9491 29.75C24.8991 26.75 26.0391 23.18 26.0391 19.34V10.51H26.0091ZM19.8791 14.75C18.5191 14.75 17.3091 14.15 16.4691 13.22L16.4591 13.23C16.4591 13.23 16.4491 13.22 16.4391 13.22C15.5991 14.15 14.3891 14.75 13.0291 14.75C10.6091 14.75 8.64914 12.88 8.47914 10.51C8.46914 10.4 8.43914 10.29 8.43914 10.17C8.43914 7.64 10.4991 5.59 13.0291 5.59C14.3991 5.59 15.6191 6.2 16.4591 7.15C17.2991 6.2 18.5091 5.59 19.8791 5.59C22.4091 5.59 24.4691 7.64 24.4691 10.17C24.4691 10.29 24.4391 10.4 24.4291 10.51C24.2591 12.88 22.2991 14.75 19.8791 14.75Z" fill="#D0D6DE"/>
<path d="M19.8795 5.59009C18.5095 5.59009 17.2995 6.20009 16.4595 7.15009C15.6195 6.20009 14.3995 5.59009 13.0295 5.59009C10.4995 5.59009 8.43945 7.64009 8.43945 10.1701C8.43945 10.2901 8.46945 10.4001 8.47945 10.5101C8.64945 12.8801 10.6095 14.7501 13.0295 14.7501C14.3895 14.7501 15.5995 14.1501 16.4395 13.2201C16.3595 13.1501 15.9395 12.7501 15.7995 12.2301C15.7795 12.1301 15.7595 12.0301 15.7595 11.9301C15.7595 11.2001 16.4595 10.6201 16.4595 10.6201C16.4595 10.6201 17.1495 11.2001 17.1495 11.9301C17.1495 12.5901 16.5595 13.1401 16.4695 13.2201C17.3095 14.1501 18.5195 14.7501 19.8795 14.7501C22.2995 14.7501 24.2595 12.8801 24.4295 10.5101C24.4395 10.4001 24.4695 10.2901 24.4695 10.1701C24.4695 7.64009 22.4095 5.59009 19.8795 5.59009ZM13.0295 11.7001C12.1895 11.7001 11.4995 11.0201 11.4995 10.1701C11.4995 9.33009 12.1895 8.64009 13.0295 8.64009C13.8795 8.64009 14.5695 9.33009 14.5695 10.1701C14.5695 11.0201 13.8795 11.7001 13.0295 11.7001ZM20.1295 11.7001C19.2895 11.7001 18.5995 11.0201 18.5995 10.1701C18.5995 9.33009 19.2895 8.64009 20.1295 8.64009C20.9795 8.64009 21.6595 9.33009 21.6595 10.1701C21.6595 11.0201 20.9795 11.7001 20.1295 11.7001Z" fill="#F0F3F6"/>
<path d="M14.566 10.1721C14.566 9.32709 13.88 8.64209 13.034 8.64209C12.188 8.64209 11.502 9.32709 11.502 10.1721C11.502 11.0171 12.188 11.7021 13.034 11.7021C13.88 11.7021 14.566 11.0171 14.566 10.1721Z" fill="black"/>
<path d="M21.6656 10.1721C21.6656 9.32709 20.9796 8.64209 20.1336 8.64209C19.2876 8.64209 18.6016 9.32709 18.6016 10.1721C18.6016 11.0171 19.2876 11.7021 20.1336 11.7021C20.9796 11.7021 21.6656 11.0171 21.6656 10.1721Z" fill="black"/>
<path d="M17.1558 11.9259C17.1558 11.2029 16.4568 10.6179 16.4568 10.6179C16.4568 10.6179 15.7578 11.2039 15.7578 11.9259C15.7578 12.0319 15.7758 12.1329 15.8018 12.2319C15.9378 12.7559 16.3628 13.1519 16.4388 13.2189C16.4458 13.2249 16.4568 13.2349 16.4568 13.2349C16.4568 13.2349 16.4678 13.2249 16.4748 13.2189C16.5648 13.1389 17.1548 12.5949 17.1548 11.9269L17.1558 11.9259Z" fill="black"/>
<path d="M32.2571 14.1349C32.0611 13.6669 31.4881 13.4859 31.0361 13.7179L26.0411 16.2899V19.3409C26.0411 23.1819 24.8991 26.7519 22.9531 29.7499C24.3201 29.6079 25.6841 29.2249 26.9791 28.5579C32.2721 25.8319 34.5101 19.5269 32.2571 14.1339V14.1349Z" fill="#8595AA"/>
<path d="M18.2191 27.167C18.2191 20.908 13.1371 15.834 6.86914 15.834V38.501C13.1381 38.501 18.2191 33.426 18.2191 27.167Z" fill="#8595AA"/>
</g>
<defs>
<clipPath id="clip0_1373_4010">
<rect width="40" height="40" fill="white"/>
</clipPath>
</defs>
</svg>
