<svg width="40" height="40" viewBox="0 0 40 40" fill="none" xmlns="http://www.w3.org/2000/svg">
<g clip-path="url(#clip0_1373_3915)">
<path d="M37.2015 18.079L36.7465 16.995C36.2415 15.792 35.6315 14.669 34.9475 13.62C32.7655 10.276 29.7445 7.756 26.2925 6.362C24.3045 5.56 22.1785 5.125 19.9895 5.125C17.8965 5.125 15.8635 5.53 13.9525 6.265C10.4765 7.602 7.4165 10.064 5.1935 13.363C4.3695 14.587 3.6565 15.921 3.0845 17.358L2.6905 18.347C-1.3135 28.385 5.2895 35.544 15.1575 35.544H24.8455C34.8285 35.544 41.4295 28.145 37.2035 18.08L37.2015 18.079ZM14.0655 27.545C13.4505 28.921 12.6855 29.447 10.9485 29.447C10.7995 29.447 10.6495 29.439 10.4975 29.423C8.5785 29.215 7.4595 27.454 7.7055 25.837C8.5535 20.264 12.5105 18.299 16.5565 18.522C18.4825 18.629 19.6615 19.828 19.6575 21.46C19.6505 23.745 18.7465 24.204 16.8705 24.678C15.5345 25.016 14.7995 25.902 14.0655 27.545ZM20.1875 31.441C18.4005 31.441 16.9525 30.321 16.9525 28.938C16.9525 27.555 20.1875 27.453 20.1875 27.453C20.1875 27.453 23.4225 27.556 23.4225 28.938C23.4225 30.32 21.9745 31.441 20.1875 31.441ZM29.5245 29.423C29.3725 29.439 29.2225 29.447 29.0735 29.447C27.3365 29.447 26.5715 28.921 25.9565 27.545C25.2225 25.901 24.4875 25.015 23.1515 24.678C21.2755 24.204 20.3705 23.745 20.3645 21.46C20.3595 19.829 21.5385 18.629 23.4645 18.522C27.5115 18.298 31.4675 20.264 32.3155 25.837C32.5615 27.455 31.4445 29.216 29.5245 29.423Z" fill="#D0D6DE"/>
<path d="M12.9766 21.6189C11.9176 21.6189 11.0586 22.4779 11.0586 23.5369C11.0586 24.5959 11.9176 25.4549 12.9766 25.4549C14.0356 25.4549 14.8946 24.5959 14.8946 23.5369C14.8946 22.4779 14.0356 21.6189 12.9766 21.6189Z" fill="black"/>
<path d="M27.043 21.6189C25.984 21.6189 25.125 22.4779 25.125 23.5369C25.125 24.5959 25.984 25.4549 27.043 25.4549C28.102 25.4549 28.961 24.5959 28.961 23.5369C28.961 22.4779 28.102 21.6189 27.043 21.6189Z" fill="black"/>
<path d="M13.9502 6.26505C12.9172 5.15505 11.4492 4.45605 9.8132 4.45605C6.6902 4.45605 4.1582 6.98805 4.1582 10.1111C4.1582 11.3231 4.5422 12.4421 5.1912 13.3631C7.4142 10.0641 10.4742 7.60305 13.9502 6.26505Z" fill="#2E3D51"/>
<path d="M34.946 13.6201C35.711 12.6551 36.171 11.4381 36.171 10.1111C36.171 6.98805 33.639 4.45605 30.516 4.45605C28.833 4.45605 27.327 5.19505 26.291 6.36205C29.743 7.75605 32.764 10.2761 34.946 13.6201Z" fill="#2E3D51"/>
<path d="M20.1862 27.4531C20.1862 27.4531 16.9512 27.5561 16.9512 28.9381C16.9512 30.3201 18.3992 31.4411 20.1862 31.4411C21.9732 31.4411 23.4212 30.3211 23.4212 28.9381C23.4212 27.5551 20.1862 27.4531 20.1862 27.4531Z" fill="#2E3D51"/>
<path d="M19.6576 21.4599C19.6626 19.8289 18.4836 18.6289 16.5566 18.5219C12.5096 18.2979 8.55357 20.2639 7.70557 25.8369C7.45957 27.4549 8.57757 29.2159 10.4976 29.4229C10.6496 29.4389 10.7996 29.4469 10.9486 29.4469C12.6856 29.4469 13.4506 28.9209 14.0656 27.5449C14.7996 25.9009 15.5346 25.0149 16.8706 24.6779C18.7466 24.2039 19.6516 23.7449 19.6576 21.4599ZM12.9776 25.4549C11.9186 25.4549 11.0596 24.5959 11.0596 23.5369C11.0596 22.4779 11.9186 21.6189 12.9776 21.6189C14.0366 21.6189 14.8956 22.4779 14.8956 23.5369C14.8956 24.5959 14.0366 25.4549 12.9776 25.4549Z" fill="#495B73"/>
<path d="M23.4653 18.522C21.5393 18.629 20.3603 19.828 20.3653 21.46C20.3723 23.745 21.2762 24.204 23.1522 24.678C24.4882 25.016 25.2232 25.902 25.9572 27.545C26.5722 28.921 27.3373 29.447 29.0743 29.447C29.2233 29.447 29.3733 29.439 29.5253 29.423C31.4443 29.215 32.5633 27.454 32.3173 25.837C31.4693 20.264 27.5113 18.299 23.4653 18.522ZM27.0442 25.455C25.9852 25.455 25.1262 24.596 25.1262 23.537C25.1262 22.478 25.9852 21.619 27.0442 21.619C28.1032 21.619 28.9623 22.478 28.9623 23.537C28.9623 24.596 28.1032 25.455 27.0442 25.455Z" fill="#495B73"/>
</g>
<defs>
<clipPath id="clip0_1373_3915">
<rect width="40" height="40" fill="white"/>
</clipPath>
</defs>
</svg>
