<svg width="40" height="40" viewBox="0 0 40 40" fill="none" xmlns="http://www.w3.org/2000/svg">
<g clip-path="url(#clip0_1373_4159)">
<path d="M11.1507 28.8489C19.2997 36.9979 25.4807 38.8529 30.4047 37.6809C33.1387 37.0299 35.5757 34.8029 37.2037 32.9499C38.4377 31.5439 38.2047 29.3819 36.7247 28.2369L30.2147 23.1989C29.5647 22.6959 28.6417 22.7539 28.0597 23.3359L24.6027 26.7929C24.0687 27.3269 23.2457 27.4329 22.6027 27.0379C21.4917 26.3559 19.6277 25.0339 17.2977 22.7029C14.9677 20.3729 13.6457 18.5089 12.9627 17.3979C12.5677 16.7549 12.6737 15.9319 13.2077 15.3979L16.6647 11.9409C17.2457 11.3599 17.3047 10.4369 16.8017 9.78592L11.7637 3.27592C10.6187 1.79592 8.45572 1.56292 7.05072 2.79692C5.19772 4.42392 2.97072 6.86092 2.31972 9.59592C1.14772 14.5209 3.00272 20.7009 11.1517 28.8499L11.1507 28.8489Z" fill="#23B169"/>
</g>
<defs>
<clipPath id="clip0_1373_4159">
<rect width="40" height="40" fill="white"/>
</clipPath>
</defs>
</svg>
