<svg width="40" height="40" viewBox="0 0 40 40" fill="none" xmlns="http://www.w3.org/2000/svg">
<g clip-path="url(#clip0_1373_4125)">
<path d="M38.0595 10.2299L31.4295 7.08693C31.0765 6.91893 30.8505 6.56293 30.8505 6.17193V3.05093C30.8505 2.63293 30.4825 2.31693 30.0665 2.35693C27.0795 2.64193 25.4115 4.53093 24.5575 5.98793C24.0465 6.85993 23.7845 7.85093 23.7845 8.86193V14.9909C23.7845 16.2159 22.7915 17.2089 21.5665 17.2089H9.03951C8.91851 17.2089 8.80451 17.2339 8.68551 17.2449C7.35651 15.8799 5.68251 15.2619 4.22351 15.7929C1.94351 16.6229 1.05651 19.9369 2.24351 23.1949C2.86851 24.9129 3.94751 26.2659 5.15951 27.0449V36.5649C5.15951 37.1649 5.64551 37.6509 6.24551 37.6509H10.3835C10.9835 37.6509 11.4685 37.1649 11.4685 36.5649V32.2609C11.4685 30.2279 13.1165 28.5789 15.1505 28.5789H21.9695C24.0025 28.5789 25.6515 30.2269 25.6515 32.2609V36.5649C25.6515 37.1649 26.1375 37.6509 26.7375 37.6509H30.8245C31.4245 37.6509 31.9095 37.1649 31.9095 36.5649V18.6609C31.9095 17.5889 32.6125 16.6449 33.6385 16.3359L37.9205 15.0479C38.3375 14.9229 38.6235 14.5379 38.6235 14.1029V11.1209C38.6235 10.7399 38.4035 10.3929 38.0595 10.2299Z" fill="#FDAEB3"/>
<path d="M38.0595 10.2299L31.4295 7.08693C31.0765 6.91893 30.8505 6.56293 30.8505 6.17193V3.05093C30.8505 2.63293 30.4825 2.31693 30.0665 2.35693C27.0795 2.64193 25.4115 4.53093 24.5575 5.98793C24.0465 6.85993 23.7845 7.85093 23.7845 8.86193V14.9909C23.7845 16.2159 22.7915 17.2089 21.5665 17.2089H9.03951C8.91851 17.2089 8.80451 17.2339 8.68551 17.2449C7.35651 15.8799 5.68251 15.2619 4.22351 15.7929C1.94351 16.6229 1.05651 19.9369 2.24351 23.1949C2.41251 23.6589 2.61951 24.0899 2.84751 24.4969C2.98351 24.7379 3.13551 24.9569 3.28851 25.1759L3.96751 24.4969L5.02051 23.4439L6.07351 24.4969L8.04451 26.4679L10.0155 24.4969L11.0685 23.4439L12.1215 24.4969L14.0925 26.4679L16.0635 24.4969L17.1165 23.4439L18.1695 24.4969L20.1405 26.4679L22.1115 24.4969L23.1645 23.4439L24.2175 24.4969L26.1885 26.4679L28.1595 24.4969L29.2125 23.4439L30.2655 24.4969L31.9035 26.1349V18.6599C31.9035 17.5879 32.6065 16.6439 33.6325 16.3349L37.9145 15.0469C38.3315 14.9219 38.6175 14.5369 38.6175 14.1019V11.1199C38.6175 10.7389 38.3975 10.3909 38.0535 10.2279L38.0595 10.2299Z" fill="#A8BFFF"/>
<path d="M30.7658 11.797C31.507 11.797 32.1078 11.1962 32.1078 10.455C32.1078 9.71387 31.507 9.11304 30.7658 9.11304C30.0247 9.11304 29.4238 9.71387 29.4238 10.455C29.4238 11.1962 30.0247 11.797 30.7658 11.797Z" fill="#3D3D3D"/>
</g>
<defs>
<clipPath id="clip0_1373_4125">
<rect width="40" height="40" fill="white"/>
</clipPath>
</defs>
</svg>
