<svg width="40" height="40" viewBox="0 0 40 40" fill="none" xmlns="http://www.w3.org/2000/svg">
<g clip-path="url(#clip0_1455_3178)">
<path d="M25.954 35.802C22.055 35.802 19 31.476 19 25.952V17.043C19 16.49 19.447 16.043 20 16.043C20.553 16.043 21 16.49 21 17.043V25.952C21 30.207 23.269 33.802 25.954 33.802C26.507 33.802 26.954 34.249 26.954 34.802C26.954 35.355 26.507 35.802 25.954 35.802Z" fill="#23B169"/>
<path d="M1.70508 6.48105C4.90108 4.64005 9.49908 4.73205 13.5581 7.07505C17.6161 9.41805 19.9961 13.3551 19.9991 17.0431C16.8031 18.8841 12.2041 18.7921 8.14608 16.4491C4.08808 14.1061 1.70808 10.1691 1.70508 6.48105Z" fill="#68C76F"/>
<path d="M38.294 6.48105C35.098 4.64005 30.5 4.73205 26.441 7.07505C22.383 9.41805 20.003 13.3551 20 17.0431C23.196 18.8841 27.795 18.7921 31.853 16.4491C35.911 14.1061 38.291 10.1691 38.294 6.48105Z" fill="#68C76F"/>
</g>
<defs>
<clipPath id="clip0_1455_3178">
<rect width="40" height="40" fill="white"/>
</clipPath>
</defs>
</svg>
