<svg width="40" height="40" viewBox="0 0 40 40" fill="none" xmlns="http://www.w3.org/2000/svg">
<g clip-path="url(#clip0_1373_4073)">
<path d="M34.5108 26.9761C37.8548 22.3111 38.8708 16.6351 37.2288 11.7941C36.3648 9.24508 34.7008 7.27808 32.5448 6.25608C30.7168 5.38908 28.6708 5.26708 26.9298 5.91608C25.2838 6.53408 23.7918 7.66708 22.6118 9.19308L19.9998 12.5741L17.3878 9.19308C16.2078 7.66708 14.7158 6.53408 13.0698 5.91608C11.3288 5.26808 9.28278 5.38908 7.45478 6.25608C5.29878 7.27808 3.63578 9.24508 2.77078 11.7941C1.12878 16.6361 2.14478 22.3111 5.48878 26.9761C6.03078 27.7331 6.63078 28.4181 7.25578 29.0701L6.64278 29.8631C5.67178 31.1201 5.90378 32.9251 7.16078 33.8971C7.68378 34.3011 8.30278 34.4971 8.91678 34.4971C9.77678 34.4971 10.6278 34.1131 11.1948 33.3791L11.8308 32.5561C14.2348 33.8191 16.9018 34.4971 19.6728 34.4971H20.3288C23.0998 34.4971 25.7668 33.8191 28.1708 32.5561L28.8068 33.3791C29.3738 34.1131 30.2248 34.4971 31.0848 34.4971C31.6988 34.4971 32.3168 34.3021 32.8408 33.8971C34.0978 32.9251 34.3288 31.1201 33.3588 29.8631L32.7458 29.0701C33.3698 28.4181 33.9698 27.7331 34.5128 26.9761H34.5108ZM10.1628 23.6251C7.92978 20.5111 7.18478 16.6851 8.21678 13.6411C8.67778 12.2811 9.39678 11.7001 9.91878 11.4531C10.4528 11.2001 10.8948 11.2451 11.0498 11.3021C11.6928 11.5441 12.3108 12.0301 12.8358 12.7101L16.3648 17.2781L10.8238 24.4501C10.5978 24.1821 10.3708 23.9161 10.1628 23.6251ZM20.3268 28.7451H19.6708C18.2018 28.7451 16.7748 28.4411 15.4368 27.8861L19.9988 21.9811L24.5608 27.8861C23.2228 28.4421 21.7958 28.7451 20.3268 28.7451ZM23.6328 17.2771L27.1618 12.7091C27.6868 12.0291 28.3058 11.5431 28.9478 11.3011C29.1038 11.2441 29.5448 11.1991 30.0788 11.4521C30.6008 11.6991 31.3198 12.2801 31.7808 13.6401C32.8128 16.6841 32.0678 20.5101 29.8348 23.6241C29.6268 23.9151 29.3988 24.1801 29.1738 24.4491L23.6328 17.2771Z" fill="#CF712D"/>
<path d="M16.3652 17.2771L10.8242 24.4491C12.1252 25.9941 13.6992 27.1631 15.4372 27.8851L19.9992 21.9801L16.3652 17.2761V17.2771Z" fill="#B06026"/>
<path d="M6.64303 29.8631C5.67203 31.1201 5.90403 32.9251 7.16103 33.8971C7.68403 34.3011 8.30303 34.4971 8.91703 34.4971C9.77703 34.4971 10.628 34.1131 11.195 33.3791L11.831 32.5561C10.155 31.6761 8.62003 30.4931 7.25603 29.0701L6.64303 29.8631Z" fill="#B06026"/>
<path d="M14.9434 19.1181L16.3664 17.2771L20.0004 21.9811L18.0124 24.5541L14.9434 19.1181Z" fill="#965220"/>
<path d="M28.1705 32.556L24.5625 27.886L26.6865 33.247C26.6865 33.247 27.5615 32.888 28.1705 32.556Z" fill="#965220"/>
</g>
<defs>
<clipPath id="clip0_1373_4073">
<rect width="40" height="40" fill="white"/>
</clipPath>
</defs>
</svg>
