<svg width="40" height="40" viewBox="0 0 40 40" fill="none" xmlns="http://www.w3.org/2000/svg">
<g clip-path="url(#clip0_1373_3895)">
<path d="M19.9688 10.1171C22.5238 10.3831 24.9787 11.7511 26.5007 14.2371L26.9608 14.9881L28.0117 12.9941L22.6788 4.91309L19.9688 10.1171Z" fill="#CECFCF"/>
<path d="M32.4894 24.0199L26.9594 14.9899L26.4994 14.2399C24.9794 11.7499 22.5194 10.3799 19.9694 10.1199C19.5894 10.0799 19.2094 10.0699 18.8294 10.0699L16.9594 3.13989C16.3694 0.889887 14.0694 -0.450113 11.8194 0.139887C9.57938 0.729887 8.22938 3.02989 8.81938 5.27989L11.3394 14.6499L5.60938 24.0199C2.04938 29.8399 6.23938 37.3199 13.0594 37.3199H25.0294C31.8594 37.3199 36.0494 29.8399 32.4894 24.0199ZM15.1094 30.3199C14.1694 30.3199 13.4094 29.5599 13.4094 28.6199C13.4094 27.6799 14.1694 26.9199 15.1094 26.9199C16.0494 26.9199 16.8194 27.6799 16.8194 28.6199C16.8194 29.5599 16.0494 30.3199 15.1094 30.3199ZM20.6194 32.6099L19.3494 34.4899C19.1594 34.7699 18.7394 34.7699 18.5494 34.4899L17.2794 32.6099C17.0594 32.2899 17.2894 31.8499 17.6794 31.8499H20.2194C20.6094 31.8499 20.8394 32.2899 20.6194 32.6099ZM22.9794 30.3199C22.0394 30.3199 21.2794 29.5599 21.2794 28.6199C21.2794 27.6799 22.0394 26.9199 22.9794 26.9199C23.9194 26.9199 24.6794 27.6799 24.6794 28.6199C24.6794 29.5599 23.9194 30.3199 22.9794 30.3199Z" fill="#DFDFDF"/>
<path d="M35.0637 9.07484L33.0257 5.98584C32.5837 5.31584 31.8337 4.91284 31.0307 4.91284H22.6777L28.0107 12.9938L28.2647 13.3788C29.4527 15.2568 31.9387 15.8148 33.8167 14.6268C35.6947 13.4388 36.2517 10.9528 35.0637 9.07484Z" fill="#DFDFDF"/>
<path d="M15.1131 26.9209C14.1741 26.9209 13.4121 27.6819 13.4121 28.6219C13.4121 29.5619 14.1741 30.3229 15.1131 30.3229C16.0521 30.3229 16.8141 29.5619 16.8141 28.6219C16.8141 27.6819 16.0531 26.9209 15.1131 26.9209Z" fill="black"/>
<path d="M22.9823 26.9209C22.0433 26.9209 21.2812 27.6819 21.2812 28.6219C21.2812 29.5619 22.0423 30.3229 22.9823 30.3229C23.9223 30.3229 24.6833 29.5619 24.6833 28.6219C24.6833 27.6819 23.9223 26.9209 22.9823 26.9209Z" fill="black"/>
<path d="M20.2224 31.855H17.6814C17.2924 31.855 17.0614 32.29 17.2794 32.613L18.5504 34.488C18.7434 34.772 19.1614 34.772 19.3544 34.488L20.6254 32.613C20.8434 32.291 20.6134 31.855 20.2234 31.855H20.2224Z" fill="black"/>
</g>
<defs>
<clipPath id="clip0_1373_3895">
<rect width="40" height="40" fill="white"/>
</clipPath>
</defs>
</svg>
