<svg width="40" height="40" viewBox="0 0 40 40" fill="none" xmlns="http://www.w3.org/2000/svg">
<g clip-path="url(#clip0_1455_3160)">
<path d="M19.4922 36.4919H15.4922C15.4922 24.9129 24.9122 15.4919 36.4922 15.4919V19.4919C27.1182 19.4919 19.4922 27.1179 19.4922 36.4919Z" fill="#23B169"/>
<path d="M15.4922 36.4919H11.4922C11.4922 22.7069 22.7072 11.4919 36.4922 11.4919V15.4919C24.9122 15.4919 15.4922 24.9129 15.4922 36.4919Z" fill="#FFCD00"/>
<path d="M11.4922 36.4919H7.49219C7.49219 20.5019 20.5012 7.49194 36.4922 7.49194V11.4919C22.7072 11.4919 11.4922 22.7069 11.4922 36.4919Z" fill="#FF9C00"/>
<path d="M7.49227 36.492H4.51527C3.95427 36.492 3.49127 36.028 3.50827 35.468C4.04127 18.084 18.0843 4.04102 35.4683 3.50802C36.0293 3.49102 36.4923 3.95402 36.4923 4.51502V7.49202C20.4763 7.49202 7.49227 20.476 7.49227 36.492Z" fill="#EF4452"/>
<path d="M23.4922 36.4919H19.4922C19.4922 27.1179 27.1182 19.4919 36.4922 19.4919V23.4919C29.3242 23.4919 23.4922 29.3239 23.4922 36.4919Z" fill="#466CFB"/>
</g>
<defs>
<clipPath id="clip0_1455_3160">
<rect width="40" height="40" fill="white"/>
</clipPath>
</defs>
</svg>
