<svg width="40" height="40" viewBox="0 0 40 40" fill="none" xmlns="http://www.w3.org/2000/svg">
<g clip-path="url(#clip0_1455_3130)">
<path d="M35.86 30.72L30.58 34.78C29.64 35.5 28.28 35.26 27.66 34.25L20 21.88L12.34 34.25C11.72 35.26 10.36 35.5 9.42004 34.78L4.14004 30.72C3.25004 30.04 3.09004 28.77 3.78004 27.89L7.90004 22.67C8.74004 22.74 9.62004 22.57 10.43 22.09L17.48 17.97C17.52 17.98 17.56 17.99 17.6 18C17.9 18.09 18.2 18.15 18.52 18.15H21.48C21.84 18.15 22.19 18.08 22.52 17.97L29.57 22.09C30.38 22.57 31.26 22.74 32.1 22.67L36.22 27.89C36.91 28.77 36.75 30.04 35.86 30.72Z" fill="#D12030"/>
<path d="M10.4327 22.0901L17.4837 17.9671C16.1557 17.5281 15.1917 16.2921 15.1917 14.8171V12.0701C15.1917 10.6021 16.1467 9.37111 17.4637 8.92611L10.2357 5.27611C7.61974 3.95511 4.43174 5.53011 3.96774 8.42311C3.52374 11.1941 3.29174 14.8231 3.89874 18.9071C4.21774 21.0521 5.95874 22.5111 7.89474 22.6711C8.73774 22.7401 9.61774 22.5661 10.4327 22.0901Z" fill="#EF4452"/>
<path d="M24.8096 12.07V14.817C24.8096 16.292 23.8446 17.529 22.5176 17.967L29.5686 22.09C30.3836 22.567 31.2626 22.741 32.1056 22.671C34.0416 22.512 35.7826 21.052 36.1016 18.907C36.7086 14.823 36.4766 11.194 36.0326 8.42301C35.5686 5.52901 32.3806 3.95501 29.7646 5.27601L22.5366 8.926C23.8546 9.371 24.8096 10.603 24.8096 12.07Z" fill="#EF4452"/>
<path d="M15.1914 12.07V14.817C15.1914 16.292 16.1564 17.529 17.4834 17.967C17.5224 17.98 17.5624 17.992 17.6024 18.004C17.8964 18.089 18.2014 18.149 18.5234 18.149H21.4764C21.8424 18.149 22.1874 18.076 22.5164 17.967C23.8444 17.528 24.8084 16.292 24.8084 14.817V12.07C24.8084 10.602 23.8534 9.37104 22.5364 8.92604C22.2014 8.81304 21.8494 8.73804 21.4764 8.73804H18.5234C18.1504 8.73804 17.7984 8.81304 17.4634 8.92604C16.1454 9.37104 15.1914 10.603 15.1914 12.07Z" fill="#E32939"/>
</g>
<defs>
<clipPath id="clip0_1455_3130">
<rect width="40" height="40" fill="white"/>
</clipPath>
</defs>
</svg>
