<svg width="40" height="40" viewBox="0 0 40 40" fill="none" xmlns="http://www.w3.org/2000/svg">
<g clip-path="url(#clip0_1373_4207)">
<path d="M10.0998 34.4939C11.3408 33.2529 11.3408 31.2399 10.0998 29.9989C8.85884 28.7579 6.84584 28.7579 5.60484 29.9989C4.36384 31.2399 3.33984 36.7599 3.33984 36.7599C3.33984 36.7599 8.85884 35.7359 10.1008 34.4949L10.0998 34.4939Z" fill="#FF3D29"/>
<path d="M15.0861 33.8128L6.29006 25.0168C5.99806 24.7248 6.09906 24.2308 6.48106 24.0758L10.5251 22.4348L17.6911 29.6008L16.0251 33.6258C15.8681 34.0048 15.3771 34.1028 15.0861 33.8128Z" fill="#8595AA"/>
<path d="M35.6201 8.7888L29.4801 34.9008C28.8371 37.6358 25.4411 38.6018 23.4551 36.6148L3.48408 16.6428C1.49808 14.6568 2.46408 11.2608 5.19808 10.6178L31.3101 4.4778C33.9021 3.8688 36.2301 6.1968 35.6211 8.7888H35.6201Z" fill="#8595AA"/>
<path d="M36.3604 3.73853C38.9689 6.34705 38.9682 10.5819 36.3604 13.1897L18.1913 31.3588L8.74006 21.9076L26.9092 3.73853C29.5177 1.13002 33.7525 1.13072 36.3604 3.73853Z" fill="#D0D6DE"/>
<path d="M30.1302 13.8148C32.2548 13.8148 33.9772 12.0925 33.9772 9.96785C33.9772 7.84321 32.2548 6.12085 30.1302 6.12085C28.0056 6.12085 26.2832 7.84321 26.2832 9.96785C26.2832 12.0925 28.0056 13.8148 30.1302 13.8148Z" fill="#6BA0FF"/>
</g>
<defs>
<clipPath id="clip0_1373_4207">
<rect width="40" height="40" fill="white"/>
</clipPath>
</defs>
</svg>
