<svg width="40" height="40" viewBox="0 0 40 40" fill="none" xmlns="http://www.w3.org/2000/svg">
<g clip-path="url(#clip0_1373_4143)">
<path d="M4.73633 20.3608H36.5563V34.9078C36.5563 36.0618 35.6193 36.9998 34.4643 36.9998H6.82833C5.67433 36.9998 4.73633 36.0628 4.73633 34.9078V20.3608Z" fill="#333333"/>
<path d="M4.73633 16.8198H35.2973C35.9923 16.8198 36.5563 17.3838 36.5563 18.0788V21.6358C36.5563 22.3308 35.9923 22.8948 35.2973 22.8948H5.99533C5.30033 22.8948 4.73633 22.3308 4.73633 21.6358V16.8198Z" fill="#3D3D3D"/>
<path d="M17.0798 16.8198L11.3008 22.8938H15.7708L21.5498 16.8198H17.0798Z" fill="#D0D6DE"/>
<path d="M8.76133 16.8198L4.73633 21.0488V22.8938H7.45233L13.2313 16.8198H8.76133Z" fill="#D0D6DE"/>
<path d="M25.5017 16.8198L19.7227 22.8938H24.1927L29.9727 16.8198H25.5017Z" fill="#D0D6DE"/>
<path d="M35.2965 16.8198H33.9255L28.1465 22.8938H32.6165L36.5555 18.7538V18.0778C36.5555 17.3828 35.9915 16.8198 35.2965 16.8198Z" fill="#D0D6DE"/>
<path d="M32.6835 3.04296L4.38047 10.627C3.70947 10.807 3.31047 11.497 3.49047 12.169L4.73647 16.82L34.2565 8.90996C34.9275 8.72996 35.3265 8.03996 35.1465 7.36796L34.2265 3.93296C34.0465 3.26196 33.3555 2.86296 32.6835 3.04296Z" fill="#3D3D3D"/>
<path d="M16.6579 13.6249L9.50391 9.25392L13.8219 8.09692L20.9759 12.4679L16.6579 13.6249Z" fill="#D0D6DE"/>
<path d="M8.62251 15.778L3.64051 12.734L3.48851 12.168C3.30851 11.497 3.70751 10.806 4.37851 10.627L5.78551 10.25L12.9395 14.621L8.62251 15.778Z" fill="#D0D6DE"/>
<path d="M24.7937 11.445L17.6387 7.07399L21.9567 5.91699L29.1117 10.288L24.7937 11.445Z" fill="#D0D6DE"/>
<path d="M35.4713 8.58406L32.9313 9.26506L25.7773 4.89406L30.0953 3.73706L34.9713 6.71606L35.4713 8.58406Z" fill="#D0D6DE"/>
</g>
<defs>
<clipPath id="clip0_1373_4143">
<rect width="40" height="40" fill="white"/>
</clipPath>
</defs>
</svg>
