<svg width="40" height="40" viewBox="0 0 40 40" fill="none" xmlns="http://www.w3.org/2000/svg">
<g clip-path="url(#clip0_1373_3733)">
<path d="M20 37.5C29.665 37.5 37.5 29.665 37.5 20C37.5 10.335 29.665 2.5 20 2.5C10.335 2.5 2.5 10.335 2.5 20C2.5 29.665 10.335 37.5 20 37.5Z" fill="#FFC84D"/>
<path d="M29.5458 21.4109C30.2788 21.4109 30.8708 22.0669 30.7358 22.7869C29.9328 27.0849 25.4278 30.3759 19.9908 30.3759C14.5538 30.3759 10.0488 27.0849 9.24584 22.7869C9.11084 22.0669 9.70384 21.4109 10.4358 21.4109H29.5458Z" fill="#FF6D00"/>
<path d="M19.9915 23.9439C23.5565 23.9439 26.8555 23.0039 29.5465 21.4109H10.4355C13.1265 23.0039 16.4265 23.9439 19.9915 23.9439Z" fill="white"/>
<path d="M15.4226 17.7561C16.5901 17.7561 17.5366 16.8096 17.5366 15.6421C17.5366 14.4745 16.5901 13.5281 15.4226 13.5281C14.2551 13.5281 13.3086 14.4745 13.3086 15.6421C13.3086 16.8096 14.2551 17.7561 15.4226 17.7561Z" fill="black"/>
<path d="M24.5788 17.7561C25.7464 17.7561 26.6928 16.8096 26.6928 15.6421C26.6928 14.4745 25.7464 13.5281 24.5788 13.5281C23.4113 13.5281 22.4648 14.4745 22.4648 15.6421C22.4648 16.8096 23.4113 17.7561 24.5788 17.7561Z" fill="black"/>
</g>
<defs>
<clipPath id="clip0_1373_3733">
<rect width="40" height="40" fill="white"/>
</clipPath>
</defs>
</svg>
