<svg width="40" height="40" viewBox="0 0 40 40" fill="none" xmlns="http://www.w3.org/2000/svg">
<path d="M35.0135 27.1172L32.0385 25.3572L30.0605 26.0002L30.2945 27.8112L33.4865 29.6992C33.7255 29.8412 33.9895 29.9082 34.2495 29.9082C34.7625 29.9082 35.2615 29.6452 35.5415 29.1722C35.9635 28.4592 35.7265 27.5392 35.0135 27.1172Z" fill="#C9DCFF"/>
<path d="M9.71638 12.1901L6.51238 10.2991C5.80138 9.88107 4.88138 10.1141 4.45838 10.8291C4.03738 11.5421 4.27438 12.4621 4.98838 12.8831L7.97238 14.6431L9.95038 13.9991L9.71638 12.1901Z" fill="#C9DCFF"/>
<path d="M32.0376 14.643L35.0126 12.883C35.7256 12.461 35.9616 11.541 35.5396 10.828C35.1176 10.115 34.1976 9.87998 33.4846 10.301L30.2926 12.189L30.0586 14L32.0376 14.643Z" fill="#C9DCFF"/>
<path d="M7.97238 25.356L4.98838 27.116C4.27438 27.537 4.03738 28.457 4.45838 29.17C4.73838 29.645 5.23838 29.908 5.75138 29.908C6.01138 29.908 6.27238 29.841 6.51238 29.7L9.71638 27.809L9.95038 25.999L7.97238 25.355V25.356Z" fill="#C9DCFF"/>
<path d="M18.5078 33.2682V36.4502C18.5078 37.2782 19.1798 37.9502 20.0078 37.9502C20.8358 37.9502 21.5078 37.2782 21.5078 36.4502V33.2622L20.0108 31.8992L18.5078 33.2672V33.2682Z" fill="#C9DCFF"/>
<path d="M21.5078 6.73707V3.54907C21.5078 2.72107 20.8358 2.04907 20.0078 2.04907C19.1798 2.04907 18.5078 2.72107 18.5078 3.54907V6.73207L20.0108 8.10007L21.5078 6.73707Z" fill="#C9DCFF"/>
<path d="M32.0382 25.357L34.0002 24.72C34.7902 24.46 35.2202 23.61 34.9602 22.83C34.7002 22.04 33.8602 21.6 33.0702 21.86L28.5902 23.32L22.9602 20L28.5902 16.68L33.0702 18.14C33.2202 18.19 33.3802 18.21 33.5302 18.21C34.1702 18.21 34.7502 17.81 34.9602 17.17C35.2202 16.39 34.7902 15.54 34.0002 15.28L32.0382 14.643L30.0602 14L30.2942 12.189L30.6302 9.58997C30.7402 8.76997 30.1602 8.01997 29.3402 7.90997C28.5202 7.79997 27.7702 8.37997 27.6602 9.20997L27.0202 14.12L21.5102 17.37V10.79L25.0402 7.57997C25.6502 7.02997 25.7002 6.07997 25.1402 5.45997C24.5802 4.84997 23.6302 4.80997 23.0202 5.35997L21.5072 6.73697L20.0102 8.09997L18.5072 6.73197L17.0002 5.35997C16.3802 4.80997 15.4402 4.84997 14.8802 5.45997C14.3202 6.07997 14.3602 7.02997 14.9802 7.57997L18.5102 10.79V17.38L13.0002 14.13L12.3602 9.20997C12.2502 8.37997 11.4902 7.79997 10.6802 7.90997C9.85022 8.01997 9.27022 8.76997 9.38022 9.58997L9.71622 12.191L9.95022 14.001L7.97222 14.645L6.02022 15.281C5.23022 15.541 4.80022 16.391 5.06022 17.171C5.26022 17.811 5.85022 18.211 6.48022 18.211C6.63022 18.211 6.79022 18.191 6.95022 18.141L11.4302 16.681L17.0602 20.001L11.4302 23.321L6.95022 21.861C6.16022 21.601 5.31022 22.041 5.06022 22.831C4.80022 23.611 5.23022 24.461 6.02022 24.721L7.97222 25.357L9.95022 26.001L9.71622 27.811L9.38022 30.411C9.27022 31.231 9.85022 31.981 10.6802 32.091C10.7402 32.101 10.8102 32.101 10.8702 32.101C11.6102 32.101 12.2602 31.551 12.3602 30.791L13.0002 25.871L18.5102 22.621V29.211L14.9802 32.421C14.3602 32.971 14.3202 33.921 14.8802 34.541C15.1702 34.861 15.5802 35.031 15.9902 35.031C16.3502 35.031 16.7102 34.901 17.0002 34.641L18.5072 33.269L20.0102 31.901L21.5072 33.264L23.0202 34.641C23.3102 34.901 23.6702 35.031 24.0302 35.031C24.4402 35.031 24.8402 34.861 25.1402 34.541C25.7002 33.921 25.6502 32.971 25.0402 32.421L21.5102 29.211V22.631L27.0202 25.881L27.6602 30.791C27.7602 31.551 28.4002 32.101 29.1402 32.101C29.2102 32.101 29.2702 32.101 29.3402 32.091C30.1602 31.981 30.7402 31.231 30.6302 30.411L30.2942 27.812L30.0602 26.001L32.0382 25.357Z" fill="#94B8FF"/>
</svg>
