<svg width="40" height="40" viewBox="0 0 40 40" fill="none" xmlns="http://www.w3.org/2000/svg">
<g clip-path="url(#clip0_1373_3763)">
<path d="M20 37.5C29.665 37.5 37.5 29.665 37.5 20C37.5 10.335 29.665 2.5 20 2.5C10.335 2.5 2.5 10.335 2.5 20C2.5 29.665 10.335 37.5 20 37.5Z" fill="#FFC84D"/>
<path d="M30.1598 22.8911C30.0658 22.9121 29.9608 22.9271 29.8648 22.9481C27.7928 25.2331 24.3388 26.5141 20.4178 26.5141C15.2458 26.5141 12.2248 25.2261 10.5678 22.9281C10.5058 22.9141 10.4368 22.9051 10.3758 22.8911C9.9558 22.7961 9.5408 23.0891 9.5808 23.4781C10.0808 28.4171 14.6718 32.2861 20.2678 32.2861C25.8638 32.2861 30.4558 28.4171 30.9548 23.4781C30.9938 23.0881 30.5798 22.7961 30.1598 22.8911Z" fill="#FF6D00"/>
<path d="M20.4184 26.5142C24.3394 26.5142 27.7934 25.2332 29.8654 22.9482C27.0464 23.5602 23.7744 23.9192 20.2684 23.9192C16.7214 23.9192 13.4104 23.5542 10.5684 22.9282C12.2254 25.2262 15.2464 26.5142 20.4184 26.5142Z" fill="white"/>
<path d="M17.1606 19.981L14.3166 19.108C14.1206 19.048 13.9076 19.088 13.7466 19.215L11.4156 21.063C11.0106 21.384 10.4146 21.101 10.4056 20.585L10.3566 17.611C10.3536 17.406 10.2496 17.216 10.0786 17.102L7.60062 15.456C7.17062 15.17 7.25462 14.515 7.74362 14.348L10.5576 13.383C10.7516 13.316 10.9006 13.159 10.9556 12.961L11.7556 10.096C11.8946 9.59899 12.5436 9.47599 12.8536 9.88899L14.6416 12.267C14.7646 12.431 14.9606 12.524 15.1656 12.515L18.1376 12.39C18.6536 12.368 18.9706 12.948 18.6736 13.37L16.9646 15.805C16.8466 15.973 16.8196 16.188 16.8906 16.38L17.9276 19.168C18.1076 19.652 17.6546 20.132 17.1606 19.981Z" fill="#FFF3B8"/>
<path d="M22.8384 19.981L25.6824 19.108C25.8784 19.048 26.0914 19.088 26.2524 19.215L28.5834 21.063C28.9884 21.384 29.5844 21.101 29.5934 20.585L29.6424 17.611C29.6454 17.406 29.7494 17.216 29.9204 17.102L32.3984 15.456C32.8284 15.17 32.7444 14.515 32.2554 14.348L29.4414 13.383C29.2474 13.316 29.0984 13.159 29.0434 12.961L28.2434 10.096C28.1044 9.59899 27.4554 9.47599 27.1454 9.88899L25.3574 12.267C25.2344 12.431 25.0384 12.524 24.8334 12.515L21.8614 12.39C21.3454 12.368 21.0284 12.948 21.3254 13.37L23.0344 15.805C23.1524 15.973 23.1794 16.188 23.1084 16.38L22.0714 19.168C21.8914 19.652 22.3444 20.132 22.8384 19.981Z" fill="#FFF3B8"/>
</g>
<defs>
<clipPath id="clip0_1373_3763">
<rect width="40" height="40" fill="white"/>
</clipPath>
</defs>
</svg>
