<svg width="40" height="40" viewBox="0 0 40 40" fill="none" xmlns="http://www.w3.org/2000/svg">
<g clip-path="url(#clip0_1373_4115)">
<path d="M21.5407 4.54808L24.6497 10.8471C24.8997 11.3541 25.3837 11.7061 25.9437 11.7871L32.8947 12.7971C34.3037 13.0021 34.8667 14.7331 33.8467 15.7271L28.8167 20.6301C28.4117 21.0251 28.2267 21.5931 28.3227 22.1511L29.5097 29.0741C29.7507 30.4771 28.2777 31.5481 27.0167 30.8851L20.7987 27.6161C20.2987 27.3531 19.7007 27.3531 19.1997 27.6161L12.9817 30.8851C11.7217 31.5481 10.2487 30.4771 10.4887 29.0741L11.6757 22.1511C11.7717 21.5941 11.5867 21.0251 11.1817 20.6301L6.15171 15.7271C5.13171 14.7331 5.69471 13.0011 7.10371 12.7971L14.0547 11.7871C14.6147 11.7061 15.0977 11.3541 15.3487 10.8471L18.4577 4.54808C19.0877 3.27108 20.9087 3.27108 21.5387 4.54808H21.5407Z" fill="#FFCD00"/>
<path d="M27.658 4.15204C27.222 4.74504 26.781 6.69404 26.499 8.15604C26.361 8.87104 27.112 9.42404 27.754 9.07904C29.066 8.37404 30.796 7.37404 31.232 6.78104C31.958 5.79404 31.747 4.40604 30.76 3.68004C29.773 2.95404 28.384 3.16504 27.658 4.15204Z" fill="#FFE63B"/>
<path d="M35.9787 21.3251C35.2807 21.0931 33.2907 21.2761 31.8127 21.4601C31.0897 21.5501 30.7967 22.4351 31.3227 22.9391C32.3987 23.9691 33.8847 25.3051 34.5827 25.5371C35.7457 25.9231 37.0007 25.2931 37.3867 24.1301C37.7727 22.9671 37.1427 21.7121 35.9797 21.3261L35.9787 21.3251Z" fill="#FFE63B"/>
<path d="M22.2173 34.5469C22.2213 33.8109 21.4333 31.9749 20.8023 30.6259C20.4933 29.9659 19.5613 29.9609 19.2443 30.6169C18.5973 31.9579 17.7853 33.7839 17.7813 34.5199C17.7743 35.7449 18.7613 36.7439 19.9863 36.7519C21.2113 36.7589 22.2093 35.7719 22.2173 34.5469Z" fill="#FFE63B"/>
<path d="M5.39121 25.5451C6.09221 25.3221 7.59421 24.0041 8.68221 22.9871C9.21421 22.4901 8.93121 21.6011 8.21021 21.5021C6.73421 21.3011 4.74721 21.0941 4.04621 21.3171C2.87921 21.6881 2.23321 22.9361 2.60521 24.1031C2.97721 25.2701 4.22421 25.9171 5.39121 25.5451Z" fill="#FFE63B"/>
<path d="M8.7535 6.76015C9.1825 7.35815 10.8995 8.37915 12.2035 9.10015C12.8405 9.45215 13.5985 8.90915 13.4695 8.19215C13.2045 6.72615 12.7875 4.77215 12.3585 4.17415C11.6445 3.17915 10.2585 2.95015 9.2635 3.66415C8.2685 4.37815 8.0395 5.76415 8.7535 6.75915V6.76015Z" fill="#FFE63B"/>
</g>
<defs>
<clipPath id="clip0_1373_4115">
<rect width="40" height="40" fill="white"/>
</clipPath>
</defs>
</svg>
