<svg width="40" height="40" viewBox="0 0 40 40" fill="none" xmlns="http://www.w3.org/2000/svg">
<g clip-path="url(#clip0_1373_4047)">
<path d="M5.42301 34.5769C-0.681986 28.4729 3.74401 14.1499 9.84801 8.04486L13.512 4.38086C13.512 4.38086 9.92701 11.8469 19.04 20.9599C28.153 30.0729 35.619 26.4879 35.619 26.4879L31.955 30.1519C25.85 36.2569 11.528 40.6809 5.42301 34.5769Z" fill="#A84D71"/>
<path d="M35.7787 26.3296C39.3145 22.7938 37.232 14.9786 31.1273 8.87396C25.0226 2.76928 17.2075 0.686804 13.6717 4.22261C10.1359 7.75842 12.2183 15.5736 18.323 21.6782C24.4277 27.7829 32.2429 29.8654 35.7787 26.3296Z" fill="#FFCD00"/>
<path d="M19.8771 30.851C20.3086 30.4195 19.425 28.8362 17.9035 27.3147C16.382 25.7933 14.7988 24.9097 14.3673 25.3412C13.9358 25.7727 14.8193 27.356 16.3408 28.8774C17.8623 30.3989 19.4455 31.2825 19.8771 30.851Z" fill="#7D404D"/>
<path d="M12.2606 29.8559C12.5624 29.554 11.9438 28.446 10.8789 27.381C9.81393 26.316 8.70589 25.6974 8.40402 25.9993C8.10214 26.3012 8.72074 27.4092 9.7857 28.4742C10.8507 29.5391 11.9587 30.1577 12.2606 29.8559Z" fill="#7D404D"/>
</g>
<defs>
<clipPath id="clip0_1373_4047">
<rect width="40" height="40" fill="white"/>
</clipPath>
</defs>
</svg>
