<svg width="40" height="40" viewBox="0 0 40 40" fill="none" xmlns="http://www.w3.org/2000/svg">
<g clip-path="url(#clip0_1455_3168)">
<path d="M34.1011 25.0199C35.2991 22.8019 34.3631 20.0189 32.1801 18.7589L29.6121 17.2759C30.0251 16.2899 30.2621 15.2279 30.2621 14.1139C30.2621 13.1459 30.0881 12.2139 29.7721 11.3379C30.5351 10.3029 30.9051 8.96193 30.5851 7.51193C30.1941 5.74093 28.7581 4.31293 26.9821 3.94793C25.2471 3.59093 23.6491 4.19793 22.5851 5.31793C21.7581 5.12693 20.8951 5.01593 20.0001 5.01593C19.1051 5.01593 18.2421 5.12793 17.4151 5.31793C16.3511 4.19793 14.7531 3.59093 13.0181 3.94793C11.2421 4.31293 9.80611 5.74093 9.41511 7.51193C9.09511 8.96093 9.46511 10.3029 10.2281 11.3379C9.91211 12.2139 9.73811 13.1449 9.73811 14.1139C9.73811 15.2279 9.97511 16.2899 10.3881 17.2759L7.82611 18.7549C5.61911 20.0289 4.68811 22.8559 5.93111 25.0789C6.33011 25.7929 7.30711 26.4319 8.07211 26.8499C8.47511 27.0699 8.53011 27.6309 8.16411 27.9079C6.92611 28.8449 6.19111 30.3519 6.35811 31.9309C6.70711 35.2429 10.0241 36.9789 12.7931 35.7659L16.9561 33.9409C18.9481 33.0679 21.2141 33.0679 23.2061 33.9409L27.1881 35.6859C29.3851 36.6489 32.0511 35.9029 33.2181 33.8069C34.3791 31.7229 33.7511 29.2109 31.9601 27.8769C31.6011 27.6099 31.6511 27.0589 32.0371 26.8319C32.7731 26.3979 33.7181 25.7359 34.1051 25.0189L34.1011 25.0199Z" fill="#EC6700"/>
<path d="M24.1783 15.7399C24.1783 12.9919 22.3073 11.6909 19.9993 11.6909C17.6913 11.6909 15.8203 12.9919 15.8203 15.7399C15.8203 18.4879 17.6913 18.1639 19.9993 18.1639C22.3073 18.1639 24.1783 18.4879 24.1783 15.7399Z" fill="white"/>
<path d="M22.0267 14.6019C22.0267 13.4819 21.1187 13.3269 19.9997 13.3269C18.8807 13.3269 17.9727 13.4819 17.9727 14.6019C17.9727 15.7219 18.8807 16.6289 19.9997 16.6289C21.1187 16.6289 22.0267 15.7209 22.0267 14.6019Z" fill="#573515"/>
<path d="M17.1479 11.4669C17.7095 11.4669 18.1649 11.0115 18.1649 10.4499C18.1649 9.88819 17.7095 9.43286 17.1479 9.43286C16.5862 9.43286 16.1309 9.88819 16.1309 10.4499C16.1309 11.0115 16.5862 11.4669 17.1479 11.4669Z" fill="#573515"/>
<path d="M22.851 11.4669C23.4127 11.4669 23.868 11.0115 23.868 10.4499C23.868 9.88819 23.4127 9.43286 22.851 9.43286C22.2893 9.43286 21.834 9.88819 21.834 10.4499C21.834 11.0115 22.2893 11.4669 22.851 11.4669Z" fill="#573515"/>
<path d="M20.9208 21.1719H19.0778C17.2679 21.1719 15.8008 22.639 15.8008 24.4489V26.8419C15.8008 28.6517 17.2679 30.1189 19.0778 30.1189H20.9208C22.7306 30.1189 24.1978 28.6517 24.1978 26.8419V24.4489C24.1978 22.639 22.7306 21.1719 20.9208 21.1719Z" fill="#F77F00"/>
</g>
<defs>
<clipPath id="clip0_1455_3168">
<rect width="40" height="40" fill="white"/>
</clipPath>
</defs>
</svg>
