<svg width="40" height="40" viewBox="0 0 40 40" fill="none" xmlns="http://www.w3.org/2000/svg">
<g clip-path="url(#clip0_1373_3945)">
<path d="M15.5043 6.75709C13.6843 4.59809 10.4593 4.32309 8.3003 6.14209C6.1413 7.96209 5.8663 11.1871 7.6853 13.3461L11.0893 17.3851L18.9073 10.7961L15.5043 6.75709Z" fill="#FFC450"/>
<path d="M24.3874 6.75709C26.2074 4.59809 29.4324 4.32309 31.5914 6.14209C33.7504 7.96209 34.0254 11.1871 32.2064 13.3461L28.8024 17.3851L20.9844 10.7961L24.3874 6.75709Z" fill="#FFC450"/>
<path d="M35.3712 16.7312C33.5332 11.5852 28.6582 8.14917 23.1942 8.14917H16.8052C11.3402 8.14917 6.46623 11.5842 4.62823 16.7312L4.25323 17.7812C3.29223 20.4732 3.24922 23.4082 4.13322 26.1272C5.86422 31.4542 10.8292 35.0612 16.4302 35.0612H23.5692C29.1712 35.0612 34.1352 31.4542 35.8662 26.1272C36.7502 23.4082 36.7072 20.4732 35.7462 17.7812L35.3712 16.7312Z" fill="#FFC450"/>
<path d="M23.2816 26.684H23.2986L23.2556 26.4501C23.2476 26.4081 23.2426 26.365 23.2326 26.324L22.5296 22.444H22.5186C22.3456 21.305 21.2896 20.425 19.9986 20.425C18.7076 20.425 17.6526 21.305 17.4786 22.444H17.4676L16.7526 26.3601C16.7526 26.3601 16.7526 26.366 16.7506 26.369L16.7106 26.587H16.7266C16.7086 26.716 16.6836 26.8421 16.6836 26.975C16.6836 28.653 18.1676 30.0131 19.9976 30.0131C21.8276 30.0131 23.3126 28.653 23.3126 26.975C23.3126 26.8751 23.2916 26.781 23.2816 26.684Z" fill="#FF8934"/>
<path d="M16.7186 26.6581C16.7026 26.7631 16.6836 26.8661 16.6836 26.9751C16.6836 28.6531 18.1676 30.0131 19.9976 30.0131C21.8276 30.0131 23.3126 28.6531 23.3126 26.9751C23.3126 26.8751 23.2906 26.7811 23.2806 26.6841H23.2976L23.2936 26.6631C22.3746 26.3841 21.2356 26.2161 19.9986 26.2161C18.7676 26.2161 17.6356 26.3821 16.7186 26.6581Z" fill="black"/>
<path d="M16.1183 23.113C16.9031 23.113 17.5393 22.4768 17.5393 21.692C17.5393 20.9072 16.9031 20.271 16.1183 20.271C15.3335 20.271 14.6973 20.9072 14.6973 21.692C14.6973 22.4768 15.3335 23.113 16.1183 23.113Z" fill="black"/>
<path d="M23.9776 23.113C24.7624 23.113 25.3986 22.4768 25.3986 21.692C25.3986 20.9072 24.7624 20.271 23.9776 20.271C23.1928 20.271 22.5566 20.9072 22.5566 21.692C22.5566 22.4768 23.1928 23.113 23.9776 23.113Z" fill="black"/>
<path d="M9.54177 28.8612C8.31777 28.5302 5.84377 27.8642 4.75977 27.5972C5.57377 29.3122 6.73677 30.8002 8.15377 31.9802L9.82176 29.6552C10.0308 29.3642 9.88777 28.9552 9.54177 28.8612Z" fill="#422709"/>
<path d="M8.57023 24.7391L5.63922 22.2671C5.33622 22.0121 5.42522 21.5241 5.79822 21.3911L8.42723 20.4581C8.78623 20.3301 8.88623 19.8691 8.61123 19.6051L4.95622 16.0901L4.84123 16.1231C4.76923 16.2991 4.69323 16.4721 4.62823 16.6531L4.25323 17.7031C3.29223 20.3951 3.24922 23.3301 4.13322 26.0491C4.27022 26.4701 4.43423 26.8761 4.61023 27.2751C5.43023 26.8911 7.36223 26.0641 8.44323 25.6041C8.79523 25.4541 8.86322 24.9871 8.57122 24.7401L8.57023 24.7391Z" fill="#422709"/>
<path d="M31.3802 19.6051C31.1052 19.8691 31.2052 20.3311 31.5642 20.4581L34.1932 21.3911C34.5662 21.5241 34.6552 22.0111 34.3522 22.2671L31.4212 24.7391C31.1292 24.9861 31.1972 25.4531 31.5492 25.6031C32.6342 26.0641 34.5742 26.8951 35.3892 27.2781C35.5662 26.8781 35.7302 26.4711 35.8682 26.0491C36.7522 23.3301 36.7092 20.3951 35.7482 17.7031L35.3732 16.6531C35.3092 16.4741 35.2332 16.3021 35.1612 16.1261L35.0362 16.0901L31.3812 19.6051H31.3802Z" fill="#422709"/>
<path d="M30.1677 29.655L31.8397 31.985C33.2597 30.803 34.4257 29.313 35.2407 27.595C34.1617 27.86 31.6767 28.53 30.4477 28.862C30.1017 28.955 29.9587 29.364 30.1677 29.655Z" fill="#422709"/>
<path d="M20.4117 29.897C20.2747 29.913 20.1397 29.935 19.9977 29.935C19.8657 29.935 19.7397 29.913 19.6117 29.899C19.0937 31.331 17.8997 33.472 15.2617 34.925C15.6477 34.96 16.0357 34.982 16.4287 34.982H23.5677C23.9737 34.982 24.3757 34.958 24.7747 34.92C22.1447 33.466 20.9397 31.327 20.4127 29.896L20.4117 29.897Z" fill="#422709"/>
</g>
<defs>
<clipPath id="clip0_1373_3945">
<rect width="40" height="40" fill="white"/>
</clipPath>
</defs>
</svg>
