<svg width="40" height="40" viewBox="0 0 40 40" fill="none" xmlns="http://www.w3.org/2000/svg">
<g clip-path="url(#clip0_1373_3821)">
<path d="M18.9709 20.4891C21.2724 18.313 19.5789 12.7847 15.1884 8.14121C10.7979 3.49774 5.37295 1.49753 3.07148 3.67361C0.770008 5.8497 2.4635 11.378 6.854 16.0215C11.2445 20.665 16.6694 22.6652 18.9709 20.4891Z" fill="#88D7D7"/>
<path d="M15.2187 26.0419C19.0946 22.8713 20.9627 18.7436 19.3912 16.8226C17.8197 14.9015 13.4037 15.9144 9.52778 19.085C5.65184 22.2556 3.78371 26.3833 5.35521 28.3044C6.9267 30.2254 11.3427 29.2125 15.2187 26.0419Z" fill="#88D7D7"/>
<path d="M33.1473 16.0207C37.5378 11.3772 39.2313 5.84884 36.9299 3.67275C34.6284 1.49666 29.2035 3.49687 24.813 8.14035C20.4225 12.7838 18.729 18.3122 21.0305 20.4883C23.3319 22.6643 28.7568 20.6641 33.1473 16.0207Z" fill="#88D7D7"/>
<path d="M34.6471 28.3051C36.2186 26.3841 34.3505 22.2564 30.4745 19.0858C26.5986 15.9152 22.1826 14.9022 20.6111 16.8233C19.0396 18.7444 20.9077 22.872 24.7836 26.0427C28.6596 29.2133 33.0756 30.2262 34.6471 28.3051Z" fill="#88D7D7"/>
<path d="M19.8575 16.035C21.4 16.035 22.6505 14.7845 22.6505 13.242C22.6505 11.6994 21.4 10.449 19.8575 10.449C18.3149 10.449 17.0645 11.6994 17.0645 13.242C17.0645 14.7845 18.3149 16.035 19.8575 16.035Z" fill="#FFCCA8"/>
<path d="M20.7657 15.5769H19.6367V16.9359H20.7657V15.5769Z" fill="#FFCCA8"/>
<path d="M18.0649 17.0801L11.0449 22.4191L12.1509 23.8231L17.5749 20.6541V23.8231H21.8749L23.0629 19.4621L25.1999 20.6451C25.8699 21.0161 26.7139 20.7351 27.0289 20.0371L28.3599 17.0801L26.7859 16.5911L25.8719 18.1311C25.7159 18.3931 25.3699 18.4631 25.1289 18.2771C24.2459 17.5931 22.2439 16.1641 20.9369 16.1641C19.2189 16.1641 18.0649 17.0801 18.0649 17.0801Z" fill="#FFCCA8"/>
<path d="M17.2902 14.7511C17.8237 14.7511 18.2562 14.3186 18.2562 13.7851C18.2562 13.2516 17.8237 12.8191 17.2902 12.8191C16.7567 12.8191 16.3242 13.2516 16.3242 13.7851C16.3242 14.3186 16.7567 14.7511 17.2902 14.7511Z" fill="#FFCCA8"/>
<path d="M22.466 14.108C22.9995 14.108 23.432 13.6755 23.432 13.142C23.432 12.6085 22.9995 12.176 22.466 12.176C21.9325 12.176 21.5 12.6085 21.5 13.142C21.5 13.6755 21.9325 14.108 22.466 14.108Z" fill="#FFCCA8"/>
<path d="M17.066 13.687C17.066 13.687 18.893 13.202 19.724 11.954L17.729 11.271C17.729 11.271 16.89 12.504 17.065 13.686L17.066 13.687Z" fill="#333333"/>
<path d="M22.6762 13.2659C22.6762 13.2659 20.7843 13.0329 19.7812 11.8989L21.6812 10.9419C21.6812 10.9419 22.6892 12.0609 22.6762 13.2659Z" fill="#333333"/>
<path d="M19.0338 7.71804L17.2068 12.013C17.1568 12.131 17.2528 12.26 17.3808 12.244L22.0628 11.668C22.1948 11.652 22.2558 11.495 22.1698 11.394L19.0328 7.71704L19.0338 7.71804Z" fill="#076565"/>
<path d="M18.9948 8.36194C19.4709 8.36194 19.8568 7.97601 19.8568 7.49994C19.8568 7.02387 19.4709 6.63794 18.9948 6.63794C18.5187 6.63794 18.1328 7.02387 18.1328 7.49994C18.1328 7.97601 18.5187 8.36194 18.9948 8.36194Z" fill="#EF4452"/>
<path d="M27.9257 17.4901C28.7293 17.4901 29.3807 16.8387 29.3807 16.0351C29.3807 15.2315 28.7293 14.5801 27.9257 14.5801C27.1221 14.5801 26.4707 15.2315 26.4707 16.0351C26.4707 16.8387 27.1221 17.4901 27.9257 17.4901Z" fill="#FFCCA8"/>
<path d="M12.1479 24.313C11.5219 24.816 10.7679 24.991 10.3349 24.558C9.90193 24.125 10.0119 23.313 10.5799 22.745C11.1479 22.177 11.9599 22.067 12.3929 22.5C12.8259 22.933 12.8239 23.769 12.1479 24.313Z" fill="#FFCCA8"/>
<path d="M28.1599 11.8721H27.7129V15.3851H28.1599V11.8721Z" fill="#EF4452"/>
<path d="M29.1235 12.696L27.9995 12.29L27.0275 12.985L27.0675 11.791L26.1055 11.082L27.2535 10.75L27.6305 9.61597L28.3015 10.605L29.4965 10.614L28.7625 11.557L29.1235 12.696Z" fill="#EF4452"/>
<path d="M13.2392 24.1432C13.4548 23.9276 13.3962 23.5195 13.1084 23.2317C12.8206 22.9439 12.4125 22.8853 12.197 23.1009C11.9814 23.3165 12.04 23.7245 12.3278 24.0123C12.6156 24.3002 13.0237 24.3587 13.2392 24.1432Z" fill="#FFCCA8"/>
<path d="M19.4367 13.9464C19.5916 13.937 19.7072 13.764 19.6948 13.56C19.6823 13.3561 19.5467 13.1984 19.3918 13.2078C19.2369 13.2172 19.1214 13.3902 19.1338 13.5942C19.1462 13.7981 19.2818 13.9558 19.4367 13.9464Z" fill="#17202C"/>
<path d="M20.5012 13.8092C20.6561 13.7998 20.7716 13.6268 20.7592 13.4228C20.7468 13.2189 20.6112 13.0612 20.4563 13.0706C20.3014 13.08 20.1858 13.253 20.1982 13.457C20.2107 13.6609 20.3463 13.8186 20.5012 13.8092Z" fill="#17202C"/>
<path d="M16.2373 26.5476L18.7037 27.0693L16.7709 36.2071C16.6269 36.888 15.9572 37.3239 15.2763 37.1798C14.5953 37.0358 14.1595 36.3661 14.3035 35.6852L16.2373 26.5476Z" fill="#FFCCA8"/>
<path d="M19.7276 23.9247L22.2193 24.3077L21.0448 31.948C20.9391 32.6359 20.2948 33.1085 19.6069 33.0028C18.919 32.897 18.4464 32.2527 18.5521 31.5648L19.7276 23.9247Z" fill="#FFCCA8"/>
<path d="M23.1025 29.809L22.1855 23.829L23.0885 19.199L21.6325 17.552L20.1395 19.042L18.7525 17.699L17.4225 19.434L17.2705 22.62L14.5195 27.215L23.1025 29.809Z" fill="#EF4452"/>
<path d="M14.7451 33.6069L17.2115 34.1286L16.772 36.2066C16.628 36.8875 15.9583 37.3234 15.2774 37.1794C14.5964 37.0353 14.1606 36.3656 14.3046 35.6847L14.7451 33.6069Z" fill="#F56570"/>
</g>
<defs>
<clipPath id="clip0_1373_3821">
<rect width="40" height="40" fill="white"/>
</clipPath>
</defs>
</svg>
