<svg width="40" height="40" viewBox="0 0 40 40" fill="none" xmlns="http://www.w3.org/2000/svg">
<g clip-path="url(#clip0_1373_4099)">
<path d="M21.25 4.11712V3.87012C21.25 3.18012 20.69 2.62012 20 2.62012C19.31 2.62012 18.75 3.18012 18.75 3.87012V4.11712C19.165 4.08912 19.578 4.05812 20 4.05812C20.422 4.05812 20.835 4.09012 21.25 4.11712Z" fill="#4B596A"/>
<path d="M21.2507 32.5001C21.2507 32.5301 21.2307 32.5601 21.2307 32.5901C21.2307 32.6301 21.2507 32.6501 21.2507 32.6901C21.2507 35.1801 19.2207 37.2001 16.7407 37.2001C14.2607 37.2001 12.2207 35.1801 12.2207 32.6901C12.2207 32.0001 12.7807 31.4401 13.4707 31.4401C14.1607 31.4401 14.7207 32.0001 14.7207 32.6901C14.7207 33.8001 15.6207 34.7001 16.7407 34.7001C17.8507 34.7001 18.7507 33.8001 18.7507 32.6901C18.7507 32.6501 18.7707 32.6301 18.7707 32.5901C18.7707 32.5601 18.7507 32.5301 18.7507 32.5001V22.6401H21.2507V32.5001Z" fill="#4B596A"/>
<path d="M20.0004 4.05713C19.5784 4.05713 19.1654 4.08913 18.7504 4.11613C9.69039 4.72113 2.40239 11.8001 1.50839 20.7781C1.40939 21.7741 2.19939 22.6411 3.19939 22.6411H7.49939C7.49939 12.3771 13.0964 4.05713 20.0004 4.05713Z" fill="#2F81F9"/>
<path d="M21.25 4.11711C20.835 4.08911 20.422 4.05811 20 4.05811C26.904 4.05811 32.5 12.3781 32.5 22.6421H36.8C37.8 22.6421 38.59 21.7751 38.491 20.7791C37.597 11.8011 30.309 4.72211 21.249 4.11811L21.25 4.11711Z" fill="#2F81F9"/>
<path d="M20 4.05713C13.096 4.05713 7.5 12.3771 7.5 22.6411H14.5C14.5 12.3771 16.962 4.05713 20 4.05713Z" fill="#64A7FF"/>
<path d="M20 4.05713C23.038 4.05713 25.5 12.3771 25.5 22.6411H32.5C32.5 12.3771 26.904 4.05713 20 4.05713Z" fill="#64A7FF"/>
<path d="M20 4.05713C16.962 4.05713 14.5 12.3771 14.5 22.6411H25.5C25.5 12.3771 23.038 4.05713 20 4.05713Z" fill="#2F81F9"/>
</g>
<defs>
<clipPath id="clip0_1373_4099">
<rect width="40" height="40" fill="white"/>
</clipPath>
</defs>
</svg>
