<svg width="40" height="41" viewBox="0 0 40 41" fill="none" xmlns="http://www.w3.org/2000/svg">
<g clip-path="url(#clip0_1469_3192)">
<path d="M9.35754 11.0703L5.24854 15.5693C4.58454 16.2963 4.44654 17.3593 4.90154 18.2323L6.38454 21.0753C6.59954 21.4873 6.56554 21.9853 6.29654 22.3643L4.16954 25.3643C3.61754 26.1433 3.59354 27.1793 4.10854 27.9833L5.40554 30.0063C5.81554 30.6453 5.88954 31.4433 5.60554 32.1473L4.01454 36.0843H10.0495L9.35754 11.0703Z" fill="#696C9D"/>
<path d="M22.9666 36.0844H7.75964C7.75964 36.0844 6.39164 11.4944 12.0766 5.01943C12.1736 4.90843 12.3506 4.92243 12.4396 5.03843L16.2096 9.95243C16.4726 10.2954 16.8516 10.5304 17.2756 10.6144L34.5346 14.1094C35.6336 14.3254 36.3786 15.3524 36.2446 16.4634L36.0306 18.2284C35.4276 23.5624 36.2606 25.7864 26.4716 25.5214H20.8156L22.9666 36.0844Z" fill="#B1B3FB"/>
<path d="M21.3046 17.1265C22.2225 17.1265 22.9666 16.3824 22.9666 15.4645C22.9666 14.5466 22.2225 13.8025 21.3046 13.8025C20.3867 13.8025 19.6426 14.5466 19.6426 15.4645C19.6426 16.3824 20.3867 17.1265 21.3046 17.1265Z" fill="black"/>
<path d="M24.6198 3.22153L23.6968 11.9015L17.6348 10.7065L23.7658 2.81653C24.0898 2.43453 24.7108 2.72853 24.6198 3.22153Z" fill="#696C9D"/>
</g>
<defs>
<clipPath id="clip0_1469_3192">
<rect width="40" height="40" fill="white" transform="translate(0 0.104492)"/>
</clipPath>
</defs>
</svg>
