<svg width="41" height="40" viewBox="0 0 41 40" fill="none" xmlns="http://www.w3.org/2000/svg">
<g clip-path="url(#clip0_1469_3200)">
<path d="M3.5499 11.7621C3.4059 11.4981 3.0079 11.5681 2.9709 11.8671C2.7319 13.7831 2.2859 16.0811 3.5139 18.2671C3.6179 18.4521 3.6479 18.6661 3.5729 18.8651C2.8469 20.8031 -0.546099 31.2641 9.2699 34.7671C19.3799 38.3751 31.4849 37.0471 36.1069 36.1001C37.6389 35.7861 38.8319 34.5991 39.1299 33.0631C40.2209 27.4311 38.6559 13.3961 26.6649 12.6761C11.5249 11.7671 11.1479 23.2321 9.3789 26.3271C9.1469 26.7331 8.6559 26.8401 8.2729 26.5731C7.3659 25.9401 5.9549 23.9701 5.6599 21.6261C5.5989 21.1391 5.9389 20.6801 6.4239 20.6051C7.9649 20.3651 10.8129 19.8491 11.8289 18.5691C11.9309 18.4411 11.9329 18.1451 11.5739 18.1111L7.4819 17.0661C6.9769 16.9371 6.5419 16.6171 6.2689 16.1741L3.5499 11.7621Z" fill="#5A81FF"/>
<path d="M36.1067 36.1012C31.4847 37.0472 19.3787 38.3762 9.26973 34.7682C4.71373 33.1422 3.00473 30.0172 2.55273 26.9412C5.48773 31.7832 10.8697 33.3122 14.1677 33.9152C14.6387 34.0012 16.1587 32.4532 16.4967 32.5022C16.9307 32.5642 18.0567 34.1722 18.4367 34.1702C23.4017 34.1432 34.3857 34.1852 38.7367 34.1702C38.1637 35.2262 37.2077 35.8782 36.1067 36.1032V36.1012Z" fill="#CCD7FF"/>
<path d="M20.6123 32.5C21.3259 32.5 21.9043 31.9216 21.9043 31.208C21.9043 30.4945 21.3259 29.916 20.6123 29.916C19.8988 29.916 19.3203 30.4945 19.3203 31.208C19.3203 31.9216 19.8988 32.5 20.6123 32.5Z" fill="black"/>
<path d="M21.4309 5.82201C24.6809 5.64701 24.5209 11.829 24.5209 11.829C24.5209 11.829 22.7539 9.71101 21.6619 9.77401C20.5709 9.83801 19.6339 9.00501 19.5699 7.91401C19.5059 6.82301 20.3399 5.88101 21.4309 5.82201Z" fill="#5A81FF"/>
<path d="M30.2207 1.76404C25.8317 1.91104 26.0867 9.80204 26.0867 9.80204C26.0867 9.80204 27.6347 6.34204 29.9897 5.71704C31.1067 5.42004 32.0267 4.79004 32.0907 3.69904C32.1547 2.60804 31.3147 1.72804 30.2217 1.76504L30.2207 1.76404Z" fill="#5A81FF"/>
</g>
<defs>
<clipPath id="clip0_1469_3200">
<rect width="40" height="40" fill="white" transform="translate(0.818359)"/>
</clipPath>
</defs>
</svg>
