<svg width="40" height="40" viewBox="0 0 40 40" fill="none" xmlns="http://www.w3.org/2000/svg">
<g clip-path="url(#clip0_1455_3121)">
<path d="M21.1076 26.302H18.8086V38.31H21.1076V26.302Z" fill="#E4E7EA"/>
<path d="M20.5552 35.5869C20.3702 35.3229 19.6292 35.3229 19.4432 35.5869C19.1322 36.0109 14.3582 37.1299 12.8222 38.4649C12.5092 38.7369 12.7272 39.2579 13.1422 39.2579H19.9992H26.8562C27.2712 39.2579 27.4892 38.7369 27.1762 38.4649C25.6412 37.1299 20.8662 36.0109 20.5552 35.5869Z" fill="#E5E9EE"/>
<path d="M21.148 31.2539C21.148 29.5979 22.139 28.0829 23.631 27.6329C29.229 25.9449 33.333 20.4569 33.333 13.9369C33.333 11.1609 31.671 6.61894 29.521 1.90294C29.198 1.19294 28.484 0.741943 27.704 0.741943H12.295C11.515 0.741943 10.802 1.19394 10.478 1.90294C8.32802 6.61894 6.66602 11.1609 6.66602 13.9369C6.66602 20.4559 10.77 25.9449 16.368 27.6329C17.86 28.0829 18.851 29.5969 18.851 31.2539H21.146H21.148Z" fill="#E5E9EE"/>
<path d="M31.4056 14.1199C31.4056 14.1199 31.4056 10.5169 26.5406 10.8359C23.3336 11.0459 21.3896 16.2009 14.5786 14.7919C9.35855 13.7119 18.0986 20.4319 18.0986 20.4319H28.1926C28.1926 20.4319 31.1026 18.2089 31.4066 14.1209L31.4056 14.1199Z" fill="#D12030"/>
<path d="M31.4057 14.12C31.4057 20.847 26.2997 26.301 20.0007 26.301C13.7017 26.301 8.5957 20.847 8.5957 14.12C8.5957 14.12 8.5957 7.91797 20.0007 14.12C27.1047 17.983 31.4057 14.12 31.4057 14.12Z" fill="#A41926"/>
</g>
<defs>
<clipPath id="clip0_1455_3121">
<rect width="40" height="40" fill="white"/>
</clipPath>
</defs>
</svg>
