<svg width="40" height="40" viewBox="0 0 40 40" fill="none" xmlns="http://www.w3.org/2000/svg">
<g clip-path="url(#clip0_1373_4002)">
<path d="M21.6691 3.09877L16.8301 7.66277L23.6671 11.5778C23.6671 11.5778 24.2551 6.43877 22.8051 3.30177C22.6031 2.86477 22.0191 2.76777 21.6691 3.09877Z" fill="#8595AA"/>
<path d="M36.4079 17.2809L26.5979 14.3889C26.5979 14.3889 26.1019 10.4249 21.3949 8.56989C20.2589 8.12189 19.2489 7.40389 18.3799 6.54589L14.4469 2.66189C14.0249 2.18489 13.2539 2.29289 12.9779 2.86689L9.75286 9.59389C9.55286 10.0119 9.21086 10.3589 8.77486 10.5169C7.11986 11.1179 3.31386 14.1129 2.60386 19.0259C2.52986 19.5349 2.86986 20.0299 3.37486 20.1259L6.81586 20.7809C7.44086 21.0339 7.76186 21.7279 7.54086 22.3649C6.72286 24.7149 5.57786 30.3959 11.1129 35.2989C11.2219 35.3949 11.3869 35.3869 11.4779 35.2729C12.0129 34.6049 13.7429 32.4419 14.7779 31.1479C15.0969 30.7489 15.7159 30.8709 15.8829 31.3539C16.4759 33.0689 18.1799 36.1609 22.9459 37.6279C23.0929 37.6729 23.2469 37.5529 23.2269 37.3999C23.0459 36.0479 22.7599 30.9029 28.6109 29.6709C34.9419 28.3379 33.8699 26.4129 37.2589 19.3259C37.6399 18.5289 37.2419 17.5709 36.4069 17.2809H36.4079Z" fill="#ABB7C7"/>
<path d="M37.2603 19.3258L36.0033 22.1648C36.0033 22.1648 31.2293 20.2478 32.2933 16.0688L36.3703 17.2688C37.2153 17.5628 37.6593 18.5248 37.2603 19.3258Z" fill="#495B73"/>
<path d="M21.1599 17.2429C22.3506 17.2429 23.3159 16.2776 23.3159 15.0869C23.3159 13.8962 22.3506 12.9309 21.1599 12.9309C19.9692 12.9309 19.0039 13.8962 19.0039 15.0869C19.0039 16.2776 19.9692 17.2429 21.1599 17.2429Z" fill="black"/>
</g>
<defs>
<clipPath id="clip0_1373_4002">
<rect width="40" height="40" fill="white"/>
</clipPath>
</defs>
</svg>
