<svg width="40" height="40" viewBox="0 0 40 40" fill="none" xmlns="http://www.w3.org/2000/svg">
<g clip-path="url(#clip0_1373_4192)">
<path d="M29.7935 5.20801H10.2045C5.98288 5.20801 2.56055 8.63034 2.56055 12.852V27.564C2.56055 31.7857 5.98288 35.208 10.2045 35.208H29.7935C34.0152 35.208 37.4375 31.7857 37.4375 27.564V12.852C37.4375 8.63034 34.0152 5.20801 29.7935 5.20801Z" fill="#313D4F"/>
<path d="M20.0004 29.3919C25.0726 29.3919 29.1844 25.2801 29.1844 20.2079C29.1844 15.1357 25.0726 11.0239 20.0004 11.0239C14.9282 11.0239 10.8164 15.1357 10.8164 20.2079C10.8164 25.2801 14.9282 29.3919 20.0004 29.3919Z" fill="#DB5257"/>
<path d="M24.1949 20.6689L17.8849 24.3119C17.5299 24.5169 17.0859 24.2609 17.0859 23.8509V16.5649C17.0859 16.1549 17.5299 15.8989 17.8849 16.1039L24.1949 19.7469C24.5499 19.9519 24.5499 20.4639 24.1949 20.6689Z" fill="#E4E6E9"/>
</g>
<defs>
<clipPath id="clip0_1373_4192">
<rect width="40" height="40" fill="white"/>
</clipPath>
</defs>
</svg>
