<svg width="246" height="20" viewBox="0 0 246 20" fill="none" xmlns="http://www.w3.org/2000/svg">
<path d="M8.82471 12.5059H11.498L10.9487 10.4795C10.6802 9.4541 10.4971 8.66471 10.3994 8.11133C10.3018 7.55794 10.2407 7.03711 10.2163 6.54883H10.1064C10.082 7.03711 10.021 7.55794 9.92334 8.11133C9.82568 8.66471 9.64258 9.4541 9.37402 10.4795L8.82471 12.5059ZM0.304199 19L6.67627 1.12891H13.8296L20.0796 19H13.1704L12.5967 16.7539H7.75049L7.20117 19H0.304199ZM29.6621 12.7256C29.6621 12.1722 29.5156 11.7287 29.2227 11.395C28.9378 11.0614 28.5594 10.8945 28.0874 10.8945C27.6154 10.8945 27.2329 11.0614 26.9399 11.395C26.6551 11.7287 26.5127 12.1722 26.5127 12.7256C26.5127 13.279 26.6551 13.7306 26.9399 14.0806C27.2329 14.4305 27.6154 14.6055 28.0874 14.6055C28.5513 14.6055 28.9297 14.4305 29.2227 14.0806C29.5156 13.7306 29.6621 13.279 29.6621 12.7256ZM20.6777 0.0791016H26.6836V5.95068C26.6836 6.46338 26.6714 6.89876 26.647 7.25684C26.6307 7.61491 26.6022 7.92008 26.5615 8.17236C27.0661 7.44808 27.6398 6.9069 28.2827 6.54883C28.9256 6.18262 29.6418 5.99951 30.4312 5.99951C31.9123 5.99951 33.133 6.618 34.0933 7.85498C35.0535 9.09196 35.5337 10.6911 35.5337 12.6523C35.5337 14.7113 35.0658 16.3633 34.1299 17.6084C33.194 18.8535 31.9611 19.4761 30.4312 19.4761C29.6011 19.4761 28.8442 19.2848 28.1606 18.9023C27.4852 18.5117 26.883 17.9258 26.354 17.1445V19H20.6777V0.0791016ZM44.5059 14.4468C44.9453 14.4468 45.3034 14.2881 45.5801 13.9707C45.8568 13.6533 45.9951 13.2383 45.9951 12.7256C45.9951 12.2048 45.8568 11.7897 45.5801 11.4805C45.3115 11.1631 44.9535 11.0044 44.5059 11.0044C44.0501 11.0044 43.6839 11.1631 43.4072 11.4805C43.1387 11.7897 43.0044 12.2048 43.0044 12.7256C43.0044 13.2464 43.1387 13.6655 43.4072 13.9829C43.6839 14.2922 44.0501 14.4468 44.5059 14.4468ZM51.8789 12.7256C51.8789 13.6777 51.6755 14.5851 51.2686 15.4478C50.8617 16.3104 50.2798 17.0713 49.5229 17.7305C48.8638 18.3001 48.1069 18.7314 47.2524 19.0244C46.4061 19.3255 45.4906 19.4761 44.5059 19.4761C43.5212 19.4761 42.6056 19.3296 41.7593 19.0366C40.9129 18.7437 40.152 18.3083 39.4766 17.7305C38.7279 17.0957 38.146 16.3429 37.731 15.4722C37.3241 14.5933 37.1206 13.6777 37.1206 12.7256C37.1206 11.7653 37.3241 10.8538 37.731 9.99121C38.146 9.12044 38.7279 8.36361 39.4766 7.7207C40.152 7.1429 40.9129 6.70752 41.7593 6.41455C42.6056 6.12158 43.5212 5.9751 44.5059 5.9751C45.4906 5.9751 46.4061 6.12565 47.2524 6.42676C48.1069 6.71973 48.8719 7.15104 49.5474 7.7207C50.2879 8.35547 50.8617 9.10824 51.2686 9.979C51.6755 10.8498 51.8789 11.7653 51.8789 12.7256ZM53.7832 6.37793H59.8135V12.5547C59.8135 13.4417 59.8826 14.0155 60.021 14.2759C60.1675 14.5282 60.432 14.6543 60.8145 14.6543C61.1807 14.6543 61.4329 14.5322 61.5713 14.2881C61.7178 14.0439 61.791 13.4661 61.791 12.5547V6.37793H67.8091V13.1772C67.8091 15.3582 67.2476 16.9533 66.1245 17.9624C65.0096 18.9715 63.2396 19.4761 60.8145 19.4761C58.3812 19.4761 56.599 18.9715 55.4678 17.9624C54.3447 16.9533 53.7832 15.3582 53.7832 13.1772V6.37793ZM71.1416 19V11.0288H69.4204V6.37793H71.1416V2.20312H77.2695V6.37793H79.0151V11.0288H77.2695V19H71.1416ZM101.061 12.6035H98.2656V8.4043H108.141C108.157 8.77051 108.17 9.04313 108.178 9.22217C108.186 9.4012 108.19 9.5599 108.19 9.69824C108.19 10.7236 108.092 11.6595 107.897 12.5059C107.702 13.3522 107.417 14.1009 107.042 14.752C106.131 16.2819 104.955 17.4538 103.515 18.2676C102.074 19.0732 100.438 19.4761 98.6074 19.4761C97.2565 19.4761 95.9992 19.2523 94.8354 18.8047C93.6799 18.349 92.6545 17.6816 91.7593 16.8027C90.8722 15.9238 90.2008 14.9188 89.7451 13.7876C89.2894 12.6564 89.0615 11.4276 89.0615 10.1011C89.0615 8.76644 89.2894 7.53353 89.7451 6.40234C90.209 5.26302 90.8804 4.26204 91.7593 3.39941C92.6463 2.52865 93.6717 1.8654 94.8354 1.40967C95.9992 0.953939 97.2565 0.726074 98.6074 0.726074C100.438 0.726074 102.066 1.12891 103.49 1.93457C104.914 2.7321 106.078 3.90397 106.981 5.4502L101.256 7.57422C100.955 7.0778 100.593 6.70752 100.17 6.46338C99.7467 6.21924 99.2625 6.09717 98.7173 6.09717C97.7651 6.09717 97.0042 6.45931 96.4346 7.18359C95.873 7.90788 95.5923 8.88037 95.5923 10.1011C95.5923 11.3625 95.8771 12.3431 96.4468 13.043C97.0164 13.7347 97.8221 14.0806 98.8638 14.0806C99.4823 14.0806 99.9827 13.9504 100.365 13.6899C100.756 13.4295 100.988 13.0674 101.061 12.6035ZM116.906 13.5435C118.354 13.5353 119.412 13.2546 120.08 12.7012C120.747 12.1396 121.081 11.2648 121.081 10.0767C121.081 8.91292 120.759 8.04622 120.116 7.47656C119.481 6.9069 118.505 6.62207 117.187 6.62207H116.906V13.5435ZM110.534 19V1.12891H115.734C117.386 1.12891 118.794 1.22249 119.958 1.40967C121.129 1.5887 122.082 1.86947 122.814 2.25195C124.36 3.06576 125.544 4.14404 126.366 5.48682C127.196 6.82959 127.611 8.35954 127.611 10.0767C127.611 11.7856 127.2 13.3075 126.378 14.6421C125.556 15.9767 124.368 17.055 122.814 17.877C122.057 18.2676 121.097 18.5524 119.933 18.7314C118.769 18.9105 117.211 19 115.258 19H110.534ZM141.686 12.6035H138.891V8.4043H148.766C148.782 8.77051 148.795 9.04313 148.803 9.22217C148.811 9.4012 148.815 9.5599 148.815 9.69824C148.815 10.7236 148.717 11.6595 148.522 12.5059C148.327 13.3522 148.042 14.1009 147.667 14.752C146.756 16.2819 145.58 17.4538 144.14 18.2676C142.699 19.0732 141.063 19.4761 139.232 19.4761C137.882 19.4761 136.624 19.2523 135.46 18.8047C134.305 18.349 133.279 17.6816 132.384 16.8027C131.497 15.9238 130.826 14.9188 130.37 13.7876C129.914 12.6564 129.687 11.4276 129.687 10.1011C129.687 8.76644 129.914 7.53353 130.37 6.40234C130.834 5.26302 131.505 4.26204 132.384 3.39941C133.271 2.52865 134.297 1.8654 135.46 1.40967C136.624 0.953939 137.882 0.726074 139.232 0.726074C141.063 0.726074 142.691 1.12891 144.115 1.93457C145.539 2.7321 146.703 3.90397 147.606 5.4502L141.881 7.57422C141.58 7.0778 141.218 6.70752 140.795 6.46338C140.372 6.21924 139.888 6.09717 139.342 6.09717C138.39 6.09717 137.629 6.45931 137.06 7.18359C136.498 7.90788 136.217 8.88037 136.217 10.1011C136.217 11.3625 136.502 12.3431 137.072 13.043C137.641 13.7347 138.447 14.0806 139.489 14.0806C140.107 14.0806 140.608 13.9504 140.99 13.6899C141.381 13.4295 141.613 13.0674 141.686 12.6035ZM157.616 14.4468C158.056 14.4468 158.414 14.2881 158.69 13.9707C158.967 13.6533 159.105 13.2383 159.105 12.7256C159.105 12.2048 158.967 11.7897 158.69 11.4805C158.422 11.1631 158.064 11.0044 157.616 11.0044C157.16 11.0044 156.794 11.1631 156.518 11.4805C156.249 11.7897 156.115 12.2048 156.115 12.7256C156.115 13.2464 156.249 13.6655 156.518 13.9829C156.794 14.2922 157.16 14.4468 157.616 14.4468ZM164.989 12.7256C164.989 13.6777 164.786 14.5851 164.379 15.4478C163.972 16.3104 163.39 17.0713 162.633 17.7305C161.974 18.3001 161.217 18.7314 160.363 19.0244C159.516 19.3255 158.601 19.4761 157.616 19.4761C156.632 19.4761 155.716 19.3296 154.87 19.0366C154.023 18.7437 153.262 18.3083 152.587 17.7305C151.838 17.0957 151.256 16.3429 150.841 15.4722C150.434 14.5933 150.231 13.6777 150.231 12.7256C150.231 11.7653 150.434 10.8538 150.841 9.99121C151.256 9.12044 151.838 8.36361 152.587 7.7207C153.262 7.1429 154.023 6.70752 154.87 6.41455C155.716 6.12158 156.632 5.9751 157.616 5.9751C158.601 5.9751 159.516 6.12565 160.363 6.42676C161.217 6.71973 161.982 7.15104 162.658 7.7207C163.398 8.35547 163.972 9.10824 164.379 9.979C164.786 10.8498 164.989 11.7653 164.989 12.7256ZM180.565 8.22119C179.979 7.65967 179.381 7.24056 178.771 6.96387C178.161 6.68717 177.518 6.54883 176.842 6.54883C175.792 6.54883 174.946 6.87435 174.303 7.52539C173.668 8.16829 173.351 9.02686 173.351 10.1011C173.351 11.1509 173.656 11.9891 174.267 12.6157C174.877 13.2424 175.695 13.5557 176.72 13.5557C177.339 13.5557 177.965 13.4255 178.6 13.165C179.243 12.8965 179.943 12.4733 180.7 11.8955L180.492 18.6216C179.792 18.9064 179.092 19.118 178.393 19.2563C177.693 19.4028 176.993 19.4761 176.293 19.4761C175.422 19.4761 174.584 19.3784 173.778 19.1831C172.973 18.9878 172.244 18.7111 171.593 18.353C170.014 17.4416 168.818 16.29 168.004 14.8984C167.199 13.5068 166.796 11.9077 166.796 10.1011C166.796 8.76644 167.024 7.52946 167.479 6.39014C167.943 5.25081 168.615 4.24577 169.494 3.375C170.381 2.49609 171.406 1.83285 172.57 1.38525C173.742 0.929525 175.007 0.70166 176.366 0.70166C177.09 0.70166 177.803 0.778971 178.502 0.933594C179.21 1.08008 179.898 1.30387 180.565 1.60498V8.22119ZM205.126 8.22119C204.54 7.65967 203.942 7.24056 203.332 6.96387C202.721 6.68717 202.078 6.54883 201.403 6.54883C200.353 6.54883 199.507 6.87435 198.864 7.52539C198.229 8.16829 197.912 9.02686 197.912 10.1011C197.912 11.1509 198.217 11.9891 198.827 12.6157C199.438 13.2424 200.255 13.5557 201.281 13.5557C201.899 13.5557 202.526 13.4255 203.161 13.165C203.804 12.8965 204.503 12.4733 205.26 11.8955L205.053 18.6216C204.353 18.9064 203.653 19.118 202.953 19.2563C202.253 19.4028 201.553 19.4761 200.854 19.4761C199.983 19.4761 199.145 19.3784 198.339 19.1831C197.533 18.9878 196.805 18.7111 196.154 18.353C194.575 17.4416 193.379 16.29 192.565 14.8984C191.759 13.5068 191.356 11.9077 191.356 10.1011C191.356 8.76644 191.584 7.52946 192.04 6.39014C192.504 5.25081 193.175 4.24577 194.054 3.375C194.941 2.49609 195.967 1.83285 197.13 1.38525C198.302 0.929525 199.568 0.70166 200.927 0.70166C201.651 0.70166 202.363 0.778971 203.063 0.933594C203.771 1.08008 204.459 1.30387 205.126 1.60498V8.22119ZM207.775 10.8213V1.12891H214.196V10.8701C214.196 12.0013 214.33 12.7826 214.599 13.2139C214.867 13.637 215.327 13.8486 215.978 13.8486C216.621 13.8486 217.081 13.6289 217.357 13.1895C217.634 12.75 217.772 11.9769 217.772 10.8701V1.12891H224.193V10.8213C224.193 12.0908 224.108 13.1366 223.937 13.9585C223.774 14.7804 223.51 15.4681 223.144 16.0215C222.427 17.1364 221.451 17.9909 220.214 18.585C218.977 19.179 217.565 19.4761 215.978 19.4761C214.383 19.4761 212.967 19.179 211.73 18.585C210.493 17.9909 209.516 17.1364 208.8 16.0215C208.442 15.4762 208.182 14.7967 208.019 13.9829C207.856 13.1691 207.775 12.1152 207.775 10.8213ZM227.526 19V1.12891H233.825V8.74609L237.902 1.12891H245.177L239.782 9.93018L245.934 19H238.158L233.825 11.5293V19H227.526Z" fill="black"/>
</svg>
