<svg width="28" height="28" viewBox="0 0 28 28" fill="none" xmlns="http://www.w3.org/2000/svg">
<g clip-path="url(#clip0_3958_3302)">
<path d="M19.2617 3.08789H7.77677C4.79184 3.08789 2.37207 5.50766 2.37207 8.49259V19.9775C2.37207 22.9624 4.79184 25.3822 7.77677 25.3822H19.2617C22.2466 25.3822 24.6664 22.9624 24.6664 19.9775V8.49259C24.6664 5.50766 22.2466 3.08789 19.2617 3.08789Z" fill="#9CC7F9"/>
<path d="M21.0074 11.546C23.8597 11.546 26.172 9.23373 26.172 6.3814C26.172 3.52907 23.8597 1.2168 21.0074 1.2168C18.155 1.2168 15.8428 3.52907 15.8428 6.3814C15.8428 9.23373 18.155 11.546 21.0074 11.546Z" fill="#CF3D40"/>
<path d="M19.5996 5.5476V4.7594L20.8981 3.9082H21.5288V8.6178H20.7154V4.8287L19.5996 5.5476Z" fill="white"/>
</g>
<defs>
<clipPath id="clip0_3958_3302">
<rect width="28" height="28" fill="white"/>
</clipPath>
</defs>
</svg>
