<svg width="44" height="44" viewBox="0 0 44 44" fill="none" xmlns="http://www.w3.org/2000/svg">
<path d="M3.02623 6.90728L6.11613 18.0888L16.532 9.48458L6.13593 4.33878C4.42433 3.49178 2.51693 5.06698 3.02623 6.90838V6.90728Z" fill="#2272EB"/>
<path d="M29.8565 30.3741H24.802C24.241 30.3741 23.7867 29.9198 23.7867 29.3588C23.7867 28.7978 24.241 28.3435 24.802 28.3435H37.4949C37.6819 28.3435 37.8601 28.3149 38.0339 28.272C38.3584 26.93 38.5487 25.5363 38.5487 24.0953C38.5487 24.081 38.5465 24.0689 38.5465 24.0546C38.2319 23.8885 37.8755 23.7906 37.4949 23.7906C36.2398 23.7906 35.219 24.8114 35.219 26.0676C35.219 26.6286 34.7647 27.0829 34.2037 27.0829C33.6427 27.0829 33.1895 26.6286 33.1895 26.0676C33.1895 23.6927 35.1211 21.7611 37.4949 21.7611C37.8051 21.7611 38.1032 21.8051 38.3947 21.8678C37.2969 13.114 29.8422 6.33691 20.7903 6.33691C10.9816 6.33691 3.03076 14.2877 3.03076 24.0964C3.03076 33.9051 10.9816 41.8548 20.7892 41.8548C28.3836 41.8548 34.8461 37.0786 37.3849 30.3741H29.8565Z" fill="#FFC84D"/>
<path d="M20.5795 5.56925L19.0725 3.77236C18.7586 3.39811 18.2008 3.34917 17.8265 3.66304L16.0296 5.17007C15.6554 5.48394 15.6064 6.04177 15.9203 6.41601L17.4273 8.21291C17.7412 8.58715 18.299 8.63609 18.6733 8.32222L20.4702 6.8152C20.8444 6.50132 20.8934 5.94349 20.5795 5.56925Z" fill="#B44BD7"/>
<path d="M32.9448 7.84699L30.3264 9.16768C29.7818 9.44236 29.563 10.1065 29.8377 10.6511L31.1584 13.2695C31.4331 13.8141 32.0972 14.0329 32.6418 13.7582L35.2602 12.4375C35.8048 12.1628 36.0236 11.4987 35.7489 10.9541L34.4282 8.33569C34.1535 7.7911 33.4894 7.5723 32.9448 7.84699Z" fill="#F66570"/>
<path d="M17.4515 34.2751L15.1692 34.815C14.6939 34.9274 14.3997 35.4039 14.5122 35.8792L15.052 38.1614C15.1644 38.6368 15.6409 38.9309 16.1162 38.8185L18.3985 38.2787C18.8738 38.1662 19.168 37.6898 19.0555 37.2144L18.5157 34.9322C18.4033 34.4569 17.9268 34.1627 17.4515 34.2751Z" fill="white"/>
<path d="M8.04082 31.9088L7.15243 29.114C6.96766 28.5327 6.34665 28.2113 5.76536 28.3961L2.97057 29.2845C2.38928 29.4692 2.06785 30.0903 2.25262 30.6715L3.14101 33.4663C3.32578 34.0476 3.94679 34.3691 4.52808 34.1843L7.32288 33.2959C7.90416 33.1111 8.2256 32.4901 8.04082 31.9088Z" fill="#6376FF"/>
<path d="M41.4899 24.4874C40.9652 23.1674 39.8069 22.1741 38.3934 21.8694C38.1019 21.8067 37.8038 21.7627 37.4936 21.7627C35.1187 21.7627 33.1882 23.6943 33.1882 26.0692C33.1882 26.6302 33.6425 27.0845 34.2024 27.0845C34.7623 27.0845 35.2177 26.6302 35.2177 26.0692C35.2177 24.8141 36.2385 23.7922 37.4936 23.7922C37.8742 23.7922 38.2306 23.8901 38.5452 24.0562C39.1051 24.3532 39.5286 24.8757 39.6903 25.5049C39.7365 25.6864 39.7695 25.8734 39.7695 26.0692C39.7695 27.1384 39.027 28.0305 38.0326 28.2736C37.8588 28.3165 37.6795 28.3451 37.4936 28.3451H24.8007C24.7611 28.3451 24.727 28.3638 24.6885 28.3682C24.4949 28.5266 24.2936 28.6707 24.1033 28.8148C24.5785 29.1734 25.167 29.7267 25.4849 30.3757H37.4925C39.8674 30.3757 41.7979 28.4441 41.7979 26.0703C41.7979 25.5104 41.6835 24.9791 41.4877 24.4885L41.4899 24.4874Z" fill="#2272EB"/>
<path d="M25.1669 5.45528C26.0806 5.45528 26.8213 4.71458 26.8213 3.80088C26.8213 2.88718 26.0806 2.14648 25.1669 2.14648C24.2532 2.14648 23.5125 2.88718 23.5125 3.80088C23.5125 4.71458 24.2532 5.45528 25.1669 5.45528Z" fill="#EDCCF8"/>
<path d="M5.40196 39.8869C6.31566 39.8869 7.05636 39.1462 7.05636 38.2325C7.05636 37.3188 6.31566 36.5781 5.40196 36.5781C4.48826 36.5781 3.74756 37.3188 3.74756 38.2325C3.74756 39.1462 4.48826 39.8869 5.40196 39.8869Z" fill="#EDCCF8"/>
<path d="M36.233 39.5432C37.1467 39.5432 37.8874 38.8025 37.8874 37.8888C37.8874 36.9751 37.1467 36.2344 36.233 36.2344C35.3193 36.2344 34.5786 36.9751 34.5786 37.8888C34.5786 38.8025 35.3193 39.5432 36.233 39.5432Z" fill="#B44BD7"/>
<path d="M39.2447 16.2082C40.1584 16.2082 40.8991 15.4675 40.8991 14.5538C40.8991 13.6401 40.1584 12.8994 39.2447 12.8994C38.331 12.8994 37.5903 13.6401 37.5903 14.5538C37.5903 15.4675 38.331 16.2082 39.2447 16.2082Z" fill="#7896FF"/>
<path d="M24.1043 28.8136C24.2946 28.6695 24.4959 28.5254 24.6895 28.367C25.2153 27.9369 25.6707 27.4001 25.6135 26.4541C25.5068 24.6886 22.6996 24.1914 22.33 24.1914C21.9505 24.1914 21.714 24.2277 21.7107 24.4587C21.7074 24.6897 21.9846 24.7689 22.3828 24.8888C23.6005 25.2562 24.0801 25.9679 24.0801 26.475C24.0801 27.399 23.177 27.8566 22.6633 28.1866C22.2464 28.455 21.9824 28.5199 21.9714 28.7476C21.9626 28.9423 22.2354 29.0424 22.6611 29.313C23.0868 29.5836 24.0108 30.193 24.0108 31.2215C24.0108 32.0157 23.3376 32.6141 22.3806 32.9936C21.8075 33.2213 21.5875 33.3225 21.6216 33.5403C21.6557 33.7581 21.9648 33.8032 22.4741 33.8032C23.3354 33.8032 25.5739 33.3401 25.7114 31.3876C25.7367 31.0334 25.641 30.6935 25.4848 30.3745C25.1669 29.7255 24.5784 29.1722 24.1043 28.8136Z" fill="#FF6D00"/>
<path d="M12.8823 21.1073C12.6227 21.2657 12.2894 21.0567 12.3235 20.7553C12.5149 19.0756 13.8261 17.7127 15.5267 17.5631C17.2273 17.4146 18.7552 18.5289 19.2348 20.1503C19.3206 20.4418 19.0291 20.7047 18.7464 20.5947C18.1282 20.3538 17.0843 20.0733 15.7566 20.1899C14.4289 20.3065 13.4499 20.763 12.8823 21.1073Z" fill="black"/>
<path d="M29.8014 21.1074C30.061 21.2658 30.3943 21.0568 30.3602 20.7554C30.1688 19.0757 28.8576 17.7128 27.157 17.5632C25.4564 17.4136 23.9285 18.529 23.4489 20.1504C23.3631 20.4419 23.6546 20.7048 23.9373 20.5948C24.5555 20.3539 25.5994 20.0734 26.9271 20.19C28.2548 20.3066 29.2338 20.7631 29.8014 21.1074Z" fill="black"/>
</svg>
