<svg width="96" height="18" viewBox="0 0 96 18" fill="none" xmlns="http://www.w3.org/2000/svg">
<path d="M0.353027 18L8.34863 5.45117H2.09863V0.128906H18.5781L10.8022 12.4946H17.6992V18H0.353027ZM19.6401 18V0.128906H26.1709V18H19.6401ZM45.9829 18L45.2017 10.9199C45.1528 10.3747 45.104 9.8335 45.0552 9.29639C45.0063 8.75114 44.9657 8.20589 44.9331 7.66064C44.8599 8.17334 44.7541 8.71859 44.6157 9.29639C44.4855 9.86605 44.3228 10.4764 44.1274 11.1274L42.0767 18H38.2559L36.2051 11.1274C36.0016 10.4764 35.8348 9.86605 35.7046 9.29639C35.5744 8.71859 35.4727 8.17334 35.3994 7.66064C35.3587 8.21403 35.314 8.75928 35.2651 9.29639C35.2244 9.8335 35.1797 10.3747 35.1309 10.9199L34.3496 18H28.0508L31.1025 0.128906H37.731L39.0005 4.54785C39.0412 4.6862 39.1022 4.89372 39.1836 5.17041C39.7207 7.03402 40.0503 8.56803 40.1724 9.77246H40.2822C40.3799 9.01562 40.5264 8.20996 40.7217 7.35547C40.917 6.50098 41.1774 5.54069 41.5029 4.47461L42.8335 0.128906H49.4497L52.2817 18H45.9829ZM54.064 18V0.128906H66.0146V4.9751H60.3628V6.69629H65.4897V11.2739H60.3628V13.1538H66.1611V18H54.064ZM68.7612 18V0.128906H80.7119V4.9751H75.0601V6.69629H80.187V11.2739H75.0601V13.1538H80.8584V18H68.7612ZM85.7656 18V5.97607H82.189V0.128906H95.7632V5.97607H92.1865V18H85.7656Z" fill="black"/>
</svg>
