<svg width="22" height="22" viewBox="0 0 22 22" fill="none" xmlns="http://www.w3.org/2000/svg">
<path d="M3.90909 3.89542C7.82564 -0.0211298 14.1985 -0.0211298 18.1156 3.89542C22.0327 7.81252 22.0327 14.1854 18.1156 18.1019C14.1985 22.019 7.82564 22.0185 3.90909 18.1019C-0.00745785 14.1854 -0.00745785 7.81252 3.90909 3.89542ZM5.56129 5.54762C2.55554 8.55337 2.55499 13.4445 5.56129 16.4508C8.56759 19.4571 13.4582 19.4566 16.4645 16.4508C19.4702 13.4451 19.4708 8.55392 16.4645 5.54817C13.4582 2.54242 8.56759 2.54242 5.56184 5.54817L5.56129 5.54762Z" fill="#CFD4DB"/>
<path d="M3.90924 18.1027C7.82634 22.0198 14.1992 22.0198 18.1157 18.1027C22.0323 14.1862 22.0323 7.81332 18.1157 3.89622C16.4118 2.19232 14.1519 1.15722 11.7522 0.980666C11.1087 0.933916 10.5494 1.41682 10.5015 2.06032C10.4542 2.70327 10.9371 3.26372 11.5812 3.31047C13.422 3.44577 15.1562 4.23997 16.4641 5.54787C19.4704 8.55417 19.4698 13.4448 16.4641 16.4505C13.4583 19.4563 8.56719 19.4568 5.56089 16.4505C4.10449 14.9941 3.30259 13.0581 3.30259 10.9989C3.30259 10.3538 2.77954 9.83127 2.13494 9.83072C1.48979 9.83072 0.966736 10.3538 0.967286 10.9984C0.967286 13.6818 2.01229 16.2041 3.90979 18.1016L3.90924 18.1027Z" fill="#4480E9"/>
<path d="M14.1191 12.7172V7.20295C14.1191 7.0286 14.0399 6.868 13.9019 6.76185C13.7644 6.65625 13.5884 6.6205 13.4201 6.6656L9.22466 7.7843C8.98211 7.8492 8.81216 8.06975 8.81216 8.3211V12.8635C8.62076 12.7497 8.39801 12.6831 8.15986 12.6831C7.45366 12.6831 6.87891 13.2579 6.87891 13.9641C6.87891 14.3062 7.01201 14.6279 7.25401 14.8699C7.38821 15.0041 7.54716 15.1048 7.72096 15.168C7.86011 15.2186 8.00806 15.245 8.16041 15.245C8.86661 15.245 9.44136 14.6708 9.44136 13.9646V9.6114L13.4916 8.5312V11.6194C13.2958 11.5023 13.0736 11.4357 12.8393 11.4363C12.4972 11.4363 12.1754 11.5694 11.9334 11.8114C11.6914 12.0534 11.5583 12.3751 11.5583 12.7172C11.5583 13.0593 11.6914 13.3811 11.9334 13.6231C12.0676 13.7573 12.2271 13.8585 12.4004 13.9217C12.539 13.9723 12.6875 13.9987 12.8393 13.9987C13.1814 13.9987 13.5031 13.8656 13.7451 13.6236C13.9871 13.3816 14.1202 13.0599 14.1202 12.7178L14.1191 12.7172Z" fill="#3D3D3D"/>
</svg>
