<svg width="29" height="29" viewBox="0 0 29 29" fill="none" xmlns="http://www.w3.org/2000/svg">
<path d="M14.5 27.1875C21.5071 27.1875 27.1875 21.5071 27.1875 14.5C27.1875 7.49289 21.5071 1.8125 14.5 1.8125C7.49289 1.8125 1.8125 7.49289 1.8125 14.5C1.8125 21.5071 7.49289 27.1875 14.5 27.1875Z" fill="#E5E8EB"/>
<path d="M6.06005 5.06494C5.69973 5.38684 5.35898 5.72759 5.0378 6.08792C6.54145 7.89244 11.1815 14.6328 4.98633 22.8956C5.30895 23.2624 5.65333 23.6083 6.01583 23.9352C13.044 14.7451 7.65215 6.99417 6.06005 5.06494Z" fill="#A3B5C9"/>
<path d="M24.0135 22.8956C17.8176 14.6335 22.4576 7.89244 23.9613 6.08792C23.6401 5.72759 23.2994 5.38684 22.939 5.06494C21.3469 6.99417 15.9551 14.7444 22.9833 23.9345C23.3458 23.6075 23.6901 23.2617 24.0128 22.8949L24.0135 22.8956Z" fill="#A3B5C9"/>
<path d="M9.41694 15.4665H7.98306C7.57841 15.4665 7.25 15.0335 7.25 14.4999C7.25 13.9663 7.57841 13.5332 7.98306 13.5332H9.41694C9.82159 13.5332 10.15 13.9663 10.15 14.4999C10.15 15.0335 9.82159 15.4665 9.41694 15.4665Z" fill="#FA2D4C"/>
<path d="M7.63587 11.5999C7.25229 11.5999 6.90002 11.4294 6.79651 11.171C6.67213 10.8629 6.94699 10.5455 7.41146 10.4628L9.05452 10.1703C9.51812 10.0859 9.99564 10.2709 10.12 10.579C10.2444 10.8871 9.96955 11.2045 9.50508 11.2872L7.86202 11.5797C7.78722 11.593 7.7098 11.5999 7.63587 11.5999Z" fill="#FA2D4C"/>
<path d="M6.45492 8.21654C6.22853 8.21654 6.00868 8.10037 5.88764 7.89206C5.70705 7.58185 5.8137 7.18469 6.12711 7.00558L7.23486 6.3709C7.54761 6.19049 7.94805 6.29756 8.12864 6.60841C8.30923 6.91862 8.20257 7.31578 7.88916 7.49489L6.78142 8.12958C6.67869 8.18863 6.5655 8.21654 6.45492 8.21654Z" fill="#FA2D4C"/>
<path d="M9.27982 18.8499C9.20589 18.8499 9.13021 18.8435 9.05454 18.8297L7.41142 18.5372C6.9478 18.4546 6.67207 18.1378 6.79645 17.8292C6.92084 17.5211 7.3949 17.3356 7.862 17.4205L9.50511 17.713C9.96873 17.7956 10.2445 18.1124 10.1201 18.421C10.0157 18.6794 9.66516 18.8499 9.28069 18.8499H9.27982Z" fill="#FA2D4C"/>
<path d="M7.5616 22.7165C7.45104 22.7165 7.33851 22.6886 7.23515 22.6296L6.12692 21.9949C5.81421 21.8158 5.70692 21.4186 5.88748 21.1084C6.06739 20.7976 6.46711 20.6905 6.78113 20.8709L7.88935 21.5056C8.20207 21.6847 8.30936 22.0819 8.12879 22.3921C8.00777 22.6004 7.78795 22.7165 7.5616 22.7165Z" fill="#FA2D4C"/>
<path d="M21.017 15.4665H19.5832C19.1785 15.4665 18.8501 15.0335 18.8501 14.4999C18.8501 13.9663 19.1785 13.5332 19.5832 13.5332H21.017C21.4217 13.5332 21.7501 13.9663 21.7501 14.4999C21.7501 15.0335 21.4217 15.4665 21.017 15.4665Z" fill="#FA2D4C"/>
<path d="M21.3633 11.5999C21.2894 11.5999 21.2128 11.5935 21.138 11.5797L19.495 11.2871C19.0305 11.2044 18.7556 10.8875 18.88 10.5788C19.0044 10.2706 19.481 10.0867 19.9455 10.1699L21.5886 10.4625C22.053 10.5452 22.3279 10.8621 22.2035 11.1709C22.0991 11.4293 21.7469 11.5999 21.3633 11.5999Z" fill="#FA2D4C"/>
<path d="M22.5448 8.21654C22.4342 8.21654 22.321 8.18863 22.2183 8.12958L21.1105 7.49489C20.7971 7.31578 20.6904 6.91862 20.871 6.60841C21.051 6.29756 21.4514 6.19049 21.7648 6.3709L22.8726 7.00558C23.186 7.18469 23.2926 7.58185 23.112 7.89206C22.991 8.10037 22.7711 8.21654 22.5448 8.21654Z" fill="#FA2D4C"/>
<path d="M19.7193 18.8499C19.3349 18.8499 18.9835 18.6794 18.8799 18.421C18.7556 18.1123 19.0313 17.7955 19.4949 17.7128L21.138 17.4203C21.6051 17.3359 22.0792 17.5209 22.2036 17.829C22.328 18.1377 22.0522 18.4545 21.5886 18.5372L19.9455 18.8297C19.8698 18.843 19.7933 18.8499 19.7193 18.8499Z" fill="#FA2D4C"/>
<path d="M21.4381 22.7165C21.2117 22.7165 20.9919 22.6004 20.8709 22.392C20.6903 22.0811 20.7976 21.6845 21.1103 21.5054L22.2185 20.8706C22.5313 20.6908 22.9316 20.7973 23.1122 21.1082C23.2928 21.4191 23.1855 21.8156 22.8728 21.9948L21.7645 22.6296C21.6612 22.6886 21.5486 22.7165 21.4381 22.7165Z" fill="#FA2D4C"/>
</svg>
