<svg width="25" height="24" viewBox="0 0 25 24" fill="none" xmlns="http://www.w3.org/2000/svg">
<path d="M0.285634 23.7125C-0.0958817 23.3297 -0.0952102 22.7097 0.287649 22.3282L12.2234 10.4878C12.6063 10.1063 13.2263 10.1069 13.6078 10.4898C13.9893 10.8727 13.9886 11.4926 13.6058 11.8741L1.66997 23.7146C1.28711 24.0961 0.667149 24.0954 0.285634 23.7125Z" fill="#A96951"/>
<path d="M14.3757 19.8515C19.7176 19.5716 23.8211 15.0142 23.5411 9.67224C23.2612 4.33033 18.7038 0.226806 13.3618 0.506764C8.01993 0.786721 3.9164 5.34415 4.19636 10.6861C4.47632 16.028 9.03374 20.1315 14.3757 19.8515Z" fill="#FDAEB3"/>
<path d="M13.7837 10.2376L13.7851 10.2363C13.7743 10.2215 10.0713 5.03746 4.80535 6.77981C4.12561 8.58663 3.97112 10.6111 4.49503 12.6214C4.69385 13.3838 4.9867 14.0944 5.34337 14.7594C6.12521 13.4557 8.2934 10.9919 13.7837 10.2376Z" fill="#EF4452"/>
<path d="M13.7859 10.2365V10.2372H13.7839C13.7449 10.2647 8.58437 13.9012 10.2407 19.1484C12.1047 19.904 14.2151 20.0982 16.3107 19.5514C17.0261 19.3647 17.6971 19.0967 18.3264 18.7709C17.055 18.024 14.5099 15.8585 13.7852 10.2358L13.7859 10.2365Z" fill="#EF4452"/>
<path d="M13.7889 10.2376L13.7876 10.2389C13.7983 10.2537 17.5645 15.5264 22.9017 13.6497C23.6042 11.8247 23.7715 9.77409 23.2409 7.73755C23.034 6.94295 22.7243 6.2041 22.3462 5.51562C21.6738 6.74816 19.5741 9.44295 13.7889 10.2376Z" fill="#EF4452"/>
<path d="M13.7872 10.2391V10.2385H13.7892C13.8288 10.2103 19.1284 6.47638 17.2625 1.11568C15.457 0.437952 13.4345 0.284137 11.4262 0.807377C10.6397 1.01224 9.90753 1.31786 9.2251 1.69064C10.4892 2.42613 13.0591 4.58626 13.7878 10.2391H13.7872Z" fill="#EF4452"/>
</svg>
