<svg width="18" height="18" viewBox="0 0 18 18" fill="none" xmlns="http://www.w3.org/2000/svg">
<path d="M9.46409 0L8.99953 0.870257L8.53498 0C5.06562 0.138638 4.98049 1.81397 5.06416 3.04663C5.25144 5.80918 8.96013 8.9852 8.99953 9.01001C9.03894 8.9852 12.7476 5.80918 12.9349 3.04663C13.0186 1.81446 12.9334 0.138638 9.46409 0Z" fill="#FFD3D5"/>
<path d="M4.54427 3.42431C3.3982 2.96413 1.77832 2.52682 0.574361 5.78408L1.25879 6.49478L0.287356 6.66747C-0.65295 10.0099 0.914389 10.6087 2.11203 10.9098C4.79722 11.5855 8.96366 9.03988 8.99966 9.00972C8.98798 8.96448 7.1137 4.45607 4.54427 3.42431Z" fill="#FFD3D5"/>
<path d="M8.99974 9.00978C8.95304 9.00686 4.08612 9.39602 2.31058 11.5213C1.51864 12.4694 0.602654 13.8748 3.32774 16.0258L4.21502 15.5948L4.07931 16.5721C6.96735 18.4994 8.021 17.1938 8.67771 16.1474C10.1502 13.8023 9.01628 9.05308 8.99925 9.00978H8.99974Z" fill="#FFD3D5"/>
<path d="M15.6886 11.5213C13.913 9.39651 9.04609 9.00686 8.99939 9.00978C8.98188 9.05308 7.84845 13.8023 9.32093 16.1474C9.97764 17.1938 11.0313 18.4994 13.9193 16.5721L13.7836 15.5948L14.6709 16.0258C17.3965 13.8748 16.48 12.4689 15.6881 11.5213H15.6886Z" fill="#FFD3D5"/>
<path d="M16.7409 6.49467L17.4253 5.78396C16.2213 2.52719 14.6015 2.96402 13.4554 3.4242C10.886 4.45596 9.01119 8.96437 9 9.00961C9.036 9.03928 13.2024 11.5849 15.8876 10.9097C17.0853 10.6081 18.6531 10.0097 17.7123 6.66736L16.7409 6.49467Z" fill="#FFD3D5"/>
<path d="M8.96879 8.90887C8.98728 8.89719 9.73349 8.17287 9.82057 6.88475C9.83711 6.64347 9.70236 6.29615 9.53502 5.9678C9.29763 5.50032 8.63947 5.50032 8.40208 5.9678C8.23523 6.29664 8.10048 6.64347 8.11653 6.88524C8.20361 8.17287 8.94982 8.89768 8.96831 8.90935" fill="#E32939"/>
<path d="M8.96846 8.90884C8.96311 8.88792 8.50438 7.95443 7.30675 7.47333C7.08249 7.38334 6.71036 7.40425 6.3465 7.46117C5.82892 7.5424 5.62509 8.16847 5.99625 8.53865C6.25748 8.7989 6.54594 9.03434 6.78041 9.09369C8.03204 9.40842 8.95192 8.92295 8.96846 8.90884Z" fill="#E32939"/>
<path d="M8.96809 8.90919C8.9462 8.90773 7.91687 9.05561 7.08942 10.046C6.93425 10.2318 6.83939 10.5918 6.78102 10.9557C6.69832 11.4733 7.23098 11.86 7.69749 11.6216C8.02584 11.4538 8.33911 11.2519 8.46753 11.0471C9.15391 9.95408 8.97587 8.92913 8.96809 8.90919Z" fill="#E32939"/>
<path d="M8.968 8.90919C8.95973 8.92962 8.78218 9.95408 9.46856 11.0471C9.59698 11.2519 9.91025 11.4538 10.2386 11.6216C10.7051 11.8605 11.2378 11.4733 11.1551 10.9557C11.0967 10.5918 11.0018 10.2314 10.8467 10.046C10.0192 9.05561 8.98941 8.90773 8.968 8.90919Z" fill="#E32939"/>
<path d="M8.96826 8.90872C8.9848 8.92283 9.90467 9.4083 11.1563 9.09357C11.3908 9.03471 11.6792 8.79927 11.9405 8.53902C12.3116 8.16883 12.1083 7.54277 11.5902 7.46153C11.2259 7.40413 10.8542 7.38321 10.6295 7.47369C9.43185 7.95479 8.97312 8.88829 8.96777 8.90921" fill="#E32939"/>
<path d="M8.9563 9.9497C9.49361 9.9497 9.92919 9.51412 9.92919 8.9768C9.92919 8.43949 9.49361 8.00391 8.9563 8.00391C8.41898 8.00391 7.9834 8.43949 7.9834 8.9768C7.9834 9.51412 8.41898 9.9497 8.9563 9.9497Z" fill="#FFDA16"/>
</svg>
