<svg width="60" height="53" viewBox="0 0 60 53" fill="none" xmlns="http://www.w3.org/2000/svg">
<path d="M27.7632 31.8399L25.2449 47.371C25.1882 47.7213 25.3536 48.065 25.6633 48.2369C26.3946 48.6439 27.6935 49.5244 28.1215 50.8362C28.2642 51.2724 27.9026 51.7167 27.4437 51.7167H23.2813C22.978 51.7167 22.7072 51.5303 22.6002 51.2481L16.2373 34.6436L18.6047 28.0391L27.64 28.725L27.7632 31.8399Z" fill="#FF9000"/>
<path d="M36.0509 34.1738L32.5873 48.625C32.4981 48.9979 32.6651 49.3855 32.9975 49.5752L37.9318 52.4161C38.3437 52.6529 38.8659 52.5199 39.1107 52.1129C39.5372 51.3994 39.8761 50.0811 38.7523 48.0509C38.6275 47.8255 38.574 47.5564 38.6291 47.3034L41.1003 35.7937L36.0509 34.1738Z" fill="#FF9000"/>
<path d="M12.8125 19.1568C12.8125 19.1568 8.5252 16.4196 7.61227 12.3155C6.69935 8.20976 0.039696 7.02441 0.039696 7.02441C0.039696 7.02441 -1.41969 21.6215 13.359 23.1717C28.1377 24.7219 12.8109 19.1584 12.8109 19.1584L12.8125 19.1568Z" fill="#FFB72D"/>
<path d="M59.9035 10.4164L55.154 9.39486C54.7989 9.31865 54.5054 9.08839 54.3481 8.76084C53.8568 7.7263 52.3796 5.42372 48.8171 4.93563C48.3987 4.87888 48.0306 4.61457 47.8879 4.21729L46.5729 0.581807C46.3021 -0.167343 45.2529 -0.201395 44.9351 0.528296L39.1008 13.8768C38.2966 15.7189 36.6312 17.0339 34.6513 17.3777C30.8586 18.0344 24.5784 18.9506 20.9704 18.5436C15.5529 17.9339 9.86453 20.371 10.6785 27.2107C11.2396 31.9261 11.6385 34.8724 11.8314 36.2459C11.9125 36.8232 11.679 37.3891 11.2185 37.7474L8.86566 39.5863C8.47 39.896 8.23975 40.3694 8.23975 40.8721V52.1953C8.23975 52.3818 8.39055 52.5326 8.57703 52.5326H13.4092C13.5908 52.5326 13.74 52.398 13.7481 52.218C13.7822 51.3343 13.6541 48.8517 11.2185 48.1317C11.2185 48.1317 12.3017 44.9519 18.0582 42.2423C23.8146 39.5344 22.3925 34.2514 22.3925 34.2514L48.6598 47.3242C49.2938 47.5885 49.7041 48.2112 49.6959 48.8971L49.6732 50.7846C49.6651 51.537 50.257 52.158 51.0078 52.1872L54.0433 52.3007C54.6789 52.325 55.2578 51.918 55.4265 51.3051C55.8902 49.6171 56.3345 46.2686 53.3817 44.3487C50.7791 42.6574 47.7955 40.0711 45.9891 38.4333C44.9789 37.5172 44.6368 36.0821 45.1184 34.8043L50.9526 19.3235C51.0824 18.9798 51.3921 18.7446 51.7585 18.7171C53.8682 18.5598 60.8862 17.5058 59.9068 10.4164H59.9035Z" fill="#FFB72D"/>
<path d="M57.1504 9.8291L59.9054 10.4226C60.0254 11.2933 60.0027 12.0538 59.9054 12.7527C58.8968 12.1592 57.7698 11.2252 57.152 9.83072L57.1504 9.8291Z" fill="black"/>
<path d="M50.88 10.7257C51.6143 10.7257 52.2096 10.1304 52.2096 9.39607C52.2096 8.66171 51.6143 8.06641 50.88 8.06641C50.1456 8.06641 49.5503 8.66171 49.5503 9.39607C49.5503 10.1304 50.1456 10.7257 50.88 10.7257Z" fill="black"/>
</svg>
