<svg width="23" height="26" viewBox="0 0 23 26" fill="none" xmlns="http://www.w3.org/2000/svg">
<path d="M19.397 6.19329C19.7006 8.21902 20.0532 9.37849 18.6042 9.37849C16.6326 9.37849 16.6319 4.71241 13.2953 2.05424C9.99429 -0.574974 7.53209 0.0641437 7.48013 0.0782473C7.47938 0.0789896 7.4779 0.0804741 7.47716 0.0812164C10.2266 2.3764 8.69304 6.14875 6.89371 7.18871C5.16713 8.18636 3.19633 6.92816 4.22812 3.96714C1.95892 7.06994 0 10.8297 0 14.576C0 20.6889 4.95557 25.6444 11.0684 25.6444C17.1812 25.6444 22.1368 20.6889 22.1368 14.576C22.1368 11.6878 20.9699 8.79133 19.397 6.19329Z" fill="#EF4452"/>
<path d="M11.0684 12.8354C11.0684 12.8354 15.8815 15.6072 15.8815 19.4797C15.8815 22.1379 13.7266 24.2928 11.0684 24.2928C8.41026 24.2928 6.25537 22.1379 6.25537 19.4797C6.25537 15.6072 11.0684 12.8354 11.0684 12.8354Z" fill="#FF7978"/>
</svg>
