<svg width="67" height="62" viewBox="0 0 67 62" fill="none" xmlns="http://www.w3.org/2000/svg">
<path d="M58.8748 60.2567C59.9945 58.6283 60.5488 56.5932 60.2625 54.4524C58.8657 44.0273 56.6155 27.6538 55.2205 19.7616C53.0997 7.75729 44.8902 0 33.4895 0C22.0888 0 13.8792 7.75729 11.7585 19.7616C10.3635 27.6556 8.11323 44.0273 6.71641 54.4524C6.43559 56.5531 6.96623 58.5481 8.04394 60.1619C9.15082 61.1557 10.4127 62 12.5535 62C17.7943 62 17.7944 56.9707 23.0333 56.9707C28.2724 56.9707 28.2724 62 33.5113 62C38.7503 62 38.7503 56.9707 43.9893 56.9707C49.2283 56.9707 49.2283 62 54.4673 62C56.5407 62 57.7898 61.2086 58.8712 60.2567H58.8748Z" fill="#E0E0E0"/>
<path d="M12.1707 39.5577L1.01071 26.9097C-1.42735 24.1471 0.90312 19.7341 4.20188 20.8665L14.5449 24.3641L12.1725 39.5577H12.1707Z" fill="#E0E0E0"/>
<path d="M54.8122 39.5577L65.9722 26.9097C68.4103 24.1471 66.0798 19.7341 62.781 20.8665L52.438 24.3641L54.8122 39.5577Z" fill="#E0E0E0"/>
<path d="M26.8902 19.6379C28.6577 19.6379 30.0905 18.2051 30.0905 16.4376C30.0905 14.6701 28.6577 13.2373 26.8902 13.2373C25.1228 13.2373 23.6899 14.6701 23.6899 16.4376C23.6899 18.2051 25.1228 19.6379 26.8902 19.6379Z" fill="black"/>
<path d="M40.2457 19.7492C42.0132 19.7492 43.446 18.3164 43.446 16.5489C43.446 14.7815 42.0132 13.3486 40.2457 13.3486C38.4782 13.3486 37.0454 14.7815 37.0454 16.5489C37.0454 18.3164 38.4782 19.7492 40.2457 19.7492Z" fill="black"/>
<path d="M44.9778 25.1285C44.7317 24.7765 44.2849 24.6306 43.8764 24.7455C37.5397 26.673 29.4231 26.6055 23.1192 24.5723C22.7107 24.4428 22.264 24.5869 22.0123 24.937C21.7625 25.2853 21.7661 25.7558 22.0233 26.1004C24.6035 29.5669 28.8706 31.6567 33.4385 31.695C38.0083 31.7333 42.31 29.7146 44.945 26.2919C45.2076 25.9509 45.2222 25.4804 44.9778 25.1285Z" fill="black"/>
<path d="M38.1559 29.3023V25.885C35.0449 26.2388 31.7954 26.2096 28.6936 25.792L28.6899 30.8067V30.8268C28.6899 30.8377 28.6918 30.8468 28.6918 30.8559C28.6918 30.8632 28.6936 30.8723 28.6936 30.8796C28.7027 33.387 30.787 35.4275 33.3819 35.4494C35.995 35.4713 38.1322 33.4362 38.1522 30.9052L38.1632 29.3023H38.1541H38.1559Z" fill="#F93052"/>
</svg>
