<svg width="54" height="56" viewBox="0 0 54 56" fill="none" xmlns="http://www.w3.org/2000/svg">
<path d="M9.33035 13.9951L2.50767 21.4654C1.40515 22.6725 1.17601 24.4375 1.9315 25.8871L4.39391 30.6077C4.7509 31.2918 4.69445 32.1186 4.24779 32.7479L0.716074 37.7292C-0.20048 39.0227 -0.24033 40.7429 0.614788 42.0779L2.76836 45.4369C3.44913 46.4979 3.572 47.8229 3.10044 48.9919L0.458708 55.529H10.4794L9.33035 13.9951Z" fill="#696C9D"/>
<path d="M31.9269 55.5287H6.67679C6.67679 55.5287 4.40533 14.6988 13.8448 3.9476C14.0059 3.7633 14.2998 3.78654 14.4476 3.97915L20.7074 12.1385C21.1441 12.708 21.7734 13.0982 22.4774 13.2377L51.1346 19.0409C52.9594 19.3995 54.1965 21.1048 53.974 22.9495L53.6186 25.8801C52.6174 34.7368 54.0005 38.4296 37.7466 37.9896H28.3553L31.9269 55.5287Z" fill="#B1B3FB"/>
<path d="M29.1673 24.0505C30.6914 24.0505 31.927 22.815 31.927 21.2909C31.927 19.7668 30.6914 18.5312 29.1673 18.5312C27.6432 18.5312 26.4077 19.7668 26.4077 21.2909C26.4077 22.815 27.6432 24.0505 29.1673 24.0505Z" fill="black"/>
<path d="M34.6733 0.962528L33.1407 15.375L23.0752 13.3908L33.2553 0.290056C33.7932 -0.344226 34.8244 0.143939 34.6733 0.962528Z" fill="#696C9D"/>
</svg>
