<svg width="23" height="24" viewBox="0 0 23 24" fill="none" xmlns="http://www.w3.org/2000/svg">
<path d="M21.6244 1.37565C19.6583 -0.590394 16.3091 -0.430084 14.145 1.73474C13.2626 2.61708 12.7201 3.69629 12.5117 4.79858C12.5553 4.78704 12.6021 4.79089 12.6374 4.82615L18.1726 10.3613C18.2085 10.3972 18.2117 10.4447 18.1989 10.4889C19.3018 10.2812 20.3823 9.73805 21.2653 8.85506C23.4301 6.69024 23.5911 3.34169 21.6244 1.37565Z" fill="#313D4C"/>
<path d="M11.4271 6.44141L0.8377 18.1504C0.8377 18.1504 0.833211 18.1536 0.830646 18.1562C-0.672419 19.6593 -0.135701 22.4288 2.44144 23.0264C3.33597 23.2335 4.2709 22.8757 4.84545 22.1595C4.84545 22.1595 4.84609 22.1582 4.84673 22.1582L16.5545 11.5694L16.5134 11.5284L11.4701 6.48501L11.4271 6.44141ZM12.4166 11.8804L11.6073 12.6896C11.2008 13.0962 10.5409 13.0962 10.1344 12.6896C9.72784 12.2831 9.72784 11.6233 10.1344 11.2167L10.9436 10.4075C11.3502 10.0009 12.01 10.0009 12.4166 10.4075C12.8231 10.814 12.8231 11.4739 12.4166 11.8804Z" fill="#4E5968"/>
<path d="M18.1718 10.362L12.6366 4.82686C12.6013 4.79159 12.5552 4.78774 12.5109 4.79928C12.4808 4.80698 12.45 4.81852 12.4308 4.84738L11.4535 6.31646C11.4183 6.36968 11.4253 6.44022 11.4702 6.4851L16.5136 11.5285C16.5584 11.5733 16.629 11.5804 16.6822 11.5451L18.1513 10.5679C18.1795 10.5493 18.1898 10.5191 18.1981 10.4896C18.2103 10.4454 18.2077 10.3979 18.1718 10.362Z" fill="#AFB7C0"/>
<path d="M10.9442 10.4074L10.135 11.2167C9.72844 11.6232 9.72844 12.2831 10.135 12.6896C10.5415 13.0962 11.2014 13.0962 11.6079 12.6896L12.4172 11.8804C12.8237 11.4738 12.8237 10.814 12.4172 10.4074C12.0106 10.0009 11.3508 10.0009 10.9442 10.4074Z" fill="#AFB7C0"/>
</svg>
