<svg width="17" height="26" viewBox="0 0 17 26" fill="none" xmlns="http://www.w3.org/2000/svg">
<path d="M8.10911 26.0001C7.73558 26.0001 7.43311 25.6969 7.43311 25.3241V13.6125C7.43311 13.2397 7.73558 12.9365 8.10911 12.9365C8.48264 12.9365 8.78512 13.2397 8.78512 13.6125V25.3241C8.78512 25.6969 8.48264 26.0001 8.10911 26.0001Z" fill="#036D50"/>
<path d="M16.2177 16.5947C14.8537 15.809 12.8918 15.8484 11.16 16.848C9.42809 17.8476 8.41303 19.5274 8.41162 21.1017C9.77559 21.8874 11.7382 21.848 13.4701 20.8484C15.2019 19.8489 16.2163 18.169 16.2177 16.5947Z" fill="#036D50"/>
<path d="M0.000703053 19.2988C1.36467 18.5131 3.32656 18.5525 5.05843 19.5521C6.7903 20.5517 7.80536 22.2315 7.80677 23.8058C6.4428 24.5915 4.4802 24.5521 2.74834 23.5525C1.01647 22.553 0.00210993 20.8731 0.000703053 19.2988Z" fill="#036D50"/>
<path d="M3.06152 0.0078125H13.0989L8.10026 6.65179L3.06152 0.0078125Z" fill="#901A18"/>
<path d="M0.614961 8.6419C0.614961 12.4552 3.97459 15.5469 8.11855 15.5469C12.2625 15.5469 15.6221 12.4552 15.6221 8.6419C15.6221 8.6419 7.57901 4.13919 3.3443 0.131697C2.99892 -0.194699 2.40803 0.17742 2.25397 0.626918C1.71373 2.20192 0.614961 5.76413 0.614961 8.6419Z" fill="#B6251E"/>
<path d="M15.6038 8.64195C15.6038 12.4553 12.2442 15.5469 8.10026 15.5469C3.9563 15.5469 0.59668 12.4553 0.59668 8.64195C0.59668 7.77321 4.91228 8.53925 12.8745 0.131748C13.2009 -0.212937 13.8108 0.177471 13.9648 0.626969C14.5051 2.20197 15.6046 5.76418 15.6046 8.64195H15.6038Z" fill="#CB2C29"/>
</svg>
