<svg width="183" height="177" viewBox="0 0 183 177" fill="none" xmlns="http://www.w3.org/2000/svg">
<path d="M124.059 23.994L129.538 40.8609H147.273C180.913 40.8609 194.898 83.9069 167.684 103.679L153.337 114.103L158.816 130.97C169.212 162.962 132.594 189.566 105.38 169.794L91.0325 159.37L76.6845 169.794C49.4705 189.566 12.8535 162.963 23.2485 130.97L28.7285 114.103L14.3805 103.679C-12.8335 83.9069 1.15249 40.8609 34.7915 40.8609H52.5265L58.0065 23.994C68.4015 -7.998 113.662 -7.998 124.057 23.994H124.059Z" fill="#F9CCDF"/>
<path d="M61.2402 88.2399C61.2402 88.2399 74.5382 99.9069 83.0402 115.506C83.0402 115.506 91.0332 95.0289 120.827 72.2119" stroke="white" stroke-width="15" stroke-linecap="round" stroke-linejoin="round"/>
</svg>
