<svg width="28" height="24" viewBox="0 0 28 24" fill="none" xmlns="http://www.w3.org/2000/svg">
<path d="M18.8262 0.240408C18.3632 -0.170423 17.6404 -0.0378227 17.3515 0.509441L16.1297 2.82037C15.9136 3.22966 15.4882 3.48567 15.0252 3.48567H12.5687C12.1057 3.48567 11.6803 3.22966 11.4642 2.82037L10.2424 0.509441C9.95346 -0.0378227 9.22991 -0.170423 8.76772 0.240408C4.8242 3.74474 0 8.78202 0 12.4603C0 18.6795 6.17703 23.7214 13.7966 23.7214C21.4161 23.7214 27.5931 18.6795 27.5931 12.4603C27.5931 8.78202 22.7689 3.74474 18.8262 0.240408Z" fill="#FFB72D"/>
<path d="M27.3585 10.9663L24.7655 12.2885C24.1654 12.5943 24.1654 13.452 24.7655 13.7586L27.2244 15.0118C27.4574 14.1909 27.5931 13.3401 27.5931 12.4609C27.5931 11.9842 27.5088 11.4829 27.3585 10.9663Z" fill="black"/>
<path d="M0.234542 10.9663L2.82753 12.2885C3.42768 12.5943 3.42768 13.452 2.82753 13.7586L0.368675 15.0118C0.135666 14.1909 0 13.3401 0 12.4609C0 11.9842 0.0843124 11.4829 0.234542 10.9663Z" fill="black"/>
<path d="M7.76896 14.2991C7.02012 14.2991 6.67367 14.8602 6.8216 15.4649C7.4777 18.1437 10.3489 20.1611 13.7912 20.1611C17.2334 20.1611 20.1054 18.1437 20.7607 15.4649C20.9087 14.8594 20.714 14.3581 19.9651 14.3581L7.7682 14.2983L7.76896 14.2991Z" fill="#FF5E00"/>
<path d="M19.966 14.3586C18.6706 15.3282 16.441 15.969 13.9062 15.969C11.3201 15.969 9.05059 15.3021 7.76904 14.2988L19.966 14.3586Z" fill="white"/>
<path d="M13.1781 11.2554H14.557C15.2323 11.2554 15.5933 11.8869 15.148 12.2893L14.4581 12.9125C14.1454 13.1953 13.5897 13.1953 13.277 12.9125L12.5872 12.2893C12.1419 11.8862 12.5021 11.2554 13.1781 11.2554Z" fill="#FF5543"/>
<path d="M10.4155 10.8359C11.2774 10.8359 11.9761 10.1373 11.9761 9.27539C11.9761 8.41352 11.2774 7.71484 10.4155 7.71484C9.55366 7.71484 8.85498 8.41352 8.85498 9.27539C8.85498 10.1373 9.55366 10.8359 10.4155 10.8359Z" fill="black"/>
<path d="M17.1772 10.8359C18.0391 10.8359 18.7378 10.1373 18.7378 9.27539C18.7378 8.41352 18.0391 7.71484 17.1772 7.71484C16.3154 7.71484 15.6167 8.41352 15.6167 9.27539C15.6167 10.1373 16.3154 10.8359 17.1772 10.8359Z" fill="black"/>
</svg>
