<svg width="26" height="26" viewBox="0 0 26 26" fill="none" xmlns="http://www.w3.org/2000/svg">
<path d="M7.02422 10.6019L15.3983 18.9759C15.8069 19.3845 16.4695 19.3845 16.8781 18.9759L25.2601 10.5939C25.6687 10.1853 25.6687 9.52271 25.2601 9.11406L16.886 0.740021C16.4774 0.331369 15.8148 0.331368 15.4062 0.74002L7.02422 9.12199C6.61556 9.53065 6.61556 10.1932 7.02422 10.6019Z" fill="#8B3900"/>
<path d="M11.0957 7.0813L8.50705 9.66994C8.38029 9.7967 8.38029 10.0033 8.50705 10.1301L11.1353 12.7584C11.1769 12.8 11.2007 12.8567 11.2013 12.9162L11.2119 14.259C11.2119 14.4544 10.9755 14.5528 10.8369 14.4141L7.0282 10.6054C6.61755 10.1948 6.61755 9.52998 7.0282 9.11934L10.8006 5.34695C10.9524 5.1951 11.2125 5.30272 11.2125 5.51728V6.80269C11.2125 6.907 11.1696 7.00735 11.0957 7.0813Z" fill="#632800"/>
<path d="M16.1386 17.8705V19.2807C15.8699 19.2807 15.6005 19.1777 15.3959 18.973L11.6023 15.1795C11.3865 14.9636 11.3865 14.6144 11.6023 14.3991L15.7273 10.2742C15.8791 10.1223 16.1392 10.23 16.1392 10.4445V11.7227C16.1392 11.8455 16.0904 11.9636 16.0032 12.0508L13.4351 14.619C13.3136 14.7405 13.3136 14.9365 13.4351 15.058L16.062 17.6849C16.1115 17.7345 16.1386 17.8011 16.1386 17.8705Z" fill="#632800"/>
<path d="M16.1386 0.443359V1.78753C16.1386 1.94796 16.0746 2.10244 15.961 2.216L13.4345 4.74259C13.313 4.86406 13.313 5.06014 13.4345 5.18162L15.961 7.70821C16.0746 7.82176 16.1386 7.97559 16.1386 8.13668V9.329C16.1386 9.52574 15.9003 9.62477 15.761 9.48547L11.6156 5.34007C11.3925 5.11692 11.3925 4.75447 11.6156 4.53132L15.3953 0.751673C15.6006 0.546351 15.8693 0.44402 16.138 0.44402L16.1386 0.443359Z" fill="#632800"/>
<path d="M21.0737 5.50884V6.72823C21.0737 6.88866 21.0097 7.04248 20.8961 7.15604L18.3807 9.6714C18.2593 9.79288 18.2593 9.98896 18.3807 10.1104L20.8961 12.6258C21.0097 12.7394 21.0737 12.8932 21.0737 13.0543V14.2459C21.0737 14.4427 20.8354 14.5417 20.6961 14.4024L16.5507 10.257C16.3275 10.0339 16.3275 9.6714 16.5507 9.44825L20.6617 5.33718C20.8136 5.18534 21.073 5.29295 21.073 5.50752L21.0737 5.50884Z" fill="#632800"/>
<path d="M9.03469 25.1817L0.81891 16.9659C0.367016 16.514 0.367016 15.7801 0.818909 15.3282L7.94324 8.2039L17.7967 18.0573L10.6723 25.1817C10.2204 25.6336 9.48659 25.6336 9.03469 25.1817Z" fill="#D12030"/>
<path d="M15.5414 20.3125L13.4189 15.4449L7.65864 12.9962L6.44189 9.70442L7.94319 8.20312L17.7973 18.0573L15.5414 20.3125Z" fill="#D5D5D5"/>
</svg>
