<svg width="22" height="23" viewBox="0 0 22 23" fill="none" xmlns="http://www.w3.org/2000/svg">
<path d="M13.3013 6.65981C14.0465 6.65981 14.6505 6.05575 14.6505 5.31062C14.6505 4.56548 14.0465 3.96143 13.3013 3.96143C12.5562 3.96143 11.9521 4.56548 11.9521 5.31062C11.9521 6.05575 12.5562 6.65981 13.3013 6.65981Z" fill="#733423"/>
<path d="M21.5655 20.1877H0.546263C0.0275478 16.7802 0.0275478 13.3137 0.546263 9.90625H21.5655C22.0842 13.3137 22.0842 16.7802 21.5655 20.1877Z" fill="#C76C2C"/>
<path d="M2.3852 7.47559H19.727C20.8513 7.47559 21.764 8.38831 21.764 9.51264V9.7448C21.764 9.98558 21.5684 10.1813 21.3276 10.1813H0.784608C0.543823 10.1813 0.348145 9.98558 0.348145 9.7448V9.51264C0.348145 8.38831 1.26087 7.47559 2.3852 7.47559Z" fill="#D5D5D5"/>
<path d="M19.7271 22.4854L2.38531 22.4854C1.26099 22.4854 0.348257 21.5726 0.348257 20.4483V20.2161C0.348257 19.9754 0.543938 19.7797 0.784721 19.7797L21.3277 19.7797C21.5685 19.7797 21.7642 19.9754 21.7642 20.2161V20.4483C21.7642 21.5726 20.8514 22.4854 19.7271 22.4854Z" fill="#D5D5D5"/>
<path d="M1.83731 20.305L1.1123 20.0688L4.78377 8.80566L8.26487 20.2134L7.53588 20.4356L4.75923 11.3409L1.83731 20.305Z" fill="#D5D5D5"/>
<path d="M8.05411 20.305L7.3291 20.0688L10.9999 8.80566L14.4817 20.2134L13.7527 20.4356L10.9754 11.3409L8.05411 20.305Z" fill="#D5D5D5"/>
<path d="M14.2699 20.305L13.5449 20.0688L17.2164 8.80566L20.6981 20.2134L19.9685 20.4356L17.1925 11.3409L14.2699 20.305Z" fill="#D5D5D5"/>
<path d="M13.3021 5.90538C13.0971 5.90538 12.8981 5.79925 12.7873 5.60954C12.6222 5.32564 12.7183 4.96148 13.0022 4.79565L21.1053 0.0807799C21.3886 -0.0843864 21.7534 0.0117949 21.9192 0.295695C22.0844 0.579596 21.9882 0.943757 21.7043 1.10959L13.6012 5.82446C13.507 5.87951 13.4035 5.90538 13.3021 5.90538Z" fill="#733423"/>
<path d="M8.69782 6.65981C9.44296 6.65981 10.047 6.05575 10.047 5.31062C10.047 4.56548 9.44296 3.96143 8.69782 3.96143C7.95269 3.96143 7.34863 4.56548 7.34863 5.31062C7.34863 6.05575 7.95269 6.65981 8.69782 6.65981Z" fill="#733423"/>
<path d="M8.69729 5.90553C8.5958 5.90553 8.49232 5.87966 8.3988 5.8246L0.295695 1.10973C0.0117949 0.943904 -0.0843864 0.580405 0.0807799 0.295842C0.24661 0.0112779 0.611435 -0.0842401 0.894672 0.0809262L8.99777 4.79579C9.28167 4.96162 9.37785 5.32512 9.21269 5.60969C9.10191 5.7994 8.90159 5.90553 8.69729 5.90553Z" fill="#733423"/>
</svg>
