<svg width="23" height="22" viewBox="0 0 23 22" fill="none" xmlns="http://www.w3.org/2000/svg">
<path d="M14.219 3.85631C13.3165 4.90975 11.6897 5.08338 10.9278 5.10476C10.6906 5.11124 10.4762 4.92724 10.4464 4.69206C10.3505 3.936 10.2734 2.30206 11.1765 1.24862C12.079 0.195176 13.7058 0.0215458 14.4677 0.000165965C14.7049 -0.00631277 14.9193 0.177683 14.9491 0.412861C15.045 1.16893 15.1221 2.80287 14.219 3.85631Z" fill="#006956"/>
<path d="M17.4712 3.53103C15.8872 3.20774 14.263 3.55176 12.8001 4.39983C11.939 4.89869 10.8584 4.89869 9.99737 4.39983C8.53447 3.55241 6.91025 3.20774 5.3262 3.53103C1.32234 4.34865 -0.905044 9.11829 0.349887 14.1853C1.60547 19.2523 5.86847 22.6971 9.87168 21.8801C10.193 21.8147 10.5021 21.7227 10.7988 21.6073C11.183 21.4583 11.6138 21.4583 11.9974 21.6073C12.2941 21.7227 12.6038 21.814 12.9245 21.8801C16.9283 22.6971 21.1913 19.2523 22.4463 14.1853C23.7018 9.11829 21.4738 4.348 17.4699 3.53103H17.4712Z" fill="#68C76F"/>
</svg>
