<svg width="51" height="51" viewBox="0 0 51 51" fill="none" xmlns="http://www.w3.org/2000/svg">
<g clip-path="url(#clip0_102_6492)">
<path d="M23.455 45.5676C24.591 46.3186 26.0585 46.3186 27.1958 45.5676C30.8041 43.1834 38.667 37.488 42.0521 31.1142C46.5172 22.7056 41.2731 14.3174 34.3448 14.3174C30.3948 14.3174 28.0169 16.3816 26.7037 18.1551C26.0114 19.091 24.642 19.091 23.9497 18.1551C22.6352 16.3803 20.2586 14.3174 16.3086 14.3174C9.38025 14.3174 4.13618 22.7056 8.60123 31.1142C11.9864 37.488 19.8493 43.1847 23.4575 45.5676H23.455Z" fill="#EC4452"/>
<path d="M5.96105 16.3735C5.88965 16.3735 5.81697 16.3658 5.7443 16.3505C5.20115 16.2307 4.85562 15.6965 4.97165 15.1533C4.9895 15.0743 6.79872 7.17691 16.0858 8.48634C16.6392 8.56411 17.0242 9.07411 16.9464 9.62746C16.8687 10.1808 16.3561 10.5659 15.8053 10.4881C8.4116 9.44769 7.004 15.3305 6.9479 15.583C6.84207 16.0535 6.42387 16.3748 5.96105 16.3748V16.3735Z" fill="#EC4452"/>
<path d="M1.914 14.3312C1.84387 14.3312 1.77247 14.3236 1.70107 14.3083C1.15537 14.191 0.807297 13.6529 0.924597 13.1072C0.948822 12.9988 3.40702 2.27482 16.0869 4.05727C16.6402 4.13505 17.0253 4.64505 16.9475 5.19967C16.8697 5.75175 16.3572 6.13425 15.8051 6.0603C4.97145 4.53795 2.9799 13.1646 2.90085 13.5331C2.79885 14.0074 2.37937 14.3312 1.914 14.3312Z" fill="#EC4452"/>
<path d="M45.0385 16.3761C44.5732 16.3761 44.155 16.0535 44.053 15.5805C43.9956 15.3216 42.5867 9.45409 35.1955 10.4868C34.6409 10.5633 34.1322 10.1783 34.0544 9.62622C33.9766 9.07287 34.3617 8.56287 34.915 8.48509C44.1996 7.18204 46.0114 15.073 46.0292 15.1521C46.1465 15.6978 45.7984 16.2358 45.2527 16.3531C45.1813 16.3684 45.1087 16.3761 45.0385 16.3761Z" fill="#EC4452"/>
<path d="M49.0865 14.331C48.6211 14.331 48.2029 14.0071 48.0996 13.5341C48.0168 13.158 45.9729 4.55172 35.1954 6.06005C34.6331 6.134 34.1307 5.7515 34.053 5.19942C33.9752 4.64607 34.3602 4.13607 34.9136 4.05702C47.5986 2.27585 50.0517 12.9986 50.0759 13.107C50.1932 13.6527 49.8451 14.1907 49.2994 14.308C49.228 14.3233 49.1566 14.331 49.0865 14.331Z" fill="#EC4452"/>
</g>
<defs>
<clipPath id="clip0_102_6492">
<rect width="51" height="51" fill="white"/>
</clipPath>
</defs>
</svg>
