<svg width="19" height="25" viewBox="0 0 19 25" fill="none" xmlns="http://www.w3.org/2000/svg">
<path d="M7.75362 12.3057H12.8965C13.1594 12.3057 13.3995 12.1563 13.5164 11.921L18.927 0.999459C19.1546 0.539407 18.8205 0.000488281 18.3072 0.000488281H13.1643C12.9014 0.000488281 12.6613 0.149919 12.5444 0.385134L7.13376 11.3067C6.90616 11.7668 7.2403 12.3057 7.75362 12.3057Z" fill="#D12030"/>
<path d="M11.2461 12.3059H6.10322C5.84033 12.3059 5.60028 12.1565 5.48336 11.9212L0.0727287 0.998971C-0.154876 0.538919 0.179267 0 0.692589 0H5.83549C6.09838 0 6.33844 0.149431 6.45535 0.384645L11.866 11.3062C12.0936 11.7663 11.7594 12.3052 11.2461 12.3052V12.3059Z" fill="#EF4452"/>
<path d="M9.50006 24.9122C14.6581 24.9122 18.8395 20.7308 18.8395 15.5728C18.8395 10.4148 14.6581 6.2334 9.50006 6.2334C4.34204 6.2334 0.160645 10.4148 0.160645 15.5728C0.160645 20.7308 4.34204 24.9122 9.50006 24.9122Z" fill="#FFCD00"/>
<path d="M10.0569 10.5292L11.1804 12.8059C11.271 12.9893 11.4454 13.1159 11.6481 13.1456L14.16 13.5109C14.6692 13.5849 14.8726 14.211 14.5039 14.57L12.6858 16.3418C12.5391 16.4843 12.4727 16.6897 12.5073 16.8911L12.9362 19.3933C13.0234 19.9004 12.4907 20.2871 12.0355 20.0478L9.78849 18.8662C9.60793 18.7714 9.39139 18.7714 9.21083 18.8662L6.96384 20.0478C6.50863 20.2871 5.97593 19.9004 6.0631 19.3933L6.49202 16.8911C6.52661 16.6897 6.45951 16.4843 6.31354 16.3418L4.49546 14.57C4.12673 14.211 4.33012 13.5849 4.83929 13.5109L7.35125 13.1456C7.55326 13.1165 7.72828 12.9893 7.81891 12.8059L8.94241 10.5292C9.17001 10.0677 9.82861 10.0677 10.0569 10.5292Z" fill="#FFAA00"/>
</svg>
