<svg width="26" height="20" viewBox="0 0 26 20" fill="none" xmlns="http://www.w3.org/2000/svg">
<path d="M15.9592 15.0282C13.2169 16.6107 10.4164 17.7781 7.91797 18.3996C10.9007 20.1802 14.7308 20.3403 17.9519 18.48C21.1737 16.6197 22.9502 13.2226 22.8996 9.75C21.112 11.6034 18.7009 13.445 15.9592 15.0282Z" fill="#5A41DC"/>
<path d="M3.41155 12.3507C3.63049 13.2077 3.9596 14.0509 4.42381 14.8553C4.88802 15.6591 5.45409 16.3658 6.08666 16.9838C6.1407 16.9748 6.19128 16.9706 6.24671 16.9609C8.86224 16.5092 11.9995 15.2808 15.0785 13.5029C18.1583 11.725 20.7904 9.62221 22.4893 7.58314C22.5253 7.54018 22.5544 7.49861 22.5891 7.45565C22.3701 6.59859 22.041 5.75539 21.5768 4.95098C21.1126 4.14727 20.5465 3.44056 19.914 2.82253C19.3541 2.27518 18.741 1.79988 18.0828 1.40703C15.1 -0.373608 11.2699 -0.533657 8.04883 1.32666C4.82705 3.18697 3.05057 6.58404 3.10115 10.0566C3.11223 10.8236 3.21824 11.592 3.41155 12.3507Z" fill="#5A41DC"/>
<path d="M23.8432 8.71189C23.5522 9.05832 23.2335 9.40475 22.9009 9.75117C21.1133 11.6011 18.7022 13.4441 15.9585 15.0307C13.2148 16.6104 10.4157 17.7814 7.91444 18.398C7.45023 18.5158 6.98602 18.6197 6.54259 18.6959C5.75967 18.8345 5.03217 18.8969 4.36703 18.8969C3.3901 18.8969 2.55175 18.7514 1.8866 18.4673C1.21454 18.1763 0.708751 17.7537 0.383109 17.1924C-0.489889 15.682 0.14061 13.5203 2.15682 11.0953C2.44782 10.7489 2.76653 10.4025 3.0991 10.056C3.11296 10.8251 3.21689 11.5942 3.41089 12.3494C2.03903 14.033 1.46396 15.5434 1.90739 16.3125C2.35082 17.0747 3.94438 17.331 6.08531 16.9846C6.14074 16.9777 6.18923 16.9707 6.24466 16.9638C8.86366 16.5065 11.9954 15.2802 15.0786 13.5064C18.1548 11.7258 20.7877 9.61953 22.4921 7.58254C22.5268 7.54097 22.5545 7.4994 22.5891 7.45782C23.961 5.77419 24.536 4.26376 24.0926 3.49469C23.6492 2.73255 22.0556 2.4762 19.9147 2.82262C19.3535 2.27527 18.7438 1.7972 18.0856 1.4092C18.5498 1.29141 19.014 1.18749 19.4574 1.11127C22.5614 0.577774 24.7508 1.11127 25.6169 2.61477C26.4899 4.12519 25.8594 6.2869 23.8432 8.71189Z" fill="#8B8BF4"/>
</svg>
