<svg width="23" height="23" viewBox="0 0 23 23" fill="none" xmlns="http://www.w3.org/2000/svg">
<path d="M14.2131 3.89075C13.3026 4.9536 11.6612 5.12879 10.8925 5.15036C10.6533 5.15689 10.4369 4.97125 10.4068 4.73397C10.3101 3.97115 10.2323 2.32262 11.1435 1.25977C12.0541 0.196919 13.6954 0.0217382 14.4641 0.000167448C14.7034 -0.00636915 14.9197 0.17927 14.9498 0.416549C15.0465 1.17937 15.1243 2.8279 14.2131 3.89075Z" fill="#006956"/>
<path d="M17.6273 3.56237C16.0291 3.2362 14.3904 3.58329 12.9144 4.43893C12.0457 4.94225 10.9554 4.94225 10.0867 4.43893C8.6107 3.58395 6.97197 3.2362 5.37378 3.56237C1.33416 4.38729 -0.913128 9.19954 0.353012 14.3118C1.61981 19.4241 5.92089 22.8996 9.95986 22.0753C10.2841 22.0093 10.5959 21.9165 10.8952 21.8001C11.2829 21.6498 11.7175 21.6498 12.1045 21.8001C12.4039 21.9165 12.7163 22.0087 13.0399 22.0753C17.0795 22.8996 21.3806 19.4241 22.6467 14.3118C23.9135 9.19954 21.6656 4.38664 17.626 3.56237H17.6273Z" fill="#EF4452"/>
</svg>
