<svg width="60" height="60" viewBox="0 0 60 60" fill="none" xmlns="http://www.w3.org/2000/svg">
<path d="M11.9029 55.0741C13.8292 53.1479 13.8292 50.0233 11.9029 48.097C9.97668 46.1708 6.85213 46.1708 4.92586 48.097C2.9996 50.0233 1.41016 58.5914 1.41016 58.5914C1.41016 58.5914 9.97668 57.0019 11.9045 55.0757L11.9029 55.0741Z" fill="#FF3D29"/>
<path d="M19.6424 54.0163L5.98933 40.3632C5.53609 39.91 5.69286 39.1432 6.28579 38.9026L12.5628 36.3555L23.6858 47.4784L21.0999 53.726C20.8562 54.3143 20.0941 54.4664 19.6424 54.0163Z" fill="#8595AA"/>
<path d="M51.516 15.1757L41.9853 55.7074C40.9872 59.9528 35.7159 61.4522 32.6332 58.368L1.63363 27.3669C-1.44909 24.2841 0.0503564 19.0128 4.29414 18.0147L44.8259 8.48403C48.8493 7.53872 52.4628 11.1523 51.5175 15.1757H51.516Z" fill="#8595AA"/>
<path d="M52.6648 7.33519C56.7138 11.3842 56.7127 17.9577 52.6648 22.0056L24.4622 50.2082L9.79181 35.5378L37.9944 7.3352C42.0434 3.28619 48.6169 3.28728 52.6648 7.33519Z" fill="#D0D6DE"/>
<path d="M42.9942 22.9757C46.2921 22.9757 48.9655 20.3023 48.9655 17.0045C48.9655 13.7066 46.2921 11.0332 42.9942 11.0332C39.6964 11.0332 37.0229 13.7066 37.0229 17.0045C37.0229 20.3023 39.6964 22.9757 42.9942 22.9757Z" fill="#6BA0FF"/>
</svg>
