<svg width="14" height="19" viewBox="0 0 14 19" fill="none" xmlns="http://www.w3.org/2000/svg">
<path d="M6.57252 18.004C6.31397 18.004 6.10449 17.794 6.10449 17.5355V9.42312C6.10449 9.16457 6.31397 8.95459 6.57252 8.95459C6.83108 8.95459 7.04055 9.16457 7.04055 9.42312V17.5355C7.04055 17.794 6.83108 18.004 6.57252 18.004Z" fill="#23B169"/>
<path d="M13.1616 11.6313C11.9194 11.5392 10.2011 12.3295 8.74187 13.7887C7.28264 15.248 6.4923 16.9663 6.58439 18.2085C7.82656 18.3005 9.54486 17.5102 11.0041 16.051C12.4633 14.5917 13.2537 12.8734 13.1616 11.6313Z" fill="#68C76F"/>
<path d="M0.00723819 11.6313C1.24941 11.5392 2.96771 12.3295 4.42695 13.7887C5.88619 15.248 6.67652 16.9663 6.58443 18.2085C5.34226 18.3005 3.62396 17.5102 2.16472 16.051C0.705487 14.5917 -0.0848496 12.8734 0.00723819 11.6313Z" fill="#68C76F"/>
<path d="M6.58289 0C7.31858 0 8.22124 0.809057 8.87091 1.5918C10.3742 3.40219 11.0633 8.60566 6.58289 8.60566C2.10246 8.60566 2.79109 3.40219 4.29486 1.5918C4.94453 0.809563 5.84719 0 6.58289 0Z" fill="#F56570"/>
<path d="M11.4536 0.387815C10.8089 0.174798 9.57032 0.865963 8.56848 1.59912C6.2501 3.29516 2.76999 9.22369 6.69637 10.522C7.35717 10.7406 7.75892 10.7629 8.34029 10.6996C11.7399 10.3303 12.8425 5.06102 12.5789 2.92529C12.4417 1.81568 12.0982 0.600831 11.4536 0.387815Z" fill="#FA878F"/>
<path d="M7.84922 6.2661C7.84669 6.25952 7.84416 6.25244 7.84163 6.24586C7.80621 6.15276 7.78344 6.09609 7.78344 6.09609L7.78243 6.09761C7.0685 4.29835 5.64923 2.48848 4.51382 1.67385C3.50338 0.949293 2.25666 0.268248 1.61457 0.48683C0.972487 0.705412 0.643096 1.92279 0.519131 3.03392C0.262095 5.34016 0.964897 10.7582 5.33704 10.7582L5.33502 10.7617H5.40485C5.42407 10.7617 5.44279 10.7617 5.46202 10.7617L7.56486 10.7627C8.01417 10.7627 8.4235 10.4515 8.49232 10.0078C8.69876 8.67253 8.0592 6.82318 7.84922 6.2661Z" fill="#FDAEB3"/>
</svg>
