<svg width="56" height="56" viewBox="0 0 60 60" fill="none" xmlns="http://www.w3.org/2000/svg" overflow="visible">
  <path d="M24.9616 48.3499C26.8075 49.5903 29.1927 49.5903 31.0372 48.3499C36.0765 44.9618 46.0439 37.5477 50.4215 29.2856C56.407 17.9881 49.3781 6.72021 40.0894 6.72021C34.798 6.72021 31.6117 9.48885 29.8502 11.8722C28.9195 13.131 27.0821 13.131 26.1514 11.8722C24.3885 9.48885 21.2036 6.72021 15.9122 6.72021C6.62206 6.72021 -0.406801 17.9881 5.57871 29.2856C9.95626 37.5477 19.9223 44.9618 24.963 48.3499H24.9616Z" fill="#FDBEC2">
    <animateTransform attributeName="transform" attributeType="XML" type="scale" values="1;1.2;1" dur="1s" repeatCount="indefinite"/>
  </path>
  <path d="M26.1764 43.1255C27.2838 43.8652 28.7156 43.8652 29.8229 43.1255C33.3398 40.7754 41.007 35.1612 44.3062 28.8778C48.66 20.5883 43.5476 12.3203 36.7913 12.3203C32.9399 12.3203 30.6228 14.3553 29.3418 16.1039C28.6672 17.0264 27.3321 17.0264 26.6575 16.1039C25.3766 14.3553 23.0595 12.3203 19.2081 12.3203C12.4532 12.3203 7.34074 20.5883 11.6931 28.8778C14.9923 35.1612 22.6595 40.7768 26.1764 43.1255Z" fill="#FA878F">
    <animateTransform attributeName="transform" attributeType="XML" type="scale" values="1;1.2;1" dur="1s" repeatCount="indefinite"/>
  </path>
  <path d="M26.8612 37.7228C27.5542 38.1983 28.4474 38.1983 29.1403 37.7228C31.3385 36.2119 36.1297 32.6025 38.1915 28.5632C40.9123 23.2347 37.7173 17.9194 33.4955 17.9194C31.0886 17.9194 29.6402 19.2279 28.8393 20.3518C28.4175 20.9441 27.584 20.9441 27.1608 20.3518C26.3599 19.2279 24.9115 17.9194 22.5046 17.9194C18.2828 17.9194 15.0878 23.2347 17.8085 28.5632C19.8704 32.6025 24.663 36.2119 26.8612 37.7228Z" fill="#EC4452">
    <animateTransform attributeName="transform" attributeType="XML" type="scale" values="1;1.2;1" dur="1s" repeatCount="indefinite"/>
  </path>
</svg>