<svg width="51" height="51" viewBox="0 0 51 51" fill="none" xmlns="http://www.w3.org/2000/svg">
<g clip-path="url(#clip0_363_3703)">
<path d="M23.455 45.5676C24.591 46.3186 26.0585 46.3186 27.1958 45.5676C30.8041 43.1834 38.667 37.488 42.0521 31.1142C46.5172 22.7056 41.2731 14.3174 34.3448 14.3174C30.3948 14.3174 28.0169 16.3816 26.7037 18.1551C26.0114 19.091 24.642 19.091 23.9497 18.1551C22.6352 16.3803 20.2586 14.3174 16.3086 14.3174C9.38025 14.3174 4.13618 22.7056 8.60123 31.1142C11.9864 37.488 19.8493 43.1847 23.4575 45.5676H23.455Z" fill="#EC4452"/>
<path d="M5.96105 16.374C5.88965 16.374 5.81697 16.3663 5.7443 16.351C5.20115 16.2312 4.85562 15.697 4.97165 15.1538C4.9895 15.0748 6.79872 7.1774 16.0858 8.48683C16.6392 8.5646 17.0242 9.0746 16.9464 9.62795C16.8687 10.1813 16.3561 10.5664 15.8053 10.4886C8.4116 9.44818 7.004 15.331 6.9479 15.5835C6.84207 16.054 6.42387 16.3753 5.96105 16.3753V16.374Z" fill="#EC4452"/>
<path d="M1.914 14.3312C1.84387 14.3312 1.77247 14.3236 1.70107 14.3083C1.15537 14.191 0.807297 13.6529 0.924597 13.1072C0.948822 12.9988 3.40702 2.27482 16.0869 4.05727C16.6402 4.13505 17.0253 4.64505 16.9475 5.19967C16.8697 5.75175 16.3572 6.13425 15.8051 6.0603C4.97145 4.53795 2.9799 13.1646 2.90085 13.5331C2.79885 14.0074 2.37937 14.3312 1.914 14.3312Z" fill="#EC4452"/>
<path d="M45.0385 16.3766C44.5732 16.3766 44.155 16.054 44.053 15.581C43.9956 15.3221 42.5867 9.45458 35.1955 10.4873C34.6409 10.5638 34.1322 10.1788 34.0544 9.62671C33.9766 9.07336 34.3617 8.56335 34.915 8.48558C44.1996 7.18253 46.0114 15.0735 46.0292 15.1526C46.1465 15.6983 45.7984 16.2363 45.2527 16.3536C45.1813 16.3689 45.1087 16.3766 45.0385 16.3766Z" fill="#EC4452"/>
<path d="M49.0865 14.3315C48.6211 14.3315 48.2029 14.0076 48.0996 13.5346C48.0168 13.1585 45.9729 4.55221 35.1954 6.06054C34.6331 6.13449 34.1307 5.75199 34.053 5.19991C33.9752 4.64656 34.3602 4.13656 34.9136 4.05751C47.5986 2.27634 50.0517 12.9991 50.0759 13.1075C50.1932 13.6532 49.8451 14.1912 49.2994 14.3085C49.228 14.3238 49.1566 14.3315 49.0865 14.3315Z" fill="#EC4452"/>
</g>
<defs>
<clipPath id="clip0_363_3703">
<rect width="51" height="51" fill="white"/>
</clipPath>
</defs>
</svg>
