<?xml version="1.0" encoding="UTF-8"?>
<svg id="Layer_1" data-name="Layer 1" xmlns="http://www.w3.org/2000/svg" viewBox="0 0 425.2 283.46">
  <defs>
    <style>
      .cls-1 {
        fill: #f8ab1a;
      }

      .cls-2 {
        fill: #fff;
      }

      .cls-3 {
        fill: #ea4435;
      }

      .cls-4 {
        fill: #547dbf;
      }

      .cls-5 {
        fill: #33a851;
      }
    </style>
  </defs>
  <polygon class="cls-3" points="62.99 214.08 144 125.3 144 5.56 1.41 5.56 1.41 72.76 88.91 63.26 1.41 230.64 1.41 277.9 144 277.9 144 209.29 62.99 214.08"/>
  <polygon class="cls-4" points="259.42 5.56 160 5.56 178.57 125.64 157.7 277.9 251.25 277.9 243.38 144.26 259.42 5.56"/>
  <polygon class="cls-5" points="423.78 134.81 423.78 5.56 379.47 5.56 387.5 134.81 423.78 134.81"/>
  <polygon class="cls-1" points="423.78 193.07 352.49 141.73 281.19 183.92 281.19 277.9 337.64 277.9 352.67 199.62 365.22 277.9 423.78 277.9 423.78 193.07"/>
  <path class="cls-4" d="M281.19,64.88v52.87l42.62,8.52c-.07-44.49-7.65-58.33-42.62-61.4Z"/>
  <path class="cls-3" d="M323.79,5.56h-42.6v57.87c34.03-2.98,42.13-16.17,42.6-57.87Z"/>
  <path class="cls-1" d="M366.44,63.43V5.56h-42.6c.47,41.7,8.57,54.88,42.6,57.87Z"/>
  <path class="cls-5" d="M366.44,64.88c-34.97,3.06-42.56,16.9-42.62,61.4l42.62,8.52v-69.92Z"/>
  <path class="cls-2" d="M323.82,126.88c0-.2,0-.39,0-.59h0c0,.2,0,.39,0,.59Z"/>
  <path class="cls-2" d="M366.44,64.88v-1.46c-34.03-2.98-42.13-16.17-42.6-57.87h-.05c-.47,41.7-8.57,54.88-42.6,57.87v1.46c34.97,3.06,42.56,16.9,42.62,61.4h0c.07-44.49,7.65-58.33,42.62-61.4Z"/>
</svg>