<svg width="19" height="19" viewBox="0 0 19 19" fill="none" xmlns="http://www.w3.org/2000/svg">
<path d="M16.9221 5.4834C16.163 5.2801 15.3831 5.7304 15.1798 6.48945L14.236 8.55475L13.2727 6.88655L10.6972 2.04298V2.04203C10.3756 1.43735 9.63606 1.20223 9.04468 1.51668C8.45331 1.83113 8.23433 2.57593 8.55591 3.1806L10.7718 7.34825L10.2403 7.6551L7.34514 3.02195C6.98224 2.4415 6.22794 2.25863 5.65984 2.61345C5.09174 2.96828 4.92549 3.72685 5.28839 4.3073L8.15549 8.89533L7.76408 9.28055L4.74689 5.6848C4.31559 5.17085 3.55036 5.1034 3.03736 5.53375C2.52436 5.9641 2.45786 6.7298 2.88916 7.24375L6.03033 10.9872L5.55106 11.4589L3.12429 8.94615C2.64739 8.45215 1.86981 8.42888 1.38816 8.89391C0.90651 9.35893 0.90271 10.1365 1.37961 10.6305L5.94388 15.3568L5.95149 15.3473C7.73701 17.6358 10.9765 18.3227 13.5619 16.8302C14.976 16.0137 15.9255 14.7013 16.3169 13.2397L17.9281 7.22618C18.1314 6.46713 17.6811 5.68718 16.9221 5.48388V5.4834Z" fill="#FFCCA8"/>
<path d="M14.6941 4.84434C14.4975 4.84434 14.3379 4.68474 14.3379 4.48809C14.3379 3.51957 13.5499 2.73154 12.5813 2.73154C12.3847 2.73154 12.2251 2.57194 12.2251 2.37529C12.2251 2.17864 12.3847 2.01904 12.5813 2.01904C13.9427 2.01904 15.0504 3.12674 15.0504 4.48809C15.0504 4.68474 14.8908 4.84434 14.6941 4.84434Z" fill="#CECFCF"/>
<path d="M16.073 4.64698C15.8763 4.64698 15.7167 4.48738 15.7167 4.29073C15.7167 2.72323 14.4413 1.44785 12.8738 1.44785C12.6772 1.44785 12.5176 1.28825 12.5176 1.0916C12.5176 0.894952 12.6772 0.735352 12.8738 0.735352C14.8342 0.735352 16.4292 2.3304 16.4292 4.29073C16.4292 4.48738 16.2696 4.64698 16.073 4.64698Z" fill="#CECFCF"/>
<path d="M13.7713 9.25537L12.6598 9.8971C11.7512 10.422 11.4396 11.5838 11.9644 12.4925L12.229 12.9509C12.4238 11.619 12.9458 10.3426 13.7713 9.25537Z" fill="#E68E51"/>
</svg>
