<svg width="222" height="166" viewBox="0 0 222 166" fill="none" xmlns="http://www.w3.org/2000/svg">
<g opacity="0.4">
<path d="M96.1359 57.5013L96.1359 57.5012C90.0564 50.0323 79.0765 48.9062 71.6117 54.9861L27.5117 90.904C20.0469 96.9839 18.9239 107.967 25.0034 115.436L25.0035 115.436C31.083 122.905 42.0629 124.031 49.5277 117.951L93.6276 82.0335C101.092 75.9536 102.215 64.9702 96.1359 57.5013Z" fill="white" fill-opacity="0.5"/>
<path d="M113.563 123.572L113.563 123.572C115.778 114.2 109.978 104.804 100.609 102.586L40.7631 88.4177C31.3942 86.1996 22.0035 91.9988 19.7884 101.371L19.7884 101.371C17.5733 110.742 23.3728 120.138 32.7417 122.356L92.5878 136.524C101.957 138.743 111.347 132.943 113.563 123.572Z" fill="white" fill-opacity="0.5"/>
</g>
<g opacity="0.4">
<path d="M166.454 106.652L166.454 106.652C173.462 113.185 184.436 112.799 190.964 105.79L229.533 64.3824C236.062 57.3734 235.673 46.3958 228.665 39.8633L228.665 39.8632C221.656 33.3307 210.683 33.7169 204.154 40.7259L165.586 82.1331C159.057 89.1421 159.446 100.12 166.454 106.652Z" fill="white" fill-opacity="0.5"/>
<path d="M140.284 43.9125L140.284 43.9126C139.377 53.4506 146.371 61.9199 155.906 62.8293L216.812 68.6387C226.346 69.5481 234.811 62.5533 235.718 53.0153L235.718 53.0153C236.625 43.4773 229.63 35.008 220.096 34.0985L159.19 28.2892C149.655 27.3797 141.19 34.3745 140.284 43.9125Z" fill="white" fill-opacity="0.5"/>
</g>
</svg>
